<svg xmlns="http://www.w3.org/2000/svg" xmlns:xlink="http://www.w3.org/1999/xlink" fill="none" version="1.1" width="32" height="32" viewBox="0 0 32 32"><defs><clipPath id="master_svg0_702_27867"><rect x="0" y="0" width="32" height="32" rx="8"/></clipPath><linearGradient x1="0.5" y1="0" x2="0.5" y2="1" id="master_svg1_363_148705"><stop offset="0%" stop-color="#689FFF" stop-opacity="1"/><stop offset="100%" stop-color="#186DFF" stop-opacity="1"/></linearGradient><radialGradient cx="0" cy="0" r="1" gradientUnits="userSpaceOnUse" id="master_svg2_363_148715" gradientTransform="translate(16.04761791229248 14.886260032653809) rotate(90) scale(4.13010311126709 4.238042831420898)"><stop offset="0%" stop-color="#609AFF" stop-opacity="1"/><stop offset="100%" stop-color="#1B6FFF" stop-opacity="1"/></radialGradient><linearGradient x1="0.5" y1="0" x2="0.5" y2="1" id="master_svg3_363_122826"><stop offset="0%" stop-color="#FFC8B9" stop-opacity="0.47999998927116394"/><stop offset="100%" stop-color="#FD8260" stop-opacity="1"/></linearGradient><linearGradient x1="0.5" y1="0" x2="0.5" y2="1" id="master_svg4_363_026020"><stop offset="0%" stop-color="#E4ECFF" stop-opacity="0.47999998927116394"/><stop offset="100%" stop-color="#1E60FA" stop-opacity="1"/></linearGradient></defs><g style="mix-blend-mode:passthrough" clip-path="url(#master_svg0_702_27867)"><rect x="0" y="0" width="32" height="32" rx="8" fill="#FFFFFF" fill-opacity="1"/><g style="mix-blend-mode:passthrough"><g style="mix-blend-mode:passthrough"><path d="M16.0001220703125,5.465911865234375L10.5661420703125,5.617213865234375Q10.571412070312501,5.681227865234375,10.571412070312501,5.745314865234375Q10.571412070312501,5.875717865234375,10.5496320703125,6.005491865234375Q10.5278420703125,6.135266865234375,10.4844920703125,6.263163865234375Q10.4411320703125,6.391060865234375,10.3766220703125,6.515851865234375Q10.3121120703125,6.640631865234375,10.227062070312499,6.7611118652343745Q10.1420120703125,6.881591865234375,10.037252070312501,6.996591865234375Q9.9324920703125,7.111601865234375,9.8090220703125,7.220021865234375Q9.6855520703125,7.328451865234375,9.5445620703125,7.4292518652343755Q9.403582070312499,7.530051865234375,9.2464320703125,7.622261865234375Q9.0892920703125,7.7144718652343744,8.9174920703125,7.797191865234375Q8.7457020703125,7.879921865234375,8.5609220703125,7.952371865234375Q8.3761320703125,8.024821865234376,8.180142070312499,8.086291865234376Q7.9841420703125,8.147761865234376,7.7788220703125,8.197661865234375Q7.5735020703125,8.247571865234375,7.3608320703125,8.285421865234376Q7.1481620703125,8.323271865234375,6.9301980703125,8.348711865234375Q6.7122300703125,8.374151865234374,6.4910620703125,8.386941865234375Q6.2698950703125,8.399721865234374,6.0476569703125,8.399721865234374Q6.0239505703125,8.399721865234374,6.0002450943125,8.399571865234375L6.0002450943125,14.190171865234374Q6.4050020703125,18.621911865234374,8.9049720703125,21.707911865234376Q11.4049420703125,24.793911865234374,16.0001220703125,26.534111865234376Q20.5953220703125,24.793911865234374,23.0952220703125,21.707911865234376Q25.5952220703125,18.621911865234374,26.0000220703125,14.190171865234374L26.0000220703125,8.399571865234375Q25.9763220703125,8.399721865234374,25.9526220703125,8.399721865234374Q25.7303220703125,8.399721865234374,25.5092220703125,8.386941865234375Q25.2880220703125,8.374151865234374,25.0700220703125,8.348711865234375Q24.8521220703125,8.323271865234375,24.6394220703125,8.285421865234376Q24.4267220703125,8.247571865234375,24.2214220703125,8.197661865234375Q24.0161220703125,8.147761865234376,23.8201220703125,8.086291865234376Q23.6241220703125,8.024821865234376,23.4393220703125,7.952371865234375Q23.2545220703125,7.879921865234375,23.0827220703125,7.797191865234375Q22.9109220703125,7.7144718652343744,22.7538220703125,7.622261865234375Q22.5966220703125,7.530051865234375,22.4557220703125,7.4292518652343755Q22.3147220703125,7.328451865234375,22.1912220703125,7.220021865234375Q22.0677220703125,7.111601865234375,21.963022070312498,6.996591865234375Q21.8582220703125,6.881591865234375,21.7732220703125,6.7611118652343745Q21.688122070312502,6.640631865234375,21.6236220703125,6.515851865234375Q21.559122070312497,6.391060865234375,21.5157220703125,6.263163865234375Q21.4724220703125,6.135266865234375,21.450622070312498,6.005491865234375Q21.4288220703125,5.875717865234375,21.4288220703125,5.745314865234375Q21.4288220703125,5.681227865234375,21.434122070312497,5.617213865234375L16.0001220703125,5.465911865234375Z" fill-rule="evenodd" fill="url(#master_svg1_363_148705)" fill-opacity="1"/></g><g style="mix-blend-mode:passthrough" transform="matrix(-1,0,0,-1,47.142669677734375,42.11642837524414)"><path d="M30.76172483886719,36.65051418762207L30.76172483886719,27.60141418762207L30.999814838867188,27.60141418762207L30.842444838867188,27.78007418762207L23.413960838867187,21.23688018762207L23.72870883886719,20.87954818762207L31.237904838867188,27.49384418762207L31.237904838867188,36.65051418762207L30.76172483886719,36.65051418762207ZM38.82093483886719,21.239315187622072L31.154384838867188,27.78251418762207L30.845254838867188,27.42031418762207L38.51183483886719,20.87711318762207L38.82093483886719,21.239315187622072Z" fill="#FFFFFF" fill-opacity="1"/></g><g style="mix-blend-mode:passthrough"><ellipse cx="16.04761791229248" cy="14.886260032653809" rx="4.238042831420898" ry="4.13010311126709" fill="url(#master_svg2_363_148715)" fill-opacity="1"/><ellipse cx="16.04761791229248" cy="14.886260032653809" rx="4.4761351346969604" ry="4.368195414543152" fill-opacity="0" stroke-opacity="1" stroke="#FFFFFF" fill="none" stroke-width="0.476184606552124"/></g><g style="mix-blend-mode:passthrough"><ellipse cx="19.666621029376984" cy="12.47316563129425" rx="0.8095138669013977" ry="0.7888962030410767" fill="#FFFFFF" fill-opacity="1"/><ellipse cx="19.666621029376984" cy="12.47316563129425" rx="0.7618954069912434" ry="0.7412777431309223" fill-opacity="0" stroke-opacity="1" stroke="#FFFFFF" fill="none" stroke-width="0.09523691982030869"/></g><g style="mix-blend-mode:passthrough"><g style="mix-blend-mode:passthrough"><path d="M13.809550285339355,15.468322597198487L15.061240285339355,15.468322597198487L16.312920285339356,11.869892597198486L15.061240285339355,11.869892597198486L13.809550285339355,15.468322597198487Z" fill="url(#master_svg3_363_122826)" fill-opacity="1"/></g><g style="mix-blend-mode:passthrough"><path d="M14.873525261878967,17.907932597198485L16.125215261878967,17.907932597198485L18.19049526187897,11.869892597198486L16.93880526187897,11.869892597198486L14.873525261878967,17.907932597198485Z" fill="url(#master_svg4_363_026020)" fill-opacity="1"/></g></g></g></g></svg>