<svg xmlns="http://www.w3.org/2000/svg" fill="none" viewBox="0 0 40 40" class="design-iconfont">
  <path d="M27.3143 29.4792H12.6901C11.4897 29.4792 10.513 28.5025 10.513 27.3021V20.0277C10.513 18.8273 11.4897 17.8506 12.6901 17.8506H27.3143C28.5147 17.8506 29.4914 18.8273 29.4914 20.0277V27.3021C29.4914 28.5025 28.5149 29.4792 27.3143 29.4792ZM12.6901 19.2256C12.2478 19.2256 11.888 19.5854 11.888 20.0277V27.3021C11.888 27.7444 12.2478 28.1042 12.6901 28.1042H27.3143C27.7566 28.1042 28.1164 27.7444 28.1164 27.3021V20.0277C28.1164 19.5854 27.7566 19.2256 27.3143 19.2256H12.6901Z" fill="#000"/>
  <path d="M25.0722 19.2139H23.6972V15.5915C23.6972 13.5489 22.0355 11.8872 19.9929 11.8872C17.9503 11.8872 16.2889 13.5489 16.2889 15.5915V19.2139H14.9139V15.5915C14.9139 14.2396 15.4435 12.9654 16.4053 12.0036C17.3671 11.0418 18.6413 10.5122 19.9931 10.5122C21.345 10.5122 22.6191 11.0418 23.581 12.0036C24.5428 12.9654 25.0724 14.2396 25.0724 15.5915V19.2139H25.0722ZM20.0229 26.5495C19.6432 26.5495 19.3354 26.2417 19.3354 25.862V21.4677C19.3354 21.088 19.6432 20.7802 20.0229 20.7802C20.4026 20.7802 20.7104 21.088 20.7104 21.4677V25.862C20.7104 26.2417 20.4026 26.5495 20.0229 26.5495Z" fill="#000"/>
</svg>
