<svg xmlns="http://www.w3.org/2000/svg" fill="none" viewBox="0 0 40 40" class="design-iconfont">
  <path d="M24.0172 9.45H15.9828C13.8341 9.45 12.075 11.2091 12.075 13.3578V26.6422C12.075 28.7909 13.8341 30.55 15.9828 30.55H24.0172C26.1659 30.55 27.925 28.7909 27.925 26.6422V13.3578C27.925 11.2091 26.1659 9.45 24.0172 9.45ZM26.8078 26.6422C26.8078 28.1802 25.5552 29.4328 24.0172 29.4328H15.9828C14.4448 29.4328 13.1922 28.1802 13.1922 26.6422V26.35H26.8078V26.6422ZM13.1922 25.2V13.3578C13.1922 11.8198 14.4448 10.5672 15.9828 10.5672H24.0172C25.5552 10.5672 26.8078 11.8198 26.8078 13.3578V25.2H13.1922Z" fill="#000" stroke="#000" stroke-width=".1"/>
  <path d="M22.1469 11.6001H17.8531C17.5883 11.6001 17.375 11.8157 17.375 12.0782V12.1696C17.375 12.4345 17.5906 12.6478 17.8531 12.6478H22.1445C22.4094 12.6478 22.6227 12.4321 22.6227 12.1696V12.0782C22.625 11.8157 22.4094 11.6001 22.1469 11.6001Z" fill="#000"/>
  <path d="M18.95 27.8752C18.95 28.0131 18.9772 28.1496 19.0299 28.277C19.0827 28.4044 19.16 28.5202 19.2576 28.6177C19.3551 28.7152 19.4708 28.7925 19.5982 28.8453C19.7256 28.898 19.8621 28.9252 20 28.9252C20.1379 28.9252 20.2744 28.898 20.4018 28.8453C20.5292 28.7925 20.645 28.7152 20.7425 28.6177C20.84 28.5202 20.9173 28.4044 20.9701 28.277C21.0229 28.1496 21.05 28.0131 21.05 27.8752C21.05 27.5967 20.9394 27.3296 20.7425 27.1327C20.5456 26.9358 20.2785 26.8252 20 26.8252C19.7215 26.8252 19.4545 26.9358 19.2576 27.1327C19.0606 27.3296 18.95 27.5967 18.95 27.8752Z" fill="#000"/>
</svg>
