<svg xmlns="http://www.w3.org/2000/svg" xmlns:xlink="http://www.w3.org/1999/xlink" fill="none" version="1.1" width="21.8388671875" height="21.8388671875" viewBox="0 0 21.8388671875 21.8388671875"><defs><linearGradient x1="0.09374590963125229" y1="0.11319590359926224" x2="0.9248279929161072" y2="0.8679687976837158" id="master_svg0_6836_2121"><stop offset="0%" stop-color="#11998E" stop-opacity="1"/><stop offset="99.99997615814209%" stop-color="#38EF7D" stop-opacity="1"/></linearGradient><linearGradient x1="0" y1="0.5" x2="0.9248279929161072" y2="0.8679687976837158" id="master_svg1_6836_2327"><stop offset="0%" stop-color="#1FB988" stop-opacity="1"/><stop offset="100%" stop-color="#2FD981" stop-opacity="1"/></linearGradient></defs><g style="mix-blend-mode:passthrough"><g style="mix-blend-mode:passthrough"><g style="mix-blend-mode:passthrough"><ellipse cx="10.919379234313965" cy="10.919413566589355" rx="10.919379234313965" ry="10.919413566589355" fill="url(#master_svg0_6836_2121)" fill-opacity="1"/></g><g style="mix-blend-mode:passthrough"><path d="M3.3032631874084473,18.74469113559723C4.3911994374084475,19.812491135597227,5.685079437408447,20.62379113559723,7.109899437408448,21.15629113559723C8.722259437408447,16.583791135597227,9.913319437408447,11.810291135597229,10.706249437408447,9.568521135597228C10.706249437408447,9.568521135597228,10.810759437408446,9.569861135597229,10.810759437408446,9.569861135597229C11.950989437408447,13.026991135597228,13.077139437408448,17.87269113559723,14.204669437408448,21.33409113559723C15.734469437408448,20.83869113559723,17.148269437408448,20.05529113559723,18.320869437408447,18.94979113559723C17.76996943740845,18.06729113559723,17.375969437408447,17.42459113559723,17.146769437408448,17.048391135597228C15.183569437408448,13.816691135597228,13.701069437408448,10.36884113559723,12.646999437408446,6.734221135597229C12.251639437408448,5.371491135597229,11.874729437408448,4.0030311355972295,11.497789437408446,2.634491135597229Q11.322909437408446,1.999681135597229,10.971369437408448,0.7305741355972291L10.858049437408447,0.419991135597229Q10.756639437408447,0.601906135597229,10.727069437408447,0.692769135597229C10.667119437408449,0.876987135597229,10.607129437408446,1.0612951355972289,10.553829437408448,1.247751135597229C9.665699437408447,4.367251135597229,8.733379437408448,7.474431135597229,7.568489437408448,10.501591135597229C6.470209437408448,13.35559113559723,5.011529437408448,16.02699113559723,3.3876035374084474,18.608091135597228C3.3876035374084474,18.608091135597228,3.3032631874084473,18.74469113559723,3.3032631874084473,18.74469113559723C3.3032631874084473,18.74469113559723,3.3032631874084473,18.74469113559723,3.3032631874084473,18.74469113559723Z" fill-rule="evenodd" fill="#FFFFFF" fill-opacity="1"/></g></g><g style="mix-blend-mode:passthrough"><path d="M10.728280121116638,15.244551093750001Q15.436900121116638,15.244551093750001,19.30480012111664,17.91649109375Q19.830100121116637,17.26740109375,20.084000121116638,16.87401109375Q20.33780012111664,16.48062109375,20.695700121116637,15.78659109375Q15.004700121116638,12.55561509375,10.728280121116638,12.76853489375Q5.271640121116638,12.76853519375,1.1501494311166383,15.79646109375Q1.4921581211166381,16.48478109375,1.7632401211166382,16.89470109375Q2.034322121116638,17.30461109375,2.5353801211166385,17.91650109375Q7.233940121116638,15.06453109375,10.728280121116638,15.244551093750001Z" fill-rule="evenodd" fill="#FFFFFF" fill-opacity="1"/></g><g style="mix-blend-mode:passthrough"><path d="M19.574301429367065,16.960314045715332Q18.628501429367066,16.47423404571533,17.737401429367065,16.074894045715332L17.962401429367066,15.572784045715332Q18.866901429367065,15.978144045715332,19.825801429367065,16.47093404571533L19.574301429367065,16.960314045715332ZM15.630401429367065,15.224694045715331Q13.648501429367066,14.520584045715331,11.987861429367065,14.320345045715332L12.053731429367065,13.774079045715332Q13.775101429367066,13.981637945715333,15.814601429367066,14.706216045715331L15.630401429367065,15.224694045715331ZM9.890231429367066,14.276556045715331Q8.201141429367066,14.418946045715332,6.260031429367066,15.129274045715333L6.070941429367066,14.612563045715332Q8.081371429367065,13.876868045715332,9.844011429367065,13.728277045715332L9.890231429367066,14.276556045715331ZM4.191721429367066,16.01269404571533Q3.3227614293670653,16.43369404571533,2.4100604293670655,16.954564045715333L2.1373424293670653,16.47668404571533Q3.0661544293670655,15.946624045715332,3.9518214293670653,15.517524045715332L4.191721429367066,16.01269404571533Z" fill="#F5CD2A" fill-opacity="1"/></g><g style="mix-blend-mode:passthrough"><path d="M10.872820762634277,12.769865718688965Q13.873400762634278,12.769866718688965,16.55997076263428,13.825285718688965L16.86177076263428,13.057095718688965Q14.029690762634278,11.944525981057964,10.872820762634277,11.944525718688965Q8.121490762634277,11.944525718688965,5.550070762634277,12.684819718688965L5.7784037626342775,13.477945718688964Q8.237930762634278,12.769865718688965,10.872820762634277,12.769865718688965Z" fill-rule="evenodd" fill="url(#master_svg1_6836_2327)" fill-opacity="1"/></g></g></svg>