<svg xmlns="http://www.w3.org/2000/svg" xmlns:xlink="http://www.w3.org/1999/xlink" fill="none" version="1.1" width="82" height="82" viewBox="0 0 82 82"><defs><linearGradient x1="0.8387103080749512" y1="1.0000004768371582" x2="0.09212645143270493" y2="0.27144312858581543" id="master_svg0_2436_0618"><stop offset="0%" stop-color="#29B027" stop-opacity="1"/><stop offset="100%" stop-color="#8AFF69" stop-opacity="1"/></linearGradient><filter id="master_svg1_3308_0714" filterUnits="objectBoundingBox" color-interpolation-filters="sRGB" x="0" y="0" width="46.64540481567383" height="46.91157150268555"><feFlood flood-opacity="0" result="BackgroundImageFix"/><feBlend mode="normal" in="SourceGraphic" in2="BackgroundImageFix" result="shape"/><feGaussianBlur in="BackgroundImage" stdDeviation="5"/><feComposite in2="SourceAlpha" operator="in" result="effect1_foregroundBlur"/><feBlend mode="normal" in="SourceGraphic" in2="effect1_foregroundBlur" result="shape"/></filter><linearGradient x1="0.5" y1="-3.0616171314629196e-17" x2="0.5" y2="1" id="master_svg2_3_45745"><stop offset="0%" stop-color="#FFFFFF" stop-opacity="1"/><stop offset="100%" stop-color="#FFFFFF" stop-opacity="0"/></linearGradient><filter id="master_svg3_3308_0715" filterUnits="objectBoundingBox" color-interpolation-filters="sRGB" x="0" y="0" width="7.86747932434082" height="7.551553726196289"><feFlood flood-opacity="0" result="BackgroundImageFix"/><feBlend mode="normal" in="SourceGraphic" in2="BackgroundImageFix" result="shape"/><feGaussianBlur in="BackgroundImage" stdDeviation="15.672935485839844"/><feComposite in2="SourceAlpha" operator="in" result="effect1_foregroundBlur"/><feBlend mode="normal" in="SourceGraphic" in2="effect1_foregroundBlur" result="shape"/></filter><linearGradient x1="0.2798157036304474" y1="0.6066086292266846" x2="0.995415210723877" y2="0.42971232533454895" id="master_svg4_3_45753"><stop offset="0%" stop-color="#FFFFFF" stop-opacity="0.6299999952316284"/><stop offset="100%" stop-color="#FFFFFF" stop-opacity="0"/></linearGradient><linearGradient x1="0.1515638828277588" y1="0.4427172839641571" x2="0.9292990565299988" y2="0.36343422532081604" id="master_svg5_3_45755"><stop offset="0%" stop-color="#FFFFFF" stop-opacity="0"/><stop offset="100%" stop-color="#FFFFFF" stop-opacity="0"/></linearGradient></defs><g style="mix-blend-mode:passthrough"><g style="mix-blend-mode:passthrough"><path d="M73.507,18.768Q73.8476,18.9646,74.1596,19.204Q74.4716,19.4434,74.7497,19.7215Q75.0278,19.9995,75.2672,20.3115Q75.5066,20.6235,75.7032,20.9641Q75.8998,21.3047,76.0503,21.668Q76.2008,22.0313,76.3026,22.4112Q76.4044,22.791,76.4557,23.1809Q76.507,23.5708,76.507,23.9641L76.507,58.0359Q76.507,58.4292,76.4557,58.8191Q76.4044,59.209,76.3026,59.5888Q76.2008,59.9687,76.0503,60.332Q75.8998,60.6953,75.7032,61.0359Q75.5066,61.3765,75.2672,61.6885Q75.0278,62.0005,74.7497,62.2785Q74.4716,62.5566,74.1596,62.796Q73.8476,63.0354,73.507,63.2321L44,80.268Q43.6594,80.4646,43.2961,80.6151Q42.9328,80.7656,42.5529,80.8674Q42.173,80.9691,41.7832,81.0205Q41.3933,81.0718,41,81.0718Q40.6067,81.0718,40.2168,81.0205Q39.827,80.9691,39.4471,80.8674Q39.0672,80.7656,38.7039,80.6151Q38.3406,80.4646,38,80.268L8.49296,63.2321Q8.15238,63.0354,7.84039,62.796Q7.5284,62.5566,7.25032,62.2785Q6.97224,62.0005,6.73284,61.6885Q6.49344,61.3765,6.29681,61.0359Q6.10018,60.6953,5.94968,60.332Q5.79919,59.9687,5.6974,59.5888Q5.59562,59.209,5.54429,58.8191Q5.49296,58.4292,5.49296,58.0359L5.49296,23.9641Q5.49296,23.5708,5.54429,23.1809Q5.59562,22.7911,5.6974,22.4112Q5.79919,22.0313,5.94968,21.668Q6.10017,21.3047,6.2968,20.9641Q6.49344,20.6235,6.73284,20.3115Q6.97224,19.9995,7.25032,19.7215Q7.52839,19.4434,7.84039,19.204Q8.15238,18.9646,8.49296,18.768L38,1.73205Q38.3406,1.53542,38.7039,1.38493Q39.0672,1.23443,39.4471,1.13265Q39.827,1.03087,40.2168,0.979534Q40.6067,0.928203,41,0.928203Q41.3933,0.928203,41.7832,0.979534Q42.173,1.03086,42.5529,1.13265Q42.9328,1.23443,43.2961,1.38493Q43.6594,1.53542,44,1.73205L73.507,18.768Z" fill="#F3FDEA" fill-opacity="1"/></g><g style="mix-blend-mode:passthrough"><g style="mix-blend-mode:passthrough"><path d="M33.444900000000004,20.02427C34.2705,18.37197,36.6411,18.37197,37.4667,20.02427C37.4667,20.02427,41.855000000000004,28.8064,41.855000000000004,28.8064C42.1819,29.4607,42.810199999999995,29.9145,43.537099999999995,30.0215C43.537099999999995,30.0215,53.2931,31.4576,53.2931,31.4576C55.1286,31.7277,55.8611,33.9694,54.5358,35.2607C54.5358,35.2607,47.492,42.1244,47.492,42.1244C46.9672,42.6358,46.7273,43.3701,46.8495,44.090599999999995C46.8495,44.090599999999995,48.4907,53.7602,48.4907,53.7602C48.7995,55.5791,46.8826,56.9643,45.238,56.1112C45.2372,56.1108,45.2378,56.1111,45.237,56.1107C45.2309,56.1075,36.4953,51.5706,36.4953,51.5706C35.8441,51.2324,35.067499999999995,51.2324,34.4163,51.5706C34.4163,51.5706,25.674599999999998,56.1107,25.674599999999998,56.1107C24.0298,56.9649,22.112099999999998,55.5794,22.4209,53.7602C22.4209,53.7602,24.0621,44.090599999999995,24.0621,44.090599999999995C24.1844,43.3701,23.9444,42.6358,23.419600000000003,42.1244C23.419600000000003,42.1244,16.37577,35.2607,16.37577,35.2607C15.0505,33.9694,15.78302,31.7277,17.61857,31.4576C17.61857,31.4576,27.374499999999998,30.0215,27.374499999999998,30.0215C28.1014,29.9145,28.7297,29.4607,29.0566,28.8064C29.0566,28.8064,33.444900000000004,20.02427,33.444900000000004,20.02427Z" fill="url(#master_svg0_2436_0618)" fill-opacity="1"/></g><g style="mix-blend-mode:passthrough" transform="matrix(0.013180362060666084,0.9999130368232727,-0.9999130368232727,0.013191222213208675,86.20905149496036,-51.865815310400436)" filter="url(#master_svg1_3308_0714)"><path d="M90.70462776489258,21.790879111518862C91.52552776489259,20.12914911151886,93.88272776489258,20.12914911151886,94.70362776489257,21.790879111518862C94.70362776489257,21.790879111518862,99.06702776489257,30.62303911151886,99.06702776489257,30.62303911151886C99.39212776489258,31.28113911151886,100.01682776489258,31.73753911151886,100.73952776489259,31.84513911151886C100.73952776489259,31.84513911151886,110.44022776489257,33.28943911151886,110.44022776489257,33.28943911151886C112.26532776489258,33.56113911151886,112.99362776489258,35.81553911151886,111.67582776489257,37.114239111518856C111.67582776489257,37.114239111518856,104.67202776489258,44.01713911151886,104.67202776489258,44.01713911151886C104.15022776489258,44.531439111518864,103.91162776489259,45.26993911151886,104.03322776489259,45.99453911151886C104.03322776489259,45.99453911151886,105.66502776489259,55.71933911151886,105.66502776489259,55.71933911151886C105.97212776489258,57.54893911151886,104.06522776489257,58.94233911151886,102.42982776489258,58.08323911151886C102.42982776489258,58.08323911151886,93.73772776489258,53.51723911151886,93.73772776489258,53.51723911151886C93.09022776489257,53.17703911151886,92.31802776489258,53.17703911151886,91.67052776489258,53.51723911151886C91.67052776489258,53.51723911151886,82.97842776489257,58.08323911151886,82.97842776489257,58.08323911151886C81.34302776489258,58.94233911151886,79.43612776489257,57.54893911151886,79.74322776489258,55.71933911151886C79.74322776489258,55.71933911151886,81.37502776489258,45.99453911151886,81.37502776489258,45.99453911151886C81.49672776489258,45.26993911151886,81.25802776489257,44.531439111518864,80.73622776489258,44.01713911151886C80.73622776489258,44.01713911151886,73.73236776489257,37.114239111518856,73.73236776489257,37.114239111518856C72.41461776489258,35.81553911151886,73.14298776489258,33.56113911151886,74.96810776489258,33.28943911151886C74.96810776489258,33.28943911151886,84.66872776489258,31.84513911151886,84.66872776489258,31.84513911151886C85.39142776489258,31.73753911151886,86.01612776489257,31.28113911151886,86.34122776489258,30.62303911151886C86.34122776489258,30.62303911151886,90.70462776489258,21.790879111518862,90.70462776489258,21.790879111518862C90.70462776489258,21.790879111518862,90.70462776489258,21.790879111518862,90.70462776489258,21.790879111518862Z" fill="#C5FFBC" fill-opacity="0.6000000238418579"/><path d="M99.06702776489257,30.62303911151886L94.70362776489257,21.790879111518862C93.88272776489258,20.12914911151886,91.52552776489259,20.12914911151886,90.70462776489258,21.790879111518862L86.34122776489258,30.62303911151886C86.01612776489257,31.28113911151886,85.39142776489258,31.73753911151886,84.66872776489258,31.84513911151886L74.96810776489258,33.28943911151886C73.14298776489258,33.56113911151886,72.41461776489258,35.81553911151886,73.73236776489257,37.114239111518856L80.73622776489258,44.01713911151886C81.25802776489257,44.531439111518864,81.49672776489258,45.26993911151886,81.37502776489258,45.99453911151886L79.74322776489258,55.71933911151886C79.43612776489257,57.54893911151886,81.34302776489258,58.94233911151886,82.97842776489257,58.08323911151886L91.67052776489258,53.51723911151886C92.31802776489258,53.17703911151886,93.09022776489257,53.17703911151886,93.73772776489258,53.51723911151886L102.42982776489258,58.08323911151886C104.06522776489257,58.94233911151886,105.97212776489258,57.54893911151886,105.66502776489259,55.71933911151886L104.03322776489259,45.99453911151886C103.91162776489259,45.26993911151886,104.15022776489258,44.531439111518864,104.67202776489258,44.01713911151886L111.67582776489257,37.114239111518856C112.99362776489258,35.81553911151886,112.26532776489258,33.56113911151886,110.44022776489257,33.28943911151886L100.73952776489259,31.84513911151886C100.01682776489258,31.73753911151886,99.39212776489258,31.28113911151886,99.06702776489257,30.62303911151886ZM88.13442776489258,31.50893911151886L92.49772776489257,22.67672911151886Q92.56302776489258,22.54457911151886,92.70412776489258,22.54457911151886Q92.84522776489257,22.54457911151886,92.91052776489258,22.67674911151886L97.27392776489258,31.50893911151886Q97.73492776489257,32.442139111518856,98.57422776489258,33.05543911151886Q99.41552776489257,33.670139111518864,100.44512776489258,33.82333911151886L110.14562776489258,35.26763911151886Q110.28732776489258,35.288739111518865,110.33342776489258,35.43153911151886Q110.38192776489258,35.58143911151886,110.27202776489258,35.689839111518864L103.26812776489257,42.592639111518864Q102.52802776489258,43.32223911151886,102.20822776489257,44.31213911151886Q101.88882776489257,45.30063911151886,102.06072776489258,46.32543911151886L103.69262776489258,56.05023911151886Q103.71862776489257,56.20503911151886,103.59592776489258,56.29473911151886Q103.48292776489258,56.37723911151886,103.35982776489257,56.31263911151886L94.66782776489258,51.74673911151886Q93.74542776489258,51.26213911151886,92.70412776489258,51.26213911151886Q91.66282776489258,51.26213911151886,90.74032776489258,51.74673911151886L82.04832776489258,56.31263911151886Q81.92532776489259,56.37723911151886,81.81232776489257,56.29473911151886Q81.68962776489258,56.20503911151886,81.71562776489257,56.05033911151886L83.34752776489258,46.325539111518864Q83.51952776489257,45.30083911151886,83.20002776489258,44.31203911151886Q82.88022776489258,43.32223911151886,82.14022776489259,42.59273911151886L75.13626776489258,35.689839111518864Q75.02635776489258,35.581539111518865,75.07479776489258,35.43153911151886Q75.12095776489258,35.288739111518865,75.26260776489258,35.26763911151886L84.96322776489258,33.82333911151886Q85.99272776489258,33.670139111518864,86.83402776489258,33.05543911151886Q87.67332776489258,32.442139111518856,88.13442776489258,31.50893911151886Z" fill-rule="evenodd" fill="url(#master_svg2_3_45745)" fill-opacity="1"/></g><g style="mix-blend-mode:passthrough" transform="matrix(0.013180362060666084,0.9999130368232727,-0.9999130368232727,0.0131912250071764,87.03526178877385,-13.414253723116971)" filter="url(#master_svg3_3308_0715)"><path d="M54.00429904174805,37.54407292919922C54.100319041748044,37.33612902919922,54.39425904174804,37.33612902919922,54.49028904174805,37.54407292919922C54.49028904174805,37.54407292919922,55.45663904174805,39.636784929199216,55.45663904174805,39.636784929199216C55.49567904174805,39.72132492919922,55.57539904174805,39.77957492919922,55.66739904174805,39.79078492919922C55.66739904174805,39.79078492919922,57.94501904174805,40.06841492919922,57.94501904174805,40.06841492919922C58.17133904174805,40.09599492919922,58.262169041748045,40.37715492919922,58.095199041748046,40.53324492919922C58.095199041748046,40.53324492919922,56.414819041748046,42.10424492919922,56.414819041748046,42.10424492919922C56.346939041748044,42.16770492919922,56.31648904174805,42.26194492919922,56.334319041748046,42.35341492919922C56.334319041748046,42.35341492919922,56.77560904174805,44.61771492919922,56.77560904174805,44.61771492919922C56.819449041748044,44.842704929199215,56.581649041748044,45.016464929199216,56.38242904174805,44.90499492919922C56.38242904174805,44.90499492919922,54.37753904174805,43.783204929199215,54.37753904174805,43.783204929199215C54.296549041748044,43.73788492919922,54.19802904174804,43.73788492919922,54.11702904174805,43.783204929199215C54.11702904174805,43.783204929199215,52.11214904174805,44.90499492919922,52.11214904174805,44.90499492919922C51.91292904174804,45.016464929199216,51.67511904174805,44.842704929199215,51.718969041748046,44.61771492919922C51.718969041748046,44.61771492919922,52.16025904174805,42.35341492919922,52.16025904174805,42.35341492919922C52.178089041748045,42.26194492919922,52.14763904174805,42.16770492919922,52.07975904174805,42.10424492919922C52.07975904174805,42.10424492919922,50.399377441748044,40.53324492919922,50.399377441748044,40.53324492919922C50.232406341748046,40.37715492919922,50.32324129174805,40.09599492919922,50.549557041748045,40.06841492919922C50.549557041748045,40.06841492919922,52.827179041748046,39.79078492919922,52.827179041748046,39.79078492919922C52.91918904174805,39.77957492919922,52.99889904174805,39.72132492919922,53.03792904174804,39.636784929199216C53.03792904174804,39.636784929199216,54.00429904174805,37.54407292919922,54.00429904174805,37.54407292919922C54.00429904174805,37.54407292919922,54.00429904174805,37.54407292919922,54.00429904174805,37.54407292919922Z" fill="url(#master_svg4_3_45753)" fill-opacity="1"/><path d="" fill="url(#master_svg5_3_45755)" fill-opacity="1"/></g></g></g></svg>