<svg xmlns="http://www.w3.org/2000/svg" xmlns:xlink="http://www.w3.org/1999/xlink" fill="none" version="1.1" width="82" height="82" viewBox="0 0 82 82"><defs><linearGradient x1="0.5" y1="0" x2="0.5" y2="1" id="master_svg0_2436_0666"><stop offset="0%" stop-color="#29B027" stop-opacity="1"/><stop offset="100%" stop-color="#8AFF69" stop-opacity="1"/></linearGradient><filter id="master_svg1_3308_0721" filterUnits="objectBoundingBox" color-interpolation-filters="sRGB" x="0" y="0" width="30.853389739990234" height="40.47221374511719"><feFlood flood-opacity="0" result="BackgroundImageFix"/><feBlend mode="normal" in="SourceGraphic" in2="BackgroundImageFix" result="shape"/><feGaussianBlur in="BackgroundImage" stdDeviation="5"/><feComposite in2="SourceAlpha" operator="in" result="effect1_foregroundBlur"/><feBlend mode="normal" in="SourceGraphic" in2="effect1_foregroundBlur" result="shape"/></filter><linearGradient x1="0.5" y1="-3.0616171314629196e-17" x2="0.5" y2="1" id="master_svg2_3_45745"><stop offset="0%" stop-color="#FFFFFF" stop-opacity="1"/><stop offset="100%" stop-color="#FFFFFF" stop-opacity="0"/></linearGradient><linearGradient x1="0.5" y1="-3.0616171314629196e-17" x2="0.5" y2="1" id="master_svg3_3_46937"><stop offset="0%" stop-color="#FFFFFF" stop-opacity="0.3199999928474426"/><stop offset="100%" stop-color="#FFFFFF" stop-opacity="0.75"/></linearGradient><linearGradient x1="0.5" y1="-3.0616171314629196e-17" x2="0.5" y2="1" id="master_svg4_3_46949"><stop offset="0%" stop-color="#FFFFFF" stop-opacity="1"/><stop offset="100%" stop-color="#FFFFFF" stop-opacity="0.75"/></linearGradient><linearGradient x1="18.80662765839466" y1="37.2416090965271" x2="43.272557504631095" y2="37.2416090965271" gradientUnits="userSpaceOnUse" id="master_svg5_3_46934"><stop offset="0%" stop-color="#FFFFFF" stop-opacity="0.6700000166893005"/><stop offset="100%" stop-color="#FFFFFF" stop-opacity="0"/></linearGradient><linearGradient x1="19.91030540802845" y1="41.48671579360962" x2="44.376235254264884" y2="41.48671579360962" gradientUnits="userSpaceOnUse" id="master_svg6_3_46934"><stop offset="0%" stop-color="#FFFFFF" stop-opacity="0.6700000166893005"/><stop offset="100%" stop-color="#FFFFFF" stop-opacity="0"/></linearGradient><linearGradient x1="21.41729792689207" y1="46.255756855010986" x2="39.47771149350967" y2="46.255756855010986" gradientUnits="userSpaceOnUse" id="master_svg7_3_46934"><stop offset="0%" stop-color="#FFFFFF" stop-opacity="0.6700000166893005"/><stop offset="100%" stop-color="#FFFFFF" stop-opacity="0"/></linearGradient></defs><g style="mix-blend-mode:passthrough"><g style="mix-blend-mode:passthrough"><path d="M73.507,18.768Q73.8476,18.9646,74.1596,19.204Q74.4716,19.4434,74.7497,19.7215Q75.0278,19.9995,75.2672,20.3115Q75.5066,20.6235,75.7032,20.9641Q75.8998,21.3047,76.0503,21.668Q76.2008,22.0313,76.3026,22.4112Q76.4044,22.791,76.4557,23.1809Q76.507,23.5708,76.507,23.9641L76.507,58.0359Q76.507,58.4292,76.4557,58.8191Q76.4044,59.209,76.3026,59.5888Q76.2008,59.9687,76.0503,60.332Q75.8998,60.6953,75.7032,61.0359Q75.5066,61.3765,75.2672,61.6885Q75.0278,62.0005,74.7497,62.2785Q74.4716,62.5566,74.1596,62.796Q73.8476,63.0354,73.507,63.2321L44,80.268Q43.6594,80.4646,43.2961,80.6151Q42.9328,80.7656,42.5529,80.8674Q42.173,80.9691,41.7832,81.0205Q41.3933,81.0718,41,81.0718Q40.6067,81.0718,40.2168,81.0205Q39.827,80.9691,39.4471,80.8674Q39.0672,80.7656,38.7039,80.6151Q38.3406,80.4646,38,80.268L8.49296,63.2321Q8.15238,63.0354,7.84039,62.796Q7.5284,62.5566,7.25032,62.2785Q6.97224,62.0005,6.73284,61.6885Q6.49344,61.3765,6.29681,61.0359Q6.10018,60.6953,5.94968,60.332Q5.79919,59.9687,5.6974,59.5888Q5.59562,59.209,5.54429,58.8191Q5.49296,58.4292,5.49296,58.0359L5.49296,23.9641Q5.49296,23.5708,5.54429,23.1809Q5.59562,22.7911,5.6974,22.4112Q5.79919,22.0313,5.94968,21.668Q6.10017,21.3047,6.2968,20.9641Q6.49344,20.6235,6.73284,20.3115Q6.97224,19.9995,7.25032,19.7215Q7.52839,19.4434,7.84039,19.204Q8.15238,18.9646,8.49296,18.768L38,1.73205Q38.3406,1.53542,38.7039,1.38493Q39.0672,1.23443,39.4471,1.13265Q39.827,1.03087,40.2168,0.979534Q40.6067,0.928203,41,0.928203Q41.3933,0.928203,41.7832,0.979534Q42.173,1.03086,42.5529,1.13265Q42.9328,1.23443,43.2961,1.38493Q43.6594,1.53542,44,1.73205L73.507,18.768Z" fill="#F3FDEA" fill-opacity="1"/></g><g style="mix-blend-mode:passthrough"><g style="mix-blend-mode:passthrough"><rect x="33.36363410949707" y="20.01014232635498" width="27.636362075805664" height="42.94407272338867" rx="8" fill="url(#master_svg0_2436_0666)" fill-opacity="1"/></g><g style="mix-blend-mode:passthrough" transform="matrix(0.9846211075782776,-0.17470329999923706,0.18018634617328644,0.983632504940033,-3.768098561398581,2.631584283386161)"><g style="mix-blend-mode:passthrough" transform="matrix(0.9691780209541321,-0.24636130034923553,0.25425252318382263,0.96713787317276,-7.131001644789478,4.176167148040918)" filter="url(#master_svg1_3308_0721)"><rect x="13" y="29.622861862182617" width="30.853389739990234" height="40.47221374511719" rx="8" fill="#C5FFBC" fill-opacity="0.6000000238418579"/><rect x="14" y="30.622861862182617" width="28.853389739990234" height="38.47221374511719" rx="7" stroke="url(#master_svg2_3_45745)" fill-opacity="0" fill="none" stroke-width="2"/></g><g style="mix-blend-mode:passthrough"><ellipse cx="37.389878273010254" cy="58.03411674499512" rx="3.149825096130371" ry="3.0971102714538574" fill="url(#master_svg3_3_46937)" fill-opacity="1"/></g><g style="mix-blend-mode:passthrough"><ellipse cx="39.53301811218262" cy="52.74562132358551" rx="0.8469982147216797" ry="0.8328229188919067" fill="url(#master_svg4_3_46949)" fill-opacity="1"/></g><g style="mix-blend-mode:passthrough" transform="matrix(0.9688981175422668,-0.24746014177799225,0.3028249442577362,0.9530462026596069,-10.624866426117151,6.942769714250787)"><line x1="20.98978328704834" y1="35.89160907268524" x2="40.58326244354248" y2="35.89160907268524" stroke="url(#master_svg5_3_46934)" fill-opacity="0" fill="none" stroke-width="2.700000047683716" stroke-linecap="ROUND"/></g><g style="mix-blend-mode:passthrough" transform="matrix(0.9688981175422668,-0.24746014177799225,0.3028249442577362,0.9530462026596069,-11.876064169388982,7.415209846195538)"><line x1="22.09346103668213" y1="40.13671576976776" x2="41.68694019317627" y2="40.13671576976776" stroke="url(#master_svg6_3_46934)" fill-opacity="0" fill="none" stroke-width="2.700000047683716" stroke-linecap="ROUND"/></g><g style="mix-blend-mode:passthrough" transform="matrix(0.9688980579376221,-0.24746012687683105,0.3028249442577362,0.9530462026596069,-13.291154303613311,7.8706113773812945)"><line x1="23.028873443603516" y1="44.90575683116913" x2="37.49251079559326" y2="44.90575683116913" stroke="url(#master_svg7_3_46934)" fill-opacity="0" fill="none" stroke-width="2.700000047683716" stroke-linecap="ROUND"/></g></g></g></g></svg>