<svg xmlns="http://www.w3.org/2000/svg" xmlns:xlink="http://www.w3.org/1999/xlink" fill="none" version="1.1" width="82" height="82" viewBox="0 0 82 82"><defs><clipPath id="master_svg0_3308_0732"><rect x="28.076576232910156" y="17.903692722320557" width="31.921154022216797" height="41.20578384399414" rx="0"/></clipPath><linearGradient x1="0.8387103080749512" y1="1.0000004768371582" x2="0.09212645143270493" y2="0.27144312858581543" id="master_svg1_2436_0618"><stop offset="0%" stop-color="#29B027" stop-opacity="1"/><stop offset="100%" stop-color="#8AFF69" stop-opacity="1"/></linearGradient><linearGradient x1="0.8387103080749512" y1="1.0000004768371582" x2="0.09212645143270493" y2="0.27144312858581543" id="master_svg2_2436_0618"><stop offset="0%" stop-color="#29B027" stop-opacity="1"/><stop offset="100%" stop-color="#8AFF69" stop-opacity="1"/></linearGradient><filter id="master_svg3_3308_0736" filterUnits="objectBoundingBox" color-interpolation-filters="sRGB" x="0" y="0" width="32.01798629760742" height="41.201507568359375"><feFlood flood-opacity="0" result="BackgroundImageFix"/><feBlend mode="normal" in="SourceGraphic" in2="BackgroundImageFix" result="shape"/><feGaussianBlur in="BackgroundImage" stdDeviation="29.04102897644043"/><feComposite in2="SourceAlpha" operator="in" result="effect1_foregroundBlur"/><feBlend mode="normal" in="SourceGraphic" in2="effect1_foregroundBlur" result="shape"/></filter><filter id="master_svg4_3308_0738" filterUnits="objectBoundingBox" color-interpolation-filters="sRGB" x="0" y="0" width="17.260425567626953" height="17.322669982910156"><feFlood flood-opacity="0" result="BackgroundImageFix"/><feBlend mode="normal" in="SourceGraphic" in2="BackgroundImageFix" result="shape"/><feGaussianBlur in="BackgroundImage" stdDeviation="5"/><feComposite in2="SourceAlpha" operator="in" result="effect1_foregroundBlur"/><feBlend mode="normal" in="SourceGraphic" in2="effect1_foregroundBlur" result="shape"/></filter><linearGradient x1="0.5" y1="-3.0616171314629196e-17" x2="0.5" y2="1" id="master_svg5_3_45745"><stop offset="0%" stop-color="#FFFFFF" stop-opacity="1"/><stop offset="100%" stop-color="#FFFFFF" stop-opacity="0"/></linearGradient><filter id="master_svg6_3308_0739" filterUnits="objectBoundingBox" color-interpolation-filters="sRGB" x="0" y="0" width="5.853724479675293" height="5.874848365783691"><feFlood flood-opacity="0" result="BackgroundImageFix"/><feBlend mode="normal" in="SourceGraphic" in2="BackgroundImageFix" result="shape"/><feGaussianBlur in="BackgroundImage" stdDeviation="0"/><feComposite in2="SourceAlpha" operator="in" result="effect1_foregroundBlur"/><feBlend mode="normal" in="SourceGraphic" in2="effect1_foregroundBlur" result="shape"/></filter><linearGradient x1="0.5" y1="-3.0616171314629196e-17" x2="0.5" y2="1" id="master_svg7_3_45745"><stop offset="0%" stop-color="#FFFFFF" stop-opacity="1"/><stop offset="100%" stop-color="#FFFFFF" stop-opacity="0"/></linearGradient><filter id="master_svg8_3308_0741" filterUnits="objectBoundingBox" color-interpolation-filters="sRGB" x="0" y="0" width="32.01798629760742" height="20.27237319946289"><feFlood flood-opacity="0" result="BackgroundImageFix"/><feBlend mode="normal" in="SourceGraphic" in2="BackgroundImageFix" result="shape"/><feGaussianBlur in="BackgroundImage" stdDeviation="5"/><feComposite in2="SourceAlpha" operator="in" result="effect1_foregroundBlur"/><feBlend mode="normal" in="SourceGraphic" in2="effect1_foregroundBlur" result="shape"/></filter><linearGradient x1="0.5" y1="-3.0616171314629196e-17" x2="0.5" y2="1" id="master_svg9_3_45745"><stop offset="0%" stop-color="#FFFFFF" stop-opacity="1"/><stop offset="100%" stop-color="#FFFFFF" stop-opacity="0"/></linearGradient><linearGradient x1="22.42617033102986" y1="56.54536056518555" x2="38.932961034437426" y2="56.54536056518555" gradientUnits="userSpaceOnUse" id="master_svga_3_46934"><stop offset="0%" stop-color="#FFFFFF" stop-opacity="0.6700000166893005"/><stop offset="100%" stop-color="#FFFFFF" stop-opacity="0"/></linearGradient></defs><g style="mix-blend-mode:passthrough"><g style="mix-blend-mode:passthrough"><path d="M73.507,18.768Q73.8476,18.9646,74.1596,19.204Q74.4716,19.4434,74.7497,19.7215Q75.0278,19.9995,75.2672,20.3115Q75.5066,20.6235,75.7032,20.9641Q75.8998,21.3047,76.0503,21.668Q76.2008,22.0313,76.3026,22.4112Q76.4044,22.791,76.4557,23.1809Q76.507,23.5708,76.507,23.9641L76.507,58.0359Q76.507,58.4292,76.4557,58.8191Q76.4044,59.209,76.3026,59.5888Q76.2008,59.9687,76.0503,60.332Q75.8998,60.6953,75.7032,61.0359Q75.5066,61.3765,75.2672,61.6885Q75.0278,62.0005,74.7497,62.2785Q74.4716,62.5566,74.1596,62.796Q73.8476,63.0354,73.507,63.2321L44,80.268Q43.6594,80.4646,43.2961,80.6151Q42.9328,80.7656,42.5529,80.8674Q42.173,80.9691,41.7832,81.0205Q41.3933,81.0718,41,81.0718Q40.6067,81.0718,40.2168,81.0205Q39.827,80.9691,39.4471,80.8674Q39.0672,80.7656,38.7039,80.6151Q38.3406,80.4646,38,80.268L8.49296,63.2321Q8.15238,63.0354,7.84039,62.796Q7.5284,62.5566,7.25032,62.2785Q6.97224,62.0005,6.73284,61.6885Q6.49344,61.3765,6.29681,61.0359Q6.10018,60.6953,5.94968,60.332Q5.79919,59.9687,5.6974,59.5888Q5.59562,59.209,5.54429,58.8191Q5.49296,58.4292,5.49296,58.0359L5.49296,23.9641Q5.49296,23.5708,5.54429,23.1809Q5.59562,22.7911,5.6974,22.4112Q5.79919,22.0313,5.94968,21.668Q6.10017,21.3047,6.2968,20.9641Q6.49344,20.6235,6.73284,20.3115Q6.97224,19.9995,7.25032,19.7215Q7.52839,19.4434,7.84039,19.204Q8.15238,18.9646,8.49296,18.768L38,1.73205Q38.3406,1.53542,38.7039,1.38493Q39.0672,1.23443,39.4471,1.13265Q39.827,1.03087,40.2168,0.979534Q40.6067,0.928203,41,0.928203Q41.3933,0.928203,41.7832,0.979534Q42.173,1.03086,42.5529,1.13265Q42.9328,1.23443,43.2961,1.38493Q43.6594,1.53542,44,1.73205L73.507,18.768Z" fill="#F3FDEA" fill-opacity="1"/></g><g style="mix-blend-mode:passthrough"><g style="mix-blend-mode:passthrough"><g style="mix-blend-mode:passthrough"><g style="mix-blend-mode:passthrough" clip-path="url(#master_svg0_3308_0732)"><g style="mix-blend-mode:passthrough"><g style="mix-blend-mode:passthrough"><path d="M44.032431838378905,35.22388719285945C48.78432183837891,35.22388719285945,52.63652183837891,31.346687192859456,52.63652183837891,26.563877192859454C52.63652183837891,21.781047192859454,48.78432183837891,17.903787192859454,44.032431838378905,17.903787192859454C39.2805218383789,17.903787192859454,35.428321838378906,21.781047192859454,35.428321838378906,26.563877192859454C35.428321838378906,31.346687192859456,39.2805218383789,35.22388719285945,44.032431838378905,35.22388719285945Z" fill="url(#master_svg1_2436_0618)" fill-opacity="1"/></g></g><g style="mix-blend-mode:passthrough"><path d="M44.031976232910154,38.82967233657837C35.22078623291016,38.82967233657837,28.076576232910156,46.02037233657837,28.076576232910156,54.88887233657837C28.076576232910156,57.21287233657837,29.950636232910156,59.099072336578374,32.25955623291016,59.099072336578374C32.25955623291016,59.099072336578374,55.80447623291016,59.099072336578374,55.80447623291016,59.099072336578374C58.113376232910156,59.099072336578374,59.997776232910155,57.21287233657837,59.997776232910155,54.88887233657837C59.997776232910155,46.02037233657837,52.853476232910154,38.82967233657837,44.031976232910154,38.82967233657837Z" fill="url(#master_svg2_2436_0618)" fill-opacity="1"/></g></g></g></g><g style="mix-blend-mode:passthrough" transform="matrix(0.9529693126678467,-0.30306655168533325,0.3005654513835907,0.9537612199783325,-6.419035941015068,5.641814976186055)" filter="url(#master_svg3_3308_0736)"><g style="mix-blend-mode:passthrough"><g style="mix-blend-mode:passthrough" filter="url(#master_svg4_3308_0738)"><path d="M31.002644616088865,41.026114916992185C35.76893461608887,41.026114916992185,39.63283461608887,37.14831491699219,39.63283461608887,32.36477491699219C39.63283461608887,27.581244916992187,35.76893461608887,23.703414916992188,31.002644616088865,23.703414916992188C26.23631461608887,23.703414916992188,22.372434616088867,27.581244916992187,22.372434616088867,32.36477491699219C22.372434616088867,37.14831491699219,26.23631461608887,41.026114916992185,31.002644616088865,41.026114916992185Z" fill="#C5FFBC" fill-opacity="0.6000000238418579"/><path d="M39.63283461608887,32.36477491699219C39.63283461608887,37.14831491699219,35.76893461608887,41.026114916992185,31.002644616088865,41.026114916992185C26.23631461608887,41.026114916992185,22.372434616088867,37.14831491699219,22.372434616088867,32.36477491699219C22.372434616088867,27.581244916992187,26.23631461608887,23.703414916992188,31.002644616088865,23.703414916992188C35.76893461608887,23.703414916992188,39.63283461608887,27.581244916992187,39.63283461608887,32.36477491699219ZM35.688334616088866,37.07761491699219Q33.74683461608887,39.026114916992185,31.002644616088865,39.026114916992185Q28.258434616088866,39.026114916992185,26.31692461608887,37.07761491699219Q24.372434616088867,35.12611491699219,24.372434616088867,32.36477491699219Q24.372434616088867,29.60344491699219,26.31692461608887,27.651934916992186Q28.258434616088866,25.703414916992188,31.002644616088865,25.703414916992188Q33.74683461608887,25.703414916992188,35.688334616088866,27.651934916992186Q37.63283461608887,29.60344491699219,37.63283461608887,32.36477491699219Q37.63283461608887,35.12611491699219,35.688334616088866,37.07761491699219Z" fill-rule="evenodd" fill="url(#master_svg5_3_45745)" fill-opacity="1"/></g><g style="mix-blend-mode:passthrough" filter="url(#master_svg6_3308_0739)"><path d="M31.00285114013672,35.30222483978272C32.61930114013672,35.30222483978272,33.92970114013672,33.98709483978271,33.92970114013672,32.36479483978272C33.92970114013672,30.742504839782715,32.61930114013672,29.427374839782715,31.00285114013672,29.427374839782715C29.38638114013672,29.427374839782715,28.07598114013672,30.742504839782715,28.07598114013672,32.36479483978272C28.07598114013672,33.98709483978271,29.38638114013672,35.30222483978272,31.00285114013672,35.30222483978272C31.00285114013672,35.30222483978272,31.00285114013672,35.30222483978272,31.00285114013672,35.30222483978272Z" fill="url(#master_svg7_3_45745)" fill-opacity="1"/></g></g><g style="mix-blend-mode:passthrough"><g style="mix-blend-mode:passthrough" filter="url(#master_svg8_3308_0741)"><path d="M31.002847279765362,44.632551193237305C22.164927279765365,44.632551193237305,14.999047279765364,51.824301193237304,14.999047279765364,60.6940511932373C14.999047279765364,63.018451193237304,16.878787279765362,64.90495119323731,19.194717279765364,64.90495119323731C19.194717279765364,64.90495119323731,42.81104727976536,64.90495119323731,42.81104727976536,64.90495119323731C45.12694727976536,64.90495119323731,47.017047279765364,63.018451193237304,47.017047279765364,60.6940511932373C47.017047279765364,51.824301193237304,39.851147279765364,44.632551193237305,31.002847279765362,44.632551193237305Z" fill="#C5FFBC" fill-opacity="0.6000000238418579"/><path d="M14.999047279765364,60.6940511932373C14.999047279765364,51.824301193237304,22.164927279765365,44.632551193237305,31.002847279765362,44.632551193237305C39.851147279765364,44.632551193237305,47.017047279765364,51.824301193237304,47.017047279765364,60.6940511932373C47.017047279765364,63.018451193237304,45.12694727976536,64.90495119323731,42.81104727976536,64.90495119323731L19.194717279765364,64.90495119323731C16.878787279765362,64.90495119323731,14.999047279765364,63.018451193237304,14.999047279765364,60.6940511932373ZM25.555347279765364,47.73582119323731Q28.15414727976536,46.632551193237305,31.002847279765362,46.632551193237305Q33.85554727976536,46.632551193237305,36.45684727976536,47.736041193237305Q38.971247279765365,48.80264119323731,40.91164727976536,50.749131193237304Q42.852447279765364,52.696041193237306,43.91614727976537,55.219451193237305Q45.017047279765364,57.830751193237305,45.017047279765364,60.6940511932373Q45.017047279765364,61.6080511932373,44.36814727976537,62.2570511932373Q43.72044727976537,62.90495119323731,42.81104727976536,62.90495119323731L19.194717279765364,62.90495119323731Q18.288297279765363,62.90495119323731,17.645167279765364,62.259451193237304Q16.999047279765364,61.6110511932373,16.999047279765364,60.6940511932373Q16.999047279765364,57.830951193237304,18.099797279765365,55.2193511932373Q19.163347279765365,52.6959411932373,21.103487279765364,50.7488111932373Q23.042877279765364,48.80242119323731,25.555347279765364,47.73582119323731Z" fill-rule="evenodd" fill="url(#master_svg9_3_45745)" fill-opacity="1"/></g></g><g style="mix-blend-mode:passthrough" transform="matrix(0.9996041059494019,-0.028135545551776886,0.07648647576570511,0.9970500469207764,-4.3154938341878335,0.8392207211567495)"><line x1="23.899112224578857" y1="55.145360589027405" x2="37.118534564971924" y2="55.145360589027405" stroke="url(#master_svga_3_46934)" fill-opacity="0" fill="none" stroke-width="2.799999952316284" stroke-linecap="ROUND"/></g></g></g></g></svg>