<?xml version="1.0" standalone="no"?><!DOCTYPE svg PUBLIC "-//W3C//DTD SVG 1.1//EN" "http://www.w3.org/Graphics/SVG/1.1/DTD/svg11.dtd"><svg t="1661391634554" class="icon" viewBox="0 0 1024 1024" version="1.1" xmlns="http://www.w3.org/2000/svg" p-id="1543" xmlns:xlink="http://www.w3.org/1999/xlink" width="200" height="200"><defs><style type="text/css">@font-face { font-family: feedback-iconfont; src: url("//at.alicdn.com/t/font_1031158_u69w8yhxdu.woff2?t=1630033759944") format("woff2"), url("//at.alicdn.com/t/font_1031158_u69w8yhxdu.woff?t=1630033759944") format("woff"), url("//at.alicdn.com/t/font_1031158_u69w8yhxdu.ttf?t=1630033759944") format("truetype"); }
</style></defs><path d="M424.903111 986.510222A128 128 0 0 0 515.413333 1024h0.113778a128 128 0 0 0 128-128v-7.224889a27.704889 27.704889 0 0 1 16.839111-25.429333h0.398222a27.704889 27.704889 0 0 1 30.492445 5.404444l2.332444 2.389334a128 128 0 1 0 181.134223-181.077334l-2.332445-2.389333a27.704889 27.704889 0 0 1-5.461333-30.435556v-0.455111a27.761778 27.761778 0 0 1 25.201778-16.782222h3.868444a128 128 0 0 0 0-256h-7.054222a27.761778 27.761778 0 0 1-22.869334-12.231111 42.780444 42.780444 0 0 0-2.730666-8.533333 27.704889 27.704889 0 0 1 5.404444-30.492445l2.389334-2.332444a128.056889 128.056889 0 1 0-181.077334-181.134223l-2.389333 2.389334a27.761778 27.761778 0 0 1-30.435556 5.404444h-0.455111a27.761778 27.761778 0 0 1-16.782222-25.258666V128a128 128 0 0 0-256 0v7.054222a27.704889 27.704889 0 0 1-12.117333 22.869334 42.666667 42.666667 0 0 0-8.533334 2.730666 27.761778 27.761778 0 0 1-30.435555-5.404444l-2.389334-2.389334A128.056889 128.056889 0 1 0 149.333333 333.937778l2.503111 2.275555a27.761778 27.761778 0 0 1 5.404445 30.492445 38.855111 38.855111 0 0 0-0.967111 2.56 27.761778 27.761778 0 0 1-25.031111 18.090666H128a128 128 0 1 0 0 256h7.395556a27.704889 27.704889 0 0 1 25.429333 16.839112v0.398222a27.761778 27.761778 0 0 1-5.404445 30.492444l-2.389333 2.332445a128 128 0 1 0 181.077333 181.134222l2.389334-2.332445a27.704889 27.704889 0 0 1 30.435555-5.461333l2.332445 1.024a27.704889 27.704889 0 0 1 18.147555 24.974222v3.242667c0 33.962667 13.482667 66.503111 37.489778 90.510222z m27.022222-157.866666a113.038222 113.038222 0 0 0-51.939555-40.448 113.095111 113.095111 0 0 0-123.505778 23.153777l-2.901333 2.901334a42.666667 42.666667 0 1 1-60.359111-60.416l2.844444-2.901334a113.550222 113.550222 0 0 0-80.782222-193.080889H128a42.666667 42.666667 0 0 1 0-85.333333h4.892444a113.038222 113.038222 0 0 0 102.968889-72.533333 113.095111 113.095111 0 0 0-23.153777-123.448889l-2.901334-2.901333A42.666667 42.666667 0 1 1 270.222222 213.333333l2.503111 2.446223 0.341334 0.341333a113.038222 113.038222 0 0 0 116.508444 25.884444 42.666667 42.666667 0 0 0 11.207111-3.072A113.038222 113.038222 0 0 0 469.333333 135.224889V128a42.666667 42.666667 0 0 1 85.333334 0v3.982222a113.550222 113.550222 0 0 0 192.853333 80.725334l2.901333-2.901334a42.666667 42.666667 0 1 1 60.359111 60.359111l-2.844444 2.901334a113.095111 113.095111 0 0 0-25.941333 116.508444 42.780444 42.780444 0 0 0 3.072 11.207111 113.038222 113.038222 0 0 0 103.651555 68.551111h7.281778a42.666667 42.666667 0 0 1 0 85.333334h-3.982222a113.550222 113.550222 0 0 0-80.725334 192.853333l2.958223 2.901333a42.666667 42.666667 0 1 1-60.416 60.359111l-2.901334-2.844444a113.550222 113.550222 0 0 0-193.080889 80.782222v7.281778a42.666667 42.666667 0 0 1-85.333333 0v-4.835556a113.038222 113.038222 0 0 0-20.593778-62.520888z m-34.702222-174.762667a170.666667 170.666667 0 1 0 189.610667-283.875556 170.666667 170.666667 0 0 0-189.667556 283.875556z m47.388445-212.821333a85.333333 85.333333 0 1 1 94.776888 141.880888 85.333333 85.333333 0 0 1-94.776888-141.880888z" p-id="1544"></path></svg>