<?xml version="1.0" standalone="no"?><!DOCTYPE svg PUBLIC "-//W3C//DTD SVG 1.1//EN" "http://www.w3.org/Graphics/SVG/1.1/DTD/svg11.dtd"><svg t="1661391638503" class="icon" viewBox="0 0 1024 1024" version="1.1" xmlns="http://www.w3.org/2000/svg" p-id="1678" xmlns:xlink="http://www.w3.org/1999/xlink" width="200" height="200"><defs><style type="text/css">@font-face { font-family: feedback-iconfont; src: url("//at.alicdn.com/t/font_1031158_u69w8yhxdu.woff2?t=1630033759944") format("woff2"), url("//at.alicdn.com/t/font_1031158_u69w8yhxdu.woff?t=1630033759944") format("woff"), url("//at.alicdn.com/t/font_1031158_u69w8yhxdu.ttf?t=1630033759944") format("truetype"); }
</style></defs><path d="M297.187556 275.854222Q359.651556 213.333333 448 213.333333q88.462222 0 150.869333 62.520889 2.958222 2.958222 5.290667 6.485334 2.332444 3.470222 3.982222 7.395555 1.592889 3.868444 2.389334 7.964445 0.796444 4.152889 0.796444 8.362666 0 4.152889-0.796444 8.305778-0.853333 4.096-2.446223 7.964444-1.592889 3.925333-3.982222 7.395556-2.275556 3.527111-5.290667 6.485333-2.958222 2.958222-6.485333 5.290667-3.470222 2.275556-7.395555 3.982222-3.868444 1.536-7.964445 2.389334-4.152889 0.796444-8.305778 0.796444-4.209778 0-8.362666-0.853333-4.096-0.796444-7.964445-2.389334-3.925333-1.649778-7.395555-3.982222-3.470222-2.332444-6.485334-5.290667-37.376-37.489778-90.453333-37.489777-52.963556 0-90.453333 37.546666-3.015111 2.901333-6.485334 5.290667-3.527111 2.275556-7.395555 3.925333-3.868444 1.592889-7.964445 2.389334-4.152889 0.853333-8.362666 0.853333t-8.305778-0.853333q-4.152889-0.796444-8.021333-2.389334-3.868444-1.592889-7.395556-3.982222-3.470222-2.275556-6.428444-5.290667-3.015111-2.958222-5.347556-6.428444-2.275556-3.527111-3.925333-7.395556-1.592889-3.868444-2.446223-7.964444-0.796444-4.152889-0.796444-8.362667t0.796444-8.305777q0.853333-4.152889 2.446223-8.021334 1.592889-3.868444 3.982222-7.395555 2.275556-3.470222 5.290667-6.428445z m562.346666 644.096l-180.963555-181.020444q-3.015111-2.958222-5.347556-6.428445-2.275556-3.527111-3.925333-7.395555-1.592889-3.868444-2.446222-7.964445-0.796444-4.152889-0.796445-8.362666t0.796445-8.305778q0.853333-4.152889 2.446222-8.021333 1.592889-3.868444 3.982222-7.395556 2.275556-3.470222 5.290667-6.428444 2.958222-3.015111 6.428444-5.347556 3.527111-2.275556 7.395556-3.925333 3.868444-1.592889 7.964444-2.446223 4.152889-0.796444 8.362667-0.796444t8.305778 0.796444q4.152889 0.853333 8.021333 2.446223 3.868444 1.592889 7.395555 3.982222 3.470222 2.275556 6.428445 5.290667l181.020444 180.963555q2.958222 3.015111 5.290667 6.485333 2.332444 3.470222 3.982222 7.395556 1.592889 3.868444 2.389334 7.964444 0.853333 4.152889 0.853333 8.362667 0 4.152889-0.853333 8.305778-0.796444 4.096-2.389334 7.964444-1.649778 3.925333-3.982222 7.395556-2.275556 3.527111-5.290667 6.485333-2.958222 2.958222-6.485333 5.290667-3.470222 2.332444-7.395556 3.982222-3.868444 1.592889-7.964444 2.389333-4.096 0.853333-8.305778 0.853334t-8.362666-0.853334q-4.096-0.796444-7.964445-2.446222-3.925333-1.592889-7.395555-3.925333-3.470222-2.275556-6.485334-5.290667zM128 448q0 132.551111 93.752889 226.247111Q315.448889 768 448 768t226.247111-93.752889Q768 580.551111 768 448t-93.752889-226.247111Q580.551111 128 448 128T221.752889 221.752889Q128 315.448889 128 448z m-85.333333 0q0-167.879111 118.727111-286.606222T448 42.666667q167.879111 0 286.606222 118.727111T853.333333 448q0 167.879111-118.727111 286.606222T448 853.333333q-167.822222 0-286.606222-118.727111Q42.666667 615.879111 42.666667 448z m327.338666-141.994667q0 4.209778-0.796444 8.305778-0.853333 4.152889-2.446222 7.964445-1.592889 3.982222-3.982223 7.395555-2.275556 3.527111-5.290666 6.485333-2.958222 2.958222-6.428445 5.347556-3.527111 2.275556-7.395555 3.925333-3.868444 1.592889-7.964445 2.389334-4.152889 0.853333-8.362666 0.853333t-8.305778-0.853333q-4.152889-0.796444-8.021333-2.389334-3.868444-1.592889-7.395556-3.982222-3.470222-2.275556-6.428444-5.290667-3.015111-2.958222-5.347556-6.428444-2.275556-3.527111-3.925333-7.395556-1.592889-3.868444-2.446223-7.964444-0.796444-4.152889-0.796444-8.362667t0.796444-8.305777q0.853333-4.152889 2.446223-8.021334 1.592889-3.868444 3.982222-7.395555 2.275556-3.470222 5.290667-6.428445 2.958222-3.015111 6.428444-5.347555 3.527111-2.275556 7.395556-3.925334 3.868444-1.592889 7.964444-2.446222 4.152889-0.796444 8.362667-0.796444t8.305777 0.796444q4.152889 0.853333 8.021334 2.446222 3.868444 1.592889 7.395555 3.982223 3.470222 2.275556 6.428445 5.290666 3.015111 2.958222 5.347555 6.428445 2.275556 3.527111 3.925334 7.395555 1.592889 3.868444 2.446222 7.964445 0.796444 4.152889 0.796444 8.362666z m241.322667 0q0 4.209778-0.796444 8.305778-0.853333 4.152889-2.446223 7.964445-1.592889 3.982222-3.982222 7.395555-2.275556 3.527111-5.233778 6.485333-3.015111 2.958222-6.485333 5.347556-3.527111 2.275556-7.395556 3.925333-3.868444 1.592889-7.964444 2.389334-4.152889 0.853333-8.362667 0.853333t-8.305777-0.853333q-4.152889-0.796444-7.964445-2.389334-3.982222-1.592889-7.395555-3.982222-3.527111-2.275556-6.485334-5.290667-2.958222-2.958222-5.290666-6.428444-2.332444-3.527111-3.982223-7.395556-1.592889-3.868444-2.389333-7.964444-0.853333-4.152889-0.853333-8.362667t0.853333-8.305777q0.796444-4.152889 2.389333-8.021334 1.649778-3.868444 3.982223-7.395555 2.275556-3.470222 5.290666-6.428445 2.958222-3.015111 6.485334-5.347555 3.413333-2.275556 7.395555-3.925334 3.811556-1.592889 7.964445-2.446222 4.096-0.796444 8.305777-0.796444t8.362667 0.796444q4.096 0.853333 7.964444 2.446222 3.868444 1.592889 7.395556 3.982223 3.470222 2.275556 6.485333 5.290666 2.958222 2.958222 5.290667 6.428445 2.275556 3.527111 3.982222 7.395555 1.536 3.868444 2.389334 7.964445 0.796444 4.152889 0.796444 8.362666zM932.408889 889.742222q0 4.152889-0.853333 8.305778-0.796444 4.096-2.389334 7.964444-1.649778 3.925333-3.982222 7.395556-2.275556 3.527111-5.290667 6.485333-2.958222 2.958222-6.485333 5.290667-3.470222 2.332444-7.395556 3.982222-3.868444 1.592889-7.964444 2.389334-4.096 0.853333-8.305778 0.853333t-8.362666-0.853333q-4.096-0.796444-7.964445-2.446223-3.925333-1.592889-7.395555-3.925333-3.470222-2.275556-6.485334-5.290667-2.958222-2.958222-5.290666-6.485333-2.275556-3.470222-3.982223-7.395556-1.536-3.868444-2.389333-7.964444-0.796444-4.152889-0.796444-8.305778 0-4.209778 0.796444-8.362666 0.853333-4.096 2.446222-7.964445 1.592889-3.925333 3.982222-7.395555 2.275556-3.527111 5.233778-6.485334 3.015111-2.958222 6.485334-5.290666 3.470222-2.332444 7.395555-3.982223 3.868444-1.592889 7.964445-2.389333 4.152889-0.796444 8.362666-0.796444t8.305778 0.796444q4.096 0.796444 7.964444 2.446222 3.925333 1.592889 7.395556 3.925334 3.527111 2.332444 6.485333 5.290666 2.958222 3.015111 5.290667 6.485334 2.332444 3.470222 3.982222 7.395555 1.592889 3.868444 2.389334 7.964445 0.853333 4.152889 0.853333 8.362666z m-181.020445-181.020444q0 4.209778-0.796444 8.305778-0.853333 4.152889-2.446222 8.021333-1.592889 3.868444-3.982222 7.395555-2.275556 3.470222-5.290667 6.428445-2.958222 2.958222-6.428445 5.347555-3.527111 2.275556-7.395555 3.925334-3.868444 1.592889-7.964445 2.446222-4.152889 0.796444-8.362666 0.796444t-8.305778-0.796444q-4.152889-0.853333-7.964444-2.446222-3.982222-1.592889-7.395556-3.982222-3.527111-2.275556-6.485333-5.290667-3.015111-2.958222-5.347556-6.428445-2.275556-3.527111-3.925333-7.395555-1.592889-3.868444-2.446222-7.964445-0.796444-4.152889-0.796445-8.362666t0.796445-8.305778q0.853333-4.152889 2.446222-8.021333 1.592889-3.868444 3.982222-7.395556 2.275556-3.470222 5.290667-6.428444 2.958222-3.015111 6.428444-5.347556 3.527111-2.275556 7.395556-3.925333 3.868444-1.592889 7.964444-2.446222 4.152889-0.796444 8.362667-0.796445t8.305778 0.796445q4.152889 0.853333 8.021333 2.446222 3.868444 1.592889 7.395555 3.982222 3.470222 2.275556 6.428445 5.290667 3.015111 2.958222 5.347555 6.428444 2.275556 3.527111 3.925334 7.395556 1.592889 3.868444 2.446222 7.964444 0.796444 4.152889 0.796444 8.362667z" p-id="1679"></path></svg>