<?xml version="1.0" standalone="no"?><!DOCTYPE svg PUBLIC "-//W3C//DTD SVG 1.1//EN" "http://www.w3.org/Graphics/SVG/1.1/DTD/svg11.dtd"><svg t="1692783585967" class="icon" viewBox="0 0 1024 1024" version="1.1" xmlns="http://www.w3.org/2000/svg" p-id="839" xmlns:xlink="http://www.w3.org/1999/xlink" width="200" height="200"><path d="M892.719 623.75c-21 0-37.969 17.063-37.969 37.969V851.75H170.469V661.812c0-21-17.063-37.968-37.969-37.968-21 0-37.969 17.062-37.969 37.968v228.094c0 21 17.063 37.969 37.969 37.969h760.219c21 0 37.968-17.063 37.968-37.969V661.813c0-21-16.968-38.063-37.968-38.063z" fill="#333333" p-id="840"></path><path d="M465.406 763.719a37.932 37.932 0 0 0 28.125 12.468c10.688 0 20.906-4.5 28.125-12.468L730.72 535.625c14.25-15.563 13.218-39.656-2.25-54-15.563-14.25-39.657-13.219-54 2.25L533.562 637.813V129.688c0-21-17.062-37.97-37.968-37.97-21 0-37.969 17.063-37.969 37.97v512.625L312.594 483.875c-14.25-15.563-38.438-16.594-54-2.25-15.563 14.25-16.594 38.438-2.25 54l209.062 228.094z" fill="#333333" p-id="841"></path></svg>