<?xml version="1.0" standalone="no"?><!DOCTYPE svg PUBLIC "-//W3C//DTD SVG 1.1//EN" "http://www.w3.org/Graphics/SVG/1.1/DTD/svg11.dtd"><svg t="1661421891462" class="icon" viewBox="0 0 1024 1024" version="1.1" xmlns="http://www.w3.org/2000/svg" p-id="2643" xmlns:xlink="http://www.w3.org/1999/xlink" width="200" height="200"><defs><style type="text/css">@font-face { font-family: feedback-iconfont; src: url("//at.alicdn.com/t/font_1031158_u69w8yhxdu.woff2?t=1630033759944") format("woff2"), url("//at.alicdn.com/t/font_1031158_u69w8yhxdu.woff?t=1630033759944") format("woff"), url("//at.alicdn.com/t/font_1031158_u69w8yhxdu.ttf?t=1630033759944") format("truetype"); }
</style></defs><path d="M341.333333 85.333333a42.666667 42.666667 0 0 1 42.666667 42.666667V256A128 128 0 0 1 256 384H128a42.666667 42.666667 0 0 1 0-85.333333H256a42.666667 42.666667 0 0 0 42.666667-42.666667V128A42.666667 42.666667 0 0 1 341.333333 85.333333z m341.333334 0a42.666667 42.666667 0 0 1 42.666666 42.666667V256a42.666667 42.666667 0 0 0 42.666667 42.666667h128a42.666667 42.666667 0 0 1 0 85.333333H768a128 128 0 0 1-128-128V128A42.666667 42.666667 0 0 1 682.666667 85.333333zM85.333333 682.666667a42.666667 42.666667 0 0 1 42.666667-42.666667H256a128 128 0 0 1 128 128v128a42.666667 42.666667 0 0 1-85.333333 0V768a42.666667 42.666667 0 0 0-42.666667-42.666667H128A42.666667 42.666667 0 0 1 85.333333 682.666667z m682.666667 42.666666a42.666667 42.666667 0 0 0-42.666667 42.666667v128a42.666667 42.666667 0 0 1-85.333333 0V768a128 128 0 0 1 128-128h128a42.666667 42.666667 0 0 1 0 85.333333H768z" p-id="2644"></path></svg>