<svg xmlns="http://www.w3.org/2000/svg" width="17" height="16" viewBox="0 0 17 16" fill="none">
  <path fill-rule="evenodd" clip-rule="evenodd" d="M16.8665 14.4188C16.5105 14.9529 16.1544 15.1309 15.6204 15.1309H1.37958C0.84555 15.1309 0.489529 14.7749 0.133508 14.4188C-0.0445026 13.8848 -0.0445026 13.3508 0.133508 12.9948L7.25393 0.712041C7.60995 0.35602 7.96597 0 8.5 0C9.03403 0 9.56806 0.35602 9.74607 0.712041L16.8665 12.9948C17.0445 13.5288 17.0445 14.0628 16.8665 14.4188ZM9.03648 11.5724C8.85847 11.3944 8.68046 11.3944 8.50245 11.3944C8.32444 11.3944 8.14643 11.3944 7.96842 11.5724C7.6124 11.7504 7.43439 12.1064 7.43439 12.4624C7.43439 12.8185 7.6124 13.1745 7.96842 13.3525C8.14643 13.5305 8.32444 13.5305 8.50245 13.5305C8.68046 13.5305 8.85847 13.5305 9.03648 13.3525C9.3925 13.1745 9.57051 12.8185 9.57051 12.4624C9.57051 12.1064 9.3925 11.7504 9.03648 11.5724ZM9.38753 9.79134C9.38753 10.3254 9.03151 10.6814 8.49747 10.6814C7.96344 10.6814 7.60742 10.3254 7.60742 9.79134V4.80704C7.60742 4.27301 7.96344 3.91699 8.49747 3.91699C9.03151 3.91699 9.38753 4.27301 9.38753 4.80704V9.79134Z" fill="#E03F3F"></path>
</svg>