<svg xmlns="http://www.w3.org/2000/svg" xmlns:xlink="http://www.w3.org/1999/xlink" fill="none" version="1.1" width="158.751953125" height="149.4560546875" viewBox="0 0 158.751953125 149.4560546875"><defs><linearGradient x1="0.6111727356910706" y1="0.317915678024292" x2="0.38882726430892944" y2="0.682084321975708" id="master_svg0_363_225442"><stop offset="0%" stop-color="#FFFFFF" stop-opacity="1"/><stop offset="100%" stop-color="#FFFFFF" stop-opacity="0"/></linearGradient><linearGradient x1="0.6113696694374084" y1="0.3180560767650604" x2="0.3890073895454407" y2="0.682084321975708" id="master_svg1_363_225454"><stop offset="0%" stop-color="#FFFFFF" stop-opacity="1"/><stop offset="100%" stop-color="#FFFFFF" stop-opacity="0"/></linearGradient><linearGradient x1="-0.26346373558044434" y1="0.0977005586028099" x2="0.5515190362930298" y2="0.5340162515640259" id="master_svg2_363_225461"><stop offset="0%" stop-color="#FFFFFF" stop-opacity="1"/><stop offset="100%" stop-color="#FFFFFF" stop-opacity="0"/></linearGradient><linearGradient x1="-0.26348772644996643" y1="0.0976872593164444" x2="0.5514944195747375" y2="0.5340031385421753" id="master_svg3_363_225472"><stop offset="0%" stop-color="#FFFFFF" stop-opacity="1"/><stop offset="100%" stop-color="#FFFFFF" stop-opacity="0"/></linearGradient><linearGradient x1="1.0825468301773071" y1="0.4368685781955719" x2="-0.19436857104301453" y2="0.512310802936554" id="master_svg4_363_225467"><stop offset="0%" stop-color="#FFFFFF" stop-opacity="1"/><stop offset="100%" stop-color="#FFFFFF" stop-opacity="0"/></linearGradient><linearGradient x1="0.005970119498670101" y1="0.2992059588432312" x2="1.0541075468063354" y2="0.7254332304000854" id="master_svg5_363_225464"><stop offset="0%" stop-color="#FFFFFF" stop-opacity="1"/><stop offset="100%" stop-color="#FFFFFF" stop-opacity="0"/></linearGradient><linearGradient x1="0.17591364681720734" y1="0.013504408299922943" x2="0.7701727151870728" y2="0.9055647253990173" id="master_svg6_363_225482"><stop offset="0%" stop-color="#FFFFFF" stop-opacity="1"/><stop offset="100%" stop-color="#FFFFFF" stop-opacity="0"/></linearGradient><linearGradient x1="0.3388178050518036" y1="-0.0010292766382917762" x2="0.6513957381248474" y2="0.9726681709289551" id="master_svg7_363_225446"><stop offset="0%" stop-color="#FFFFFF" stop-opacity="1"/><stop offset="100%" stop-color="#FFFFFF" stop-opacity="0"/></linearGradient><linearGradient x1="0.7816728353500366" y1="0.3127347528934479" x2="0.2655458450317383" y2="0.6558725237846375" id="master_svg8_363_225475"><stop offset="0%" stop-color="#FFFFFF" stop-opacity="1"/><stop offset="100%" stop-color="#FFFFFF" stop-opacity="0"/></linearGradient><linearGradient x1="0.7497798800468445" y1="0.3552432358264923" x2="0.12348803877830505" y2="0.7180417776107788" id="master_svg9_363_225458"><stop offset="0%" stop-color="#FFFFFF" stop-opacity="1"/><stop offset="100%" stop-color="#FFFFFF" stop-opacity="0"/></linearGradient></defs><g style="mix-blend-mode:passthrough"><g style="opacity:0.20000000298023224;mix-blend-mode:passthrough"><path d="M70.64617343750001,39.3961390625L31.8975814375,17.4775390625L31.7177734375,37.562139062499995L70.46637343750001,59.4807390625L70.64617343750001,39.3961390625Z" fill="url(#master_svg0_363_225442)" fill-opacity="1"/></g><g style="opacity:0.15000000596046448;mix-blend-mode:passthrough"><path d="M41.7689573625,27.923828125L53.4204765625,34.522788125L53.4025765625,36.932208125L41.7509765625,30.333258125L41.7689573625,27.923828125Z" fill="#FFFFFF" fill-opacity="1"/></g><g style="opacity:0.15000000596046448;mix-blend-mode:passthrough"><path d="M41.7338011125,32.7607421875L66.5473203125,46.8037421875L66.5293203125,49.2491421875L41.7158203125,35.2061321875L41.7338011125,32.7607421875Z" fill="#FFFFFF" fill-opacity="1"/></g><g style="mix-blend-mode:passthrough"><path d="M39.7014384375,28.661539375C39.6834584375,30.315779374999998,38.6945184375,31.106929375,37.4718184375,30.405679375C36.2491274375,29.722409374999998,35.2781633375,27.816449375,35.2961441875,26.162209375C35.3141250375,24.507976375,36.3030684375,23.716821375,37.5257684375,24.418072375C38.7484584375,25.101343375,39.719418437499996,27.007309375,39.7014384375,28.661539375Z" fill-rule="evenodd" fill="#F2C94C" fill-opacity="1"/></g><g style="opacity:0.20000000298023224;mix-blend-mode:passthrough"><path d="M158.752296875,129.371725L120.021604875,107.453125L119.841796875,127.537725L158.590396875,149.456325L158.752296875,129.371725Z" fill="url(#master_svg1_363_225454)" fill-opacity="1"/></g><g style="opacity:0.15000000596046448;mix-blend-mode:passthrough"><path d="M129.8929808,117.900390625L141.5445,124.499350625L141.5266,126.908770625L129.875,120.309820625L129.8929808,117.900390625Z" fill="#FFFFFF" fill-opacity="1"/></g><g style="opacity:0.15000000596046448;mix-blend-mode:passthrough"><path d="M129.85782455,122.7373046875L154.67134375,136.7803046875L154.65334375,139.2257046875L129.83984375,125.1826946875L129.85782455,122.7373046875Z" fill="#FFFFFF" fill-opacity="1"/></g><g style="mix-blend-mode:passthrough"><path d="M127.82556105712891,118.6371253125C127.8075810571289,120.2913653125,126.8186410571289,121.08251531249999,125.59594105712891,120.3812653125C124.3732500571289,119.6979953125,123.40228595712891,117.7920353125,123.42026680712891,116.1377953125C123.43824765712891,114.4835623125,124.42719105712891,113.6924073125,125.64989105712891,114.3936583125C126.87258105712891,115.0769293125,127.8435410571289,116.9828953125,127.82556105712891,118.6371253125Z" fill-rule="evenodd" fill="#F2C94C" fill-opacity="1"/></g><g style="opacity:0.10000000149011612;mix-blend-mode:passthrough"><path d="M113.566359375,0.791156C106.266159375,2.21164,89.849719375,4.04568,82.693359375,0C82.747301775,28.6254,89.759819375,69.2441,112.685359375,102.742C135.970459375,95.3882,143.61235937499998,63.0767,144.15175937499998,34.7929C136.995359375,30.7292,120.776759375,10.4289,113.566359375,0.791156Z" fill="url(#master_svg2_363_225461)" fill-opacity="1"/></g><g style="opacity:0.30000001192092896;mix-blend-mode:passthrough"><path d="M104.648390625,6.72474975C97.348190625,8.14523375,80.931750625,9.97927375,73.775390625,5.93359375C73.829333025,34.55899375,80.841850625,75.17769375,103.767390625,108.67559375C127.05249062499999,101.32179375,134.69439062499998,68.99229375,135.23379062499998,40.72649375C128.077390625,36.66279375,111.858790625,16.36249375,104.648390625,6.72474975Z" fill="url(#master_svg3_363_225472)" fill-opacity="1"/></g><g style="opacity:0.4000000059604645;mix-blend-mode:passthrough"><path d="M135.25162491455077,40.708309375C128.0773249145508,36.644709375000005,111.87658491455078,16.362319375,104.66628491455079,6.724609375L103.78522491455078,108.657609375C127.05242491455078,101.321609375,134.69422491455077,68.992109375,135.25162491455077,40.708309375Z" fill="url(#master_svg4_363_225467)" fill-opacity="1"/></g><g style="opacity:0.10000000149011612;mix-blend-mode:passthrough"><path d="M65.7197265625,60.8115234375L101.8072265625,80.6803234375L101.8252265625,146.9755234375L65.7377073625,127.1247234375L65.7197265625,60.8115234375Z" fill="url(#master_svg5_363_225464)" fill-opacity="1"/></g><g style="opacity:0.20000000298023224;mix-blend-mode:passthrough"><path d="M70.39453125,99.5595703125L97.59953125,114.5375703125L97.67143125,138.3081703125L70.46645445,123.3301703125L70.39453125,99.5595703125Z" fill="url(#master_svg6_363_225482)" fill-opacity="1"/></g><g style="opacity:0.15000000596046448;mix-blend-mode:passthrough"><path d="M70.8798828125,83.736328125L83.4664828125,90.658938125L83.4664828125,93.104328125L70.8798828125,86.181718125L70.8798828125,83.736328125Z" fill="#FFFFFF" fill-opacity="1"/></g><g style="opacity:0.15000000596046448;mix-blend-mode:passthrough"><path d="M70.9345703125,88.591796875L83.5211703125,95.514406875L83.5211703125,97.959796875L70.9345703125,91.037186875L70.9345703125,88.591796875Z" fill="#FFFFFF" fill-opacity="1"/></g><g style="opacity:0.15000000596046448;mix-blend-mode:passthrough"><path d="M70.916015625,93.2666015625L94.794515625,106.4106015625L94.794515625,108.8560015625L70.91601562500001,95.7119915625L70.916015625,93.2666015625Z" fill="#FFFFFF" fill-opacity="1"/></g><g style="opacity:0.20000000298023224;mix-blend-mode:passthrough"><path d="M65.7197265625,60.8115234375L101.8072265625,80.6803234375L101.8431265625,92.1341234375L65.7377073625,72.2833234375L65.7197265625,60.8115234375Z" fill="url(#master_svg7_363_225446)" fill-opacity="1"/></g><g style="opacity:0.20000000298023224;mix-blend-mode:passthrough"><path d="M74.74622755371094,71.5818775C74.74622755371094,73.3080375,73.72131755371093,74.1531375,72.46265755371094,73.4518775C71.20400755371094,72.75062750000001,70.16111755371094,70.7907175,70.16111755371094,69.0465875C70.16111755371094,67.3204265,71.18602755371094,66.4753285,72.44467755371093,67.1765805C73.72131755371093,67.8778315,74.74622755371094,69.8557175,74.74622755371094,71.5818775Z" fill="#FFFFFF" fill-opacity="1"/></g><g style="mix-blend-mode:passthrough"><path d="M87.1531491,99.343714375L87.1171875,89.490234375L111.5890875,102.957834375L111.6249875,112.811334375L87.1531491,99.343714375Z" fill-rule="evenodd" fill="#F2C94C" fill-opacity="1"/></g><g style="opacity:0.30000001192092896;mix-blend-mode:passthrough"><path d="M59.2110953125,57.736281250000005L5.7001953125,26.86328125L5.7181761125,54.75148125L54.5000953125,82.90948125L59.2290953125,89.90398125L59.2110953125,57.736281250000005Z" fill="url(#master_svg8_363_225475)" fill-opacity="1"/></g><g style="mix-blend-mode:passthrough"><path d="M0,37.724216874999996L0,30.154296875L20.1924,41.805896875L20.1924,49.375796875L0,37.724216874999996Z" fill-rule="evenodd" fill="#F2994A" fill-opacity="1"/></g><g style="opacity:0.15000000596046448;mix-blend-mode:passthrough"><path d="M45.455921875,56.5859753125L33.732421875,49.8251953125L33.732421875,52.2705853125L45.455921875,59.0313653125L45.455921875,56.5859753125Z" fill="#FFFFFF" fill-opacity="1"/></g><g style="opacity:0.15000000596046448;mix-blend-mode:passthrough"><path d="M45.455507177734376,61.4941078125L22.853607177734375,48.4580078125L22.853607177734375,50.9033978125L45.455507177734376,63.9395078125L45.455507177734376,61.4941078125Z" fill="#FFFFFF" fill-opacity="1"/></g><g style="opacity:0.15000000596046448;mix-blend-mode:passthrough"><path d="M45.4551125,66.385178125L18.0703125,50.580078125L18.0703125,53.025468125L45.4551125,68.830578125L45.4551125,66.385178125Z" fill="#FFFFFF" fill-opacity="1"/></g><g style="mix-blend-mode:passthrough"><path d="M48.33203125,60.811161874999996C48.33203125,63.112701875,49.69857125,65.755881875,51.370791249999996,66.726841875C53.04300125,67.697811875,54.409541250000004,66.618961875,54.409541250000004,64.317411875C54.409541250000004,62.015871875,53.04300125,59.372691875,51.370791249999996,58.401730875C49.69857125,57.430766875,48.33203125,58.509615875,48.33203125,60.811161874999996Z" fill-rule="evenodd" fill="#F2994A" fill-opacity="1"/></g><g style="opacity:0.20000000298023224;mix-blend-mode:passthrough"><path d="M41.98473,86.469240375C43.06358,87.080588375,43.92665,88.590974375,43.92665,89.831654375L43.92665,95.315794375L47.55875,97.401584375C48.63765,98.012884375,49.50075,99.523284375,49.50075,100.763984375C49.50075,102.004684375,48.63765,102.508084375,47.55875,101.896784375L43.92665,99.810984375L43.92665,105.295184375C43.92665,106.53578437499999,43.06358,107.039284375,41.98473,106.427984375C40.905879999999996,105.816584375,40.0428,104.306184375,40.0428,103.065484375L40.0428,97.581384375L36.41068,95.477624375C35.331829,94.866274375,34.46875,93.355894375,34.46875,92.115214375C34.46875,90.874534375,35.331829,90.371074375,36.41068,90.982424375L40.0428,93.068194375L40.0428,87.584054375C40.0428,86.361356375,40.905879999999996,85.857893375,41.98473,86.469240375Z" fill="url(#master_svg9_363_225458)" fill-opacity="1"/></g></g></svg>