<svg xmlns="http://www.w3.org/2000/svg" fill="none" viewBox="0 0 18 18" class="design-iconfont">
  <rect width="18" height="18" rx="6" fill="#2560D2"/>
  <g clip-path="url(#g42aboa7y__clip0_141_391)">
    <path d="M6.64473 9.3335H12.3346C12.5569 9.3335 12.7792 9.15569 12.7792 8.88897C12.7792 8.66671 12.6014 8.44445 12.3346 8.44445H6.86699L8.68954 6.6219C8.86735 6.44409 8.86735 6.17738 8.68954 5.99957C8.51173 5.82176 8.24502 5.82176 8.06721 5.99957L5.44451 8.62226C5.35561 8.71116 5.31116 8.84452 5.31116 8.97788C5.31116 9.11124 5.31116 9.24459 5.44451 9.3335L8.06721 11.9562C8.24502 12.134 8.51173 12.134 8.68954 11.9562C8.86735 11.7784 8.86735 11.5117 8.68954 11.3339L6.64473 9.3335Z" fill="#fff" stroke="#fff" stroke-width=".5"/>
  </g>
  <defs>
    <clipPath id="g42aboa7y__clip0_141_391">
      <path fill="#fff" transform="translate(5 5)" d="M0 0H8V8H0z"/>
    </clipPath>
  </defs>
</svg>
