<?xml version="1.0" standalone="no"?><!DOCTYPE svg PUBLIC "-//W3C//DTD SVG 1.1//EN" "http://www.w3.org/Graphics/SVG/1.1/DTD/svg11.dtd"><svg t="1661393795133" class="icon" viewBox="0 0 1024 1024" version="1.1" xmlns="http://www.w3.org/2000/svg" p-id="2670" xmlns:xlink="http://www.w3.org/1999/xlink" width="200" height="200"><defs><style type="text/css">@font-face { font-family: feedback-iconfont; src: url("//at.alicdn.com/t/font_1031158_u69w8yhxdu.woff2?t=1630033759944") format("woff2"), url("//at.alicdn.com/t/font_1031158_u69w8yhxdu.woff?t=1630033759944") format("woff"), url("//at.alicdn.com/t/font_1031158_u69w8yhxdu.ttf?t=1630033759944") format("truetype"); }
</style></defs><path d="M503.580444 101.717333l-369.777777 271.189334q-5.802667 4.266667-5.802667 11.434666v540.046223q0 14.222222 14.222222 14.222222h739.555556q14.222222 0 14.222222-14.222222V384.341333q0-7.168-5.802667-11.434666l-369.777777-271.189334q-8.419556-6.144-16.839112 0zM453.12 32.881778Q479.402667 13.653333 512 13.653333t58.88 19.285334l369.777778 271.132444q40.675556 29.866667 40.675555 80.270222v540.046223q0 41.244444-29.184 70.371555Q923.022222 1024 881.777778 1024h-739.555556q-41.244444 0-70.371555-29.184Q42.666667 965.632 42.666667 924.444444V384.341333q0-50.403556 40.675555-80.213333l369.777778-271.189333zM597.333333 685.112889h-170.666666q-5.916444 0-10.069334 4.152889t-4.152889 10.069333v225.166222q0 5.916444 4.152889 10.069334t10.069334 4.152889h170.666666q14.222222 0 14.222223-14.222223v-225.166222q0-14.222222-14.222223-14.222222z m0-85.333333q41.244444 0 70.371556 29.184 29.184 29.127111 29.184 70.371555v225.166222q0 41.244444-29.184 70.371556Q638.520889 1024 597.333333 1024h-170.666666q-41.244444 0-70.428445-29.184-29.127111-29.127111-29.127111-70.371556v-225.166222q0-41.244444 29.127111-70.371555 29.184-29.184 70.428445-29.184h170.666666z" p-id="2671"></path></svg>