<?xml version="1.0" standalone="no"?><!DOCTYPE svg PUBLIC "-//W3C//DTD SVG 1.1//EN" "http://www.w3.org/Graphics/SVG/1.1/DTD/svg11.dtd"><svg t="1661393791427" class="icon" viewBox="0 0 1024 1024" version="1.1" xmlns="http://www.w3.org/2000/svg" p-id="2535" xmlns:xlink="http://www.w3.org/1999/xlink" width="200" height="200"><defs><style type="text/css">@font-face { font-family: feedback-iconfont; src: url("//at.alicdn.com/t/font_1031158_u69w8yhxdu.woff2?t=1630033759944") format("woff2"), url("//at.alicdn.com/t/font_1031158_u69w8yhxdu.woff?t=1630033759944") format("woff"), url("//at.alicdn.com/t/font_1031158_u69w8yhxdu.ttf?t=1630033759944") format("truetype"); }
</style></defs><path d="M554.609778 635.221333h-213.333334q-3.754667 0-7.395555-0.739555t-7.111111-2.161778q-3.413333-1.422222-6.542222-3.527111-3.128889-2.048-5.745778-4.721778-2.673778-2.616889-4.721778-5.688889-2.104889-3.128889-3.527111-6.599111-1.422222-3.413333-2.161778-7.111111-0.739556-3.640889-0.739555-7.395556t0.739555-7.395555q0.739556-3.640889 2.161778-7.111111 1.422222-3.413333 3.527111-6.542222 2.048-3.128889 4.721778-5.745778 2.616889-2.673778 5.688889-4.721778 3.128889-2.104889 6.599111-3.527111 3.413333-1.422222 7.111111-2.161778 3.640889-0.739556 7.395555-0.739555h213.333334q3.754667 0 7.395555 0.739555t7.111111 2.161778q3.413333 1.422222 6.542223 3.527111 3.128889 2.048 5.745777 4.721778 2.673778 2.616889 4.721778 5.688889 2.104889 3.128889 3.527111 6.599111 1.422222 3.413333 2.161778 7.111111 0.739556 3.640889 0.739556 7.395555t-0.739556 7.395556q-0.739556 3.640889-2.161778 7.111111-1.422222 3.413333-3.527111 6.542222-2.048 3.128889-4.721778 5.745778-2.616889 2.673778-5.688888 4.721778-3.128889 2.104889-6.599112 3.527111-3.413333 1.422222-7.111111 2.161778-3.640889 0.739556-7.395555 0.739555z m128 128h-341.333334q-3.754667 0-7.395555-0.739555t-7.111111-2.161778q-3.413333-1.422222-6.542222-3.527111-3.128889-2.048-5.745778-4.721778-2.673778-2.616889-4.721778-5.688889-2.104889-3.128889-3.527111-6.599111-1.422222-3.413333-2.161778-7.111111-0.739556-3.640889-0.739555-7.395556t0.739555-7.395555q0.739556-3.640889 2.161778-7.111111 1.422222-3.413333 3.527111-6.542222 2.048-3.128889 4.721778-5.745778 2.616889-2.673778 5.688889-4.721778 3.128889-2.104889 6.599111-3.527111 3.413333-1.422222 7.111111-2.161778 3.640889-0.739556 7.395555-0.739555h341.333334q3.754667 0 7.395555 0.739555t7.111111 2.161778q3.413333 1.422222 6.542223 3.527111 3.128889 2.048 5.745777 4.721778 2.673778 2.616889 4.721778 5.688889 2.104889 3.128889 3.527111 6.599111 1.422222 3.413333 2.161778 7.111111 0.739556 3.640889 0.739556 7.395555t-0.739556 7.395556q-0.739556 3.697778-2.161778 7.111111t-3.527111 6.542222q-2.048 3.128889-4.721778 5.745778-2.616889 2.673778-5.688888 4.721778-3.128889 2.104889-6.599112 3.527111-3.413333 1.422222-7.111111 2.161778-3.640889 0.739556-7.395555 0.739555z m-549.831111 118.499556v-739.555556q0-39.253333 27.761777-67.015111 27.818667-27.818667 67.072-27.818666h568.888889q39.253333 0 67.015111 27.818666 27.818667 27.761778 27.818667 67.015111v739.555556q0 39.253333-27.818667 67.072-27.761778 27.761778-67.015111 27.761778h-568.888889q-39.253333 0-67.072-27.761778-27.761778-27.818667-27.761777-67.072z m75.889777 0q0 18.944 18.944 18.944h568.888889q18.944 0 18.944-18.944v-739.555556q0-7.850667-5.518222-13.425777-5.575111-5.518222-13.425778-5.518223h-568.888889q-7.850667 0-13.425777 5.518223-5.518222 5.575111-5.518223 13.425777v739.555556z m94.663112-455.111111V47.331556h267.889777v463.758222L412.103111 369.607111 437.304889 341.333333l25.144889 28.330667-159.118222 141.482667V426.609778z m75.889777 0h-37.944889l-25.201777-28.330667 121.173333-107.747555 121.173333 107.747555-25.144889 28.330667h-37.944888v-341.333334h37.944888v37.944889H341.276444v-37.944889h37.944889v341.333334z m213.219556 170.666666q0 3.754667-0.739556 7.395556t-2.161777 7.111111q-1.422222 3.413333-3.470223 6.485333-2.048 3.128889-4.721777 5.745778-2.616889 2.673778-5.688889 4.721778-3.128889 2.048-6.542223 3.470222-3.470222 1.422222-7.111111 2.161778-3.640889 0.739556-7.395555 0.739556-3.697778 0-7.395556-0.739556-3.640889-0.739556-7.054222-2.161778-3.470222-1.422222-6.542222-3.470222-3.128889-2.048-5.745778-4.721778-2.673778-2.616889-4.721778-5.688889-2.048-3.128889-3.470222-6.542222-1.422222-3.470222-2.161778-7.111111-0.739556-3.640889-0.739555-7.395556 0-3.697778 0.739555-7.395555 0.739556-3.640889 2.161778-7.054222 1.422222-3.470222 3.470222-6.542223 2.048-3.128889 4.721778-5.745777 2.616889-2.673778 5.688889-4.721778 3.128889-2.048 6.599111-3.470222 3.413333-1.422222 7.054222-2.161778 3.697778-0.739556 7.395556-0.739556 3.754667 0 7.395555 0.739556t7.111111 2.161778q3.413333 1.422222 6.485334 3.470222 3.128889 2.048 5.745778 4.721778 2.673778 2.616889 4.721777 5.688889 2.048 3.128889 3.470223 6.599111 1.422222 3.413333 2.161777 7.054222 0.739556 3.697778 0.739556 7.395555z m-213.333333 0q0 3.754667-0.739556 7.395556t-2.161778 7.111111q-1.422222 3.413333-3.470222 6.485333-2.048 3.128889-4.721778 5.745778-2.616889 2.673778-5.688889 4.721778-3.128889 2.048-6.542222 3.470222-3.470222 1.422222-7.111111 2.161778-3.640889 0.739556-7.395556 0.739556-3.697778 0-7.395555-0.739556-3.640889-0.739556-7.054222-2.161778-3.470222-1.422222-6.542223-3.470222-3.128889-2.048-5.745777-4.721778-2.673778-2.616889-4.721778-5.688889-2.048-3.128889-3.470222-6.542222-1.422222-3.470222-2.161778-7.111111-0.739556-3.640889-0.739556-7.395556 0-3.697778 0.739556-7.395555 0.739556-3.640889 2.161778-7.054222 1.422222-3.470222 3.470222-6.542223 2.048-3.128889 4.721778-5.745777 2.616889-2.673778 5.688889-4.721778 3.128889-2.048 6.599111-3.470222 3.413333-1.422222 7.054222-2.161778 3.697778-0.739556 7.395555-0.739556 3.754667 0 7.395556 0.739556t7.111111 2.161778q3.413333 1.422222 6.485333 3.470222 3.128889 2.048 5.745778 4.721778 2.673778 2.616889 4.721778 5.688889 2.048 3.128889 3.470222 6.599111 1.422222 3.413333 2.161778 7.054222 0.739556 3.697778 0.739556 7.395555z m341.333333 128q0 3.754667-0.739556 7.395556t-2.161777 7.111111q-1.422222 3.413333-3.470223 6.542222-2.048 3.072-4.721777 5.688889-2.616889 2.673778-5.688889 4.721778-3.128889 2.048-6.542223 3.470222-3.470222 1.422222-7.111111 2.161778-3.640889 0.739556-7.395555 0.739556-3.697778 0-7.395556-0.739556-3.640889-0.739556-7.054222-2.161778-3.470222-1.422222-6.542222-3.470222-3.128889-2.048-5.745778-4.721778-2.673778-2.616889-4.721778-5.688889-2.048-3.128889-3.470222-6.542222-1.422222-3.470222-2.161778-7.111111-0.739556-3.640889-0.739555-7.395556 0-3.697778 0.739555-7.395555 0.739556-3.640889 2.161778-7.054222 1.422222-3.470222 3.470222-6.542223 2.048-3.128889 4.721778-5.745777 2.616889-2.616889 5.688889-4.721778 3.128889-2.048 6.599111-3.470222 3.413333-1.422222 7.054222-2.161778 3.697778-0.739556 7.395556-0.739556 3.754667 0 7.395555 0.739556t7.111111 2.161778q3.413333 1.422222 6.485334 3.470222 3.128889 2.104889 5.745778 4.721778 2.673778 2.616889 4.721777 5.688889 2.048 3.128889 3.470223 6.599111 1.422222 3.413333 2.161777 7.054222 0.739556 3.697778 0.739556 7.395555z m-341.333333 0q0 3.754667-0.739556 7.395556t-2.161778 7.111111q-1.422222 3.413333-3.470222 6.542222-2.048 3.072-4.721778 5.688889-2.616889 2.673778-5.688889 4.721778-3.128889 2.048-6.542222 3.470222-3.470222 1.422222-7.111111 2.161778-3.640889 0.739556-7.395556 0.739556-3.697778 0-7.395555-0.739556-3.640889-0.739556-7.054222-2.161778-3.470222-1.422222-6.542223-3.470222-3.128889-2.048-5.745777-4.721778-2.673778-2.616889-4.721778-5.688889-2.048-3.128889-3.470222-6.542222-1.422222-3.470222-2.161778-7.111111-0.739556-3.640889-0.739556-7.395556 0-3.697778 0.739556-7.395555 0.739556-3.640889 2.161778-7.054222 1.422222-3.470222 3.470222-6.542223 2.048-3.128889 4.721778-5.745777 2.616889-2.616889 5.688889-4.721778 3.128889-2.048 6.599111-3.470222 3.413333-1.422222 7.054222-2.161778 3.697778-0.739556 7.395555-0.739556 3.754667 0 7.395556 0.739556t7.111111 2.161778q3.413333 1.422222 6.485333 3.470222 3.128889 2.104889 5.745778 4.721778 2.673778 2.616889 4.721778 5.688889 2.048 3.128889 3.470222 6.599111 1.422222 3.413333 2.161778 7.054222 0.739556 3.697778 0.739556 7.395555z" p-id="2536"></path></svg>