<svg xmlns="http://www.w3.org/2000/svg" xmlns:xlink="http://www.w3.org/1999/xlink" fill="none" version="1.1" width="18" height="18" viewBox="0 0 18 18"><clipPath id="master_svg0_672_45217"><rect x="0" y="0" width="18" height="18" rx="0"/></clipPath><g clip-path="url(#master_svg0_672_45217)" style="mix-blend-mode:passthrough"><g><g style="mix-blend-mode:passthrough"><path d="M2.94472,6.01398C2.49994,6.91422,2.25,7.92792,2.25,9C2.25,9.78893,2.3853400000000002,10.54628,2.63409,11.25C2.63409,11.25,5.96834,11.25,5.96834,11.25C5.96834,11.25,4.89495,9.3912,4.89495,9.3912C4.88869,9.38093,4.88268,9.37057,4.87694,9.36C4.87694,9.36,2.94472,6.01398,2.94472,6.01398C2.94472,6.01398,2.94472,6.01398,2.94472,6.01398ZM2.32118,4.1558600000000006C1.332885,5.51612,0.75,7.19,0.75,9C0.75,10.1559,0.987715,11.2563,1.4169260000000001,12.2549C1.427981,12.2855,1.44097,12.3152,1.4557449999999998,12.3437C2.61304,14.951,5.08222,16.8467,8.025500000000001,17.1931C8.0596,17.1993,8.09388,17.2031,8.12812,17.2045C8.41462,17.2346,8.705549999999999,17.25,9,17.25C11.697,17.25,14.0918,15.9558,15.5971,13.9546C15.628,13.9201,15.6552,13.8831,15.6788,13.8441C16.667099999999998,12.4839,17.25,10.81,17.25,9C17.25,7.84411,17.0123,6.74373,16.5831,5.7451C16.572,5.71451,16.558999999999997,5.68483,16.5443,5.65624C15.3869,3.049,12.9178,1.1533039999999999,9.97447,0.8069501C9.94042,0.800739,9.90615,0.7969522,9.87188,0.7955246C9.58537,0.7654296,9.29445,0.75,9,0.75C6.30297,0.75,3.90821,2.04418,2.40286,4.045389999999999C2.3720600000000003,4.07989,2.34478,4.116899999999999,2.32118,4.1558600000000006C2.32118,4.1558600000000006,2.32118,4.1558600000000006,2.32118,4.1558600000000006ZM3.86865,4.6144099999999995C3.86865,4.6144099999999995,5.53505,7.50014,5.53505,7.50014C5.53505,7.50014,6.61401,5.63169,6.61401,5.63169C6.61636,5.62754,6.61873,5.62342,6.62116,5.61932C6.62116,5.61932,8.55863,2.2641999999999998,8.55863,2.2641999999999998C6.68371,2.38522,5.01727,3.27172,3.86865,4.6144099999999995C3.86865,4.6144099999999995,3.86865,4.6144099999999995,3.86865,4.6144099999999995ZM10.23397,2.36253C10.23397,2.36253,8.56658,5.25,8.56658,5.25C8.56658,5.25,10.7181,5.25,10.7181,5.25C10.72725,5.24984,10.7364,5.24984,10.74547,5.25C10.74547,5.25,14.6134,5.25,14.6134,5.25C13.6205,3.76679,12.0554,2.69902,10.23397,2.36253C10.23397,2.36253,10.23397,2.36253,10.23397,2.36253ZM15.3659,6.75C15.3659,6.75,12.0317,6.75,12.0317,6.75C12.0317,6.75,13.1051,8.608730000000001,13.1051,8.608730000000001C13.1113,8.61907,13.1173,8.6295,13.1231,8.64C13.1231,8.64,15.0553,11.986,15.0553,11.986C15.5001,11.0858,15.75,10.07205,15.75,9C15.75,8.21107,15.6146,7.45376,15.3659,6.75C15.3659,6.75,15.3659,6.75,15.3659,6.75ZM14.1314,13.3856C14.1314,13.3856,12.4649,10.49985,12.4649,10.49985C12.4649,10.49985,11.386,12.3683,11.386,12.3683C11.3836,12.3724,11.3813,12.3766,11.3788,12.3807C11.3788,12.3807,9.44137,15.7358,9.44137,15.7358C11.3163,15.6148,12.9827,14.7283,14.1314,13.3856C14.1314,13.3856,14.1314,13.3856,14.1314,13.3856ZM7.76603,15.6375C7.76603,15.6375,9.43342,12.75,9.43342,12.75C9.43342,12.75,7.28189,12.75,7.28189,12.75C7.27275,12.7502,7.26362,12.7502,7.25451,12.75C7.25451,12.75,3.38666,12.75,3.38666,12.75C4.3794900000000005,14.2332,5.94457,15.301,7.76603,15.6375C7.76603,15.6375,7.76603,15.6375,7.76603,15.6375ZM7.70047,11.25C7.70047,11.25,10.2996,11.25,10.2996,11.25C10.2996,11.25,11.5989,9.00008,11.5989,9.00008C11.5989,9.00008,10.29953,6.75,10.29953,6.75C10.29953,6.75,7.70036,6.75,7.70036,6.75C7.70036,6.75,6.40112,8.99992,6.40112,8.99992C6.40112,8.99992,7.70047,11.25,7.70047,11.25C7.70047,11.25,7.70047,11.25,7.70047,11.25Z" fill-rule="evenodd" fill="#BBBBBB" fill-opacity="1"/></g></g></g></svg>