<svg width="88" height="81" viewBox="0 0 88 81" fill="none" xmlns="http://www.w3.org/2000/svg">
<g opacity="0.2">
<path d="M46.7999 53.1805C43.8691 51.3811 41.595 49.3168 39.8619 46.7006C33.5917 37.2236 35.8051 22.3099 47.1145 16.542C54.1795 12.9378 63.226 14.8089 68.4364 21.1894C74.1159 28.1495 75.1978 35.8106 71.5659 44.1064C70.1143 47.4181 68.1162 50.2496 65.1247 52.325C64.8984 52.485 64.6942 52.6727 64.4844 52.8604C64.4292 52.91 64.4016 52.9928 64.2691 53.2191C64.9425 53.3847 65.5773 53.5117 66.201 53.6938C73.9669 55.9127 80.4744 59.9253 84.9618 66.8413C87.4621 70.6939 89.0352 74.9218 89.7527 79.4202C90.2715 82.6602 90.531 85.9553 90.7131 89.2339C90.8677 92.0544 89.4326 93.6937 86.441 94.5823C82.7485 95.6752 78.9345 95.8132 75.1315 95.907C60.4938 96.2658 45.8506 96.3872 31.2183 95.6807C28.9388 95.5703 26.6482 95.1343 24.4294 94.5768C21.1784 93.7599 20.0524 92.0047 20.1517 88.6709C20.2787 84.3381 20.6982 80.055 21.929 75.8712C25.0862 65.1413 31.9745 58.0101 42.5223 54.3782C43.1957 54.1464 43.8746 53.9146 44.559 53.7214C45.1993 53.5337 45.8506 53.4068 46.7999 53.1805Z" fill="#EB7736"/>
<path d="M34.0554 20.1741C27.9288 30.7053 28.2599 41.0985 34.7619 51.4862C21.0183 58.2256 14.9358 70.0207 13.2303 84.7413C10.6858 84.802 8.1634 84.9013 5.87832 83.7478C5.09455 83.3559 4.18383 82.3789 4.10104 81.5896C3.83058 78.9292 3.58221 76.1971 3.90234 73.5643C4.81858 66.1185 8.13028 59.8373 13.8871 54.9359C16.6358 52.5957 19.7764 50.9288 23.2372 49.8911C23.6125 49.7807 23.9823 49.6593 24.5674 49.4771C20.5326 47.2417 17.9219 44.057 16.6745 39.8014C15.416 35.5183 15.8686 31.3842 17.966 27.4764C21.2667 21.3332 27.9508 18.3306 34.0554 20.1741Z" fill="#F85B18"/>
<path d="M75.4294 51.4807C82.1191 41.0102 82.086 30.5287 76.1139 19.8484C79.2158 18.9101 82.2295 19.1309 85.0996 20.5715C90.4756 23.265 93.4341 27.7193 93.8812 33.6582C94.3448 39.7849 92.1425 44.8463 87.048 48.4836C86.5678 48.8259 86.0214 49.0687 85.3921 49.422C85.6902 49.5765 85.8999 49.72 86.1318 49.7973C97.4468 53.6002 103.789 61.6918 106.002 73.1724C106.488 75.6948 106.355 78.3663 106.295 80.9604C106.25 82.6991 105.058 83.8306 103.397 84.1507C101.321 84.5481 99.1964 84.7082 96.9555 84.9842C95.4156 69.9877 89.2337 58.2642 75.4294 51.4807Z" fill="#EB7736"/>
<path d="M85.5469 67.7909C85.3537 67.4708 85.166 67.1507 84.9618 66.8305C80.4744 59.9146 73.9669 55.9019 66.201 53.6831C65.5773 53.5064 64.9481 53.374 64.2692 53.2084C64.4016 52.9821 64.4237 52.8993 64.4844 52.8496C64.6942 52.6675 64.8984 52.4743 65.1247 52.3142C68.1163 50.2389 70.1143 47.4074 71.5659 44.0957C75.1978 35.7999 74.1215 28.1388 68.4364 21.1787C63.226 14.7981 54.1795 12.9325 47.1145 16.5313C35.8051 22.2991 33.5917 37.2128 39.8619 46.6898C41.595 49.3116 43.8635 51.3704 46.7999 53.1697C45.8506 53.3905 45.1993 53.523 44.559 53.6996C43.8746 53.8928 43.1957 54.1246 42.5223 54.3564C31.9745 57.9883 25.0862 65.1195 21.929 75.8494C20.6982 80.0332 20.2787 84.3163 20.1517 88.6491C20.0524 91.9774 21.1784 93.7381 24.4294 94.555C25.4118 94.8034 26.4164 95.0186 27.4209 95.2008C28.8118 95.2891 30.2083 95.3388 31.6157 95.3388C53.8042 95.3443 73.4536 84.4874 85.5469 67.7909Z" fill="#F85B18"/>
<path d="M86.1318 49.7914C85.8999 49.7142 85.6957 49.5706 85.3921 49.4161C86.0214 49.0628 86.5678 48.82 87.048 48.4778C92.1425 44.8404 94.3448 39.779 93.8812 33.6524C93.4341 27.7134 90.4756 23.2592 85.0996 20.5656C82.2295 19.125 79.2158 18.9043 76.1139 19.8426C82.086 30.5228 82.1136 41.0044 75.4294 51.4749C81.2249 54.3229 85.6736 58.0431 89.0019 62.5084C90.7295 59.5775 92.2363 56.5031 93.5058 53.3074C91.3311 51.8999 88.8805 50.7132 86.1318 49.7914Z" fill="#F85B18"/>
<path d="M34.0553 20.1741C27.9507 18.3306 21.2721 21.3332 17.9714 27.4764C15.874 31.3842 15.4214 35.5183 16.6799 39.8014C17.9273 44.057 20.5435 47.2417 24.5728 49.4771C23.9877 49.6593 23.6179 49.7807 23.2425 49.8911C19.7763 50.9288 16.6412 52.5957 13.8925 54.9359C8.78696 59.2798 5.61325 64.7165 4.31616 71.086C7.29118 71.4945 10.3269 71.7097 13.4123 71.7097C14.3782 71.7097 15.3386 71.6821 16.299 71.6435C19.5886 63.0275 25.3896 56.0785 34.7618 51.4862C28.2598 41.1041 27.9286 30.7053 34.0553 20.1741Z" fill="#FF650F"/>
<path d="M42.5222 54.3672C33.6965 57.4084 27.4429 62.9059 23.7834 70.9036C45.8946 67.4429 64.3905 53.0977 73.6301 33.5255C73.3541 29.2037 71.6155 25.0862 68.4363 21.1894C63.2258 14.8089 54.1794 12.9433 47.1144 16.542C35.8049 22.3099 33.5916 37.2236 39.8618 46.7006C41.5949 49.3223 43.8634 51.3811 46.7998 53.1805C45.8504 53.4013 45.1991 53.5337 44.5589 53.7104C43.8744 53.9091 43.2011 54.1354 42.5222 54.3672Z" fill="#FF650F"/>
<path d="M17.9715 27.4758C15.8741 31.3836 15.4215 35.5178 16.6799 39.8009C17.1767 41.4954 17.8997 43.0133 18.8325 44.371C22.704 43.0057 26.4402 41.2836 29.993 39.2269C29.016 32.907 30.3407 26.5651 34.0609 20.1735C27.9508 18.33 21.2666 21.3326 17.9715 27.4758ZM47.12 16.5417C39.895 20.2232 36.3901 27.6359 36.4287 34.9824C43.7145 29.5457 49.8522 22.6573 54.4058 14.7368C51.8999 14.792 49.4051 15.3771 47.12 16.5417Z" fill="#FB762C"/>
</g>
</svg>
