<svg width="88" height="81" viewBox="0 0 88 81" fill="none" xmlns="http://www.w3.org/2000/svg">
<g opacity="0.2">
<path d="M10.3789 46.1537L19.5018 37.0914C20.9004 35.7027 22.7919 34.9243 24.7628 34.9264H34.1171V27.3295C34.1171 20.9115 39.3231 15.7056 45.741 15.7056H88.9369C95.3548 15.7056 100.561 20.9115 100.561 27.3295V74.6516C100.561 80.7445 95.8727 85.7301 89.9119 86.2259C89.8844 77.2463 82.574 69.9524 73.5889 69.9524C64.5872 69.9524 57.2658 77.2738 57.2658 86.2755H52.0157C52.0157 77.2738 44.6943 69.9524 35.6926 69.9524C26.691 69.9524 19.3696 77.2738 19.3696 86.2755H18.8462C12.9626 86.2755 8.19185 81.5323 8.19185 75.6873V51.3817C8.19736 49.4205 8.97964 47.5419 10.3789 46.1537ZM61.5683 49.8777C61.5683 52.175 63.4358 54.048 65.7386 54.048H82.7613C84.447 54.048 85.9124 52.3788 85.9124 50.6931C85.9124 49.0073 84.447 47.1949 82.7613 47.1949H68.4214V34.5022C68.4214 32.8164 66.8183 31.4447 65.1326 31.4447C63.4468 31.4447 61.5738 32.8109 61.5738 34.5022V49.8777H61.5683ZM15.8989 57.2763H28.2225C30.5197 57.2763 32.3928 55.4087 32.3928 53.106V42.3525C32.3928 40.6667 30.7291 39.295 29.0433 39.295C27.3576 39.295 25.5451 40.6612 25.5451 42.3525V50.4286H15.9044C14.2187 50.4286 12.8469 52.1639 12.8469 53.8497C12.8469 55.5354 14.2132 57.2763 15.8989 57.2763Z" fill="#3268F3"/>
<path d="M83.9402 86.2761C83.9402 89.0317 82.8455 91.6744 80.897 93.6229C78.9486 95.5714 76.3058 96.6661 73.5503 96.6661C70.7947 96.6661 68.152 95.5714 66.2035 93.6229C64.255 91.6744 63.1603 89.0317 63.1603 86.2761C63.1603 83.5206 64.255 80.8779 66.2035 78.9294C68.152 76.9809 70.7947 75.8862 73.5503 75.8862C76.3058 75.8862 78.9486 76.9809 80.897 78.9294C82.8455 80.8779 83.9402 83.5206 83.9402 86.2761Z" fill="#497BFC"/>
<path d="M46.088 86.2761C46.088 89.0317 44.9934 91.6744 43.0449 93.6229C41.0964 95.5714 38.4537 96.6661 35.6981 96.6661C32.9425 96.6661 30.2998 95.5714 28.3513 93.6229C26.4028 91.6744 25.3082 89.0317 25.3082 86.2761C25.3082 83.5206 26.4028 80.8779 28.3513 78.9294C30.2998 76.9809 32.9425 75.8862 35.6981 75.8862C38.4537 75.8862 41.0964 76.9809 43.0449 78.9294C44.9934 80.8779 46.088 83.5206 46.088 86.2761Z" fill="#3268F3"/>
<path d="M28.2225 57.2763C30.5197 57.2763 32.3928 55.4087 32.3928 53.106V42.3525C32.3928 40.6667 30.7291 39.295 29.0433 39.295C27.3576 39.295 25.5451 40.6612 25.5451 42.3525V50.4286H22.2012C20.9011 45.8231 20.0912 41.7575 19.8323 36.7994C21.1875 35.604 22.9394 34.9264 24.7684 34.9264H34.1226V27.3295C34.1226 20.9115 39.3286 15.7056 45.7465 15.7056H88.9369C95.3548 15.7056 100.561 20.9115 100.561 27.3295V74.6516C100.561 80.7445 95.8727 85.7301 89.9119 86.2259C89.8844 77.2463 82.574 69.9524 73.5889 69.9524C64.5872 69.9524 57.2658 77.2738 57.2658 86.2755H52.0157C52.0157 77.2738 44.6943 69.9524 35.6926 69.9524C34.1942 69.9524 32.7398 70.1618 31.3571 70.5419C28.5034 66.4377 26.107 61.992 24.2505 57.2763H28.2225ZM61.5683 49.8777C61.5683 52.175 63.4358 54.048 65.7386 54.048H82.7613C84.447 54.048 85.9124 52.3788 85.9124 50.6931C85.9124 49.0073 84.447 47.1949 82.7613 47.1949H68.4214V34.5022C68.4214 32.8164 66.8183 31.4447 65.1326 31.4447C63.4468 31.4447 61.5738 32.8109 61.5738 34.5022V49.8777H61.5683Z" fill="#497BFC"/>
<path d="M46.0551 85.7197C42.1878 82.8441 38.651 79.5497 35.5109 75.8972C35.5715 75.8972 35.6321 75.8862 35.6982 75.8862C41.2457 75.8917 45.7631 80.2438 46.0551 85.7197Z" fill="#497BFC"/>
<path d="M45.741 15.7056H88.9369C95.3548 15.7056 100.561 20.9115 100.561 27.3295V74.6516C100.561 74.894 100.539 75.1364 100.528 75.3788C93.5975 75.1474 86.9426 73.8307 80.7285 71.5996C79.8966 71.1919 79.0207 70.8614 78.1172 70.597C56.803 61.8873 41.1245 42.2147 38.1001 18.5868C40.1439 16.7963 42.8157 15.7056 45.741 15.7056ZM61.5683 49.8777C61.5683 52.175 63.4358 54.048 65.7386 54.048H82.7613C84.1606 54.048 85.9124 52.6432 85.9124 50.693C85.9124 48.6547 84.0008 47.1948 82.7613 47.1948H68.4214V34.5022C68.4214 32.8164 66.8183 31.4447 65.1326 31.4447C63.4468 31.4447 61.5738 32.8109 61.5738 34.5022V49.8777H61.5683Z" fill="#5C93FF"/>
<path d="M88.9369 15.7056C95.3548 15.7056 100.561 20.9115 100.561 27.3295V49.6519C82.9596 44.4183 68.4655 31.957 60.5381 15.7056H88.9369Z" fill="#6E9FFF"/>
</g>
</svg>
