<?xml version="1.0" standalone="no"?><!DOCTYPE svg PUBLIC "-//W3C//DTD SVG 1.1//EN" "http://www.w3.org/Graphics/SVG/1.1/DTD/svg11.dtd"><svg t="1661421885283" class="icon" viewBox="0 0 1024 1024" version="1.1" xmlns="http://www.w3.org/2000/svg" p-id="2508" xmlns:xlink="http://www.w3.org/1999/xlink" width="200" height="200"><defs><style type="text/css">@font-face { font-family: feedback-iconfont; src: url("//at.alicdn.com/t/font_1031158_u69w8yhxdu.woff2?t=1630033759944") format("woff2"), url("//at.alicdn.com/t/font_1031158_u69w8yhxdu.woff?t=1630033759944") format("woff"), url("//at.alicdn.com/t/font_1031158_u69w8yhxdu.ttf?t=1630033759944") format("truetype"); }
</style></defs><path d="M122.823111 122.823111A128 128 0 0 1 213.333333 85.333333H341.333333A42.666667 42.666667 0 0 1 341.333333 170.666667H213.333333a42.666667 42.666667 0 0 0-42.666666 42.666666V341.333333a42.666667 42.666667 0 0 1-85.333334 0V213.333333c0-33.962667 13.482667-66.503111 37.489778-90.510222z m517.176889 5.176889A42.666667 42.666667 0 0 1 682.666667 85.333333h128a128 128 0 0 1 128 128V341.333333A42.666667 42.666667 0 0 1 853.333333 341.333333V213.333333a42.666667 42.666667 0 0 0-42.666666-42.666666H682.666667a42.666667 42.666667 0 0 1-42.666667-42.666667z m-512 512A42.666667 42.666667 0 0 1 170.666667 682.666667v128a42.666667 42.666667 0 0 0 42.666666 42.666666H341.333333a42.666667 42.666667 0 0 1 0 85.333334H213.333333a128 128 0 0 1-128-128V682.666667a42.666667 42.666667 0 0 1 42.666667-42.666667z m768 0a42.666667 42.666667 0 0 1 42.666667 42.666667v128a128 128 0 0 1-128 128H682.666667a42.666667 42.666667 0 0 1 0-85.333334h128a42.666667 42.666667 0 0 0 42.666666-42.666666V682.666667a42.666667 42.666667 0 0 1 42.666667-42.666667z" p-id="2509"></path></svg>