<?xml version="1.0" standalone="no"?><!DOCTYPE svg PUBLIC "-//W3C//DTD SVG 1.1//EN" "http://www.w3.org/Graphics/SVG/1.1/DTD/svg11.dtd"><svg t="1661391642536" class="icon" viewBox="0 0 1024 1024" version="1.1" xmlns="http://www.w3.org/2000/svg" p-id="1813" xmlns:xlink="http://www.w3.org/1999/xlink" width="200" height="200"><defs><style type="text/css">@font-face { font-family: feedback-iconfont; src: url("//at.alicdn.com/t/font_1031158_u69w8yhxdu.woff2?t=1630033759944") format("woff2"), url("//at.alicdn.com/t/font_1031158_u69w8yhxdu.woff?t=1630033759944") format("woff"), url("//at.alicdn.com/t/font_1031158_u69w8yhxdu.ttf?t=1630033759944") format("truetype"); }
</style></defs><path d="M853.333333 170.666667H170.666667q-4.209778 0-8.305778-0.796445-4.152889-0.853333-8.021333-2.446222-3.868444-1.592889-7.395556-3.982222-3.470222-2.275556-6.428444-5.290667-3.015111-2.958222-5.347556-6.428444-2.275556-3.527111-3.925333-7.395556-1.592889-3.868444-2.446223-7.964444-0.796444-4.152889-0.796444-8.362667t0.796444-8.305778q0.853333-4.152889 2.446223-8.021333 1.592889-3.868444 3.982222-7.395556 2.275556-3.470222 5.290667-6.428444 2.958222-3.015111 6.428444-5.347556 3.527111-2.275556 7.395556-3.925333 3.868444-1.592889 7.964444-2.446222Q166.513778 85.333333 170.666667 85.333333h682.666666q4.209778 0 8.305778 0.796445 4.152889 0.853333 8.021333 2.446222 3.868444 1.592889 7.395556 3.982222 3.470222 2.275556 6.428444 5.290667 3.015111 2.958222 5.347556 6.428444 2.275556 3.527111 3.925333 7.395556 1.592889 3.868444 2.446223 7.964444 0.796444 4.152889 0.796444 8.362667t-0.796444 8.305778q-0.853333 4.152889-2.446223 8.021333-1.592889 3.868444-3.982222 7.395556-2.275556 3.470222-5.290667 6.428444-2.958222 3.015111-6.428444 5.347556-3.527111 2.275556-7.395556 3.925333-3.868444 1.592889-7.964444 2.446222Q857.486222 170.666667 853.333333 170.666667zM469.333333 746.666667v-213.333334q0-4.209778 0.796445-8.305777 0.853333-4.152889 2.446222-8.021334 1.592889-3.868444 3.982222-7.395555 2.275556-3.470222 5.290667-6.428445 2.958222-3.015111 6.428444-5.347555 3.527111-2.275556 7.395556-3.925334 3.868444-1.592889 7.964444-2.446222 4.152889-0.796444 8.362667-0.796444t8.305778 0.796444q4.152889 0.853333 8.021333 2.446222 3.868444 1.592889 7.395556 3.982223 3.470222 2.275556 6.428444 5.290666 3.015111 2.958222 5.347556 6.428445 2.275556 3.527111 3.925333 7.395555 1.592889 3.868444 2.446222 7.964445 0.796444 4.152889 0.796445 8.362666v213.333334q0 4.209778-0.796445 8.305777-0.853333 4.152889-2.446222 8.021334-1.592889 3.868444-3.982222 7.395555-2.275556 3.470222-5.290667 6.428445-2.958222 3.015111-6.428444 5.347555-3.527111 2.275556-7.395556 3.925334-3.868444 1.592889-7.964444 2.446222-4.152889 0.796444-8.362667 0.796444t-8.305778-0.796444q-4.152889-0.853333-8.021333-2.446222-3.868444-1.592889-7.395556-3.982223-3.470222-2.275556-6.428444-5.290666-3.015111-2.958222-5.347556-6.428445-2.275556-3.527111-3.925333-7.395555-1.592889-3.868444-2.446222-7.964445-0.796444-4.152889-0.796445-8.362666z m170.666667-42.666667h-256q-4.209778 0-8.305778-0.796444-4.152889-0.853333-8.021333-2.446223-3.868444-1.592889-7.395556-3.982222-3.470222-2.275556-6.428444-5.290667-3.015111-2.958222-5.347556-6.428444-2.275556-3.527111-3.925333-7.395556-1.592889-3.868444-2.446222-7.964444Q341.333333 665.486222 341.333333 661.276444t0.796445-8.305777q0.853333-4.152889 2.446222-8.021334 1.592889-3.868444 3.982222-7.395555 2.275556-3.470222 5.290667-6.428445 2.958222-3.015111 6.428444-5.347555 3.527111-2.275556 7.395556-3.925334 3.868444-1.592889 7.964444-2.446222 4.152889-0.796444 8.362667-0.796444h256q4.209778 0 8.305778 0.796444 4.152889 0.853333 8.021333 2.446222 3.868444 1.592889 7.395556 3.982223 3.470222 2.275556 6.428444 5.290666 3.015111 2.958222 5.347556 6.428445 2.275556 3.527111 3.925333 7.395555 1.592889 3.868444 2.446222 7.964445 0.796444 4.152889 0.796445 8.362666t-0.796445 8.305778q-0.853333 4.152889-2.446222 8.021334-1.592889 3.868444-3.982222 7.395555-2.275556 3.470222-5.290667 6.428445-2.958222 3.015111-6.428444 5.347555-3.527111 2.275556-7.395556 3.925333-3.868444 1.592889-7.964444 2.446223-4.152889 0.796444-8.362667 0.796444z m0-128h-256q-4.209778 0-8.305778-0.796444-4.152889-0.853333-8.021333-2.446223-3.868444-1.592889-7.395556-3.982222-3.470222-2.275556-6.428444-5.290667-3.015111-2.958222-5.347556-6.428444-2.275556-3.527111-3.925333-7.395556-1.592889-3.868444-2.446222-7.964444Q341.333333 537.486222 341.333333 533.276444t0.796445-8.305777q0.853333-4.152889 2.446222-8.021334 1.592889-3.868444 3.982222-7.395555 2.275556-3.470222 5.290667-6.428445 2.958222-3.015111 6.428444-5.347555 3.527111-2.275556 7.395556-3.925334 3.868444-1.592889 7.964444-2.446222 4.152889-0.796444 8.362667-0.796444h256q4.209778 0 8.305778 0.796444 4.152889 0.853333 8.021333 2.446222 3.868444 1.592889 7.395556 3.982223 3.470222 2.275556 6.428444 5.290666 3.015111 2.958222 5.347556 6.428445 2.275556 3.527111 3.925333 7.395555 1.592889 3.868444 2.446222 7.964445 0.796444 4.152889 0.796445 8.362666t-0.796445 8.305778q-0.853333 4.152889-2.446222 8.021334-1.592889 3.868444-3.982222 7.395555-2.275556 3.470222-5.290667 6.428445-2.958222 3.015111-6.428444 5.347555-3.527111 2.275556-7.395556 3.925333-3.868444 1.592889-7.964444 2.446223-4.152889 0.796444-8.362667 0.796444z m8.817778-140.515556L542.151111 542.151111q-2.958222 3.015111-6.428444 5.347556-3.527111 2.275556-7.395556 3.925333-3.868444 1.592889-7.964444 2.446222-4.152889 0.796444-8.362667 0.796445t-8.305778-0.796445q-4.152889-0.853333-8.021333-2.446222-3.868444-1.592889-7.395556-3.982222-3.470222-2.275556-6.428444-5.290667L375.182222 435.484444q-3.015111-2.958222-5.347555-6.428444-2.275556-3.527111-3.925334-7.395556-1.592889-3.868444-2.446222-7.964444-0.796444-4.152889-0.796444-8.362667t0.796444-8.305777q0.853333-4.152889 2.446222-8.021334 1.592889-3.868444 3.982223-7.395555 2.275556-3.470222 5.290666-6.428445 2.958222-3.015111 6.428445-5.347555 3.527111-2.275556 7.395555-3.925334 3.868444-1.592889 7.964445-2.446222 4.152889-0.796444 8.362666-0.796444t8.305778 0.796444q4.152889 0.853333 8.021333 2.446222 3.868444 1.592889 7.395556 3.982223 3.470222 2.275556 6.428444 5.290666L542.151111 481.848889 512 512l-30.151111-30.151111 106.666667-106.666667q2.958222-3.015111 6.428444-5.347555 3.527111-2.275556 7.395556-3.925334 3.868444-1.592889 7.964444-2.446222 4.152889-0.796444 8.362667-0.796444t8.305777 0.796444q4.152889 0.853333 8.021334 2.446222 3.868444 1.592889 7.395555 3.982223 3.470222 2.275556 6.428445 5.290666 3.015111 2.958222 5.347555 6.428445 2.275556 3.527111 3.925334 7.395555 1.592889 3.868444 2.446222 7.964445 0.796444 4.152889 0.796444 8.362666t-0.796444 8.305778q-0.853333 4.152889-2.446222 8.021333-1.592889 3.868444-3.982223 7.395556-2.275556 3.470222-5.290666 6.428444zM42.666667 853.333333V298.666667q0-35.328 25.031111-60.302223 24.974222-25.031111 60.302222-25.031111h768q35.328 0 60.302222 25.031111 25.031111 24.974222 25.031111 60.302223V853.333333q0 35.328-25.031111 60.302223-24.974222 25.031111-60.302222 25.031111H128q-35.328 0-60.302222-25.031111Q42.666667 888.718222 42.666667 853.333333z m85.333333 0h768V298.666667H128V853.333333z m768-725.333333q0 4.209778-0.796444 8.305778-0.853333 4.152889-2.446223 8.021333-1.592889 3.868444-3.982222 7.395556-2.275556 3.470222-5.290667 6.428444-2.958222 3.015111-6.428444 5.347556-3.527111 2.275556-7.395556 3.925333-3.868444 1.592889-7.964444 2.446222Q857.486222 170.666667 853.333333 170.666667t-8.305777-0.796445q-4.152889-0.853333-8.021334-2.446222-3.868444-1.592889-7.395555-3.982222-3.470222-2.275556-6.428445-5.290667-3.015111-2.958222-5.347555-6.428444-2.275556-3.527111-3.925334-7.395556-1.592889-3.868444-2.446222-7.964444-0.796444-4.152889-0.796444-8.362667t0.796444-8.305778q0.853333-4.152889 2.446222-8.021333 1.592889-3.868444 3.982223-7.395556 2.275556-3.470222 5.290666-6.428444 2.958222-3.015111 6.428445-5.347556 3.527111-2.275556 7.395555-3.925333 3.868444-1.592889 7.964445-2.446222 4.152889-0.796444 8.362666-0.796445t8.305778 0.796445q4.152889 0.853333 8.021333 2.446222 3.868444 1.592889 7.395556 3.982222 3.470222 2.275556 6.428444 5.290667 3.015111 2.958222 5.347556 6.428444 2.275556 3.527111 3.925333 7.395556 1.592889 3.868444 2.446223 7.964444 0.796444 4.152889 0.796444 8.362667z m-682.666667 0q0 4.209778-0.796444 8.305778-0.853333 4.152889-2.446222 8.021333-1.592889 3.868444-3.982223 7.395556-2.275556 3.470222-5.290666 6.428444-2.958222 3.015111-6.428445 5.347556-3.527111 2.275556-7.395555 3.925333-3.868444 1.592889-7.964445 2.446222Q174.819556 170.666667 170.666667 170.666667t-8.305778-0.796445q-4.152889-0.853333-8.021333-2.446222-3.868444-1.592889-7.395556-3.982222-3.470222-2.275556-6.428444-5.290667-3.015111-2.958222-5.347556-6.428444-2.275556-3.527111-3.925333-7.395556-1.592889-3.868444-2.446223-7.964444-0.796444-4.152889-0.796444-8.362667t0.796444-8.305778q0.853333-4.152889 2.446223-8.021333 1.592889-3.868444 3.982222-7.395556 2.275556-3.470222 5.290667-6.428444 2.958222-3.015111 6.428444-5.347556 3.527111-2.275556 7.395556-3.925333 3.868444-1.592889 7.964444-2.446222Q166.513778 85.333333 170.666667 85.333333t8.305777 0.796445q4.152889 0.853333 8.021334 2.446222 3.868444 1.592889 7.395555 3.982222 3.470222 2.275556 6.428445 5.290667 3.015111 2.958222 5.347555 6.428444 2.275556 3.527111 3.925334 7.395556 1.592889 3.868444 2.446222 7.964444 0.796444 4.152889 0.796444 8.362667z m341.333334 618.666667q0 4.209778-0.796445 8.305777-0.853333 4.152889-2.446222 8.021334-1.592889 3.868444-3.982222 7.395555-2.275556 3.470222-5.290667 6.428445-2.958222 3.015111-6.428444 5.347555-3.527111 2.275556-7.395556 3.925334-3.868444 1.592889-7.964444 2.446222-4.152889 0.796444-8.362667 0.796444t-8.305778-0.796444q-4.152889-0.853333-8.021333-2.446222-3.868444-1.592889-7.395556-3.982223-3.470222-2.275556-6.428444-5.290666-3.015111-2.958222-5.347556-6.428445-2.275556-3.527111-3.925333-7.395555-1.592889-3.868444-2.446222-7.964445-0.796444-4.152889-0.796445-8.362666t0.796445-8.305778q0.853333-4.152889 2.446222-8.021333 1.592889-3.868444 3.982222-7.395556 2.275556-3.470222 5.290667-6.428444 2.958222-3.015111 6.428444-5.347556 3.527111-2.275556 7.395556-3.925333 3.868444-1.592889 7.964444-2.446223 4.152889-0.796444 8.362667-0.796444t8.305778 0.796444q4.152889 0.853333 8.021333 2.446223 3.868444 1.592889 7.395556 3.982222 3.470222 2.275556 6.428444 5.290667 3.015111 2.958222 5.347556 6.428444 2.275556 3.527111 3.925333 7.395556 1.592889 3.868444 2.446222 7.964444 0.796444 4.152889 0.796445 8.362667z m0-213.333334q0 4.209778-0.796445 8.305778-0.853333 4.152889-2.446222 8.021333-1.592889 3.868444-3.982222 7.395556-2.275556 3.470222-5.290667 6.428444-2.958222 3.015111-6.428444 5.347556-3.527111 2.275556-7.395556 3.925333-3.868444 1.592889-7.964444 2.446223-4.152889 0.796444-8.362667 0.796444t-8.305778-0.796444q-4.152889-0.853333-8.021333-2.446223-3.868444-1.592889-7.395556-3.982222-3.470222-2.275556-6.428444-5.290667-3.015111-2.958222-5.347556-6.428444-2.275556-3.527111-3.925333-7.395556-1.592889-3.868444-2.446222-7.964444-0.796444-4.152889-0.796445-8.362667t0.796445-8.305777q0.853333-4.152889 2.446222-8.021334 1.592889-3.868444 3.982222-7.395555 2.275556-3.470222 5.290667-6.428445 2.958222-3.015111 6.428444-5.347555 3.527111-2.275556 7.395556-3.925334 3.868444-1.592889 7.964444-2.446222 4.152889-0.796444 8.362667-0.796444t8.305778 0.796444q4.152889 0.853333 8.021333 2.446222 3.868444 1.592889 7.395556 3.982223 3.470222 2.275556 6.428444 5.290666 3.015111 2.958222 5.347556 6.428445 2.275556 3.527111 3.925333 7.395555 1.592889 3.868444 2.446222 7.964445 0.796444 4.152889 0.796445 8.362666z m128 128q0 4.209778-0.796445 8.305778-0.853333 4.152889-2.446222 8.021333-1.592889 3.868444-3.982222 7.395556-2.275556 3.470222-5.290667 6.428444-2.958222 3.015111-6.428444 5.347556-3.527111 2.275556-7.395556 3.925333-3.868444 1.592889-7.964444 2.446223-4.152889 0.796444-8.362667 0.796444t-8.305778-0.796444q-4.152889-0.853333-8.021333-2.446223-3.868444-1.592889-7.395556-3.982222-3.470222-2.275556-6.428444-5.290667-3.015111-2.958222-5.347556-6.428444-2.275556-3.527111-3.925333-7.395556-1.592889-3.868444-2.446222-7.964444-0.796444-4.152889-0.796445-8.362667t0.796445-8.305777q0.853333-4.152889 2.446222-8.021334 1.592889-3.868444 3.982222-7.395555 2.275556-3.470222 5.290667-6.428445 2.958222-3.015111 6.428444-5.347555 3.527111-2.275556 7.395556-3.925334 3.868444-1.592889 7.964444-2.446222 4.152889-0.796444 8.362667-0.796444t8.305778 0.796444q4.152889 0.853333 8.021333 2.446222 3.868444 1.592889 7.395556 3.982223 3.470222 2.275556 6.428444 5.290666 3.015111 2.958222 5.347556 6.428445 2.275556 3.527111 3.925333 7.395555 1.592889 3.868444 2.446222 7.964445 0.796444 4.152889 0.796445 8.362666z m0-128q0 4.209778-0.796445 8.305778-0.853333 4.152889-2.446222 8.021333-1.592889 3.868444-3.982222 7.395556-2.275556 3.470222-5.290667 6.428444-2.958222 3.015111-6.428444 5.347556-3.527111 2.275556-7.395556 3.925333-3.868444 1.592889-7.964444 2.446223-4.152889 0.796444-8.362667 0.796444t-8.305778-0.796444q-4.152889-0.853333-8.021333-2.446223-3.868444-1.592889-7.395556-3.982222-3.470222-2.275556-6.428444-5.290667-3.015111-2.958222-5.347556-6.428444-2.275556-3.527111-3.925333-7.395556-1.592889-3.868444-2.446222-7.964444-0.796444-4.152889-0.796445-8.362667t0.796445-8.305777q0.853333-4.152889 2.446222-8.021334 1.592889-3.868444 3.982222-7.395555 2.275556-3.470222 5.290667-6.428445 2.958222-3.015111 6.428444-5.347555 3.527111-2.275556 7.395556-3.925334 3.868444-1.592889 7.964444-2.446222 4.152889-0.796444 8.362667-0.796444t8.305778 0.796444q4.152889 0.853333 8.021333 2.446222 3.868444 1.592889 7.395556 3.982223 3.470222 2.275556 6.428444 5.290666 3.015111 2.958222 5.347556 6.428445 2.275556 3.527111 3.925333 7.395555 1.592889 3.868444 2.446222 7.964445 0.796444 4.152889 0.796445 8.362666z m-256 0q0 4.209778-0.796445 8.305778-0.853333 4.152889-2.446222 8.021333-1.592889 3.868444-3.982222 7.395556-2.275556 3.470222-5.290667 6.428444-2.958222 3.015111-6.428444 5.347556-3.527111 2.275556-7.395556 3.925333-3.868444 1.592889-7.964444 2.446223-4.152889 0.796444-8.362667 0.796444t-8.305778-0.796444q-4.152889-0.853333-8.021333-2.446223-3.868444-1.592889-7.395556-3.982222-3.470222-2.275556-6.428444-5.290667-3.015111-2.958222-5.347556-6.428444-2.275556-3.527111-3.925333-7.395556-1.592889-3.868444-2.446222-7.964444Q341.333333 537.486222 341.333333 533.276444t0.796445-8.305777q0.853333-4.152889 2.446222-8.021334 1.592889-3.868444 3.982222-7.395555 2.275556-3.470222 5.290667-6.428445 2.958222-3.015111 6.428444-5.347555 3.527111-2.275556 7.395556-3.925334 3.868444-1.592889 7.964444-2.446222 4.152889-0.796444 8.362667-0.796444t8.305778 0.796444q4.152889 0.853333 8.021333 2.446222 3.868444 1.592889 7.395556 3.982223 3.470222 2.275556 6.428444 5.290666 3.015111 2.958222 5.347556 6.428445 2.275556 3.527111 3.925333 7.395555 1.592889 3.868444 2.446222 7.964445 0.796444 4.152889 0.796445 8.362666z m234.666666-128q0 4.209778-0.796444 8.305778-0.853333 4.152889-2.446222 8.021333-1.592889 3.868444-3.982223 7.395556-2.275556 3.470222-5.290666 6.428444-2.958222 3.015111-6.428445 5.347556-3.527111 2.275556-7.395555 3.925333-3.868444 1.592889-7.964445 2.446223-4.152889 0.796444-8.362666 0.796444t-8.305778-0.796444q-4.152889-0.853333-8.021333-2.446223-3.868444-1.592889-7.395556-3.982222-3.470222-2.275556-6.428444-5.290667-3.015111-2.958222-5.347556-6.428444-2.275556-3.527111-3.925333-7.395556-1.592889-3.868444-2.446223-7.964444-0.796444-4.152889-0.796444-8.362667t0.796444-8.305777q0.853333-4.152889 2.446223-8.021334 1.592889-3.868444 3.982222-7.395555 2.275556-3.470222 5.290667-6.428445 2.958222-3.015111 6.428444-5.347555 3.527111-2.275556 7.395556-3.925334 3.868444-1.592889 7.964444-2.446222 4.152889-0.796444 8.362667-0.796444t8.305777 0.796444q4.152889 0.853333 8.021334 2.446222 3.868444 1.592889 7.395555 3.982223 3.470222 2.275556 6.428445 5.290666 3.015111 2.958222 5.347555 6.428445 2.275556 3.527111 3.925334 7.395555 1.592889 3.868444 2.446222 7.964445 0.796444 4.152889 0.796444 8.362666z m-234.666666 256q0 4.209778-0.796445 8.305778-0.853333 4.152889-2.446222 8.021333-1.592889 3.868444-3.982222 7.395556-2.275556 3.470222-5.290667 6.428444-2.958222 3.015111-6.428444 5.347556-3.527111 2.275556-7.395556 3.925333-3.868444 1.592889-7.964444 2.446223-4.152889 0.796444-8.362667 0.796444t-8.305778-0.796444q-4.152889-0.853333-8.021333-2.446223-3.868444-1.592889-7.395556-3.982222-3.470222-2.275556-6.428444-5.290667-3.015111-2.958222-5.347556-6.428444-2.275556-3.527111-3.925333-7.395556-1.592889-3.868444-2.446222-7.964444Q341.333333 665.486222 341.333333 661.276444t0.796445-8.305777q0.853333-4.152889 2.446222-8.021334 1.592889-3.868444 3.982222-7.395555 2.275556-3.470222 5.290667-6.428445 2.958222-3.015111 6.428444-5.347555 3.527111-2.275556 7.395556-3.925334 3.868444-1.592889 7.964444-2.446222 4.152889-0.796444 8.362667-0.796444t8.305778 0.796444q4.152889 0.853333 8.021333 2.446222 3.868444 1.592889 7.395556 3.982223 3.470222 2.275556 6.428444 5.290666 3.015111 2.958222 5.347556 6.428445 2.275556 3.527111 3.925333 7.395555 1.592889 3.868444 2.446222 7.964445 0.796444 4.152889 0.796445 8.362666z m21.333333-256q0 4.209778-0.796444 8.305778-0.853333 4.152889-2.446223 8.021333-1.592889 3.868444-3.982222 7.395556-2.275556 3.470222-5.290667 6.428444-2.958222 3.015111-6.428444 5.347556-3.527111 2.275556-7.395556 3.925333-3.868444 1.592889-7.964444 2.446223-4.152889 0.796444-8.362667 0.796444t-8.305777-0.796444q-4.152889-0.853333-8.021334-2.446223-3.868444-1.592889-7.395555-3.982222-3.470222-2.275556-6.428445-5.290667-3.015111-2.958222-5.347555-6.428444-2.275556-3.527111-3.925334-7.395556-1.592889-3.868444-2.446222-7.964444-0.796444-4.152889-0.796444-8.362667t0.796444-8.305777q0.853333-4.152889 2.446222-8.021334 1.592889-3.868444 3.982223-7.395555 2.275556-3.470222 5.290666-6.428445 2.958222-3.015111 6.428445-5.347555 3.527111-2.275556 7.395555-3.925334 3.868444-1.592889 7.964445-2.446222 4.152889-0.796444 8.362666-0.796444t8.305778 0.796444q4.152889 0.853333 8.021333 2.446222 3.868444 1.592889 7.395556 3.982223 3.470222 2.275556 6.428444 5.290666 3.015111 2.958222 5.347556 6.428445 2.275556 3.527111 3.925333 7.395555 1.592889 3.868444 2.446223 7.964445 0.796444 4.152889 0.796444 8.362666z" p-id="1814"></path></svg>