<svg width="25" height="26" viewBox="0 0 25 26" fill="none" xmlns="http://www.w3.org/2000/svg">
<path d="M12.5 0.828613C5.77817 0.828613 0.328247 6.27781 0.328247 13.0004C0.328247 19.7236 5.77817 25.1714 12.5 25.1714C19.2218 25.1714 24.6717 19.7237 24.6717 13.0004C24.6717 6.27781 19.2218 0.828613 12.5 0.828613ZM16.4433 15.0626C16.3631 15.0626 16.2947 15.0255 16.2175 15.0166L14.5058 18.8158C14.9753 19.162 15.3022 19.6939 15.3022 20.3217C15.3022 21.3707 14.4494 22.2235 13.4004 22.2235C12.3514 22.2235 11.4985 21.3707 11.4985 20.3217C11.4985 19.2734 12.3514 18.4206 13.4004 18.4206C13.546 18.4206 13.6767 18.4726 13.8134 18.5038L15.4954 14.7714C15.0496 14.5085 14.7405 14.0805 14.6247 13.5635L10.3188 13.0063C10.0454 13.721 9.36492 14.2336 8.55366 14.2336C7.50468 14.2336 6.65182 13.3807 6.65182 12.3317C6.65182 11.2827 7.50465 10.4299 8.55366 10.4299C8.79139 10.4299 9.01426 10.4849 9.22523 10.5651L11.5015 7.03259C11.1509 6.68711 10.928 6.20945 10.928 5.67829C10.928 4.6293 11.7808 3.77644 12.8298 3.77644C13.8788 3.77644 14.7317 4.62928 14.7317 5.67829C14.7317 6.72729 13.8788 7.58013 12.8298 7.58013C12.5861 7.58013 12.3573 7.52514 12.1434 7.4412L9.87011 10.9678C10.2118 11.2961 10.4199 11.7508 10.4407 12.2545L14.6158 12.7938C14.7941 11.9261 15.5251 11.259 16.4433 11.259C17.4923 11.259 18.3451 12.1118 18.3451 13.1608C18.3451 14.2098 17.4923 15.0626 16.4433 15.0626Z" fill="#FF9A61"/>
</svg>
