<?xml version="1.0" standalone="no"?><!DOCTYPE svg PUBLIC "-//W3C//DTD SVG 1.1//EN" "http://www.w3.org/Graphics/SVG/1.1/DTD/svg11.dtd"><svg t="1661412166819" class="icon" viewBox="0 0 1024 1024" version="1.1" xmlns="http://www.w3.org/2000/svg" p-id="1578" xmlns:xlink="http://www.w3.org/1999/xlink" width="200" height="200"><defs><style type="text/css">@font-face { font-family: feedback-iconfont; src: url("//at.alicdn.com/t/font_1031158_u69w8yhxdu.woff2?t=1630033759944") format("woff2"), url("//at.alicdn.com/t/font_1031158_u69w8yhxdu.woff?t=1630033759944") format("woff"), url("//at.alicdn.com/t/font_1031158_u69w8yhxdu.ttf?t=1630033759944") format("truetype"); }
</style></defs><path d="M984.30852 876.717552A450.559617 450.559617 0 0 0 657.500287 478.447252a261.446586 261.446586 0 1 0-291.948688 0 450.559617 450.559617 0 0 0-325.936744 398.2703 127.237339 127.237339 0 0 0 30.502102 101.964168 132.46627 132.46627 0 0 0 100.221191 45.317409h684.118567a132.46627 132.46627 0 0 0 100.221191-45.317409 128.108827 128.108827 0 0 0 29.630614-101.964168zM511.961687 87.148862a174.297724 174.297724 0 1 1-174.297724 174.297724 174.297724 174.297724 0 0 1 174.297724-174.297724z m375.611596 834.014609a45.317408 45.317408 0 0 1-33.988056 15.686796H170.338148a45.317408 45.317408 0 0 1-33.988056-15.686796 40.088477 40.088477 0 0 1-9.586375-32.245079 366.896709 366.896709 0 0 1 385.19797-344.238004 366.896709 366.896709 0 0 1 386.069459 344.238004 40.959965 40.959965 0 0 1-10.457863 32.245079z" p-id="1579"></path><path d="M511.961687 872.360109a43.574431 43.574431 0 0 1-30.502101-13.07233L357.708202 736.407884a43.574431 43.574431 0 0 1 61.875692-61.004203l92.377793 87.148862 92.377794-87.148862a43.748729 43.748729 0 1 1 61.875692 61.875692l-123.751384 122.008406a43.574431 43.574431 0 0 1-30.502102 13.07233z" p-id="1580"></path></svg>