<svg xmlns="http://www.w3.org/2000/svg" xmlns:xlink="http://www.w3.org/1999/xlink" fill="none" version="1.1" width="38" height="38" viewBox="0 0 38 38"><defs><clipPath id="master_svg0_2438_4993"><rect x="0" y="0" width="38" height="38" rx="0"/></clipPath></defs><g clip-path="url(#master_svg0_2438_4993)"><g><path d="M3.25,7.75Q3.25,5.8860399999999995,4.56802,4.56802Q5.8860399999999995,3.25,7.75,3.25L30.25,3.25Q32.114000000000004,3.25,33.432,4.56802Q34.75,5.8860399999999995,34.75,7.75L34.75,30.25Q34.75,32.114000000000004,33.432,33.432Q32.114000000000004,34.75,30.25,34.75L7.75,34.75Q5.8860399999999995,34.75,4.56802,33.432Q3.25,32.114000000000004,3.25,30.25L3.25,7.75ZM6.25,7.75L6.25,30.25Q6.25,30.8713,6.68934,31.3107Q7.12868,31.75,7.75,31.75L30.25,31.75Q30.8713,31.75,31.3107,31.3107Q31.75,30.8713,31.75,30.25L31.75,7.75Q31.75,7.12868,31.3107,6.68934Q30.8713,6.25,30.25,6.25L7.75,6.25Q7.12868,6.25,6.68934,6.68934Q6.25,7.12868,6.25,7.75Z" fill="#2E2E2E" fill-opacity="1"/></g><g><path d="M8.791666984558105,16.624996984558106L8.791666984558105,10.291666984558105Q8.791666984558105,10.217976684558105,8.798886984558106,10.144640984558105Q8.806116984558106,10.071305984558105,8.820486984558105,9.999031984558105Q8.834866984558106,9.926756984558105,8.856256984558105,9.856239984558105Q8.877646984558105,9.785722984558106,8.905846984558105,9.717641984558105Q8.934046984558105,9.649560984558105,8.968786984558106,9.584571984558105Q9.003526984558105,9.519582984558106,9.044466984558106,9.458311984558106Q9.085406984558105,9.397039984558106,9.132146984558105,9.340076984558106Q9.178896984558106,9.283116984558106,9.231006984558105,9.231006984558105Q9.283116984558106,9.178896984558106,9.340076984558106,9.132146984558105Q9.397039984558106,9.085406984558105,9.458311984558106,9.044466984558106Q9.519582984558106,9.003526984558105,9.584571984558105,8.968786984558106Q9.649560984558105,8.934046984558105,9.717641984558105,8.905846984558105Q9.785722984558106,8.877646984558105,9.856239984558105,8.856256984558105Q9.926756984558105,8.834866984558106,9.999031984558105,8.820486984558105Q10.071305984558105,8.806116984558106,10.144640984558105,8.798886984558106Q10.217976684558105,8.791666984558105,10.291666984558105,8.791666984558105L16.624996984558106,8.791666984558105Q16.698686984558105,8.791666984558105,16.772026984558106,8.798886984558106Q16.845356984558105,8.806116984558106,16.917636984558104,8.820486984558105Q16.989906984558104,8.834866984558106,17.060426984558106,8.856256984558105Q17.130946984558104,8.877646984558105,17.199026984558106,8.905846984558105Q17.267106984558104,8.934046984558105,17.332096984558106,8.968786984558106Q17.397086984558104,9.003526984558105,17.458356984558105,9.044466984558106Q17.519626984558105,9.085406984558105,17.576586984558105,9.132146984558105Q17.633556984558105,9.178896984558106,17.685656984558104,9.231006984558105Q17.737766984558107,9.283116984558106,17.784516984558106,9.340076984558106Q17.831266984558106,9.397039984558106,17.872206984558105,9.458311984558106Q17.913146984558104,9.519582984558106,17.947886984558107,9.584571984558105Q17.982616984558106,9.649560984558105,18.010816984558105,9.717641984558105Q18.039016984558106,9.785722984558106,18.060406984558107,9.856239984558105Q18.081806984558106,9.926756984558105,18.096176984558106,9.999031984558105Q18.110556984558105,10.071305984558105,18.117776984558105,10.144640984558105Q18.124996984558106,10.217976684558105,18.124996984558106,10.291666984558105L18.124996984558106,16.624996984558106Q18.124996984558106,16.698686984558105,18.117776984558105,16.772026984558106Q18.110556984558105,16.845356984558105,18.096176984558106,16.917636984558104Q18.081796984558107,16.989906984558104,18.060406984558107,17.060426984558106Q18.039016984558106,17.130946984558104,18.010816984558105,17.199026984558106Q17.982616984558106,17.267106984558104,17.947886984558107,17.332096984558106Q17.913146984558104,17.397086984558104,17.872206984558105,17.458356984558105Q17.831266984558106,17.519626984558105,17.784516984558106,17.576586984558105Q17.737766984558107,17.633556984558105,17.685656984558104,17.685656984558104Q17.633556984558105,17.737766984558107,17.576586984558105,17.784516984558106Q17.519626984558105,17.831266984558106,17.458356984558105,17.872206984558105Q17.397086984558104,17.913146984558104,17.332096984558106,17.947886984558107Q17.267106984558104,17.982616984558106,17.199026984558106,18.010816984558105Q17.130946984558104,18.039016984558106,17.060426984558106,18.060406984558107Q16.989906984558104,18.081806984558106,16.917636984558104,18.096176984558106Q16.845356984558105,18.110556984558105,16.772026984558106,18.117776984558105Q16.698686984558105,18.124996984558106,16.624996984558106,18.124996984558106L10.291666984558105,18.124996984558106Q10.217976684558105,18.124996984558106,10.144640984558105,18.117776984558105Q10.071305984558105,18.110556984558105,9.999031984558105,18.096176984558106Q9.926756984558105,18.081796984558107,9.856239984558105,18.060406984558107Q9.785722984558106,18.039016984558106,9.717641984558105,18.010816984558105Q9.649560984558105,17.982616984558106,9.584571984558105,17.947886984558107Q9.519582984558106,17.913146984558104,9.458311984558106,17.872206984558105Q9.397039984558106,17.831266984558106,9.340076984558106,17.784516984558106Q9.283116984558106,17.737766984558107,9.231006984558105,17.685656984558104Q9.178896984558106,17.633556984558105,9.132146984558105,17.576586984558105Q9.085406984558105,17.519626984558105,9.044466984558106,17.458356984558105Q9.003526984558105,17.397086984558104,8.968786984558106,17.332096984558106Q8.934046984558105,17.267106984558104,8.905846984558105,17.199026984558106Q8.877646984558105,17.130946984558104,8.856256984558105,17.060426984558106Q8.834866984558106,16.989906984558104,8.820486984558105,16.917636984558104Q8.806116984558106,16.845356984558105,8.798886984558106,16.772026984558106Q8.791666984558105,16.698686984558105,8.791666984558105,16.624996984558106ZM11.791666984558105,11.791666984558105L11.791666984558105,15.124996984558106L15.124996984558106,15.124996984558106L15.124996984558106,11.791666984558105L11.791666984558105,11.791666984558105Z" fill="#2E2E2E" fill-opacity="1"/></g><g><path d="M27.70833,11.791666984558105L21.375,11.791666984558105Q21.3013097,11.791666984558105,21.227974,11.784446984558105Q21.154639,11.777216984558105,21.082365,11.762846984558106Q21.01009,11.748466984558105,20.939573,11.727076984558106Q20.869056,11.705686984558106,20.800975,11.677486984558106Q20.732894,11.649286984558106,20.667905,11.614546984558105Q20.602916,11.579806984558106,20.541645,11.538866984558105Q20.480373,11.497926984558106,20.42341,11.451186984558106Q20.36645,11.404436984558105,20.31434,11.352326984558106Q20.26223,11.300216984558105,20.21548,11.243256984558105Q20.16874,11.186293984558105,20.1278,11.125021984558105Q20.08686,11.063750984558105,20.05212,10.998761984558106Q20.01738,10.933772984558106,19.98918,10.865691984558106Q19.96098,10.797610984558105,19.93959,10.727093984558106Q19.9182,10.656576984558106,19.90382,10.584301984558106Q19.88945,10.512027984558106,19.88222,10.438692984558106Q19.875,10.365357284558106,19.875,10.291666984558105Q19.875,10.217976684558105,19.88222,10.144640984558105Q19.88945,10.071305984558105,19.90382,9.999031984558105Q19.9182,9.926756984558105,19.93959,9.856239984558105Q19.96098,9.785722984558106,19.98918,9.717641984558105Q20.01738,9.649560984558105,20.05212,9.584571984558105Q20.08686,9.519582984558106,20.1278,9.458311984558106Q20.16874,9.397039984558106,20.21548,9.340076984558106Q20.26223,9.283116984558106,20.31434,9.231006984558105Q20.36645,9.178896984558106,20.42341,9.132146984558105Q20.480373,9.085406984558105,20.541645,9.044466984558106Q20.602916,9.003526984558105,20.667905,8.968786984558106Q20.732894,8.934046984558105,20.800975,8.905846984558105Q20.869056,8.877646984558105,20.939573,8.856256984558105Q21.01009,8.834866984558106,21.082365,8.820486984558105Q21.154639,8.806116984558106,21.227974,8.798886984558106Q21.3013097,8.791666984558105,21.375,8.791666984558105L27.70833,8.791666984558105Q27.78202,8.791666984558105,27.85536,8.798886984558106Q27.92869,8.806116984558106,28.00097,8.820486984558105Q28.07324,8.834866984558106,28.14376,8.856256984558105Q28.21428,8.877646984558105,28.28236,8.905846984558105Q28.35044,8.934046984558105,28.41543,8.968786984558106Q28.48042,9.003526984558105,28.54169,9.044466984558106Q28.60296,9.085406984558105,28.65992,9.132146984558105Q28.71689,9.178896984558106,28.76899,9.231006984558105Q28.8211,9.283116984558106,28.86785,9.340076984558106Q28.9146,9.397039984558106,28.95554,9.458311984558106Q28.99648,9.519582984558106,29.03121,9.584571984558105Q29.06595,9.649560984558105,29.09415,9.717641984558105Q29.12235,9.785722984558106,29.14374,9.856239984558105Q29.16513,9.926756984558105,29.17951,9.999031984558105Q29.19389,10.071305984558105,29.20111,10.144640984558105Q29.20833,10.217976684558105,29.20833,10.291666984558105Q29.20833,10.365357284558106,29.20111,10.438692984558106Q29.19389,10.512027984558106,29.17951,10.584301984558106Q29.16513,10.656576984558106,29.14374,10.727093984558106Q29.12235,10.797610984558105,29.09415,10.865691984558106Q29.06595,10.933772984558106,29.03121,10.998761984558106Q28.99648,11.063750984558105,28.95554,11.125021984558105Q28.9146,11.186293984558105,28.86785,11.243256984558105Q28.8211,11.300216984558105,28.76899,11.352326984558106Q28.71689,11.404436984558105,28.65992,11.451186984558106Q28.60296,11.497926984558106,28.54169,11.538866984558105Q28.48042,11.579806984558106,28.41543,11.614546984558105Q28.35044,11.649286984558106,28.28236,11.677486984558106Q28.21428,11.705686984558106,28.14376,11.727076984558106Q28.07324,11.748466984558105,28.00097,11.762846984558106Q27.92869,11.777216984558105,27.85536,11.784446984558105Q27.78202,11.791666984558105,27.70833,11.791666984558105ZM29.20833,10.291666984558105Q29.20833,10.365357284558106,29.20111,10.438692984558106Q29.19389,10.512027984558106,29.17951,10.584301984558106Q29.16513,10.656576984558106,29.14374,10.727093984558106Q29.12235,10.797610984558105,29.09415,10.865691984558106Q29.06595,10.933772984558106,29.03121,10.998761984558106Q28.99648,11.063750984558105,28.95554,11.125021984558105Q28.9146,11.186293984558105,28.86785,11.243256984558105Q28.8211,11.300216984558105,28.76899,11.352326984558106Q28.71689,11.404436984558105,28.65992,11.451186984558106Q28.60296,11.497926984558106,28.54169,11.538866984558105Q28.48042,11.579806984558106,28.41543,11.614546984558105Q28.35044,11.649286984558106,28.28236,11.677486984558106Q28.21428,11.705686984558106,28.14376,11.727076984558106Q28.07324,11.748466984558105,28.00097,11.762846984558106Q27.92869,11.777216984558105,27.85536,11.784446984558105Q27.78202,11.791666984558105,27.70833,11.791666984558105Q27.63464,11.791666984558105,27.56131,11.784446984558105Q27.48797,11.777216984558105,27.4157,11.762846984558106Q27.343420000000002,11.748466984558105,27.27291,11.727076984558106Q27.20239,11.705686984558106,27.13431,11.677486984558106Q27.06623,11.649286984558106,27.00124,11.614546984558105Q26.93625,11.579806984558106,26.87498,11.538866984558105Q26.81371,11.497926984558106,26.75674,11.451186984558106Q26.69978,11.404436984558105,26.647669999999998,11.352326984558106Q26.595570000000002,11.300216984558105,26.54882,11.243256984558105Q26.50207,11.186293984558105,26.46113,11.125021984558105Q26.420189999999998,11.063750984558105,26.38545,10.998761984558106Q26.35071,10.933772984558106,26.32251,10.865691984558106Q26.29431,10.797610984558105,26.27292,10.727093984558106Q26.25153,10.656576984558106,26.23715,10.584301984558106Q26.22278,10.512027984558106,26.21556,10.438692984558106Q26.20833,10.365357284558106,26.20833,10.291666984558105Q26.20833,10.217976684558105,26.21556,10.144640984558105Q26.22278,10.071305984558105,26.23715,9.999031984558105Q26.25153,9.926756984558105,26.27292,9.856239984558105Q26.29431,9.785722984558106,26.32251,9.717641984558105Q26.35071,9.649560984558105,26.38545,9.584571984558105Q26.420189999999998,9.519582984558106,26.46113,9.458311984558106Q26.50207,9.397039984558106,26.54882,9.340076984558106Q26.595570000000002,9.283116984558106,26.647669999999998,9.231006984558105Q26.69978,9.178896984558106,26.75674,9.132146984558105Q26.81371,9.085406984558105,26.87498,9.044466984558106Q26.93625,9.003526984558105,27.00124,8.968786984558106Q27.06623,8.934046984558105,27.13431,8.905846984558105Q27.20239,8.877646984558105,27.27291,8.856256984558105Q27.343420000000002,8.834866984558106,27.4157,8.820486984558105Q27.48797,8.806116984558106,27.56131,8.798886984558106Q27.63464,8.791666984558105,27.70833,8.791666984558105Q27.78202,8.791666984558105,27.85536,8.798886984558106Q27.92869,8.806116984558106,28.00097,8.820486984558105Q28.07324,8.834866984558106,28.14376,8.856256984558105Q28.21428,8.877646984558105,28.28236,8.905846984558105Q28.35044,8.934046984558105,28.41543,8.968786984558106Q28.48042,9.003526984558105,28.54169,9.044466984558106Q28.60296,9.085406984558105,28.65992,9.132146984558105Q28.71689,9.178896984558106,28.76899,9.231006984558105Q28.8211,9.283116984558106,28.86785,9.340076984558106Q28.9146,9.397039984558106,28.95554,9.458311984558106Q28.99648,9.519582984558106,29.03121,9.584571984558105Q29.06595,9.649560984558105,29.09415,9.717641984558105Q29.12235,9.785722984558106,29.14374,9.856239984558105Q29.16513,9.926756984558105,29.17951,9.999031984558105Q29.19389,10.071305984558105,29.20111,10.144640984558105Q29.20833,10.217976684558105,29.20833,10.291666984558105ZM22.875,10.291666984558105Q22.875,10.365357284558106,22.86778,10.438692984558106Q22.86055,10.512027984558106,22.84618,10.584301984558106Q22.8318,10.656576984558106,22.81041,10.727093984558106Q22.78902,10.797610984558105,22.76082,10.865691984558106Q22.73262,10.933772984558106,22.69788,10.998761984558106Q22.66314,11.063750984558105,22.6222,11.125021984558105Q22.58126,11.186293984558105,22.53452,11.243256984558105Q22.48777,11.300216984558105,22.43566,11.352326984558106Q22.38355,11.404436984558105,22.32659,11.451186984558106Q22.269627,11.497926984558106,22.208355,11.538866984558105Q22.147084,11.579806984558106,22.082095,11.614546984558105Q22.017106,11.649286984558106,21.949025,11.677486984558106Q21.880944,11.705686984558106,21.810427,11.727076984558106Q21.73991,11.748466984558105,21.667635,11.762846984558106Q21.595361,11.777216984558105,21.522026,11.784446984558105Q21.4486903,11.791666984558105,21.375,11.791666984558105Q21.3013097,11.791666984558105,21.227974,11.784446984558105Q21.154639,11.777216984558105,21.082365,11.762846984558106Q21.01009,11.748466984558105,20.939573,11.727076984558106Q20.869056,11.705686984558106,20.800975,11.677486984558106Q20.732894,11.649286984558106,20.667905,11.614546984558105Q20.602916,11.579806984558106,20.541645,11.538866984558105Q20.480373,11.497926984558106,20.42341,11.451186984558106Q20.36645,11.404436984558105,20.31434,11.352326984558106Q20.26223,11.300216984558105,20.21548,11.243256984558105Q20.16874,11.186293984558105,20.1278,11.125021984558105Q20.08686,11.063750984558105,20.05212,10.998761984558106Q20.01738,10.933772984558106,19.98918,10.865691984558106Q19.96098,10.797610984558105,19.93959,10.727093984558106Q19.9182,10.656576984558106,19.90382,10.584301984558106Q19.88945,10.512027984558106,19.88222,10.438692984558106Q19.875,10.365357284558106,19.875,10.291666984558105Q19.875,10.217976684558105,19.88222,10.144640984558105Q19.88945,10.071305984558105,19.90382,9.999031984558105Q19.9182,9.926756984558105,19.93959,9.856239984558105Q19.96098,9.785722984558106,19.98918,9.717641984558105Q20.01738,9.649560984558105,20.05212,9.584571984558105Q20.08686,9.519582984558106,20.1278,9.458311984558106Q20.16874,9.397039984558106,20.21548,9.340076984558106Q20.26223,9.283116984558106,20.31434,9.231006984558105Q20.36645,9.178896984558106,20.42341,9.132146984558105Q20.480373,9.085406984558105,20.541645,9.044466984558106Q20.602916,9.003526984558105,20.667905,8.968786984558106Q20.732894,8.934046984558105,20.800975,8.905846984558105Q20.869056,8.877646984558105,20.939573,8.856256984558105Q21.01009,8.834866984558106,21.082365,8.820486984558105Q21.154639,8.806116984558106,21.227974,8.798886984558106Q21.3013097,8.791666984558105,21.375,8.791666984558105Q21.4486903,8.791666984558105,21.522026,8.798886984558106Q21.595361,8.806116984558106,21.667635,8.820486984558105Q21.73991,8.834866984558106,21.810427,8.856256984558105Q21.880944,8.877646984558105,21.949025,8.905846984558105Q22.017106,8.934046984558105,22.082095,8.968786984558106Q22.147084,9.003526984558105,22.208355,9.044466984558106Q22.269627,9.085406984558105,22.32659,9.132146984558105Q22.38355,9.178896984558106,22.43566,9.231006984558105Q22.48777,9.283116984558106,22.53452,9.340076984558106Q22.58126,9.397039984558106,22.6222,9.458311984558106Q22.66314,9.519582984558106,22.69788,9.584571984558105Q22.73262,9.649560984558105,22.76082,9.717641984558105Q22.78902,9.785722984558106,22.81041,9.856239984558105Q22.8318,9.926756984558105,22.84618,9.999031984558105Q22.86055,10.071305984558105,22.86778,10.144640984558105Q22.875,10.217976684558105,22.875,10.291666984558105Z" fill="#2E2E2E" fill-opacity="1"/></g><g><path d="M27.70833,17.333333015441895L21.375,17.333333015441895Q21.3013097,17.333333015441895,21.227974,17.326113015441894Q21.154639,17.318883015441894,21.082365,17.304513015441895Q21.01009,17.290133015441896,20.939573,17.268743015441895Q20.869056,17.247353015441895,20.800975,17.219153015441893Q20.732894,17.190953015441895,20.667905,17.156213015441896Q20.602916,17.121473015441893,20.541645,17.080533015441894Q20.480373,17.039593015441895,20.42341,16.992853015441895Q20.36645,16.946103015441896,20.31434,16.893993015441893Q20.26223,16.841883015441894,20.21548,16.784923015441894Q20.16874,16.727960015441894,20.1278,16.666688015441895Q20.08686,16.605417015441894,20.05212,16.540428015441893Q20.01738,16.475439015441893,19.98918,16.407358015441893Q19.96098,16.339277015441894,19.93959,16.268760015441895Q19.9182,16.198243015441893,19.90382,16.125968015441895Q19.88945,16.053694015441895,19.88222,15.980359015441895Q19.875,15.907023315441895,19.875,15.833333015441895Q19.875,15.759642715441894,19.88222,15.686307015441894Q19.88945,15.612972015441894,19.90382,15.540698015441894Q19.9182,15.468423015441894,19.93959,15.397906015441894Q19.96098,15.327389015441895,19.98918,15.259308015441894Q20.01738,15.191227015441894,20.05212,15.126238015441894Q20.08686,15.061249015441895,20.1278,14.999978015441895Q20.16874,14.938706015441895,20.21548,14.881743015441895Q20.26223,14.824783015441895,20.31434,14.772673015441894Q20.36645,14.720563015441895,20.42341,14.673813015441894Q20.480373,14.627073015441894,20.541645,14.586133015441895Q20.602916,14.545193015441894,20.667905,14.510453015441895Q20.732894,14.475713015441894,20.800975,14.447513015441894Q20.869056,14.419313015441894,20.939573,14.397923015441894Q21.01009,14.376533015441895,21.082365,14.362153015441894Q21.154639,14.347783015441895,21.227974,14.340553015441895Q21.3013097,14.333333015441895,21.375,14.333333015441895L27.70833,14.333333015441895Q27.78202,14.333333015441895,27.85536,14.340553015441895Q27.92869,14.347783015441895,28.00097,14.362153015441894Q28.07324,14.376533015441895,28.14376,14.397923015441894Q28.21428,14.419313015441894,28.28236,14.447513015441894Q28.35044,14.475713015441894,28.41543,14.510453015441895Q28.48042,14.545193015441894,28.54169,14.586133015441895Q28.60296,14.627073015441894,28.65992,14.673813015441894Q28.71689,14.720563015441895,28.76899,14.772673015441894Q28.8211,14.824783015441895,28.86785,14.881743015441895Q28.9146,14.938706015441895,28.95554,14.999978015441895Q28.99648,15.061249015441895,29.03121,15.126238015441894Q29.06595,15.191227015441894,29.09415,15.259308015441894Q29.12235,15.327389015441895,29.14374,15.397906015441894Q29.16513,15.468423015441894,29.17951,15.540698015441894Q29.19389,15.612972015441894,29.20111,15.686307015441894Q29.20833,15.759642715441894,29.20833,15.833333015441895Q29.20833,15.907023315441895,29.20111,15.980359015441895Q29.19389,16.053694015441895,29.17951,16.125968015441895Q29.16513,16.198243015441893,29.14374,16.268760015441895Q29.12235,16.339277015441894,29.09415,16.407358015441893Q29.06595,16.475439015441893,29.03121,16.540428015441893Q28.99648,16.605417015441894,28.95554,16.666688015441895Q28.9146,16.727960015441894,28.86785,16.784923015441894Q28.8211,16.841883015441894,28.76899,16.893993015441893Q28.71689,16.946103015441896,28.65992,16.992853015441895Q28.60296,17.039593015441895,28.54169,17.080533015441894Q28.48042,17.121473015441893,28.41543,17.156213015441896Q28.35044,17.190953015441895,28.28236,17.219153015441893Q28.21428,17.247353015441895,28.14376,17.268743015441895Q28.07324,17.290133015441896,28.00097,17.304513015441895Q27.92869,17.318883015441894,27.85536,17.326113015441894Q27.78202,17.333333015441895,27.70833,17.333333015441895ZM29.20833,15.833333015441895Q29.20833,15.907023315441895,29.20111,15.980359015441895Q29.19389,16.053694015441895,29.17951,16.125968015441895Q29.16513,16.198243015441893,29.14374,16.268760015441895Q29.12235,16.339277015441894,29.09415,16.407358015441893Q29.06595,16.475439015441893,29.03121,16.540428015441893Q28.99648,16.605417015441894,28.95554,16.666688015441895Q28.9146,16.727960015441894,28.86785,16.784923015441894Q28.8211,16.841883015441894,28.76899,16.893993015441893Q28.71689,16.946103015441896,28.65992,16.992853015441895Q28.60296,17.039593015441895,28.54169,17.080533015441894Q28.48042,17.121473015441893,28.41543,17.156213015441896Q28.35044,17.190953015441895,28.28236,17.219153015441893Q28.21428,17.247353015441895,28.14376,17.268743015441895Q28.07324,17.290133015441896,28.00097,17.304513015441895Q27.92869,17.318883015441894,27.85536,17.326113015441894Q27.78202,17.333333015441895,27.70833,17.333333015441895Q27.63464,17.333333015441895,27.56131,17.326113015441894Q27.48797,17.318883015441894,27.4157,17.304513015441895Q27.343420000000002,17.290133015441896,27.27291,17.268743015441895Q27.20239,17.247353015441895,27.13431,17.219153015441893Q27.06623,17.190953015441895,27.00124,17.156213015441896Q26.93625,17.121473015441893,26.87498,17.080533015441894Q26.81371,17.039593015441895,26.75674,16.992853015441895Q26.69978,16.946103015441896,26.647669999999998,16.893993015441893Q26.595570000000002,16.841883015441894,26.54882,16.784923015441894Q26.50207,16.727960015441894,26.46113,16.666688015441895Q26.420189999999998,16.605417015441894,26.38545,16.540428015441893Q26.35071,16.475439015441893,26.32251,16.407358015441893Q26.29431,16.339277015441894,26.27292,16.268760015441895Q26.25153,16.198243015441893,26.23715,16.125968015441895Q26.22278,16.053694015441895,26.21556,15.980359015441895Q26.20833,15.907023315441895,26.20833,15.833333015441895Q26.20833,15.759642715441894,26.21556,15.686307015441894Q26.22278,15.612972015441894,26.23715,15.540698015441894Q26.25153,15.468423015441894,26.27292,15.397906015441894Q26.29431,15.327389015441895,26.32251,15.259308015441894Q26.35071,15.191227015441894,26.38545,15.126238015441894Q26.420189999999998,15.061249015441895,26.46113,14.999978015441895Q26.50207,14.938706015441895,26.54882,14.881743015441895Q26.595570000000002,14.824783015441895,26.647669999999998,14.772673015441894Q26.69978,14.720563015441895,26.75674,14.673813015441894Q26.81371,14.627073015441894,26.87498,14.586133015441895Q26.93625,14.545193015441894,27.00124,14.510453015441895Q27.06623,14.475713015441894,27.13431,14.447513015441894Q27.20239,14.419313015441894,27.27291,14.397923015441894Q27.343420000000002,14.376533015441895,27.4157,14.362153015441894Q27.48797,14.347783015441895,27.56131,14.340553015441895Q27.63464,14.333333015441895,27.70833,14.333333015441895Q27.78202,14.333333015441895,27.85536,14.340553015441895Q27.92869,14.347783015441895,28.00097,14.362153015441894Q28.07324,14.376533015441895,28.14376,14.397923015441894Q28.21428,14.419313015441894,28.28236,14.447513015441894Q28.35044,14.475713015441894,28.41543,14.510453015441895Q28.48042,14.545193015441894,28.54169,14.586133015441895Q28.60296,14.627073015441894,28.65992,14.673813015441894Q28.71689,14.720563015441895,28.76899,14.772673015441894Q28.8211,14.824783015441895,28.86785,14.881743015441895Q28.9146,14.938706015441895,28.95554,14.999978015441895Q28.99648,15.061249015441895,29.03121,15.126238015441894Q29.06595,15.191227015441894,29.09415,15.259308015441894Q29.12235,15.327389015441895,29.14374,15.397906015441894Q29.16513,15.468423015441894,29.17951,15.540698015441894Q29.19389,15.612972015441894,29.20111,15.686307015441894Q29.20833,15.759642715441894,29.20833,15.833333015441895ZM22.875,15.833333015441895Q22.875,15.907023315441895,22.86778,15.980359015441895Q22.86055,16.053694015441895,22.84618,16.125968015441895Q22.8318,16.198243015441893,22.81041,16.268760015441895Q22.78902,16.339277015441894,22.76082,16.407358015441893Q22.73262,16.475439015441893,22.69788,16.540428015441893Q22.66314,16.605417015441894,22.6222,16.666688015441895Q22.58126,16.727960015441894,22.53452,16.784923015441894Q22.48777,16.841883015441894,22.43566,16.893993015441893Q22.38355,16.946103015441896,22.32659,16.992853015441895Q22.269627,17.039593015441895,22.208355,17.080533015441894Q22.147084,17.121473015441893,22.082095,17.156213015441896Q22.017106,17.190953015441895,21.949025,17.219153015441893Q21.880944,17.247353015441895,21.810427,17.268743015441895Q21.73991,17.290133015441896,21.667635,17.304513015441895Q21.595361,17.318883015441894,21.522026,17.326113015441894Q21.4486903,17.333333015441895,21.375,17.333333015441895Q21.3013097,17.333333015441895,21.227974,17.326113015441894Q21.154639,17.318883015441894,21.082365,17.304513015441895Q21.01009,17.290133015441896,20.939573,17.268743015441895Q20.869056,17.247353015441895,20.800975,17.219153015441893Q20.732894,17.190953015441895,20.667905,17.156213015441896Q20.602916,17.121473015441893,20.541645,17.080533015441894Q20.480373,17.039593015441895,20.42341,16.992853015441895Q20.36645,16.946103015441896,20.31434,16.893993015441893Q20.26223,16.841883015441894,20.21548,16.784923015441894Q20.16874,16.727960015441894,20.1278,16.666688015441895Q20.08686,16.605417015441894,20.05212,16.540428015441893Q20.01738,16.475439015441893,19.98918,16.407358015441893Q19.96098,16.339277015441894,19.93959,16.268760015441895Q19.9182,16.198243015441893,19.90382,16.125968015441895Q19.88945,16.053694015441895,19.88222,15.980359015441895Q19.875,15.907023315441895,19.875,15.833333015441895Q19.875,15.759642715441894,19.88222,15.686307015441894Q19.88945,15.612972015441894,19.90382,15.540698015441894Q19.9182,15.468423015441894,19.93959,15.397906015441894Q19.96098,15.327389015441895,19.98918,15.259308015441894Q20.01738,15.191227015441894,20.05212,15.126238015441894Q20.08686,15.061249015441895,20.1278,14.999978015441895Q20.16874,14.938706015441895,20.21548,14.881743015441895Q20.26223,14.824783015441895,20.31434,14.772673015441894Q20.36645,14.720563015441895,20.42341,14.673813015441894Q20.480373,14.627073015441894,20.541645,14.586133015441895Q20.602916,14.545193015441894,20.667905,14.510453015441895Q20.732894,14.475713015441894,20.800975,14.447513015441894Q20.869056,14.419313015441894,20.939573,14.397923015441894Q21.01009,14.376533015441895,21.082365,14.362153015441894Q21.154639,14.347783015441895,21.227974,14.340553015441895Q21.3013097,14.333333015441895,21.375,14.333333015441895Q21.4486903,14.333333015441895,21.522026,14.340553015441895Q21.595361,14.347783015441895,21.667635,14.362153015441894Q21.73991,14.376533015441895,21.810427,14.397923015441894Q21.880944,14.419313015441894,21.949025,14.447513015441894Q22.017106,14.475713015441894,22.082095,14.510453015441895Q22.147084,14.545193015441894,22.208355,14.586133015441895Q22.269627,14.627073015441894,22.32659,14.673813015441894Q22.38355,14.720563015441895,22.43566,14.772673015441894Q22.48777,14.824783015441895,22.53452,14.881743015441895Q22.58126,14.938706015441895,22.6222,14.999978015441895Q22.66314,15.061249015441895,22.69788,15.126238015441894Q22.73262,15.191227015441894,22.76082,15.259308015441894Q22.78902,15.327389015441895,22.81041,15.397906015441894Q22.8318,15.468423015441894,22.84618,15.540698015441894Q22.86055,15.612972015441894,22.86778,15.686307015441894Q22.875,15.759642715441894,22.875,15.833333015441895Z" fill="#2E2E2E" fill-opacity="1"/></g><g><path d="M27.708366984558104,23.66666603088379L10.291666984558105,23.66666603088379Q10.217976684558105,23.66666603088379,10.144640984558105,23.65944603088379Q10.071305984558105,23.65221603088379,9.999031984558105,23.63784603088379Q9.926756984558105,23.62346603088379,9.856239984558105,23.60207603088379Q9.785722984558106,23.58068603088379,9.717641984558105,23.552486030883788Q9.649560984558105,23.52428603088379,9.584571984558105,23.48954603088379Q9.519582984558106,23.454806030883788,9.458311984558106,23.41386603088379Q9.397039984558106,23.37292603088379,9.340076984558106,23.32618603088379Q9.283116984558106,23.27943603088379,9.231006984558105,23.227326030883788Q9.178896984558106,23.17521603088379,9.132146984558105,23.11825603088379Q9.085406984558105,23.06129303088379,9.044466984558106,23.00002103088379Q9.003526984558105,22.93875003088379,8.968786984558106,22.873761030883788Q8.934046984558105,22.808772030883787,8.905846984558105,22.740691030883788Q8.877646984558105,22.67261003088379,8.856256984558105,22.60209303088379Q8.834866984558106,22.531576030883787,8.820486984558105,22.45930103088379Q8.806116984558106,22.38702703088379,8.798886984558106,22.31369203088379Q8.791666984558105,22.240356330883788,8.791666984558105,22.16666603088379Q8.791666984558105,22.09297573088379,8.798886984558106,22.01964003088379Q8.806116984558106,21.94630503088379,8.820486984558105,21.87403103088379Q8.834866984558106,21.80175603088379,8.856256984558105,21.73123903088379Q8.877646984558105,21.66072203088379,8.905846984558105,21.59264103088379Q8.934046984558105,21.52456003088379,8.968786984558106,21.45957103088379Q9.003526984558105,21.39458203088379,9.044466984558106,21.333311030883788Q9.085406984558105,21.27203903088379,9.132146984558105,21.21507603088379Q9.178896984558106,21.15811603088379,9.231006984558105,21.10600603088379Q9.283116984558106,21.053896030883788,9.340076984558106,21.00714603088379Q9.397039984558106,20.96040603088379,9.458311984558106,20.91946603088379Q9.519582984558106,20.87852603088379,9.584571984558105,20.843786030883788Q9.649560984558105,20.80904603088379,9.717641984558105,20.78084603088379Q9.785722984558106,20.75264603088379,9.856239984558105,20.731256030883788Q9.926756984558105,20.709866030883788,9.999031984558105,20.69548603088379Q10.071305984558105,20.68111603088379,10.144640984558105,20.67388603088379Q10.217976684558105,20.66666603088379,10.291666984558105,20.66666603088379L27.708366984558104,20.66666603088379Q27.782066984558107,20.66666603088379,27.855366984558106,20.67388603088379Q27.928666984558106,20.68111603088379,28.000966984558104,20.69548603088379Q28.073266984558106,20.709866030883788,28.143766984558106,20.731256030883788Q28.214266984558105,20.75264603088379,28.282366984558106,20.78084603088379Q28.350466984558107,20.80904603088379,28.415466984558105,20.843786030883788Q28.480366984558106,20.87852603088379,28.541666984558105,20.91946603088379Q28.602966984558105,20.96040603088379,28.659966984558107,21.00714603088379Q28.716866984558106,21.053896030883788,28.768966984558105,21.10600603088379Q28.821066984558104,21.15811603088379,28.867866984558106,21.21507603088379Q28.914566984558107,21.27203903088379,28.955566984558107,21.333311030883788Q28.996466984558104,21.39458203088379,29.031166984558105,21.45957103088379Q29.065966984558106,21.52456003088379,29.094166984558104,21.59264103088379Q29.122366984558106,21.66072203088379,29.143766984558106,21.73123903088379Q29.165166984558105,21.80175603088379,29.179466984558104,21.87403103088379Q29.193866984558106,21.94630503088379,29.201066984558107,22.01964003088379Q29.208366984558104,22.09297573088379,29.208366984558104,22.16666603088379Q29.208366984558104,22.240356330883788,29.201066984558107,22.31369203088379Q29.193866984558106,22.38702703088379,29.179466984558104,22.45930103088379Q29.165166984558105,22.531576030883787,29.143766984558106,22.60209303088379Q29.122366984558106,22.67261003088379,29.094166984558104,22.740691030883788Q29.065966984558106,22.808772030883787,29.031166984558105,22.873761030883788Q28.996466984558104,22.93875003088379,28.955566984558107,23.00002103088379Q28.914566984558107,23.06129303088379,28.867866984558106,23.11825603088379Q28.821066984558104,23.17521603088379,28.768966984558105,23.227326030883788Q28.716866984558106,23.27943603088379,28.659966984558107,23.32618603088379Q28.602966984558105,23.37292603088379,28.541666984558105,23.41386603088379Q28.480366984558106,23.454806030883788,28.415466984558105,23.48954603088379Q28.350466984558107,23.52428603088379,28.282366984558106,23.552486030883788Q28.214266984558105,23.58068603088379,28.143766984558106,23.60207603088379Q28.073266984558106,23.62346603088379,28.000966984558104,23.63784603088379Q27.928666984558106,23.65221603088379,27.855366984558106,23.65944603088379Q27.782066984558107,23.66666603088379,27.708366984558104,23.66666603088379ZM29.208366984558104,22.16666603088379Q29.208366984558104,22.240356330883788,29.201066984558107,22.31369203088379Q29.193866984558106,22.38702703088379,29.179466984558104,22.45930103088379Q29.165166984558105,22.531576030883787,29.143766984558106,22.60209303088379Q29.122366984558106,22.67261003088379,29.094166984558104,22.740691030883788Q29.065966984558106,22.808772030883787,29.031166984558105,22.873761030883788Q28.996466984558104,22.93875003088379,28.955566984558107,23.00002103088379Q28.914566984558107,23.06129303088379,28.867866984558106,23.11825603088379Q28.821066984558104,23.17521603088379,28.768966984558105,23.227326030883788Q28.716866984558106,23.27943603088379,28.659966984558107,23.32618603088379Q28.602966984558105,23.37292603088379,28.541666984558105,23.41386603088379Q28.480366984558106,23.454806030883788,28.415466984558105,23.48954603088379Q28.350466984558107,23.52428603088379,28.282366984558106,23.552486030883788Q28.214266984558105,23.58068603088379,28.143766984558106,23.60207603088379Q28.073266984558106,23.62346603088379,28.000966984558104,23.63784603088379Q27.928666984558106,23.65221603088379,27.855366984558106,23.65944603088379Q27.782066984558107,23.66666603088379,27.708366984558104,23.66666603088379Q27.634666984558105,23.66666603088379,27.561266984558106,23.65944603088379Q27.487966984558106,23.65221603088379,27.415666984558104,23.63784603088379Q27.343466984558106,23.62346603088379,27.272866984558107,23.60207603088379Q27.202366984558104,23.58068603088379,27.134266984558106,23.552486030883788Q27.066266984558105,23.52428603088379,27.001266984558104,23.48954603088379Q26.936266984558106,23.454806030883788,26.874966984558107,23.41386603088379Q26.813666984558104,23.37292603088379,26.756766984558105,23.32618603088379Q26.699766984558106,23.27943603088379,26.647666984558107,23.227326030883788Q26.595566984558104,23.17521603088379,26.548866984558106,23.11825603088379Q26.502066984558105,23.06129303088379,26.461166984558105,23.00002103088379Q26.420166984558104,22.93875003088379,26.385466984558107,22.873761030883788Q26.350666984558107,22.808772030883787,26.322466984558105,22.740691030883788Q26.294266984558107,22.67261003088379,26.272966984558103,22.60209303088379Q26.251566984558103,22.531576030883787,26.237166984558105,22.45930103088379Q26.222766984558106,22.38702703088379,26.215566984558105,22.31369203088379Q26.208366984558104,22.240356330883788,26.208366984558104,22.16666603088379Q26.208366984558104,22.09297573088379,26.215566984558105,22.01964003088379Q26.222766984558106,21.94630503088379,26.237166984558105,21.87403103088379Q26.251566984558103,21.80175603088379,26.272966984558103,21.73123903088379Q26.294266984558107,21.66072203088379,26.322466984558105,21.59264103088379Q26.350666984558107,21.52456003088379,26.385466984558107,21.45957103088379Q26.420166984558104,21.39458203088379,26.461166984558105,21.333311030883788Q26.502066984558105,21.27203903088379,26.548866984558106,21.21507603088379Q26.595566984558104,21.15811603088379,26.647666984558107,21.10600603088379Q26.699766984558106,21.053896030883788,26.756766984558105,21.00714603088379Q26.813666984558104,20.96040603088379,26.874966984558107,20.91946603088379Q26.936266984558106,20.87852603088379,27.001266984558104,20.843786030883788Q27.066266984558105,20.80904603088379,27.134266984558106,20.78084603088379Q27.202366984558104,20.75264603088379,27.272866984558107,20.731256030883788Q27.343466984558106,20.709866030883788,27.415666984558104,20.69548603088379Q27.487966984558106,20.68111603088379,27.561266984558106,20.67388603088379Q27.634666984558105,20.66666603088379,27.708366984558104,20.66666603088379Q27.782066984558107,20.66666603088379,27.855366984558106,20.67388603088379Q27.928666984558106,20.68111603088379,28.000966984558104,20.69548603088379Q28.073266984558106,20.709866030883788,28.143766984558106,20.731256030883788Q28.214266984558105,20.75264603088379,28.282366984558106,20.78084603088379Q28.350466984558107,20.80904603088379,28.415466984558105,20.843786030883788Q28.480366984558106,20.87852603088379,28.541666984558105,20.91946603088379Q28.602966984558105,20.96040603088379,28.659966984558107,21.00714603088379Q28.716866984558106,21.053896030883788,28.768966984558105,21.10600603088379Q28.821066984558104,21.15811603088379,28.867866984558106,21.21507603088379Q28.914566984558107,21.27203903088379,28.955566984558107,21.333311030883788Q28.996466984558104,21.39458203088379,29.031166984558105,21.45957103088379Q29.065966984558106,21.52456003088379,29.094166984558104,21.59264103088379Q29.122366984558106,21.66072203088379,29.143766984558106,21.73123903088379Q29.165166984558105,21.80175603088379,29.179466984558104,21.87403103088379Q29.193866984558106,21.94630503088379,29.201066984558107,22.01964003088379Q29.208366984558104,22.09297573088379,29.208366984558104,22.16666603088379ZM11.791666984558105,22.16666603088379Q11.791666984558105,22.240356330883788,11.784446984558105,22.31369203088379Q11.777216984558105,22.38702703088379,11.762846984558106,22.45930103088379Q11.748466984558105,22.531576030883787,11.727076984558106,22.60209303088379Q11.705686984558106,22.67261003088379,11.677486984558106,22.740691030883788Q11.649286984558106,22.808772030883787,11.614546984558105,22.873761030883788Q11.579806984558106,22.93875003088379,11.538866984558105,23.00002103088379Q11.497926984558106,23.06129303088379,11.451186984558106,23.11825603088379Q11.404436984558105,23.17521603088379,11.352326984558106,23.227326030883788Q11.300216984558105,23.27943603088379,11.243256984558105,23.32618603088379Q11.186293984558105,23.37292603088379,11.125021984558105,23.41386603088379Q11.063750984558105,23.454806030883788,10.998761984558106,23.48954603088379Q10.933772984558106,23.52428603088379,10.865691984558106,23.552486030883788Q10.797610984558105,23.58068603088379,10.727093984558106,23.60207603088379Q10.656576984558106,23.62346603088379,10.584301984558106,23.63784603088379Q10.512027984558106,23.65221603088379,10.438692984558106,23.65944603088379Q10.365357284558106,23.66666603088379,10.291666984558105,23.66666603088379Q10.217976684558105,23.66666603088379,10.144640984558105,23.65944603088379Q10.071305984558105,23.65221603088379,9.999031984558105,23.63784603088379Q9.926756984558105,23.62346603088379,9.856239984558105,23.60207603088379Q9.785722984558106,23.58068603088379,9.717641984558105,23.552486030883788Q9.649560984558105,23.52428603088379,9.584571984558105,23.48954603088379Q9.519582984558106,23.454806030883788,9.458311984558106,23.41386603088379Q9.397039984558106,23.37292603088379,9.340076984558106,23.32618603088379Q9.283116984558106,23.27943603088379,9.231006984558105,23.227326030883788Q9.178896984558106,23.17521603088379,9.132146984558105,23.11825603088379Q9.085406984558105,23.06129303088379,9.044466984558106,23.00002103088379Q9.003526984558105,22.93875003088379,8.968786984558106,22.873761030883788Q8.934046984558105,22.808772030883787,8.905846984558105,22.740691030883788Q8.877646984558105,22.67261003088379,8.856256984558105,22.60209303088379Q8.834866984558106,22.531576030883787,8.820486984558105,22.45930103088379Q8.806116984558106,22.38702703088379,8.798886984558106,22.31369203088379Q8.791666984558105,22.240356330883788,8.791666984558105,22.16666603088379Q8.791666984558105,22.09297573088379,8.798886984558106,22.01964003088379Q8.806116984558106,21.94630503088379,8.820486984558105,21.87403103088379Q8.834866984558106,21.80175603088379,8.856256984558105,21.73123903088379Q8.877646984558105,21.66072203088379,8.905846984558105,21.59264103088379Q8.934046984558105,21.52456003088379,8.968786984558106,21.45957103088379Q9.003526984558105,21.39458203088379,9.044466984558106,21.333311030883788Q9.085406984558105,21.27203903088379,9.132146984558105,21.21507603088379Q9.178896984558106,21.15811603088379,9.231006984558105,21.10600603088379Q9.283116984558106,21.053896030883788,9.340076984558106,21.00714603088379Q9.397039984558106,20.96040603088379,9.458311984558106,20.91946603088379Q9.519582984558106,20.87852603088379,9.584571984558105,20.843786030883788Q9.649560984558105,20.80904603088379,9.717641984558105,20.78084603088379Q9.785722984558106,20.75264603088379,9.856239984558105,20.731256030883788Q9.926756984558105,20.709866030883788,9.999031984558105,20.69548603088379Q10.071305984558105,20.68111603088379,10.144640984558105,20.67388603088379Q10.217976684558105,20.66666603088379,10.291666984558105,20.66666603088379Q10.365357284558106,20.66666603088379,10.438692984558106,20.67388603088379Q10.512027984558106,20.68111603088379,10.584301984558106,20.69548603088379Q10.656576984558106,20.709866030883788,10.727093984558106,20.731256030883788Q10.797610984558105,20.75264603088379,10.865691984558106,20.78084603088379Q10.933772984558106,20.80904603088379,10.998761984558106,20.843786030883788Q11.063750984558105,20.87852603088379,11.125021984558105,20.91946603088379Q11.186293984558105,20.96040603088379,11.243256984558105,21.00714603088379Q11.300216984558105,21.053896030883788,11.352326984558106,21.10600603088379Q11.404436984558105,21.15811603088379,11.451186984558106,21.21507603088379Q11.497926984558106,21.27203903088379,11.538866984558105,21.333311030883788Q11.579806984558106,21.39458203088379,11.614546984558105,21.45957103088379Q11.649286984558106,21.52456003088379,11.677486984558106,21.59264103088379Q11.705686984558106,21.66072203088379,11.727076984558106,21.73123903088379Q11.748466984558105,21.80175603088379,11.762846984558106,21.87403103088379Q11.777216984558105,21.94630503088379,11.784446984558105,22.01964003088379Q11.791666984558105,22.09297573088379,11.791666984558105,22.16666603088379Z" fill="#2E2E2E" fill-opacity="1"/></g><g><path d="M27.708366984558104,29.20833396911621L10.291666984558105,29.20833396911621Q10.217976684558105,29.20833396911621,10.144640984558105,29.20111396911621Q10.071305984558105,29.19388396911621,9.999031984558105,29.17951396911621Q9.926756984558105,29.165133969116212,9.856239984558105,29.143743969116212Q9.785722984558106,29.12235396911621,9.717641984558105,29.09415396911621Q9.649560984558105,29.06595396911621,9.584571984558105,29.031213969116212Q9.519582984558106,28.99647396911621,9.458311984558106,28.95553396911621Q9.397039984558106,28.91459396911621,9.340076984558106,28.86785396911621Q9.283116984558106,28.821103969116212,9.231006984558105,28.76899396911621Q9.178896984558106,28.71688396911621,9.132146984558105,28.65992396911621Q9.085406984558105,28.60296096911621,9.044466984558106,28.541688969116212Q9.003526984558105,28.48041796911621,8.968786984558106,28.41542896911621Q8.934046984558105,28.35043996911621,8.905846984558105,28.28235896911621Q8.877646984558105,28.21427796911621,8.856256984558105,28.14376096911621Q8.834866984558106,28.07324396911621,8.820486984558105,28.00096896911621Q8.806116984558106,27.92869496911621,8.798886984558106,27.85535996911621Q8.791666984558105,27.78202426911621,8.791666984558105,27.70833396911621Q8.791666984558105,27.634643669116212,8.798886984558106,27.56130796911621Q8.806116984558106,27.48797296911621,8.820486984558105,27.41569896911621Q8.834866984558106,27.343423969116213,8.856256984558105,27.27290696911621Q8.877646984558105,27.20238996911621,8.905846984558105,27.134308969116212Q8.934046984558105,27.066227969116213,8.968786984558106,27.001238969116212Q9.003526984558105,26.93624996911621,9.044466984558106,26.87497896911621Q9.085406984558105,26.81370696911621,9.132146984558105,26.75674396911621Q9.178896984558106,26.69978396911621,9.231006984558105,26.647673969116212Q9.283116984558106,26.59556396911621,9.340076984558106,26.54881396911621Q9.397039984558106,26.50207396911621,9.458311984558106,26.46113396911621Q9.519582984558106,26.420193969116212,9.584571984558105,26.38545396911621Q9.649560984558105,26.35071396911621,9.717641984558105,26.322513969116212Q9.785722984558106,26.29431396911621,9.856239984558105,26.27292396911621Q9.926756984558105,26.25153396911621,9.999031984558105,26.23715396911621Q10.071305984558105,26.22278396911621,10.144640984558105,26.21555396911621Q10.217976684558105,26.20833396911621,10.291666984558105,26.20833396911621L27.708366984558104,26.20833396911621Q27.782066984558107,26.20833396911621,27.855366984558106,26.21555396911621Q27.928666984558106,26.22278396911621,28.000966984558104,26.23715396911621Q28.073266984558106,26.25153396911621,28.143766984558106,26.27292396911621Q28.214266984558105,26.29431396911621,28.282366984558106,26.322513969116212Q28.350466984558107,26.35071396911621,28.415466984558105,26.38545396911621Q28.480366984558106,26.420193969116212,28.541666984558105,26.46113396911621Q28.602966984558105,26.50207396911621,28.659966984558107,26.54881396911621Q28.716866984558106,26.59556396911621,28.768966984558105,26.647673969116212Q28.821066984558104,26.69978396911621,28.867866984558106,26.75674396911621Q28.914566984558107,26.81370696911621,28.955566984558107,26.87497896911621Q28.996466984558104,26.93624996911621,29.031166984558105,27.001238969116212Q29.065966984558106,27.066227969116213,29.094166984558104,27.134308969116212Q29.122366984558106,27.20238996911621,29.143766984558106,27.27290696911621Q29.165166984558105,27.343423969116213,29.179466984558104,27.41569896911621Q29.193866984558106,27.48797296911621,29.201066984558107,27.56130796911621Q29.208366984558104,27.634643669116212,29.208366984558104,27.70833396911621Q29.208366984558104,27.78202426911621,29.201066984558107,27.85535996911621Q29.193866984558106,27.92869496911621,29.179466984558104,28.00096896911621Q29.165166984558105,28.07324396911621,29.143766984558106,28.14376096911621Q29.122366984558106,28.21427796911621,29.094166984558104,28.28235896911621Q29.065966984558106,28.35043996911621,29.031166984558105,28.41542896911621Q28.996466984558104,28.48041796911621,28.955566984558107,28.541688969116212Q28.914566984558107,28.60296096911621,28.867866984558106,28.65992396911621Q28.821066984558104,28.71688396911621,28.768966984558105,28.76899396911621Q28.716866984558106,28.821103969116212,28.659966984558107,28.86785396911621Q28.602966984558105,28.91459396911621,28.541666984558105,28.95553396911621Q28.480366984558106,28.99647396911621,28.415466984558105,29.031213969116212Q28.350466984558107,29.06595396911621,28.282366984558106,29.09415396911621Q28.214266984558105,29.12235396911621,28.143766984558106,29.143743969116212Q28.073266984558106,29.165133969116212,28.000966984558104,29.17951396911621Q27.928666984558106,29.19388396911621,27.855366984558106,29.20111396911621Q27.782066984558107,29.20833396911621,27.708366984558104,29.20833396911621ZM29.208366984558104,27.70833396911621Q29.208366984558104,27.78202426911621,29.201066984558107,27.85535996911621Q29.193866984558106,27.92869496911621,29.179466984558104,28.00096896911621Q29.165166984558105,28.07324396911621,29.143766984558106,28.14376096911621Q29.122366984558106,28.21427796911621,29.094166984558104,28.28235896911621Q29.065966984558106,28.35043996911621,29.031166984558105,28.41542896911621Q28.996466984558104,28.48041796911621,28.955566984558107,28.541688969116212Q28.914566984558107,28.60296096911621,28.867866984558106,28.65992396911621Q28.821066984558104,28.71688396911621,28.768966984558105,28.76899396911621Q28.716866984558106,28.821103969116212,28.659966984558107,28.86785396911621Q28.602966984558105,28.91459396911621,28.541666984558105,28.95553396911621Q28.480366984558106,28.99647396911621,28.415466984558105,29.031213969116212Q28.350466984558107,29.06595396911621,28.282366984558106,29.09415396911621Q28.214266984558105,29.12235396911621,28.143766984558106,29.143743969116212Q28.073266984558106,29.165133969116212,28.000966984558104,29.17951396911621Q27.928666984558106,29.19388396911621,27.855366984558106,29.20111396911621Q27.782066984558107,29.20833396911621,27.708366984558104,29.20833396911621Q27.634666984558105,29.20833396911621,27.561266984558106,29.20111396911621Q27.487966984558106,29.19388396911621,27.415666984558104,29.17951396911621Q27.343466984558106,29.165133969116212,27.272866984558107,29.143743969116212Q27.202366984558104,29.12235396911621,27.134266984558106,29.09415396911621Q27.066266984558105,29.06595396911621,27.001266984558104,29.031213969116212Q26.936266984558106,28.99647396911621,26.874966984558107,28.95553396911621Q26.813666984558104,28.91459396911621,26.756766984558105,28.86785396911621Q26.699766984558106,28.821103969116212,26.647666984558107,28.76899396911621Q26.595566984558104,28.71688396911621,26.548866984558106,28.65992396911621Q26.502066984558105,28.60296096911621,26.461166984558105,28.541688969116212Q26.420166984558104,28.48041796911621,26.385466984558107,28.41542896911621Q26.350666984558107,28.35043996911621,26.322466984558105,28.28235896911621Q26.294266984558107,28.21427796911621,26.272966984558103,28.14376096911621Q26.251566984558103,28.07324396911621,26.237166984558105,28.00096896911621Q26.222766984558106,27.92869496911621,26.215566984558105,27.85535996911621Q26.208366984558104,27.78202426911621,26.208366984558104,27.70833396911621Q26.208366984558104,27.634643669116212,26.215566984558105,27.56130796911621Q26.222766984558106,27.48797296911621,26.237166984558105,27.41569896911621Q26.251566984558103,27.343423969116213,26.272966984558103,27.27290696911621Q26.294266984558107,27.20238996911621,26.322466984558105,27.134308969116212Q26.350666984558107,27.066227969116213,26.385466984558107,27.001238969116212Q26.420166984558104,26.93624996911621,26.461166984558105,26.87497896911621Q26.502066984558105,26.81370696911621,26.548866984558106,26.75674396911621Q26.595566984558104,26.69978396911621,26.647666984558107,26.647673969116212Q26.699766984558106,26.59556396911621,26.756766984558105,26.54881396911621Q26.813666984558104,26.50207396911621,26.874966984558107,26.46113396911621Q26.936266984558106,26.420193969116212,27.001266984558104,26.38545396911621Q27.066266984558105,26.35071396911621,27.134266984558106,26.322513969116212Q27.202366984558104,26.29431396911621,27.272866984558107,26.27292396911621Q27.343466984558106,26.25153396911621,27.415666984558104,26.23715396911621Q27.487966984558106,26.22278396911621,27.561266984558106,26.21555396911621Q27.634666984558105,26.20833396911621,27.708366984558104,26.20833396911621Q27.782066984558107,26.20833396911621,27.855366984558106,26.21555396911621Q27.928666984558106,26.22278396911621,28.000966984558104,26.23715396911621Q28.073266984558106,26.25153396911621,28.143766984558106,26.27292396911621Q28.214266984558105,26.29431396911621,28.282366984558106,26.322513969116212Q28.350466984558107,26.35071396911621,28.415466984558105,26.38545396911621Q28.480366984558106,26.420193969116212,28.541666984558105,26.46113396911621Q28.602966984558105,26.50207396911621,28.659966984558107,26.54881396911621Q28.716866984558106,26.59556396911621,28.768966984558105,26.647673969116212Q28.821066984558104,26.69978396911621,28.867866984558106,26.75674396911621Q28.914566984558107,26.81370696911621,28.955566984558107,26.87497896911621Q28.996466984558104,26.93624996911621,29.031166984558105,27.001238969116212Q29.065966984558106,27.066227969116213,29.094166984558104,27.134308969116212Q29.122366984558106,27.20238996911621,29.143766984558106,27.27290696911621Q29.165166984558105,27.343423969116213,29.179466984558104,27.41569896911621Q29.193866984558106,27.48797296911621,29.201066984558107,27.56130796911621Q29.208366984558104,27.634643669116212,29.208366984558104,27.70833396911621ZM11.791666984558105,27.70833396911621Q11.791666984558105,27.78202426911621,11.784446984558105,27.85535996911621Q11.777216984558105,27.92869496911621,11.762846984558106,28.00096896911621Q11.748466984558105,28.07324396911621,11.727076984558106,28.14376096911621Q11.705686984558106,28.21427796911621,11.677486984558106,28.28235896911621Q11.649286984558106,28.35043996911621,11.614546984558105,28.41542896911621Q11.579806984558106,28.48041796911621,11.538866984558105,28.541688969116212Q11.497926984558106,28.60296096911621,11.451186984558106,28.65992396911621Q11.404436984558105,28.71688396911621,11.352326984558106,28.76899396911621Q11.300216984558105,28.821103969116212,11.243256984558105,28.86785396911621Q11.186293984558105,28.91459396911621,11.125021984558105,28.95553396911621Q11.063750984558105,28.99647396911621,10.998761984558106,29.031213969116212Q10.933772984558106,29.06595396911621,10.865691984558106,29.09415396911621Q10.797610984558105,29.12235396911621,10.727093984558106,29.143743969116212Q10.656576984558106,29.165133969116212,10.584301984558106,29.17951396911621Q10.512027984558106,29.19388396911621,10.438692984558106,29.20111396911621Q10.365357284558106,29.20833396911621,10.291666984558105,29.20833396911621Q10.217976684558105,29.20833396911621,10.144640984558105,29.20111396911621Q10.071305984558105,29.19388396911621,9.999031984558105,29.17951396911621Q9.926756984558105,29.165133969116212,9.856239984558105,29.143743969116212Q9.785722984558106,29.12235396911621,9.717641984558105,29.09415396911621Q9.649560984558105,29.06595396911621,9.584571984558105,29.031213969116212Q9.519582984558106,28.99647396911621,9.458311984558106,28.95553396911621Q9.397039984558106,28.91459396911621,9.340076984558106,28.86785396911621Q9.283116984558106,28.821103969116212,9.231006984558105,28.76899396911621Q9.178896984558106,28.71688396911621,9.132146984558105,28.65992396911621Q9.085406984558105,28.60296096911621,9.044466984558106,28.541688969116212Q9.003526984558105,28.48041796911621,8.968786984558106,28.41542896911621Q8.934046984558105,28.35043996911621,8.905846984558105,28.28235896911621Q8.877646984558105,28.21427796911621,8.856256984558105,28.14376096911621Q8.834866984558106,28.07324396911621,8.820486984558105,28.00096896911621Q8.806116984558106,27.92869496911621,8.798886984558106,27.85535996911621Q8.791666984558105,27.78202426911621,8.791666984558105,27.70833396911621Q8.791666984558105,27.634643669116212,8.798886984558106,27.56130796911621Q8.806116984558106,27.48797296911621,8.820486984558105,27.41569896911621Q8.834866984558106,27.343423969116213,8.856256984558105,27.27290696911621Q8.877646984558105,27.20238996911621,8.905846984558105,27.134308969116212Q8.934046984558105,27.066227969116213,8.968786984558106,27.001238969116212Q9.003526984558105,26.93624996911621,9.044466984558106,26.87497896911621Q9.085406984558105,26.81370696911621,9.132146984558105,26.75674396911621Q9.178896984558106,26.69978396911621,9.231006984558105,26.647673969116212Q9.283116984558106,26.59556396911621,9.340076984558106,26.54881396911621Q9.397039984558106,26.50207396911621,9.458311984558106,26.46113396911621Q9.519582984558106,26.420193969116212,9.584571984558105,26.38545396911621Q9.649560984558105,26.35071396911621,9.717641984558105,26.322513969116212Q9.785722984558106,26.29431396911621,9.856239984558105,26.27292396911621Q9.926756984558105,26.25153396911621,9.999031984558105,26.23715396911621Q10.071305984558105,26.22278396911621,10.144640984558105,26.21555396911621Q10.217976684558105,26.20833396911621,10.291666984558105,26.20833396911621Q10.365357284558106,26.20833396911621,10.438692984558106,26.21555396911621Q10.512027984558106,26.22278396911621,10.584301984558106,26.23715396911621Q10.656576984558106,26.25153396911621,10.727093984558106,26.27292396911621Q10.797610984558105,26.29431396911621,10.865691984558106,26.322513969116212Q10.933772984558106,26.35071396911621,10.998761984558106,26.38545396911621Q11.063750984558105,26.420193969116212,11.125021984558105,26.46113396911621Q11.186293984558105,26.50207396911621,11.243256984558105,26.54881396911621Q11.300216984558105,26.59556396911621,11.352326984558106,26.647673969116212Q11.404436984558105,26.69978396911621,11.451186984558106,26.75674396911621Q11.497926984558106,26.81370696911621,11.538866984558105,26.87497896911621Q11.579806984558106,26.93624996911621,11.614546984558105,27.001238969116212Q11.649286984558106,27.066227969116213,11.677486984558106,27.134308969116212Q11.705686984558106,27.20238996911621,11.727076984558106,27.27290696911621Q11.748466984558105,27.343423969116213,11.762846984558106,27.41569896911621Q11.777216984558105,27.48797296911621,11.784446984558105,27.56130796911621Q11.791666984558105,27.634643669116212,11.791666984558105,27.70833396911621Z" fill="#2E2E2E" fill-opacity="1"/></g></g></svg>