<svg xmlns="http://www.w3.org/2000/svg" xmlns:xlink="http://www.w3.org/1999/xlink" fill="none" version="1.1" width="38" height="38" viewBox="0 0 38 38"><defs><clipPath id="master_svg0_2438_4945"><rect x="0" y="0" width="38" height="38" rx="0"/></clipPath></defs><g clip-path="url(#master_svg0_2438_4945)"><g><path d="M7.833333492279053,33.24996674613953Q7.833333492279053,33.333366746139525,7.916663492279053,33.333366746139525L30.083333492279053,33.333366746139525Q30.166633492279054,33.333366746139525,30.166633492279054,33.24996674613953L30.166633492279054,11.083336746139526L31.666633492279054,11.083336746139526L31.666633492279054,12.583336746139526L23.75003349227905,12.583336746139526Q23.676333492279053,12.583336746139526,23.602933492279053,12.576106746139526Q23.529633492279054,12.568886746139526,23.45733349227905,12.554506746139527Q23.385133492279053,12.540136746139526,23.314533492279054,12.518746746139527Q23.24403349227905,12.497346746139526,23.175933492279054,12.469146746139526Q23.107933492279052,12.440946746139526,23.04293349227905,12.406216746139526Q22.977933492279053,12.371476746139527,22.916633492279054,12.330536746139526Q22.85533349227905,12.289596746139527,22.798433492279052,12.242846746139527Q22.741433492279054,12.196096746139526,22.689333492279054,12.143996746139527Q22.63723349227905,12.091886746139526,22.590433492279054,12.034916746139526Q22.543733492279053,11.977956746139526,22.502833492279052,11.916686746139526Q22.46183349227905,11.855416746139527,22.427133492279054,11.790426746139527Q22.392333492279054,11.725436746139527,22.364133492279052,11.657356746139527Q22.335933492279054,11.589276746139527,22.31463349227905,11.518756746139527Q22.29323349227905,11.448246746139526,22.278833492279052,11.375966746139527Q22.264433492279053,11.303696746139526,22.257233492279052,11.230356746139526Q22.25003349227905,11.157026746139525,22.25003349227905,11.083336746139526L22.25003349227905,3.1666667461395264L23.75003349227905,3.1666667461395264L23.75003349227905,4.666666746139526L7.916663492279053,4.666666746139526Q7.833333492279053,4.666666746139526,7.833333492279053,4.7499967461395265L7.833333492279053,33.24996674613953ZM4.833333492279053,33.24996674613953L4.833333492279053,4.7499967461395265Q4.833333492279053,3.4728417461395265,5.736420492279053,2.5697537461395266Q6.639507492279053,1.6666667461395264,7.916663492279053,1.6666667461395264L23.75003349227905,1.6666667461395264Q23.823733492279054,1.6666667461395264,23.897033492279053,1.6738867461395264Q23.970333492279053,1.6811167461395264,24.04263349227905,1.6954867461395264Q24.114933492279054,1.7098667461395263,24.185433492279053,1.7312567461395263Q24.255933492279052,1.7526467461395263,24.324033492279053,1.7808467461395263Q24.392133492279054,1.8090467461395263,24.457133492279052,1.8437867461395263Q24.522033492279053,1.8785267461395263,24.583333492279053,1.9194667461395263Q24.644633492279052,1.9604067461395263,24.701633492279054,2.0071467461395263Q24.758533492279053,2.053896746139526,24.810633492279052,2.1060067461395264Q24.86273349227905,2.1581167461395263,24.909533492279053,2.2150767461395264Q24.956233492279054,2.2720397461395265,24.997233492279054,2.3333117461395263Q25.03813349227905,2.3945827461395264,25.072833492279052,2.4595717461395266Q25.107633492279053,2.5245607461395263,25.13583349227905,2.5926417461395266Q25.164033492279053,2.6607227461395264,25.185433492279053,2.7312397461395266Q25.206833492279053,2.8017567461395263,25.22113349227905,2.8740317461395266Q25.235533492279053,2.9463057461395263,25.242733492279054,3.0196407461395265Q25.25003349227905,3.0929764461395264,25.25003349227905,3.1666667461395264L25.25003349227905,11.083336746139526L23.75003349227905,11.083336746139526L23.75003349227905,9.583336746139526L31.666633492279054,9.583336746139526Q31.740333492279053,9.583336746139526,31.813733492279052,9.590556746139526Q31.887033492279052,9.597776746139527,31.959333492279054,9.612156746139526Q32.03153349227905,9.626526746139525,32.10213349227905,9.647926746139525Q32.172633492279054,9.669316746139526,32.24073349227905,9.697516746139527Q32.30873349227905,9.725716746139526,32.37373349227906,9.760446746139525Q32.438733492279056,9.795186746139526,32.50003349227905,9.836126746139527Q32.561333492279054,9.877066746139526,32.61823349227905,9.923816746139526Q32.67523349227905,9.970566746139525,32.72733349227905,10.022676746139528Q32.779433492279054,10.074776746139527,32.826133492279055,10.131746746139527Q32.87293349227905,10.188706746139527,32.91383349227905,10.249976746139527Q32.95483349227905,10.311246746139528,32.98953349227905,10.376236746139526Q33.024333492279055,10.441226746139527,33.05243349227905,10.509306746139526Q33.08063349227905,10.577386746139528,33.10203349227905,10.647906746139526Q33.12343349227905,10.718426746139526,33.13783349227906,10.790696746139528Q33.15223349227905,10.862966746139527,33.15943349227905,10.936306746139525Q33.166633492279054,11.009646746139527,33.166633492279054,11.083336746139526L33.166633492279054,33.24996674613953Q33.166633492279054,34.52716674613953,32.263633492279055,35.43026674613952Q31.360533492279053,36.333366746139525,30.083333492279053,36.333366746139525L7.916663492279053,36.333366746139525Q6.6395094922790525,36.333366746139525,5.736426492279053,35.43026674613952Q4.833333492279053,34.52716674613953,4.833333492279053,33.24996674613953Z" fill="#2E2E2E" fill-opacity="1"/></g><g><path d="M30.60601,12.143996746139527L22.68934,4.227326746139527Q22.63723,4.175216746139526,22.59048,4.118256746139527Q22.54374,4.061293746139526,22.5028,4.000021746139526Q22.46186,3.9387507461395264,22.42712,3.873761746139526Q22.39238,3.8087727461395264,22.36418,3.740691746139526Q22.33598,3.6726107461395263,22.31459,3.602093746139526Q22.2932,3.5315767461395264,22.27882,3.459301746139526Q22.26445,3.3870277461395264,22.25722,3.3136927461395262Q22.25,3.2403570461395264,22.25,3.1666667461395264Q22.25,3.0929764461395264,22.25722,3.0196407461395265Q22.26445,2.9463057461395263,22.27882,2.8740317461395266Q22.2932,2.8017567461395263,22.31459,2.7312397461395266Q22.33598,2.6607227461395264,22.36418,2.5926417461395266Q22.39238,2.5245607461395263,22.42712,2.4595717461395266Q22.46186,2.3945827461395264,22.5028,2.3333117461395263Q22.54374,2.2720397461395265,22.59048,2.2150767461395264Q22.63723,2.1581167461395263,22.68934,2.1060067461395264Q22.74145,2.053896746139526,22.79841,2.0071467461395263Q22.855373,1.9604067461395263,22.916645,1.9194667461395263Q22.977916,1.8785267461395263,23.042905,1.8437867461395263Q23.107894,1.8090467461395263,23.175975,1.7808467461395263Q23.244056,1.7526467461395263,23.314573,1.7312567461395263Q23.38509,1.7098667461395263,23.457365,1.6954867461395264Q23.529639,1.6811167461395264,23.602974,1.6738867461395264Q23.6763097,1.6666667461395264,23.75,1.6666667461395264Q23.8236903,1.6666667461395264,23.897026,1.6738867461395264Q23.970361,1.6811167461395264,24.042635,1.6954867461395264Q24.11491,1.7098667461395263,24.185427,1.7312567461395263Q24.255944,1.7526467461395263,24.324025,1.7808467461395263Q24.392106,1.8090467461395263,24.457095,1.8437867461395263Q24.522084,1.8785267461395263,24.583355,1.9194667461395263Q24.644627,1.9604067461395263,24.70159,2.0071467461395263Q24.75855,2.053896746139526,24.81066,2.1060067461395264L32.72733,10.022676746139528Q32.77943,10.074776746139527,32.82618,10.131746746139527Q32.87293,10.188706746139527,32.91387,10.249976746139527Q32.95481,10.311246746139528,32.98955,10.376236746139526Q33.02428,10.441226746139527,33.05248,10.509306746139526Q33.08068,10.577386746139528,33.10207,10.647906746139526Q33.12347,10.718416746139527,33.13784,10.790696746139528Q33.15222,10.862966746139527,33.159440000000004,10.936306746139525Q33.166669999999996,11.009646746139527,33.166669999999996,11.083336746139526Q33.166669999999996,11.157026746139525,33.159440000000004,11.230356746139526Q33.15222,11.303696746139526,33.13784,11.375966746139527Q33.12347,11.448236746139527,33.10207,11.518756746139527Q33.08068,11.589276746139527,33.05248,11.657356746139527Q33.02428,11.725436746139527,32.98955,11.790426746139527Q32.95481,11.855416746139527,32.91387,11.916686746139526Q32.87293,11.977956746139526,32.82618,12.034926746139526Q32.77943,12.091886746139526,32.72733,12.143996746139527Q32.675219999999996,12.196096746139526,32.61825,12.242846746139527Q32.56129,12.289596746139527,32.50002,12.330536746139526Q32.43875,12.371476746139527,32.373760000000004,12.406216746139526Q32.30877,12.440946746139526,32.24069,12.469146746139526Q32.17261,12.497346746139526,32.102090000000004,12.518736746139526Q32.03158,12.540136746139526,31.9593,12.554506746139527Q31.88703,12.568886746139526,31.81369,12.576106746139526Q31.74036,12.583336746139526,31.66667,12.583336746139526Q31.59298,12.583336746139526,31.51964,12.576106746139526Q31.4463,12.568886746139526,31.37403,12.554506746139527Q31.30176,12.540136746139526,31.23124,12.518736746139526Q31.16072,12.497346746139526,31.09264,12.469146746139526Q31.02456,12.440946746139526,30.95957,12.406216746139526Q30.89458,12.371476746139527,30.83331,12.330536746139526Q30.77204,12.289596746139527,30.71508,12.242846746139527Q30.65811,12.196096746139526,30.60601,12.143996746139527ZM33.166669999999996,11.083336746139526Q33.166669999999996,11.157026746139525,33.159440000000004,11.230356746139526Q33.15222,11.303696746139526,33.13784,11.375966746139527Q33.12347,11.448246746139526,33.10208,11.518756746139527Q33.08068,11.589276746139527,33.05248,11.657356746139527Q33.02428,11.725436746139527,32.98955,11.790426746139527Q32.95481,11.855416746139527,32.91387,11.916686746139526Q32.87293,11.977956746139526,32.82618,12.034916746139526Q32.77943,12.091886746139526,32.72733,12.143996746139527Q32.675219999999996,12.196096746139526,32.61825,12.242846746139527Q32.56129,12.289596746139527,32.50002,12.330536746139526Q32.43875,12.371476746139527,32.373760000000004,12.406216746139526Q32.30877,12.440946746139526,32.24069,12.469146746139526Q32.17261,12.497346746139526,32.102090000000004,12.518746746139527Q32.03158,12.540136746139526,31.9593,12.554506746139527Q31.88703,12.568886746139526,31.81369,12.576106746139526Q31.74036,12.583336746139526,31.66667,12.583336746139526Q31.59298,12.583336746139526,31.51964,12.576106746139526Q31.4463,12.568886746139526,31.37403,12.554506746139527Q31.30176,12.540136746139526,31.23124,12.518746746139527Q31.16072,12.497346746139526,31.09264,12.469146746139526Q31.02456,12.440946746139526,30.95957,12.406216746139526Q30.89458,12.371476746139527,30.83331,12.330536746139526Q30.77204,12.289596746139527,30.71508,12.242846746139527Q30.65811,12.196096746139526,30.60601,12.143996746139527Q30.5539,12.091886746139526,30.50715,12.034916746139526Q30.4604,11.977956746139526,30.41946,11.916686746139526Q30.37852,11.855416746139527,30.34378,11.790426746139527Q30.30905,11.725436746139527,30.28085,11.657356746139527Q30.25265,11.589276746139527,30.23126,11.518756746139527Q30.20986,11.448246746139526,30.19549,11.375966746139527Q30.18111,11.303696746139526,30.17389,11.230356746139526Q30.16667,11.157026746139525,30.16667,11.083336746139526Q30.16667,11.009646746139527,30.17389,10.936306746139525Q30.18111,10.862966746139527,30.19549,10.790696746139528Q30.20986,10.718426746139526,30.23126,10.647906746139526Q30.25265,10.577386746139528,30.28085,10.509306746139526Q30.30905,10.441226746139527,30.34378,10.376236746139526Q30.37852,10.311246746139528,30.41946,10.249976746139527Q30.4604,10.188706746139527,30.50715,10.131746746139527Q30.5539,10.074776746139527,30.60601,10.022676746139528Q30.65811,9.970566746139525,30.71508,9.923816746139526Q30.77204,9.877066746139526,30.83331,9.836126746139527Q30.89458,9.795186746139526,30.95957,9.760446746139525Q31.02456,9.725716746139526,31.09264,9.697516746139527Q31.16072,9.669316746139526,31.23124,9.647926746139525Q31.30176,9.626526746139525,31.37403,9.612156746139526Q31.4463,9.597776746139527,31.51964,9.590556746139526Q31.59298,9.583336746139526,31.66667,9.583336746139526Q31.74036,9.583336746139526,31.81369,9.590556746139526Q31.88703,9.597776746139527,31.9593,9.612156746139526Q32.03158,9.626526746139525,32.102090000000004,9.647926746139525Q32.17261,9.669316746139526,32.24069,9.697516746139527Q32.30877,9.725716746139526,32.373760000000004,9.760446746139525Q32.43875,9.795186746139526,32.50002,9.836126746139527Q32.56129,9.877066746139526,32.61825,9.923816746139526Q32.675219999999996,9.970566746139525,32.72733,10.022676746139528Q32.77943,10.074776746139527,32.82618,10.131746746139527Q32.87293,10.188706746139527,32.91387,10.249976746139527Q32.95481,10.311246746139528,32.98955,10.376236746139526Q33.02428,10.441226746139527,33.05248,10.509306746139526Q33.08068,10.577386746139528,33.10208,10.647906746139526Q33.12347,10.718426746139526,33.13784,10.790696746139528Q33.15222,10.862966746139527,33.159440000000004,10.936306746139525Q33.166669999999996,11.009646746139527,33.166669999999996,11.083336746139526ZM25.25,3.1666667461395264Q25.25,3.2403570461395264,25.24278,3.3136927461395262Q25.23555,3.3870277461395264,25.22118,3.459301746139526Q25.2068,3.5315767461395264,25.18541,3.602093746139526Q25.16402,3.6726107461395263,25.13582,3.740691746139526Q25.10762,3.8087727461395264,25.07288,3.873761746139526Q25.03814,3.9387507461395264,24.9972,4.000021746139526Q24.95626,4.061293746139526,24.90952,4.118256746139527Q24.86277,4.175216746139526,24.81066,4.227326746139527Q24.75855,4.279436746139527,24.70159,4.326186746139527Q24.644627,4.372926746139527,24.583355,4.413866746139527Q24.522084,4.454806746139527,24.457095,4.489546746139526Q24.392106,4.524286746139526,24.324025,4.552486746139526Q24.255944,4.580686746139526,24.185427,4.602076746139526Q24.11491,4.623466746139527,24.042635,4.637846746139527Q23.970361,4.652216746139526,23.897026,4.659446746139526Q23.8236903,4.666666746139526,23.75,4.666666746139526Q23.6763097,4.666666746139526,23.602974,4.659446746139526Q23.529639,4.652216746139526,23.457365,4.637846746139527Q23.38509,4.623466746139527,23.314573,4.602076746139526Q23.244056,4.580686746139526,23.175975,4.552486746139526Q23.107894,4.524286746139526,23.042905,4.489546746139526Q22.977916,4.454806746139527,22.916645,4.413866746139527Q22.855373,4.372926746139527,22.79841,4.326186746139527Q22.74145,4.279436746139527,22.68934,4.227326746139527Q22.63723,4.175216746139526,22.59048,4.118256746139527Q22.54374,4.061293746139526,22.5028,4.000021746139526Q22.46186,3.9387507461395264,22.42712,3.873761746139526Q22.39238,3.8087727461395264,22.36418,3.740691746139526Q22.33598,3.6726107461395263,22.31459,3.602093746139526Q22.2932,3.5315767461395264,22.27882,3.459301746139526Q22.26445,3.3870277461395264,22.25722,3.3136927461395262Q22.25,3.2403570461395264,22.25,3.1666667461395264Q22.25,3.0929764461395264,22.25722,3.0196407461395265Q22.26445,2.9463057461395263,22.27882,2.8740317461395266Q22.2932,2.8017567461395263,22.31459,2.7312397461395266Q22.33598,2.6607227461395264,22.36418,2.5926417461395266Q22.39238,2.5245607461395263,22.42712,2.4595717461395266Q22.46186,2.3945827461395264,22.5028,2.3333117461395263Q22.54374,2.2720397461395265,22.59048,2.2150767461395264Q22.63723,2.1581167461395263,22.68934,2.1060067461395264Q22.74145,2.053896746139526,22.79841,2.0071467461395263Q22.855373,1.9604067461395263,22.916645,1.9194667461395263Q22.977916,1.8785267461395263,23.042905,1.8437867461395263Q23.107894,1.8090467461395263,23.175975,1.7808467461395263Q23.244056,1.7526467461395263,23.314573,1.7312567461395263Q23.38509,1.7098667461395263,23.457365,1.6954867461395264Q23.529639,1.6811167461395264,23.602974,1.6738867461395264Q23.6763097,1.6666667461395264,23.75,1.6666667461395264Q23.8236903,1.6666667461395264,23.897026,1.6738867461395264Q23.970361,1.6811167461395264,24.042635,1.6954867461395264Q24.11491,1.7098667461395263,24.185427,1.7312567461395263Q24.255944,1.7526467461395263,24.324025,1.7808467461395263Q24.392106,1.8090467461395263,24.457095,1.8437867461395263Q24.522084,1.8785267461395263,24.583355,1.9194667461395263Q24.644627,1.9604067461395263,24.70159,2.0071467461395263Q24.75855,2.053896746139526,24.81066,2.1060067461395264Q24.86277,2.1581167461395263,24.90952,2.2150767461395264Q24.95626,2.2720397461395265,24.9972,2.3333117461395263Q25.03814,2.3945827461395264,25.07288,2.4595717461395266Q25.10762,2.5245607461395263,25.13582,2.5926417461395266Q25.16402,2.6607227461395264,25.18541,2.7312397461395266Q25.2068,2.8017567461395263,25.22118,2.8740317461395266Q25.23555,2.9463057461395263,25.24278,3.0196407461395265Q25.25,3.0929764461395264,25.25,3.1666667461395264Z" fill="#2E2E2E" fill-opacity="1"/></g><g><path d="M23,22.5L15,22.5Q14.9263097,22.5,14.852974,22.49278Q14.779639,22.48555,14.707365,22.47118Q14.63509,22.4568,14.564573,22.43541Q14.494056,22.41402,14.425975,22.38582Q14.357894,22.35762,14.292905,22.32288Q14.227916,22.28814,14.166645,22.2472Q14.105373,22.20626,14.04841,22.15952Q13.99145,22.11277,13.93934,22.06066Q13.88723,22.00855,13.84048,21.95159Q13.79374,21.894627,13.7528,21.833355Q13.71186,21.772084,13.67712,21.707095Q13.64238,21.642106,13.61418,21.574025Q13.58598,21.505944,13.564589999999999,21.435427Q13.5432,21.36491,13.52882,21.292635Q13.51445,21.220361,13.50722,21.147026Q13.5,21.0736903,13.5,21Q13.5,20.9263097,13.50722,20.852974Q13.51445,20.779639,13.52882,20.707365Q13.5432,20.63509,13.564589999999999,20.564573Q13.58598,20.494056,13.61418,20.425975Q13.64238,20.357894,13.67712,20.292905Q13.71186,20.227916,13.7528,20.166645Q13.79374,20.105373,13.84048,20.04841Q13.88723,19.99145,13.93934,19.93934Q13.99145,19.88723,14.04841,19.84048Q14.105373,19.79374,14.166645,19.7528Q14.227916,19.71186,14.292905,19.67712Q14.357894,19.64238,14.425975,19.61418Q14.494056,19.58598,14.564573,19.56459Q14.63509,19.5432,14.707365,19.52882Q14.779639,19.51445,14.852974,19.50722Q14.9263097,19.5,15,19.5L23,19.5Q23.07369,19.5,23.14703,19.50722Q23.22036,19.51445,23.292630000000003,19.52882Q23.364910000000002,19.5432,23.43543,19.56459Q23.505940000000002,19.58598,23.57402,19.61418Q23.642110000000002,19.64238,23.70709,19.67712Q23.772080000000003,19.71186,23.83335,19.7528Q23.89463,19.79374,23.95159,19.84048Q24.00855,19.88723,24.06066,19.93934Q24.112769999999998,19.99145,24.15952,20.04841Q24.20626,20.105373,24.2472,20.166645Q24.28814,20.227916,24.322879999999998,20.292905Q24.35762,20.357894,24.385820000000002,20.425975Q24.41402,20.494056,24.435409999999997,20.564573Q24.4568,20.63509,24.47118,20.707365Q24.48555,20.779639,24.49278,20.852974Q24.5,20.9263097,24.5,21Q24.5,21.0736903,24.49278,21.147026Q24.48555,21.220361,24.47118,21.292635Q24.4568,21.36491,24.435409999999997,21.435427Q24.41402,21.505944,24.385820000000002,21.574025Q24.35762,21.642106,24.322879999999998,21.707095Q24.28814,21.772084,24.2472,21.833355Q24.20626,21.894627,24.15952,21.95159Q24.112769999999998,22.00855,24.06066,22.06066Q24.00855,22.11277,23.95159,22.15952Q23.89463,22.20626,23.83335,22.2472Q23.772080000000003,22.28814,23.70709,22.32288Q23.642110000000002,22.35762,23.57402,22.38582Q23.505940000000002,22.41402,23.43543,22.43541Q23.364910000000002,22.4568,23.292630000000003,22.47118Q23.22036,22.48555,23.14703,22.49278Q23.07369,22.5,23,22.5ZM24.5,21Q24.5,21.0736903,24.49278,21.147026Q24.48555,21.220361,24.47118,21.292635Q24.4568,21.36491,24.435409999999997,21.435427Q24.41402,21.505944,24.385820000000002,21.574025Q24.35762,21.642106,24.322879999999998,21.707095Q24.28814,21.772084,24.2472,21.833355Q24.20626,21.894627,24.15952,21.95159Q24.112769999999998,22.00855,24.06066,22.06066Q24.00855,22.11277,23.95159,22.15952Q23.89463,22.20626,23.83335,22.2472Q23.772080000000003,22.28814,23.70709,22.32288Q23.642110000000002,22.35762,23.57402,22.38582Q23.505940000000002,22.41402,23.43543,22.43541Q23.364910000000002,22.4568,23.292630000000003,22.47118Q23.22036,22.48555,23.14703,22.49278Q23.07369,22.5,23,22.5Q22.92631,22.5,22.85297,22.49278Q22.77964,22.48555,22.70736,22.47118Q22.635089999999998,22.4568,22.56457,22.43541Q22.49406,22.41402,22.42597,22.38582Q22.35789,22.35762,22.2929,22.32288Q22.22791,22.28814,22.16664,22.2472Q22.10537,22.20626,22.04841,22.15952Q21.99145,22.11277,21.93934,22.06066Q21.88723,22.00855,21.84048,21.95159Q21.79374,21.894627,21.75279,21.833355Q21.71185,21.772084,21.677120000000002,21.707095Q21.64238,21.642106,21.61418,21.574025Q21.58598,21.505944,21.56459,21.435427Q21.5432,21.36491,21.52882,21.292635Q21.51445,21.220361,21.50722,21.147026Q21.5,21.0736903,21.5,21Q21.5,20.9263097,21.50722,20.852974Q21.51444,20.779639,21.52882,20.707365Q21.5432,20.63509,21.56459,20.564573Q21.58598,20.494056,21.61418,20.425975Q21.64238,20.357894,21.677120000000002,20.292905Q21.71185,20.227916,21.75279,20.166645Q21.79374,20.105373,21.84048,20.04841Q21.88723,19.99145,21.93934,19.93934Q21.99145,19.88723,22.04841,19.84048Q22.10537,19.79374,22.16664,19.7528Q22.22792,19.71186,22.2929,19.67712Q22.35789,19.64238,22.42597,19.61418Q22.49406,19.58598,22.56457,19.56459Q22.635089999999998,19.5432,22.70736,19.52882Q22.77964,19.51445,22.85297,19.50722Q22.92631,19.5,23,19.5Q23.07369,19.5,23.14703,19.50722Q23.22036,19.51445,23.292630000000003,19.52882Q23.364910000000002,19.5432,23.43543,19.56459Q23.505940000000002,19.58598,23.57402,19.61418Q23.642110000000002,19.64238,23.70709,19.67712Q23.772080000000003,19.71186,23.83335,19.7528Q23.89463,19.79374,23.95159,19.84048Q24.00855,19.88723,24.06066,19.93934Q24.112769999999998,19.99145,24.15952,20.04841Q24.20626,20.105373,24.2472,20.166645Q24.28814,20.227916,24.322879999999998,20.292905Q24.35762,20.357894,24.385820000000002,20.425975Q24.41402,20.494056,24.435409999999997,20.564573Q24.4568,20.63509,24.47118,20.707365Q24.48555,20.779639,24.49278,20.852974Q24.5,20.9263097,24.5,21ZM16.5,21Q16.5,21.0736903,16.49278,21.147026Q16.48555,21.220361,16.47118,21.292635Q16.4568,21.36491,16.43541,21.435427Q16.41402,21.505944,16.38582,21.574025Q16.35762,21.642106,16.32288,21.707095Q16.28814,21.772084,16.2472,21.833355Q16.20626,21.894627,16.15952,21.95159Q16.11277,22.00855,16.06066,22.06066Q16.00855,22.11277,15.95159,22.15952Q15.894627,22.20626,15.833355,22.2472Q15.772084,22.28814,15.707095,22.32288Q15.642106,22.35762,15.574025,22.38582Q15.505944,22.41402,15.435427,22.43541Q15.36491,22.4568,15.292635,22.47118Q15.220361,22.48555,15.147026,22.49278Q15.0736903,22.5,15,22.5Q14.9263097,22.5,14.852974,22.49278Q14.779639,22.48555,14.707365,22.47118Q14.63509,22.4568,14.564573,22.43541Q14.494056,22.41402,14.425975,22.38582Q14.357894,22.35762,14.292905,22.32288Q14.227916,22.28814,14.166645,22.2472Q14.105373,22.20626,14.04841,22.15952Q13.99145,22.11277,13.93934,22.06066Q13.88723,22.00855,13.84048,21.95159Q13.79374,21.894627,13.7528,21.833355Q13.71186,21.772084,13.67712,21.707095Q13.64238,21.642106,13.61418,21.574025Q13.58598,21.505944,13.564589999999999,21.435427Q13.5432,21.36491,13.52882,21.292635Q13.51445,21.220361,13.50722,21.147026Q13.5,21.0736903,13.5,21Q13.5,20.9263097,13.50722,20.852974Q13.51445,20.779639,13.52882,20.707365Q13.5432,20.63509,13.564589999999999,20.564573Q13.58598,20.494056,13.61418,20.425975Q13.64238,20.357894,13.67712,20.292905Q13.71186,20.227916,13.7528,20.166645Q13.79374,20.105373,13.84048,20.04841Q13.88723,19.99145,13.93934,19.93934Q13.99145,19.88723,14.04841,19.84048Q14.105373,19.79374,14.166645,19.7528Q14.227916,19.71186,14.292905,19.67712Q14.357894,19.64238,14.425975,19.61418Q14.494056,19.58598,14.564573,19.56459Q14.63509,19.5432,14.707365,19.52882Q14.779639,19.51445,14.852974,19.50722Q14.9263097,19.5,15,19.5Q15.0736903,19.5,15.147026,19.50722Q15.220361,19.51445,15.292635,19.52882Q15.36491,19.5432,15.435427,19.56459Q15.505944,19.58598,15.574025,19.61418Q15.642106,19.64238,15.707095,19.67712Q15.772084,19.71186,15.833355,19.7528Q15.894627,19.79374,15.95159,19.84048Q16.00855,19.88723,16.06066,19.93934Q16.11277,19.99145,16.15952,20.04841Q16.20626,20.105373,16.2472,20.166645Q16.28814,20.227916,16.32288,20.292905Q16.35762,20.357894,16.38582,20.425975Q16.41402,20.494056,16.43541,20.564573Q16.4568,20.63509,16.47118,20.707365Q16.48555,20.779639,16.49278,20.852974Q16.5,20.9263097,16.5,21Z" fill="#2E2E2E" fill-opacity="1"/></g><g><path d="M23,26.5L15,26.5Q14.9263097,26.5,14.852974,26.49278Q14.779639,26.48555,14.707365,26.47118Q14.63509,26.4568,14.564573,26.43541Q14.494056,26.41402,14.425975,26.38582Q14.357894,26.35762,14.292905,26.32288Q14.227916,26.28814,14.166645,26.2472Q14.105373,26.20626,14.04841,26.15952Q13.99145,26.11277,13.93934,26.06066Q13.88723,26.00855,13.84048,25.95159Q13.79374,25.894627,13.7528,25.833355Q13.71186,25.772084,13.67712,25.707095Q13.64238,25.642106,13.61418,25.574025Q13.58598,25.505944,13.564589999999999,25.435427Q13.5432,25.36491,13.52882,25.292635Q13.51445,25.220361,13.50722,25.147026Q13.5,25.0736903,13.5,25Q13.5,24.9263097,13.50722,24.852974Q13.51445,24.779639,13.52882,24.707365Q13.5432,24.63509,13.564589999999999,24.564573Q13.58598,24.494056,13.61418,24.425975Q13.64238,24.357894,13.67712,24.292905Q13.71186,24.227916,13.7528,24.166645Q13.79374,24.105373,13.84048,24.04841Q13.88723,23.99145,13.93934,23.93934Q13.99145,23.88723,14.04841,23.84048Q14.105373,23.79374,14.166645,23.7528Q14.227916,23.71186,14.292905,23.67712Q14.357894,23.64238,14.425975,23.61418Q14.494056,23.58598,14.564573,23.56459Q14.63509,23.5432,14.707365,23.52882Q14.779639,23.51445,14.852974,23.50722Q14.9263097,23.5,15,23.5L23,23.5Q23.07369,23.5,23.14703,23.50722Q23.22036,23.51445,23.292630000000003,23.52882Q23.364910000000002,23.5432,23.43543,23.56459Q23.505940000000002,23.58598,23.57402,23.61418Q23.642110000000002,23.64238,23.70709,23.67712Q23.772080000000003,23.71186,23.83335,23.7528Q23.89463,23.79374,23.95159,23.84048Q24.00855,23.88723,24.06066,23.93934Q24.112769999999998,23.99145,24.15952,24.04841Q24.20626,24.105373,24.2472,24.166645Q24.28814,24.227916,24.322879999999998,24.292905Q24.35762,24.357894,24.385820000000002,24.425975Q24.41402,24.494056,24.435409999999997,24.564573Q24.4568,24.63509,24.47118,24.707365Q24.48555,24.779639,24.49278,24.852974Q24.5,24.9263097,24.5,25Q24.5,25.0736903,24.49278,25.147026Q24.48555,25.220361,24.47118,25.292635Q24.4568,25.36491,24.435409999999997,25.435427Q24.41402,25.505944,24.385820000000002,25.574025Q24.35762,25.642106,24.322879999999998,25.707095Q24.28814,25.772084,24.2472,25.833355Q24.20626,25.894627,24.15952,25.95159Q24.112769999999998,26.00855,24.06066,26.06066Q24.00855,26.11277,23.95159,26.15952Q23.89463,26.20626,23.83335,26.2472Q23.772080000000003,26.28814,23.70709,26.32288Q23.642110000000002,26.35762,23.57402,26.38582Q23.505940000000002,26.41402,23.43543,26.43541Q23.364910000000002,26.4568,23.292630000000003,26.47118Q23.22036,26.48555,23.14703,26.49278Q23.07369,26.5,23,26.5ZM24.5,25Q24.5,25.0736903,24.49278,25.147026Q24.48555,25.220361,24.47118,25.292635Q24.4568,25.36491,24.435409999999997,25.435427Q24.41402,25.505944,24.385820000000002,25.574025Q24.35762,25.642106,24.322879999999998,25.707095Q24.28814,25.772084,24.2472,25.833355Q24.20626,25.894627,24.15952,25.95159Q24.112769999999998,26.00855,24.06066,26.06066Q24.00855,26.11277,23.95159,26.15952Q23.89463,26.20626,23.83335,26.2472Q23.772080000000003,26.28814,23.70709,26.32288Q23.642110000000002,26.35762,23.57402,26.38582Q23.505940000000002,26.41402,23.43543,26.43541Q23.364910000000002,26.4568,23.292630000000003,26.47118Q23.22036,26.48555,23.14703,26.49278Q23.07369,26.5,23,26.5Q22.92631,26.5,22.85297,26.49278Q22.77964,26.48555,22.70736,26.47118Q22.635089999999998,26.4568,22.56457,26.43541Q22.49406,26.41402,22.42597,26.38582Q22.35789,26.35762,22.2929,26.32288Q22.22791,26.28814,22.16664,26.2472Q22.10537,26.20626,22.04841,26.15952Q21.99145,26.11277,21.93934,26.06066Q21.88723,26.00855,21.84048,25.95159Q21.79374,25.894627,21.75279,25.833355Q21.71185,25.772084,21.677120000000002,25.707095Q21.64238,25.642106,21.61418,25.574025Q21.58598,25.505944,21.56459,25.435427Q21.5432,25.36491,21.52882,25.292635Q21.51445,25.220361,21.50722,25.147026Q21.5,25.0736903,21.5,25Q21.5,24.9263097,21.50722,24.852974Q21.51444,24.779639,21.52882,24.707365Q21.5432,24.63509,21.56459,24.564573Q21.58598,24.494056,21.61418,24.425975Q21.64238,24.357894,21.677120000000002,24.292905Q21.71185,24.227916,21.75279,24.166645Q21.79374,24.105373,21.84048,24.04841Q21.88723,23.99145,21.93934,23.93934Q21.99145,23.88723,22.04841,23.84048Q22.10537,23.79374,22.16664,23.7528Q22.22792,23.71186,22.2929,23.67712Q22.35789,23.64238,22.42597,23.61418Q22.49406,23.58598,22.56457,23.56459Q22.635089999999998,23.5432,22.70736,23.52882Q22.77964,23.51445,22.85297,23.50722Q22.92631,23.5,23,23.5Q23.07369,23.5,23.14703,23.50722Q23.22036,23.51445,23.292630000000003,23.52882Q23.364910000000002,23.5432,23.43543,23.56459Q23.505940000000002,23.58598,23.57402,23.61418Q23.642110000000002,23.64238,23.70709,23.67712Q23.772080000000003,23.71186,23.83335,23.7528Q23.89463,23.79374,23.95159,23.84048Q24.00855,23.88723,24.06066,23.93934Q24.112769999999998,23.99145,24.15952,24.04841Q24.20626,24.105373,24.2472,24.166645Q24.28814,24.227916,24.322879999999998,24.292905Q24.35762,24.357894,24.385820000000002,24.425975Q24.41402,24.494056,24.435409999999997,24.564573Q24.4568,24.63509,24.47118,24.707365Q24.48555,24.779639,24.49278,24.852974Q24.5,24.9263097,24.5,25ZM16.5,25Q16.5,25.0736903,16.49278,25.147026Q16.48555,25.220361,16.47118,25.292635Q16.4568,25.36491,16.43541,25.435427Q16.41402,25.505944,16.38582,25.574025Q16.35762,25.642106,16.32288,25.707095Q16.28814,25.772084,16.2472,25.833355Q16.20626,25.894627,16.15952,25.95159Q16.11277,26.00855,16.06066,26.06066Q16.00855,26.11277,15.95159,26.15952Q15.894627,26.20626,15.833355,26.2472Q15.772084,26.28814,15.707095,26.32288Q15.642106,26.35762,15.574025,26.38582Q15.505944,26.41402,15.435427,26.43541Q15.36491,26.4568,15.292635,26.47118Q15.220361,26.48555,15.147026,26.49278Q15.0736903,26.5,15,26.5Q14.9263097,26.5,14.852974,26.49278Q14.779639,26.48555,14.707365,26.47118Q14.63509,26.4568,14.564573,26.43541Q14.494056,26.41402,14.425975,26.38582Q14.357894,26.35762,14.292905,26.32288Q14.227916,26.28814,14.166645,26.2472Q14.105373,26.20626,14.04841,26.15952Q13.99145,26.11277,13.93934,26.06066Q13.88723,26.00855,13.84048,25.95159Q13.79374,25.894627,13.7528,25.833355Q13.71186,25.772084,13.67712,25.707095Q13.64238,25.642106,13.61418,25.574025Q13.58598,25.505944,13.564589999999999,25.435427Q13.5432,25.36491,13.52882,25.292635Q13.51445,25.220361,13.50722,25.147026Q13.5,25.0736903,13.5,25Q13.5,24.9263097,13.50722,24.852974Q13.51445,24.779639,13.52882,24.707365Q13.5432,24.63509,13.564589999999999,24.564573Q13.58598,24.494056,13.61418,24.425975Q13.64238,24.357894,13.67712,24.292905Q13.71186,24.227916,13.7528,24.166645Q13.79374,24.105373,13.84048,24.04841Q13.88723,23.99145,13.93934,23.93934Q13.99145,23.88723,14.04841,23.84048Q14.105373,23.79374,14.166645,23.7528Q14.227916,23.71186,14.292905,23.67712Q14.357894,23.64238,14.425975,23.61418Q14.494056,23.58598,14.564573,23.56459Q14.63509,23.5432,14.707365,23.52882Q14.779639,23.51445,14.852974,23.50722Q14.9263097,23.5,15,23.5Q15.0736903,23.5,15.147026,23.50722Q15.220361,23.51445,15.292635,23.52882Q15.36491,23.5432,15.435427,23.56459Q15.505944,23.58598,15.574025,23.61418Q15.642106,23.64238,15.707095,23.67712Q15.772084,23.71186,15.833355,23.7528Q15.894627,23.79374,15.95159,23.84048Q16.00855,23.88723,16.06066,23.93934Q16.11277,23.99145,16.15952,24.04841Q16.20626,24.105373,16.2472,24.166645Q16.28814,24.227916,16.32288,24.292905Q16.35762,24.357894,16.38582,24.425975Q16.41402,24.494056,16.43541,24.564573Q16.4568,24.63509,16.47118,24.707365Q16.48555,24.779639,16.49278,24.852974Q16.5,24.9263097,16.5,25Z" fill="#2E2E2E" fill-opacity="1"/></g><g><path d="M17.5,29L17.5,21Q17.5,20.9263097,17.50722,20.852974Q17.51445,20.779639,17.52882,20.707365Q17.5432,20.63509,17.56459,20.564573Q17.58598,20.494056,17.61418,20.425975Q17.64238,20.357894,17.67712,20.292905Q17.71186,20.227916,17.7528,20.166645Q17.79374,20.105373,17.84048,20.04841Q17.88723,19.99145,17.93934,19.93934Q17.99145,19.88723,18.04841,19.84048Q18.105373,19.79374,18.166645,19.7528Q18.227916,19.71186,18.292905,19.67712Q18.357894,19.64238,18.425975,19.61418Q18.494056,19.58598,18.564573,19.56459Q18.63509,19.5432,18.707365,19.52882Q18.779639,19.51445,18.852974,19.50722Q18.9263097,19.5,19,19.5Q19.0736903,19.5,19.147026,19.50722Q19.220361,19.51445,19.292635,19.52882Q19.36491,19.5432,19.435427,19.56459Q19.505944,19.58598,19.574025,19.61418Q19.642106,19.64238,19.707095,19.67712Q19.772084,19.71186,19.833355,19.7528Q19.894627,19.79374,19.95159,19.84048Q20.00855,19.88723,20.06066,19.93934Q20.11277,19.99145,20.15952,20.04841Q20.20626,20.105373,20.2472,20.166645Q20.28814,20.227916,20.32288,20.292905Q20.35762,20.357894,20.38582,20.425975Q20.41402,20.494056,20.43541,20.564573Q20.4568,20.63509,20.47118,20.707365Q20.48555,20.779639,20.49278,20.852974Q20.5,20.9263097,20.5,21L20.5,29Q20.5,29.07369,20.49278,29.14703Q20.48555,29.22036,20.47118,29.292630000000003Q20.4568,29.364910000000002,20.43541,29.43543Q20.41402,29.505940000000002,20.38582,29.57402Q20.35762,29.642110000000002,20.32288,29.70709Q20.28814,29.772080000000003,20.2472,29.83335Q20.20626,29.89463,20.15952,29.95159Q20.11277,30.00855,20.06066,30.06066Q20.00855,30.112769999999998,19.95159,30.15952Q19.894627,30.20626,19.833355,30.2472Q19.772084,30.28814,19.707095,30.322879999999998Q19.642106,30.35762,19.574025,30.385820000000002Q19.505944,30.41402,19.435427,30.435409999999997Q19.36491,30.4568,19.292635,30.47118Q19.220361,30.48555,19.147026,30.49278Q19.0736903,30.5,19,30.5Q18.9263097,30.5,18.852974,30.49278Q18.779639,30.48555,18.707365,30.47118Q18.63509,30.4568,18.564573,30.435409999999997Q18.494056,30.41402,18.425975,30.385820000000002Q18.357894,30.35762,18.292905,30.322879999999998Q18.227916,30.28814,18.166645,30.2472Q18.105373,30.20626,18.04841,30.15952Q17.99145,30.112769999999998,17.93934,30.06066Q17.88723,30.00855,17.84048,29.95159Q17.79374,29.89463,17.7528,29.83335Q17.71186,29.772080000000003,17.67712,29.70709Q17.64238,29.642110000000002,17.61418,29.57402Q17.58598,29.505940000000002,17.56459,29.43543Q17.5432,29.364910000000002,17.52882,29.292630000000003Q17.51445,29.22036,17.50722,29.14703Q17.5,29.07369,17.5,29ZM20.5,29Q20.5,29.07369,20.49278,29.14703Q20.48555,29.22036,20.47118,29.292630000000003Q20.4568,29.364910000000002,20.43541,29.43543Q20.41402,29.505940000000002,20.38582,29.57402Q20.35762,29.642110000000002,20.32288,29.70709Q20.28814,29.772080000000003,20.2472,29.83335Q20.20626,29.89463,20.15952,29.95159Q20.11277,30.00855,20.06066,30.06066Q20.00855,30.112769999999998,19.95159,30.15952Q19.894627,30.20626,19.833355,30.2472Q19.772084,30.28814,19.707095,30.322879999999998Q19.642106,30.35762,19.574025,30.385820000000002Q19.505944,30.41402,19.435427,30.435409999999997Q19.36491,30.4568,19.292635,30.47118Q19.220361,30.48555,19.147026,30.49278Q19.0736903,30.5,19,30.5Q18.9263097,30.5,18.852974,30.49278Q18.779639,30.48555,18.707365,30.47118Q18.63509,30.4568,18.564573,30.435409999999997Q18.494056,30.41402,18.425975,30.385820000000002Q18.357894,30.35762,18.292905,30.322879999999998Q18.227916,30.28814,18.166645,30.2472Q18.105373,30.20626,18.04841,30.15952Q17.99145,30.112769999999998,17.93934,30.06066Q17.88723,30.00855,17.84048,29.95159Q17.79374,29.89463,17.7528,29.83335Q17.71186,29.772080000000003,17.67712,29.70709Q17.64238,29.642110000000002,17.61418,29.57402Q17.58598,29.505940000000002,17.56459,29.43543Q17.5432,29.364910000000002,17.52882,29.292630000000003Q17.51445,29.22036,17.50722,29.14703Q17.5,29.07369,17.5,29Q17.5,28.92631,17.50722,28.85297Q17.51445,28.77964,17.52882,28.70736Q17.5432,28.635089999999998,17.56459,28.56457Q17.58598,28.49406,17.61418,28.42597Q17.64238,28.35789,17.67712,28.2929Q17.71186,28.22791,17.7528,28.16664Q17.79374,28.10537,17.84048,28.04841Q17.88723,27.99145,17.93934,27.93934Q17.99145,27.88723,18.04841,27.84048Q18.105373,27.79374,18.166645,27.75279Q18.227916,27.71185,18.292905,27.677120000000002Q18.357894,27.64238,18.425975,27.61418Q18.494056,27.58598,18.564573,27.56459Q18.63509,27.5432,18.707365,27.52882Q18.779639,27.51445,18.852974,27.50722Q18.9263097,27.5,19,27.5Q19.0736903,27.5,19.147026,27.50722Q19.220361,27.51445,19.292635,27.52882Q19.36491,27.5432,19.435427,27.56459Q19.505944,27.58598,19.574025,27.61418Q19.642106,27.64238,19.707095,27.677120000000002Q19.772084,27.71185,19.833355,27.75279Q19.894627,27.79374,19.95159,27.84048Q20.00855,27.88723,20.06066,27.93934Q20.11277,27.99145,20.15952,28.04841Q20.20626,28.10537,20.2472,28.16664Q20.28814,28.22792,20.32288,28.2929Q20.35762,28.35789,20.38582,28.42597Q20.41402,28.49406,20.43541,28.56457Q20.4568,28.635089999999998,20.47118,28.70736Q20.48555,28.77964,20.49278,28.85297Q20.5,28.92631,20.5,29ZM20.5,21Q20.5,21.0736903,20.49278,21.147026Q20.48555,21.220361,20.47118,21.292635Q20.4568,21.36491,20.43541,21.435427Q20.41402,21.505944,20.38582,21.574025Q20.35762,21.642106,20.32288,21.707095Q20.28814,21.772084,20.2472,21.833355Q20.20626,21.894627,20.15952,21.95159Q20.11277,22.00855,20.06066,22.06066Q20.00855,22.11277,19.95159,22.15952Q19.894627,22.20626,19.833355,22.2472Q19.772084,22.28814,19.707095,22.32288Q19.642106,22.35762,19.574025,22.38582Q19.505944,22.41402,19.435427,22.43541Q19.36491,22.4568,19.292635,22.47118Q19.220361,22.48555,19.147026,22.49278Q19.0736903,22.5,19,22.5Q18.9263097,22.5,18.852974,22.49278Q18.779639,22.48555,18.707365,22.47118Q18.63509,22.4568,18.564573,22.43541Q18.494056,22.41402,18.425975,22.38582Q18.357894,22.35762,18.292905,22.32288Q18.227916,22.28814,18.166645,22.2472Q18.105373,22.20626,18.04841,22.15952Q17.99145,22.11277,17.93934,22.06066Q17.88723,22.00855,17.84048,21.95159Q17.79374,21.894627,17.7528,21.833355Q17.71186,21.772084,17.67712,21.707095Q17.64238,21.642106,17.61418,21.574025Q17.58598,21.505944,17.56459,21.435427Q17.5432,21.36491,17.52882,21.292635Q17.51445,21.220361,17.50722,21.147026Q17.5,21.0736903,17.5,21Q17.5,20.9263097,17.50722,20.852974Q17.51445,20.779639,17.52882,20.707365Q17.5432,20.63509,17.56459,20.564573Q17.58598,20.494056,17.61418,20.425975Q17.64238,20.357894,17.67712,20.292905Q17.71186,20.227916,17.7528,20.166645Q17.79374,20.105373,17.84048,20.04841Q17.88723,19.99145,17.93934,19.93934Q17.99145,19.88723,18.04841,19.84048Q18.105373,19.79374,18.166645,19.7528Q18.227916,19.71186,18.292905,19.67712Q18.357894,19.64238,18.425975,19.61418Q18.494056,19.58598,18.564573,19.56459Q18.63509,19.5432,18.707365,19.52882Q18.779639,19.51445,18.852974,19.50722Q18.9263097,19.5,19,19.5Q19.0736903,19.5,19.147026,19.50722Q19.220361,19.51445,19.292635,19.52882Q19.36491,19.5432,19.435427,19.56459Q19.505944,19.58598,19.574025,19.61418Q19.642106,19.64238,19.707095,19.67712Q19.772084,19.71186,19.833355,19.7528Q19.894627,19.79374,19.95159,19.84048Q20.00855,19.88723,20.06066,19.93934Q20.11277,19.99145,20.15952,20.04841Q20.20626,20.105373,20.2472,20.166645Q20.28814,20.227916,20.32288,20.292905Q20.35762,20.357894,20.38582,20.425975Q20.41402,20.494056,20.43541,20.564573Q20.4568,20.63509,20.47118,20.707365Q20.48555,20.779639,20.49278,20.852974Q20.5,20.9263097,20.5,21Z" fill="#2E2E2E" fill-opacity="1"/></g><g><path d="M16.06066,14.93934L20.06066,18.93934L19,20L17.93934,18.93934L21.93934,14.93934Q21.99145,14.88723,22.04841,14.84048Q22.10537,14.79374,22.16664,14.7528Q22.22792,14.71186,22.2929,14.67712Q22.35789,14.64238,22.42597,14.61418Q22.49406,14.58598,22.56457,14.564589999999999Q22.635089999999998,14.5432,22.70736,14.52882Q22.77964,14.51445,22.85297,14.50722Q22.92631,14.5,23,14.5Q23.07369,14.5,23.14703,14.50722Q23.22036,14.51445,23.292630000000003,14.52882Q23.364910000000002,14.5432,23.43543,14.564589999999999Q23.505940000000002,14.58598,23.57402,14.61418Q23.642110000000002,14.64238,23.70709,14.67712Q23.772080000000003,14.71186,23.83335,14.7528Q23.89463,14.79374,23.95159,14.84048Q24.00855,14.88723,24.06066,14.93934Q24.112769999999998,14.99145,24.15952,15.04841Q24.20626,15.105373,24.2472,15.166645Q24.28814,15.227916,24.322879999999998,15.292905Q24.35762,15.357894,24.385820000000002,15.425975Q24.41402,15.494056,24.435409999999997,15.564573Q24.4568,15.63509,24.47118,15.707365Q24.48555,15.779639,24.49278,15.852974Q24.5,15.9263097,24.5,16Q24.5,16.0736903,24.49278,16.147026Q24.48555,16.220361,24.47118,16.292635Q24.4568,16.36491,24.435409999999997,16.435427Q24.41402,16.505944,24.385820000000002,16.574025Q24.35762,16.642106,24.322879999999998,16.707095Q24.28814,16.772084,24.2472,16.833355Q24.20626,16.894627,24.15952,16.95159Q24.112769999999998,17.00855,24.06066,17.06066L20.06066,21.06066Q20.00855,21.11277,19.95159,21.15952Q19.89463,21.20626,19.83336,21.2472Q19.77208,21.28815,19.7071,21.322879999999998Q19.64211,21.35762,19.57402,21.38582Q19.50594,21.41402,19.43543,21.43541Q19.364910000000002,21.4568,19.29263,21.47118Q19.22036,21.48555,19.14703,21.49278Q19.07369,21.5,19,21.5Q18.92631,21.5,18.85297,21.49278Q18.77964,21.48555,18.70736,21.47118Q18.635089999999998,21.4568,18.56457,21.43541Q18.49406,21.41402,18.42597,21.38582Q18.35789,21.35762,18.2929,21.322879999999998Q18.22792,21.28815,18.16664,21.2472Q18.10537,21.20626,18.04841,21.15952Q17.99145,21.11277,17.93934,21.06066L13.93934,17.06066Q13.88723,17.00855,13.84048,16.95159Q13.79374,16.894627,13.7528,16.833355Q13.71186,16.772084,13.67712,16.707095Q13.64238,16.642106,13.61418,16.574025Q13.58598,16.505944,13.564589999999999,16.435427Q13.5432,16.36491,13.52882,16.292635Q13.51445,16.220361,13.50722,16.147026Q13.5,16.0736903,13.5,16Q13.5,15.9263097,13.50722,15.852974Q13.51445,15.779639,13.52882,15.707365Q13.5432,15.63509,13.564589999999999,15.564573Q13.58598,15.494056,13.61418,15.425975Q13.64238,15.357894,13.67712,15.292905Q13.71186,15.227916,13.7528,15.166645Q13.79374,15.105373,13.84048,15.04841Q13.88723,14.99145,13.93934,14.93934Q13.99145,14.88723,14.04841,14.84048Q14.105373,14.79374,14.166645,14.7528Q14.227916,14.71186,14.292905,14.67712Q14.357894,14.64238,14.425975,14.61418Q14.494056,14.58598,14.564573,14.564589999999999Q14.63509,14.5432,14.707365,14.52882Q14.779639,14.51445,14.852974,14.50722Q14.9263097,14.5,15,14.5Q15.0736903,14.5,15.147026,14.50722Q15.220361,14.51445,15.292635,14.52882Q15.36491,14.5432,15.435427,14.564589999999999Q15.505944,14.58598,15.574025,14.61418Q15.642106,14.64238,15.707095,14.67712Q15.772084,14.71186,15.833355,14.7528Q15.894627,14.79374,15.95159,14.84048Q16.00855,14.88723,16.06066,14.93934ZM16.5,16Q16.5,16.0736903,16.49278,16.147026Q16.48555,16.220361,16.47118,16.292635Q16.4568,16.36491,16.43541,16.435427Q16.41402,16.505944,16.38582,16.574025Q16.35762,16.642106,16.32288,16.707095Q16.28814,16.772084,16.2472,16.833355Q16.20626,16.894627,16.15952,16.95159Q16.11277,17.00855,16.06066,17.06066Q16.00855,17.11277,15.95159,17.15952Q15.894627,17.20626,15.833355,17.2472Q15.772084,17.28814,15.707095,17.32288Q15.642106,17.35762,15.574025,17.38582Q15.505944,17.41402,15.435427,17.43541Q15.36491,17.4568,15.292635,17.47118Q15.220361,17.48555,15.147026,17.49278Q15.0736903,17.5,15,17.5Q14.9263097,17.5,14.852974,17.49278Q14.779639,17.48555,14.707365,17.47118Q14.63509,17.4568,14.564573,17.43541Q14.494056,17.41402,14.425975,17.38582Q14.357894,17.35762,14.292905,17.32288Q14.227916,17.28814,14.166645,17.2472Q14.105373,17.20626,14.04841,17.15952Q13.99145,17.11277,13.93934,17.06066Q13.88723,17.00855,13.84048,16.95159Q13.79374,16.894627,13.7528,16.833355Q13.71186,16.772084,13.67712,16.707095Q13.64238,16.642106,13.61418,16.574025Q13.58598,16.505944,13.564589999999999,16.435427Q13.5432,16.36491,13.52882,16.292635Q13.51445,16.220361,13.50722,16.147026Q13.5,16.0736903,13.5,16Q13.5,15.9263097,13.50722,15.852974Q13.51445,15.779639,13.52882,15.707365Q13.5432,15.63509,13.564589999999999,15.564573Q13.58598,15.494056,13.61418,15.425975Q13.64238,15.357894,13.67712,15.292905Q13.71186,15.227916,13.7528,15.166645Q13.79374,15.105373,13.84048,15.04841Q13.88723,14.99145,13.93934,14.93934Q13.99145,14.88723,14.04841,14.84048Q14.105373,14.79374,14.166645,14.7528Q14.227916,14.71186,14.292905,14.67712Q14.357894,14.64238,14.425975,14.61418Q14.494056,14.58598,14.564573,14.564589999999999Q14.63509,14.5432,14.707365,14.52882Q14.779639,14.51445,14.852974,14.50722Q14.9263097,14.5,15,14.5Q15.0736903,14.5,15.147026,14.50722Q15.220361,14.51445,15.292635,14.52882Q15.36491,14.5432,15.435427,14.564589999999999Q15.505944,14.58598,15.574025,14.61418Q15.642106,14.64238,15.707095,14.67712Q15.772084,14.71186,15.833355,14.7528Q15.894627,14.79374,15.95159,14.84048Q16.00855,14.88723,16.06066,14.93934Q16.11277,14.99145,16.15952,15.04841Q16.20626,15.105373,16.2472,15.166645Q16.28814,15.227916,16.32288,15.292905Q16.35762,15.357894,16.38582,15.425975Q16.41402,15.494056,16.43541,15.564573Q16.4568,15.63509,16.47118,15.707365Q16.48555,15.779639,16.49278,15.852974Q16.5,15.9263097,16.5,16ZM24.5,16Q24.5,16.0736903,24.49278,16.147026Q24.48555,16.220361,24.47118,16.292635Q24.4568,16.36491,24.435409999999997,16.435427Q24.41402,16.505944,24.385820000000002,16.574025Q24.35762,16.642106,24.322879999999998,16.707095Q24.28814,16.772084,24.2472,16.833355Q24.20626,16.894627,24.15952,16.95159Q24.112769999999998,17.00855,24.06066,17.06066Q24.00855,17.11277,23.95159,17.15952Q23.89463,17.20626,23.83335,17.2472Q23.772080000000003,17.28814,23.70709,17.32288Q23.642110000000002,17.35762,23.57402,17.38582Q23.505940000000002,17.41402,23.43543,17.43541Q23.364910000000002,17.4568,23.292630000000003,17.47118Q23.22036,17.48555,23.14703,17.49278Q23.07369,17.5,23,17.5Q22.92631,17.5,22.85297,17.49278Q22.77964,17.48555,22.70736,17.47118Q22.635089999999998,17.4568,22.56457,17.43541Q22.49406,17.41402,22.42597,17.38582Q22.35789,17.35762,22.2929,17.32288Q22.22791,17.28814,22.16664,17.2472Q22.10537,17.20626,22.04841,17.15952Q21.99145,17.11277,21.93934,17.06066Q21.88723,17.00855,21.84048,16.95159Q21.79374,16.894627,21.75279,16.833355Q21.71185,16.772084,21.677120000000002,16.707095Q21.64238,16.642106,21.61418,16.574025Q21.58598,16.505944,21.56459,16.435427Q21.5432,16.36491,21.52882,16.292635Q21.51445,16.220361,21.50722,16.147026Q21.5,16.0736903,21.5,16Q21.5,15.9263097,21.50722,15.852974Q21.51444,15.779639,21.52882,15.707365Q21.5432,15.63509,21.56459,15.564573Q21.58598,15.494056,21.61418,15.425975Q21.64238,15.357894,21.677120000000002,15.292905Q21.71185,15.227916,21.75279,15.166645Q21.79374,15.105373,21.84048,15.04841Q21.88723,14.99145,21.93934,14.93934Q21.99145,14.88723,22.04841,14.84048Q22.10537,14.79374,22.16664,14.7528Q22.22792,14.71186,22.2929,14.67712Q22.35789,14.64238,22.42597,14.61418Q22.49406,14.58598,22.56457,14.564589999999999Q22.635089999999998,14.5432,22.70736,14.52882Q22.77964,14.51445,22.85297,14.50722Q22.92631,14.5,23,14.5Q23.07369,14.5,23.14703,14.50722Q23.22036,14.51445,23.292630000000003,14.52882Q23.364910000000002,14.5432,23.43543,14.564589999999999Q23.505940000000002,14.58598,23.57402,14.61418Q23.642110000000002,14.64238,23.70709,14.67712Q23.772080000000003,14.71186,23.83335,14.7528Q23.89463,14.79374,23.95159,14.84048Q24.00855,14.88723,24.06066,14.93934Q24.112769999999998,14.99145,24.15952,15.04841Q24.20626,15.105373,24.2472,15.166645Q24.28814,15.227916,24.322879999999998,15.292905Q24.35762,15.357894,24.385820000000002,15.425975Q24.41402,15.494056,24.435409999999997,15.564573Q24.4568,15.63509,24.47118,15.707365Q24.48555,15.779639,24.49278,15.852974Q24.5,15.9263097,24.5,16Z" fill="#2E2E2E" fill-opacity="1"/></g></g></svg>