<svg xmlns="http://www.w3.org/2000/svg" xmlns:xlink="http://www.w3.org/1999/xlink" fill="none" version="1.1" width="38" height="38" viewBox="0 0 38 38"><defs><clipPath id="master_svg0_2438_5008"><rect x="0" y="0" width="38" height="38" rx="0"/></clipPath></defs><g clip-path="url(#master_svg0_2438_5008)"><g><path d="M3.25,15.0644L3.25,6.53572Q3.25,6.41481,3.26936,6.29547Q3.28873,6.176130000000001,3.3269599999999997,6.06143Q3.36518,5.9467300000000005,3.42129,5.83963Q3.4773899999999998,5.73254,3.54993,5.63581Q3.6224600000000002,5.53908,3.70955,5.455220000000001Q3.79664,5.37136,3.8960369999999998,5.30253Q3.9954330000000002,5.2337,4.104571,5.18168Q4.213709,5.12965,4.329769,5.0957799999999995L18.5866,0.9350700000000001Q18.7925,0.87497,19.006999999999998,0.875Q19.2215,0.87503,19.4274,0.9351799999999999L33.6706,5.09589Q33.7866,5.12978,33.895700000000005,5.18182Q34.0048,5.23386,34.1042,5.30269Q34.2036,5.37153,34.2906,5.4553899999999995Q34.377700000000004,5.53925,34.450199999999995,5.63597Q34.5227,5.73268,34.5788,5.83976Q34.6349,5.94684,34.673100000000005,6.06152Q34.7113,6.1762,34.730599999999995,6.29552Q34.75,6.41484,34.75,6.53572L34.75,15.0683Q34.75,18.6318,33.646,22.0078Q32.566900000000004,25.3074,30.5335,28.1282Q28.5001,30.949,25.7108,33.0158Q22.8569,35.1304,19.4762,36.2568Q19.2454,36.3337,19.0021,36.3337Q18.7588,36.3337,18.528,36.2569Q15.1464,35.1304,12.29175,33.0155Q9.5017,30.9485,7.4677,28.1271Q5.433701,25.3057,4.354358,22.0054Q3.25,18.6286,3.25,15.0644L3.25,15.0644ZM6.25,15.0644Q6.25,21.308,9.901250000000001,26.3727Q13.55249,31.4374,19.476100000000002,33.4106L19.0021,34.8337L18.527900000000002,33.4106Q24.4498,31.4375,28.0999,26.3739Q31.75,21.3104,31.75,15.0683L31.75,6.53572L33.25,6.53572L32.8294,7.97554L18.586199999999998,3.81482L19.0068,2.375L19.427,3.81493L5.170231,7.97565L4.75,6.53572L6.25,6.53572L6.25,15.0644L6.25,15.0644Z" fill="#333333" fill-opacity="1"/></g><g><path d="M23.9393,24.0607L21.238950000000003,21.360300000000002Q21.18684,21.3082,21.14009,21.2512Q21.093339999999998,21.194200000000002,21.0524,21.133Q21.01146,21.0717,20.97672,21.006700000000002Q20.94199,20.94172,20.91379,20.87364Q20.88559,20.80556,20.86419,20.73505Q20.8428,20.66453,20.82843,20.59225Q20.81405,20.51998,20.806829999999998,20.446649999999998Q20.799599999999998,20.37331,20.799599999999998,20.29962Q20.799599999999998,20.225929999999998,20.806829999999998,20.15259Q20.81405,20.079259999999998,20.82843,20.00698Q20.8428,19.934710000000003,20.86419,19.86419Q20.88558,19.79367,20.91378,19.72559Q20.94198,19.657510000000002,20.97672,19.59252Q21.01146,19.52753,21.0524,19.46626Q21.093339999999998,19.404989999999998,21.14009,19.34803Q21.18684,19.291069999999998,21.23894,19.23896Q21.29105,19.18685,21.348010000000002,19.1401Q21.404980000000002,19.09335,21.466250000000002,19.052410000000002Q21.527520000000003,19.01147,21.59251,18.97674Q21.65749,18.942,21.72558,18.913800000000002Q21.79366,18.8856,21.86417,18.86421Q21.93469,18.84281,22.006970000000003,18.82844Q22.07924,18.814059999999998,22.15258,18.80684Q22.22591,18.79962,22.299599999999998,18.79962Q22.37329,18.79962,22.44663,18.80684Q22.519959999999998,18.814059999999998,22.59224,18.82844Q22.66451,18.84281,22.735030000000002,18.8642Q22.80554,18.8856,22.873620000000003,18.91379Q22.94171,18.942,23.006700000000002,18.97673Q23.0717,19.01147,23.133,19.052410000000002Q23.194200000000002,19.09335,23.2512,19.1401Q23.3082,19.18685,23.360300000000002,19.238950000000003L26.0607,21.9393Q26.1128,21.9914,26.1595,22.0484Q26.2063,22.1054,26.2472,22.166600000000003Q26.2881,22.227899999999998,26.3229,22.2929Q26.357599999999998,22.3579,26.3858,22.426000000000002Q26.414,22.4941,26.4354,22.5646Q26.4568,22.6351,26.4712,22.7074Q26.485599999999998,22.779600000000002,26.492800000000003,22.853Q26.5,22.926299999999998,26.5,23Q26.5,23.073700000000002,26.492800000000003,23.147Q26.485599999999998,23.220399999999998,26.4712,23.2926Q26.4568,23.3649,26.4354,23.4354Q26.414,23.5059,26.3858,23.573999999999998Q26.357599999999998,23.6421,26.3229,23.7071Q26.2881,23.772100000000002,26.2472,23.833399999999997Q26.2063,23.8946,26.1595,23.9516Q26.1128,24.0086,26.0607,24.0607Q26.0086,24.1128,25.9516,24.1595Q25.8946,24.2063,25.833399999999997,24.2472Q25.772100000000002,24.2881,25.7071,24.3229Q25.6421,24.357599999999998,25.573999999999998,24.3858Q25.5059,24.414,25.4354,24.4354Q25.3649,24.4568,25.2926,24.4712Q25.220399999999998,24.485599999999998,25.147,24.492800000000003Q25.073700000000002,24.5,25,24.5Q24.926299999999998,24.5,24.853,24.492800000000003Q24.779600000000002,24.485599999999998,24.7074,24.4712Q24.6351,24.4568,24.5646,24.4354Q24.4941,24.414,24.426000000000002,24.3858Q24.3579,24.357599999999998,24.2929,24.3229Q24.227899999999998,24.2881,24.166600000000003,24.2472Q24.1054,24.2063,24.0484,24.1595Q23.991500000000002,24.1128,23.9393,24.0607ZM14.5,16.41012Q14.5,18.02974,15.64526,19.17499Q16.79052,20.32025,18.41015,20.32025Q20.02978,20.32025,21.17504,19.17499Q22.32029,18.02974,22.32029,16.41012Q22.32029,14.79051,21.17504,13.64526Q20.02978,12.5,18.41015,12.5Q16.79052,12.5,15.64526,13.64526Q14.5,14.79051,14.5,16.41012L14.5,16.41012ZM11.5,16.41012Q11.5,13.54786,13.523942,11.523931Q15.54788,9.5,18.41015,9.5Q21.27241,9.5,23.2964,11.523931Q25.3203,13.54787,25.3203,16.41012Q25.3203,19.27238,23.2964,21.296300000000002Q21.27241,23.3202,18.41015,23.3202Q15.54788,23.3202,13.523942,21.296300000000002Q11.5,19.27238,11.5,16.41012L11.5,16.41012ZM26.5,23Q26.5,23.073700000000002,26.492800000000003,23.147Q26.485599999999998,23.220399999999998,26.4712,23.2926Q26.4568,23.3649,26.4354,23.4354Q26.414,23.5059,26.3858,23.573999999999998Q26.357599999999998,23.6421,26.3229,23.7071Q26.2881,23.772100000000002,26.2472,23.833399999999997Q26.2063,23.8946,26.1595,23.9516Q26.1128,24.0086,26.0607,24.0607Q26.0086,24.1128,25.9516,24.1595Q25.8946,24.2063,25.833399999999997,24.2472Q25.772100000000002,24.2881,25.7071,24.3229Q25.6421,24.357599999999998,25.573999999999998,24.3858Q25.5059,24.414,25.4354,24.4354Q25.3649,24.4568,25.2926,24.4712Q25.220399999999998,24.485599999999998,25.147,24.492800000000003Q25.073700000000002,24.5,25,24.5Q24.926299999999998,24.5,24.853,24.492800000000003Q24.779600000000002,24.485599999999998,24.7074,24.4712Q24.6351,24.4568,24.5646,24.4354Q24.4941,24.414,24.426000000000002,24.3858Q24.3579,24.357599999999998,24.2929,24.3229Q24.227899999999998,24.2881,24.166600000000003,24.2472Q24.1054,24.2063,24.0484,24.1595Q23.9914,24.1128,23.9393,24.0607Q23.8872,24.0086,23.8405,23.9516Q23.7937,23.8946,23.7528,23.833399999999997Q23.7119,23.772100000000002,23.6771,23.7071Q23.642400000000002,23.6421,23.6142,23.573999999999998Q23.586,23.5059,23.5646,23.4354Q23.5432,23.3649,23.5288,23.2926Q23.514400000000002,23.220399999999998,23.507199999999997,23.147Q23.5,23.073700000000002,23.5,23Q23.5,22.926299999999998,23.507199999999997,22.853Q23.514400000000002,22.779600000000002,23.5288,22.7074Q23.5432,22.6351,23.5646,22.5646Q23.586,22.4941,23.6142,22.426000000000002Q23.642400000000002,22.3579,23.6771,22.2929Q23.7119,22.227899999999998,23.7528,22.166600000000003Q23.7937,22.1054,23.8405,22.0484Q23.8872,21.9914,23.9393,21.9393Q23.9914,21.8872,24.0484,21.8405Q24.1054,21.7937,24.166600000000003,21.7528Q24.227899999999998,21.7119,24.2929,21.6771Q24.3579,21.642400000000002,24.426000000000002,21.6142Q24.4941,21.586,24.5646,21.5646Q24.6351,21.5432,24.7074,21.5288Q24.779600000000002,21.514400000000002,24.853,21.507199999999997Q24.926299999999998,21.5,25,21.5Q25.073700000000002,21.5,25.147,21.507199999999997Q25.220399999999998,21.514400000000002,25.2926,21.5288Q25.3649,21.5432,25.4354,21.5646Q25.5059,21.586,25.573999999999998,21.6142Q25.6421,21.642400000000002,25.7071,21.6771Q25.772100000000002,21.7119,25.833399999999997,21.7528Q25.8946,21.7937,25.9516,21.8405Q26.0086,21.8872,26.0607,21.9393Q26.1128,21.9914,26.1595,22.0484Q26.2063,22.1054,26.2472,22.166600000000003Q26.2881,22.227899999999998,26.3229,22.2929Q26.357599999999998,22.3579,26.3858,22.426000000000002Q26.414,22.4941,26.4354,22.5646Q26.4568,22.6351,26.4712,22.7074Q26.485599999999998,22.779600000000002,26.492800000000003,22.853Q26.5,22.926299999999998,26.5,23ZM23.799599999999998,20.29962Q23.799599999999998,20.37331,23.7924,20.446640000000002Q23.7852,20.51998,23.7708,20.59225Q23.7564,20.66453,23.735,20.735039999999998Q23.7136,20.80556,23.6854,20.87364Q23.6572,20.94172,23.622500000000002,21.006700000000002Q23.587699999999998,21.0717,23.546799999999998,21.133Q23.5059,21.194200000000002,23.4591,21.2512Q23.412399999999998,21.3082,23.360300000000002,21.360300000000002Q23.3082,21.412399999999998,23.2512,21.4591Q23.194200000000002,21.5059,23.133,21.546799999999998Q23.0717,21.5878,23.006700000000002,21.622500000000002Q22.94171,21.6572,22.87363,21.6854Q22.80555,21.7136,22.735030000000002,21.735Q22.66451,21.7564,22.59224,21.7708Q22.51997,21.7852,22.44663,21.7924Q22.37329,21.799599999999998,22.299599999999998,21.799599999999998Q22.22591,21.799599999999998,22.15258,21.7924Q22.07924,21.7852,22.006970000000003,21.7708Q21.93469,21.7564,21.864179999999998,21.735Q21.79366,21.7136,21.72558,21.6854Q21.6575,21.6572,21.59251,21.622500000000002Q21.527520000000003,21.5878,21.466250000000002,21.546799999999998Q21.404980000000002,21.5059,21.348019999999998,21.4591Q21.29105,21.412399999999998,21.23894,21.360300000000002Q21.18684,21.3082,21.14009,21.2512Q21.093339999999998,21.194200000000002,21.0524,21.133Q21.01146,21.0717,20.97672,21.006700000000002Q20.94199,20.94172,20.91378,20.87364Q20.88558,20.80556,20.86419,20.735039999999998Q20.8428,20.66453,20.82843,20.59225Q20.81405,20.51998,20.806829999999998,20.446640000000002Q20.799599999999998,20.37331,20.799599999999998,20.29962Q20.799599999999998,20.225929999999998,20.806829999999998,20.15259Q20.81405,20.079250000000002,20.82843,20.00698Q20.8428,19.9347,20.86419,19.86419Q20.88558,19.79367,20.91378,19.72559Q20.94198,19.657510000000002,20.97672,19.59252Q21.01146,19.52753,21.0524,19.46626Q21.093339999999998,19.404989999999998,21.14009,19.348019999999998Q21.18684,19.29106,21.23894,19.238950000000003Q21.29105,19.18685,21.348010000000002,19.1401Q21.404980000000002,19.09335,21.466250000000002,19.052410000000002Q21.527520000000003,19.01147,21.59251,18.97673Q21.6575,18.942,21.72558,18.913800000000002Q21.79366,18.8856,21.864179999999998,18.86421Q21.9347,18.84281,22.006970000000003,18.82844Q22.07924,18.814059999999998,22.15258,18.80684Q22.22591,18.79962,22.299599999999998,18.79962Q22.37329,18.79962,22.44663,18.80684Q22.51997,18.814059999999998,22.59224,18.82844Q22.66451,18.84281,22.735030000000002,18.86421Q22.80555,18.8856,22.87363,18.913800000000002Q22.94171,18.942,23.006700000000002,18.97673Q23.0717,19.01147,23.133,19.052410000000002Q23.194200000000002,19.09335,23.2512,19.1401Q23.3082,19.18685,23.360300000000002,19.238950000000003Q23.412399999999998,19.29106,23.4591,19.34803Q23.5059,19.404989999999998,23.546799999999998,19.46626Q23.587699999999998,19.52753,23.622500000000002,19.59252Q23.6572,19.657510000000002,23.6854,19.72559Q23.7136,19.79367,23.735,19.86419Q23.7564,19.934710000000003,23.7708,20.00698Q23.7852,20.079250000000002,23.7924,20.15259Q23.799599999999998,20.225929999999998,23.799599999999998,20.29962Z" fill="#333333" fill-opacity="1"/></g></g></svg>