<svg xmlns="http://www.w3.org/2000/svg" xmlns:xlink="http://www.w3.org/1999/xlink" fill="none" version="1.1" width="38" height="38" viewBox="0 0 38 38"><defs><clipPath id="master_svg0_2438_4952"><rect x="0" y="0" width="38" height="38" rx="0"/></clipPath></defs><g clip-path="url(#master_svg0_2438_4952)"><g><path d="M7.833333492279053,33.24996674613953Q7.833333492279053,33.333366746139525,7.916663492279053,33.333366746139525L30.083333492279053,33.333366746139525Q30.166633492279054,33.333366746139525,30.166633492279054,33.24996674613953L30.166633492279054,11.083336746139526L31.666633492279054,11.083336746139526L31.666633492279054,12.583336746139526L23.75003349227905,12.583336746139526Q23.676333492279053,12.583336746139526,23.602933492279053,12.576106746139526Q23.529633492279054,12.568886746139526,23.45733349227905,12.554506746139527Q23.385133492279053,12.540136746139526,23.314533492279054,12.518746746139527Q23.24403349227905,12.497346746139526,23.175933492279054,12.469146746139526Q23.107933492279052,12.440946746139526,23.04293349227905,12.406216746139526Q22.977933492279053,12.371476746139527,22.916633492279054,12.330536746139526Q22.85533349227905,12.289596746139527,22.798433492279052,12.242846746139527Q22.741433492279054,12.196096746139526,22.689333492279054,12.143996746139527Q22.63723349227905,12.091886746139526,22.590433492279054,12.034916746139526Q22.543733492279053,11.977956746139526,22.502833492279052,11.916686746139526Q22.46183349227905,11.855416746139527,22.427133492279054,11.790426746139527Q22.392333492279054,11.725436746139527,22.364133492279052,11.657356746139527Q22.335933492279054,11.589276746139527,22.31463349227905,11.518756746139527Q22.29323349227905,11.448246746139526,22.278833492279052,11.375966746139527Q22.264433492279053,11.303696746139526,22.257233492279052,11.230356746139526Q22.25003349227905,11.157026746139525,22.25003349227905,11.083336746139526L22.25003349227905,3.1666667461395264L23.75003349227905,3.1666667461395264L23.75003349227905,4.666666746139526L7.916663492279053,4.666666746139526Q7.833333492279053,4.666666746139526,7.833333492279053,4.7499967461395265L7.833333492279053,33.24996674613953ZM4.833333492279053,33.24996674613953L4.833333492279053,4.7499967461395265Q4.833333492279053,3.4728417461395265,5.736420492279053,2.5697537461395266Q6.639507492279053,1.6666667461395264,7.916663492279053,1.6666667461395264L23.75003349227905,1.6666667461395264Q23.823733492279054,1.6666667461395264,23.897033492279053,1.6738867461395264Q23.970333492279053,1.6811167461395264,24.04263349227905,1.6954867461395264Q24.114933492279054,1.7098667461395263,24.185433492279053,1.7312567461395263Q24.255933492279052,1.7526467461395263,24.324033492279053,1.7808467461395263Q24.392133492279054,1.8090467461395263,24.457133492279052,1.8437867461395263Q24.522033492279053,1.8785267461395263,24.583333492279053,1.9194667461395263Q24.644633492279052,1.9604067461395263,24.701633492279054,2.0071467461395263Q24.758533492279053,2.053896746139526,24.810633492279052,2.1060067461395264Q24.86273349227905,2.1581167461395263,24.909533492279053,2.2150767461395264Q24.956233492279054,2.2720397461395265,24.997233492279054,2.3333117461395263Q25.03813349227905,2.3945827461395264,25.072833492279052,2.4595717461395266Q25.107633492279053,2.5245607461395263,25.13583349227905,2.5926417461395266Q25.164033492279053,2.6607227461395264,25.185433492279053,2.7312397461395266Q25.206833492279053,2.8017567461395263,25.22113349227905,2.8740317461395266Q25.235533492279053,2.9463057461395263,25.242733492279054,3.0196407461395265Q25.25003349227905,3.0929764461395264,25.25003349227905,3.1666667461395264L25.25003349227905,11.083336746139526L23.75003349227905,11.083336746139526L23.75003349227905,9.583336746139526L31.666633492279054,9.583336746139526Q31.740333492279053,9.583336746139526,31.813733492279052,9.590556746139526Q31.887033492279052,9.597776746139527,31.959333492279054,9.612156746139526Q32.03153349227905,9.626526746139525,32.10213349227905,9.647926746139525Q32.172633492279054,9.669316746139526,32.24073349227905,9.697516746139527Q32.30873349227905,9.725716746139526,32.37373349227906,9.760446746139525Q32.438733492279056,9.795186746139526,32.50003349227905,9.836126746139527Q32.561333492279054,9.877066746139526,32.61823349227905,9.923816746139526Q32.67523349227905,9.970566746139525,32.72733349227905,10.022676746139528Q32.779433492279054,10.074776746139527,32.826133492279055,10.131746746139527Q32.87293349227905,10.188706746139527,32.91383349227905,10.249976746139527Q32.95483349227905,10.311246746139528,32.98953349227905,10.376236746139526Q33.024333492279055,10.441226746139527,33.05243349227905,10.509306746139526Q33.08063349227905,10.577386746139528,33.10203349227905,10.647906746139526Q33.12343349227905,10.718426746139526,33.13783349227906,10.790696746139528Q33.15223349227905,10.862966746139527,33.15943349227905,10.936306746139525Q33.166633492279054,11.009646746139527,33.166633492279054,11.083336746139526L33.166633492279054,33.24996674613953Q33.166633492279054,34.52716674613953,32.263633492279055,35.43026674613952Q31.360533492279053,36.333366746139525,30.083333492279053,36.333366746139525L7.916663492279053,36.333366746139525Q6.6395094922790525,36.333366746139525,5.736426492279053,35.43026674613952Q4.833333492279053,34.52716674613953,4.833333492279053,33.24996674613953Z" fill="#2E2E2E" fill-opacity="1"/></g><g><path d="M30.60601,12.143996746139527L22.68934,4.227326746139527Q22.63723,4.175216746139526,22.59048,4.118256746139527Q22.54374,4.061293746139526,22.5028,4.000021746139526Q22.46186,3.9387507461395264,22.42712,3.873761746139526Q22.39238,3.8087727461395264,22.36418,3.740691746139526Q22.33598,3.6726107461395263,22.31459,3.602093746139526Q22.2932,3.5315767461395264,22.27882,3.459301746139526Q22.26445,3.3870277461395264,22.25722,3.3136927461395262Q22.25,3.2403570461395264,22.25,3.1666667461395264Q22.25,3.0929764461395264,22.25722,3.0196407461395265Q22.26445,2.9463057461395263,22.27882,2.8740317461395266Q22.2932,2.8017567461395263,22.31459,2.7312397461395266Q22.33598,2.6607227461395264,22.36418,2.5926417461395266Q22.39238,2.5245607461395263,22.42712,2.4595717461395266Q22.46186,2.3945827461395264,22.5028,2.3333117461395263Q22.54374,2.2720397461395265,22.59048,2.2150767461395264Q22.63723,2.1581167461395263,22.68934,2.1060067461395264Q22.74145,2.053896746139526,22.79841,2.0071467461395263Q22.855373,1.9604067461395263,22.916645,1.9194667461395263Q22.977916,1.8785267461395263,23.042905,1.8437867461395263Q23.107894,1.8090467461395263,23.175975,1.7808467461395263Q23.244056,1.7526467461395263,23.314573,1.7312567461395263Q23.38509,1.7098667461395263,23.457365,1.6954867461395264Q23.529639,1.6811167461395264,23.602974,1.6738867461395264Q23.6763097,1.6666667461395264,23.75,1.6666667461395264Q23.8236903,1.6666667461395264,23.897026,1.6738867461395264Q23.970361,1.6811167461395264,24.042635,1.6954867461395264Q24.11491,1.7098667461395263,24.185427,1.7312567461395263Q24.255944,1.7526467461395263,24.324025,1.7808467461395263Q24.392106,1.8090467461395263,24.457095,1.8437867461395263Q24.522084,1.8785267461395263,24.583355,1.9194667461395263Q24.644627,1.9604067461395263,24.70159,2.0071467461395263Q24.75855,2.053896746139526,24.81066,2.1060067461395264L32.72733,10.022676746139528Q32.77943,10.074776746139527,32.82618,10.131746746139527Q32.87293,10.188706746139527,32.91387,10.249976746139527Q32.95481,10.311246746139528,32.98955,10.376236746139526Q33.02428,10.441226746139527,33.05248,10.509306746139526Q33.08068,10.577386746139528,33.10207,10.647906746139526Q33.12347,10.718416746139527,33.13784,10.790696746139528Q33.15222,10.862966746139527,33.159440000000004,10.936306746139525Q33.166669999999996,11.009646746139527,33.166669999999996,11.083336746139526Q33.166669999999996,11.157026746139525,33.159440000000004,11.230356746139526Q33.15222,11.303696746139526,33.13784,11.375966746139527Q33.12347,11.448236746139527,33.10207,11.518756746139527Q33.08068,11.589276746139527,33.05248,11.657356746139527Q33.02428,11.725436746139527,32.98955,11.790426746139527Q32.95481,11.855416746139527,32.91387,11.916686746139526Q32.87293,11.977956746139526,32.82618,12.034926746139526Q32.77943,12.091886746139526,32.72733,12.143996746139527Q32.675219999999996,12.196096746139526,32.61825,12.242846746139527Q32.56129,12.289596746139527,32.50002,12.330536746139526Q32.43875,12.371476746139527,32.373760000000004,12.406216746139526Q32.30877,12.440946746139526,32.24069,12.469146746139526Q32.17261,12.497346746139526,32.102090000000004,12.518736746139526Q32.03158,12.540136746139526,31.9593,12.554506746139527Q31.88703,12.568886746139526,31.81369,12.576106746139526Q31.74036,12.583336746139526,31.66667,12.583336746139526Q31.59298,12.583336746139526,31.51964,12.576106746139526Q31.4463,12.568886746139526,31.37403,12.554506746139527Q31.30176,12.540136746139526,31.23124,12.518736746139526Q31.16072,12.497346746139526,31.09264,12.469146746139526Q31.02456,12.440946746139526,30.95957,12.406216746139526Q30.89458,12.371476746139527,30.83331,12.330536746139526Q30.77204,12.289596746139527,30.71508,12.242846746139527Q30.65811,12.196096746139526,30.60601,12.143996746139527ZM33.166669999999996,11.083336746139526Q33.166669999999996,11.157026746139525,33.159440000000004,11.230356746139526Q33.15222,11.303696746139526,33.13784,11.375966746139527Q33.12347,11.448246746139526,33.10208,11.518756746139527Q33.08068,11.589276746139527,33.05248,11.657356746139527Q33.02428,11.725436746139527,32.98955,11.790426746139527Q32.95481,11.855416746139527,32.91387,11.916686746139526Q32.87293,11.977956746139526,32.82618,12.034916746139526Q32.77943,12.091886746139526,32.72733,12.143996746139527Q32.675219999999996,12.196096746139526,32.61825,12.242846746139527Q32.56129,12.289596746139527,32.50002,12.330536746139526Q32.43875,12.371476746139527,32.373760000000004,12.406216746139526Q32.30877,12.440946746139526,32.24069,12.469146746139526Q32.17261,12.497346746139526,32.102090000000004,12.518746746139527Q32.03158,12.540136746139526,31.9593,12.554506746139527Q31.88703,12.568886746139526,31.81369,12.576106746139526Q31.74036,12.583336746139526,31.66667,12.583336746139526Q31.59298,12.583336746139526,31.51964,12.576106746139526Q31.4463,12.568886746139526,31.37403,12.554506746139527Q31.30176,12.540136746139526,31.23124,12.518746746139527Q31.16072,12.497346746139526,31.09264,12.469146746139526Q31.02456,12.440946746139526,30.95957,12.406216746139526Q30.89458,12.371476746139527,30.83331,12.330536746139526Q30.77204,12.289596746139527,30.71508,12.242846746139527Q30.65811,12.196096746139526,30.60601,12.143996746139527Q30.5539,12.091886746139526,30.50715,12.034916746139526Q30.4604,11.977956746139526,30.41946,11.916686746139526Q30.37852,11.855416746139527,30.34378,11.790426746139527Q30.30905,11.725436746139527,30.28085,11.657356746139527Q30.25265,11.589276746139527,30.23126,11.518756746139527Q30.20986,11.448246746139526,30.19549,11.375966746139527Q30.18111,11.303696746139526,30.17389,11.230356746139526Q30.16667,11.157026746139525,30.16667,11.083336746139526Q30.16667,11.009646746139527,30.17389,10.936306746139525Q30.18111,10.862966746139527,30.19549,10.790696746139528Q30.20986,10.718426746139526,30.23126,10.647906746139526Q30.25265,10.577386746139528,30.28085,10.509306746139526Q30.30905,10.441226746139527,30.34378,10.376236746139526Q30.37852,10.311246746139528,30.41946,10.249976746139527Q30.4604,10.188706746139527,30.50715,10.131746746139527Q30.5539,10.074776746139527,30.60601,10.022676746139528Q30.65811,9.970566746139525,30.71508,9.923816746139526Q30.77204,9.877066746139526,30.83331,9.836126746139527Q30.89458,9.795186746139526,30.95957,9.760446746139525Q31.02456,9.725716746139526,31.09264,9.697516746139527Q31.16072,9.669316746139526,31.23124,9.647926746139525Q31.30176,9.626526746139525,31.37403,9.612156746139526Q31.4463,9.597776746139527,31.51964,9.590556746139526Q31.59298,9.583336746139526,31.66667,9.583336746139526Q31.74036,9.583336746139526,31.81369,9.590556746139526Q31.88703,9.597776746139527,31.9593,9.612156746139526Q32.03158,9.626526746139525,32.102090000000004,9.647926746139525Q32.17261,9.669316746139526,32.24069,9.697516746139527Q32.30877,9.725716746139526,32.373760000000004,9.760446746139525Q32.43875,9.795186746139526,32.50002,9.836126746139527Q32.56129,9.877066746139526,32.61825,9.923816746139526Q32.675219999999996,9.970566746139525,32.72733,10.022676746139528Q32.77943,10.074776746139527,32.82618,10.131746746139527Q32.87293,10.188706746139527,32.91387,10.249976746139527Q32.95481,10.311246746139528,32.98955,10.376236746139526Q33.02428,10.441226746139527,33.05248,10.509306746139526Q33.08068,10.577386746139528,33.10208,10.647906746139526Q33.12347,10.718426746139526,33.13784,10.790696746139528Q33.15222,10.862966746139527,33.159440000000004,10.936306746139525Q33.166669999999996,11.009646746139527,33.166669999999996,11.083336746139526ZM25.25,3.1666667461395264Q25.25,3.2403570461395264,25.24278,3.3136927461395262Q25.23555,3.3870277461395264,25.22118,3.459301746139526Q25.2068,3.5315767461395264,25.18541,3.602093746139526Q25.16402,3.6726107461395263,25.13582,3.740691746139526Q25.10762,3.8087727461395264,25.07288,3.873761746139526Q25.03814,3.9387507461395264,24.9972,4.000021746139526Q24.95626,4.061293746139526,24.90952,4.118256746139527Q24.86277,4.175216746139526,24.81066,4.227326746139527Q24.75855,4.279436746139527,24.70159,4.326186746139527Q24.644627,4.372926746139527,24.583355,4.413866746139527Q24.522084,4.454806746139527,24.457095,4.489546746139526Q24.392106,4.524286746139526,24.324025,4.552486746139526Q24.255944,4.580686746139526,24.185427,4.602076746139526Q24.11491,4.623466746139527,24.042635,4.637846746139527Q23.970361,4.652216746139526,23.897026,4.659446746139526Q23.8236903,4.666666746139526,23.75,4.666666746139526Q23.6763097,4.666666746139526,23.602974,4.659446746139526Q23.529639,4.652216746139526,23.457365,4.637846746139527Q23.38509,4.623466746139527,23.314573,4.602076746139526Q23.244056,4.580686746139526,23.175975,4.552486746139526Q23.107894,4.524286746139526,23.042905,4.489546746139526Q22.977916,4.454806746139527,22.916645,4.413866746139527Q22.855373,4.372926746139527,22.79841,4.326186746139527Q22.74145,4.279436746139527,22.68934,4.227326746139527Q22.63723,4.175216746139526,22.59048,4.118256746139527Q22.54374,4.061293746139526,22.5028,4.000021746139526Q22.46186,3.9387507461395264,22.42712,3.873761746139526Q22.39238,3.8087727461395264,22.36418,3.740691746139526Q22.33598,3.6726107461395263,22.31459,3.602093746139526Q22.2932,3.5315767461395264,22.27882,3.459301746139526Q22.26445,3.3870277461395264,22.25722,3.3136927461395262Q22.25,3.2403570461395264,22.25,3.1666667461395264Q22.25,3.0929764461395264,22.25722,3.0196407461395265Q22.26445,2.9463057461395263,22.27882,2.8740317461395266Q22.2932,2.8017567461395263,22.31459,2.7312397461395266Q22.33598,2.6607227461395264,22.36418,2.5926417461395266Q22.39238,2.5245607461395263,22.42712,2.4595717461395266Q22.46186,2.3945827461395264,22.5028,2.3333117461395263Q22.54374,2.2720397461395265,22.59048,2.2150767461395264Q22.63723,2.1581167461395263,22.68934,2.1060067461395264Q22.74145,2.053896746139526,22.79841,2.0071467461395263Q22.855373,1.9604067461395263,22.916645,1.9194667461395263Q22.977916,1.8785267461395263,23.042905,1.8437867461395263Q23.107894,1.8090467461395263,23.175975,1.7808467461395263Q23.244056,1.7526467461395263,23.314573,1.7312567461395263Q23.38509,1.7098667461395263,23.457365,1.6954867461395264Q23.529639,1.6811167461395264,23.602974,1.6738867461395264Q23.6763097,1.6666667461395264,23.75,1.6666667461395264Q23.8236903,1.6666667461395264,23.897026,1.6738867461395264Q23.970361,1.6811167461395264,24.042635,1.6954867461395264Q24.11491,1.7098667461395263,24.185427,1.7312567461395263Q24.255944,1.7526467461395263,24.324025,1.7808467461395263Q24.392106,1.8090467461395263,24.457095,1.8437867461395263Q24.522084,1.8785267461395263,24.583355,1.9194667461395263Q24.644627,1.9604067461395263,24.70159,2.0071467461395263Q24.75855,2.053896746139526,24.81066,2.1060067461395264Q24.86277,2.1581167461395263,24.90952,2.2150767461395264Q24.95626,2.2720397461395265,24.9972,2.3333117461395263Q25.03814,2.3945827461395264,25.07288,2.4595717461395266Q25.10762,2.5245607461395263,25.13582,2.5926417461395266Q25.16402,2.6607227461395264,25.18541,2.7312397461395266Q25.2068,2.8017567461395263,25.22118,2.8740317461395266Q25.23555,2.9463057461395263,25.24278,3.0196407461395265Q25.25,3.0929764461395264,25.25,3.1666667461395264Z" fill="#2E2E2E" fill-opacity="1"/></g><g><path d="M26.494233015441893,19.158190969116212L19.369273015441895,27.86652396911621Q19.322603015441896,27.923553969116213,19.270573015441894,27.97574396911621Q19.218553015441895,28.02792396911621,19.161653015441892,28.07475396911621Q19.104763015441893,28.121593969116212,19.043553015441894,28.16262396911621Q18.982343015441895,28.20365396911621,18.917403015441895,28.23853396911621Q18.852463015441895,28.27333396911621,18.784433015441895,28.30163396911621Q18.716393015441895,28.32993396911621,18.645903015441895,28.35143396911621Q18.575423015441896,28.37293396911621,18.503163015441896,28.38743396911621Q18.430913015441895,28.40193396911621,18.357593015441893,28.40923396911621Q18.284263015441894,28.41653396911621,18.210573015441895,28.416633969116212Q18.136883015441896,28.41673396911621,18.063533015441894,28.40963396911621Q17.990193015441896,28.402533969116213,17.917893015441894,28.38823396911621Q17.845603015441895,28.374033969116212,17.775053015441895,28.35273396911621Q17.704503015441894,28.331433969116212,17.636383015441893,28.30333396911621Q17.568253015441893,28.27523396911621,17.503213015441894,28.24063396911621Q17.438173015441894,28.205963969116212,17.376843015441896,28.165113969116213Q17.315513015441894,28.12426396911621,17.258473015441893,28.07760396911621Q17.253243015441896,28.07332396911621,17.248053015441894,28.06899396911621L12.498057015441894,24.11066396911621Q12.441443015441894,24.06349396911621,12.389733015441895,24.01099396911621Q12.338023015441895,23.958493969116212,12.291703015441895,23.90118396911621Q12.245383015441895,23.84387396911621,12.204903015441895,23.78229396911621Q12.164423015441894,23.72071396911621,12.130173015441894,23.655463969116212Q12.095923015441894,23.59022396911621,12.068243015441894,23.52192396911621Q12.040553015441894,23.45363396911621,12.019693015441895,23.38296396911621Q11.998833015441894,23.312283969116212,11.984993015441894,23.239903969116213Q11.971163015441894,23.16752396911621,11.964493015441894,23.09413396911621Q11.957823015441894,23.02075396911621,11.958373015441895,22.94706396911621Q11.958933015441895,22.873373969116212,11.966703015441894,22.80009396911621Q11.974473015441895,22.72681396911621,11.989393015441895,22.65465396911621Q12.004313015441895,22.58248396911621,12.026233015441894,22.51213396911621Q12.048153015441894,22.441773969116213,12.076863015441894,22.37391396911621Q12.105573015441895,22.30604396911621,12.140803015441895,22.241313969116213Q12.176023015441894,22.17659396911621,12.217423015441895,22.11563396911621Q12.258823015441894,22.054663969116213,12.306003015441895,21.99805396911621Q12.353173015441895,21.94144396911621,12.405673015441895,21.88973396911621Q12.458173015441895,21.83802396911621,12.515483015441895,21.79170396911621Q12.572796015441895,21.74538396911621,12.634373015441895,21.70490396911621Q12.695951015441894,21.66442396911621,12.761199015441894,21.63017396911621Q12.826447015441895,21.59592396911621,12.894738015441895,21.56824396911621Q12.963029015441894,21.54055396911621,13.033705015441894,21.51969396911621Q13.104381015441895,21.498833969116212,13.176761015441894,21.48499396911621Q13.249141015441895,21.471163969116212,13.322529015441894,21.464493969116212Q13.395916715441894,21.457823969116212,13.469604915441895,21.45837396911621Q13.543293115441895,21.45893396911621,13.616572015441895,21.46670396911621Q13.689851015441894,21.47447396911621,13.762015015441895,21.48939396911621Q13.834180015441895,21.50431396911621,13.904534015441895,21.526233969116213Q13.974889015441894,21.54815396911621,14.042756015441894,21.57686396911621Q14.110623015441895,21.60557396911621,14.175349015441894,21.64080396911621Q14.240075015441894,21.676023969116212,14.301037015441894,21.71742396911621Q14.361999015441894,21.75882396911621,14.418609015441895,21.80600396911621L19.168613015441895,25.764333969116212L18.208333015441895,26.91666396911621L17.047403015441894,25.96681396911621L24.172433015441896,17.25847696911621Q24.219033015441894,17.201443969116212,24.271133015441894,17.149263969116213Q24.323133015441897,17.09707396911621,24.380033015441896,17.05024396911621Q24.436933015441895,17.00340396911621,24.498133015441894,16.96237396911621Q24.559333015441894,16.92134396911621,24.624233015441895,16.886513969116212Q24.689233015441893,16.85167396911621,24.757233015441894,16.82337396911621Q24.825233015441896,16.79507396911621,24.895733015441895,16.77357396911621Q24.966233015441894,16.75208396911621,25.038533015441892,16.73759396911621Q25.110733015441895,16.723113969116213,25.184033015441894,16.71577396911621Q25.257433015441894,16.70844396911621,25.331133015441893,16.70833396911621Q25.404733015441895,16.70822396911621,25.478133015441895,16.715343969116212Q25.551433015441894,16.72245396911621,25.623733015441893,16.736723969116213Q25.696033015441895,16.750983969116213,25.766633015441894,16.77227396911621Q25.837133015441893,16.79356396911621,25.905333015441894,16.821653969116213Q25.973433015441895,16.84975396911621,26.038433015441896,16.88439396911621Q26.103533015441897,16.91903396911621,26.164833015441893,16.959883969116213Q26.226133015441896,17.00073396911621,26.283233015441894,17.04739396911621Q26.340233015441896,17.09406396911621,26.392433015441895,17.14609396911621Q26.444633015441894,17.19812396911621,26.491433015441892,17.255012969116212Q26.538233015441897,17.31190596911621,26.579333015441897,17.37311696911621Q26.620333015441894,17.43432696911621,26.655133015441894,17.49926396911621Q26.690033015441895,17.56420096911621,26.718333015441893,17.632238969116212Q26.746633015441894,17.70027796911621,26.768133015441894,17.770762969116213Q26.789633015441893,17.84124796911621,26.804033015441895,17.91350096911621Q26.818533015441893,17.98575396911621,26.825933015441894,18.05907896911621Q26.833233015441895,18.13240306911621,26.833333015441895,18.206093259116212Q26.833433015441894,18.27978346911621,26.826333015441897,18.35312996911621Q26.819233015441895,18.42647596911621,26.804933015441897,18.49877096911621Q26.790633015441895,18.57106696911621,26.769433015441894,18.64161596911621Q26.748133015441894,18.712164969116213,26.720033015441892,18.780287969116213Q26.691933015441894,18.848410969116212,26.657233015441896,18.91345196911621Q26.622633015441895,18.97849296911621,26.581733015441895,19.03982496911621Q26.540933015441894,19.101157969116212,26.494233015441893,19.158190969116212ZM26.833333015441895,18.20833396911621Q26.833333015441895,18.28202426911621,26.826133015441897,18.35535996911621Q26.818933015441893,18.42869496911621,26.804533015441894,18.50096896911621Q26.790133015441896,18.57324396911621,26.768733015441896,18.64376096911621Q26.747333015441896,18.71427796911621,26.719133015441894,18.78235896911621Q26.690933015441892,18.85043996911621,26.656233015441895,18.91542896911621Q26.621433015441895,18.98041796911621,26.580533015441894,19.041688969116212Q26.539633015441893,19.10296096911621,26.492833015441896,19.15992396911621Q26.446133015441895,19.21688396911621,26.394033015441895,19.26899396911621Q26.341933015441896,19.321103969116212,26.284933015441894,19.36785396911621Q26.227933015441895,19.41459396911621,26.166733015441892,19.45553396911621Q26.105433015441896,19.49647396911621,26.040433015441895,19.531213969116212Q25.975433015441894,19.56595396911621,25.907333015441893,19.59415396911621Q25.839233015441895,19.62235396911621,25.768733015441896,19.643743969116212Q25.698233015441893,19.665133969116212,25.625933015441895,19.67951396911621Q25.553733015441892,19.69388396911621,25.480333015441893,19.70111396911621Q25.407033015441897,19.70833396911621,25.333333015441895,19.70833396911621Q25.259633015441892,19.70833396911621,25.186333015441896,19.70111396911621Q25.112933015441897,19.69388396911621,25.040733015441894,19.67951396911621Q24.968433015441896,19.665133969116212,24.897933015441893,19.643743969116212Q24.827433015441894,19.62235396911621,24.759333015441896,19.59415396911621Q24.691233015441895,19.56595396911621,24.626233015441894,19.531213969116212Q24.561233015441893,19.49647396911621,24.499933015441897,19.45553396911621Q24.438733015441894,19.41459396911621,24.381733015441895,19.36785396911621Q24.324733015441893,19.321103969116212,24.272633015441894,19.26899396911621Q24.220533015441895,19.21688396911621,24.173833015441893,19.15992396911621Q24.127033015441896,19.10296096911621,24.086133015441895,19.041688969116212Q24.045233015441895,18.98041796911621,24.010433015441894,18.91542896911621Q23.975733015441897,18.85043996911621,23.947533015441895,18.78235896911621Q23.919333015441893,18.71427796911621,23.897933015441893,18.64376096911621Q23.876533015441893,18.57324396911621,23.862133015441895,18.50096896911621Q23.847733015441896,18.42869496911621,23.840533015441892,18.35535996911621Q23.833333015441895,18.28202426911621,23.833333015441895,18.20833396911621Q23.833333015441895,18.134643669116212,23.840533015441892,18.06130796911621Q23.847733015441896,17.98797296911621,23.862133015441895,17.91569896911621Q23.876533015441893,17.843423969116213,23.897933015441893,17.77290696911621Q23.919333015441893,17.70238996911621,23.947533015441895,17.634308969116212Q23.975733015441897,17.566227969116213,24.010433015441894,17.501238969116212Q24.045233015441895,17.43624996911621,24.086133015441895,17.37497896911621Q24.127033015441896,17.31370696911621,24.173833015441893,17.25674396911621Q24.220533015441895,17.19978396911621,24.272633015441894,17.147673969116212Q24.324733015441893,17.09556396911621,24.381733015441895,17.04881396911621Q24.438733015441894,17.00207396911621,24.499933015441897,16.96113396911621Q24.561233015441893,16.920193969116212,24.626233015441894,16.88545396911621Q24.691233015441895,16.85071396911621,24.759333015441896,16.822513969116212Q24.827433015441894,16.79431396911621,24.897933015441893,16.77292396911621Q24.968433015441896,16.75153396911621,25.040733015441894,16.73715396911621Q25.112933015441897,16.72278396911621,25.186333015441896,16.71555396911621Q25.259633015441892,16.70833396911621,25.333333015441895,16.70833396911621Q25.407033015441897,16.70833396911621,25.480333015441893,16.71555396911621Q25.553733015441892,16.72278396911621,25.625933015441895,16.73715396911621Q25.698233015441893,16.75153396911621,25.768733015441896,16.77292396911621Q25.839233015441895,16.79431396911621,25.907333015441893,16.822513969116212Q25.975433015441894,16.85071396911621,26.040433015441895,16.88545396911621Q26.105433015441896,16.920193969116212,26.166733015441892,16.96113396911621Q26.227933015441895,17.00207396911621,26.284933015441894,17.04881396911621Q26.341933015441896,17.09556396911621,26.394033015441895,17.147673969116212Q26.446133015441895,17.19978396911621,26.492833015441896,17.25674396911621Q26.539633015441893,17.31370696911621,26.580533015441894,17.37497896911621Q26.621433015441895,17.43624996911621,26.656233015441895,17.501238969116212Q26.690933015441892,17.566227969116213,26.719133015441894,17.634308969116212Q26.747333015441896,17.70238996911621,26.768733015441896,17.77290696911621Q26.790133015441896,17.843423969116213,26.804533015441894,17.91569896911621Q26.818933015441893,17.98797296911621,26.826133015441897,18.06130796911621Q26.833333015441895,18.134643669116212,26.833333015441895,18.20833396911621ZM14.958333015441895,22.95833396911621Q14.958333015441895,23.03202396911621,14.951113015441894,23.105363969116212Q14.943883015441894,23.17869396911621,14.929513015441895,23.25096396911621Q14.915133015441894,23.323243969116213,14.893743015441895,23.39376396911621Q14.872353015441895,23.46427396911621,14.844153015441895,23.532353969116212Q14.815953015441895,23.60044396911621,14.781213015441894,23.66543396911621Q14.746473015441895,23.73041396911621,14.705533015441894,23.79168396911621Q14.664593015441895,23.85296396911621,14.617853015441895,23.90992396911621Q14.571103015441894,23.96688396911621,14.518993015441895,24.01899396911621Q14.466883015441894,24.071103969116212,14.409923015441894,24.11785396911621Q14.352960015441894,24.16459396911621,14.291688015441894,24.20553396911621Q14.230417015441894,24.24647396911621,14.165428015441895,24.28121396911621Q14.100439015441895,24.31595396911621,14.032358015441895,24.34415396911621Q13.964277015441894,24.37235396911621,13.893760015441895,24.393743969116212Q13.823243015441895,24.415133969116212,13.750968015441895,24.42951396911621Q13.678694015441895,24.44388396911621,13.605359015441895,24.45111396911621Q13.532023315441895,24.45833396911621,13.458333015441895,24.45833396911621Q13.384642715441894,24.45833396911621,13.311307015441894,24.45111396911621Q13.237972015441894,24.44388396911621,13.165698015441894,24.42951396911621Q13.093423015441894,24.415133969116212,13.022906015441894,24.393743969116212Q12.952389015441895,24.37235396911621,12.884308015441894,24.34415396911621Q12.816227015441894,24.31595396911621,12.751238015441894,24.28121396911621Q12.686249015441895,24.24647396911621,12.624978015441895,24.20553396911621Q12.563706015441895,24.16459396911621,12.506743015441895,24.11785396911621Q12.449783015441895,24.071103969116212,12.397673015441894,24.01899396911621Q12.345563015441895,23.96688396911621,12.298813015441894,23.90992396911621Q12.252073015441894,23.85296396911621,12.211133015441895,23.79168396911621Q12.170193015441894,23.73041396911621,12.135453015441895,23.66543396911621Q12.100713015441894,23.60044396911621,12.072513015441894,23.532353969116212Q12.044313015441894,23.46427396911621,12.022923015441894,23.39376396911621Q12.001533015441895,23.323243969116213,11.987153015441894,23.25096396911621Q11.972783015441895,23.17869396911621,11.965553015441895,23.105363969116212Q11.958333015441895,23.03202396911621,11.958333015441895,22.95833396911621Q11.958333015441895,22.884643969116212,11.965553015441895,22.81130396911621Q11.972783015441895,22.73797396911621,11.987153015441894,22.665693969116212Q12.001533015441895,22.59342396911621,12.022923015441894,22.52290396911621Q12.044313015441894,22.452393969116212,12.072513015441894,22.38430396911621Q12.100713015441894,22.316223969116212,12.135453015441895,22.25123396911621Q12.170193015441894,22.186253969116212,12.211133015441895,22.124973969116212Q12.252073015441894,22.06370396911621,12.298813015441894,22.00674396911621Q12.345563015441895,21.94978396911621,12.397673015441894,21.897673969116212Q12.449783015441895,21.84556396911621,12.506743015441895,21.79881396911621Q12.563706015441895,21.75207396911621,12.624978015441895,21.71113396911621Q12.686249015441895,21.670193969116212,12.751238015441894,21.63545396911621Q12.816227015441894,21.60071396911621,12.884308015441894,21.572513969116212Q12.952389015441895,21.54431396911621,13.022906015441894,21.52292396911621Q13.093423015441894,21.50153396911621,13.165698015441894,21.48715396911621Q13.237972015441894,21.47278396911621,13.311307015441894,21.46555396911621Q13.384642715441894,21.45833396911621,13.458333015441895,21.45833396911621Q13.532023315441895,21.45833396911621,13.605359015441895,21.46555396911621Q13.678694015441895,21.47278396911621,13.750968015441895,21.48715396911621Q13.823243015441895,21.50153396911621,13.893760015441895,21.52292396911621Q13.964277015441894,21.54431396911621,14.032358015441895,21.572513969116212Q14.100439015441895,21.60071396911621,14.165428015441895,21.63545396911621Q14.230417015441894,21.670193969116212,14.291688015441894,21.71113396911621Q14.352960015441894,21.75207396911621,14.409923015441894,21.79881396911621Q14.466883015441894,21.84556396911621,14.518993015441895,21.897673969116212Q14.571103015441894,21.94978396911621,14.617853015441895,22.00674396911621Q14.664593015441895,22.06370396911621,14.705533015441894,22.124973969116212Q14.746473015441895,22.186253969116212,14.781213015441894,22.25123396911621Q14.815953015441895,22.316223969116212,14.844153015441895,22.38430396911621Q14.872353015441895,22.452393969116212,14.893743015441895,22.52290396911621Q14.915133015441894,22.59342396911621,14.929513015441895,22.665693969116212Q14.943883015441894,22.73797396911621,14.951113015441894,22.81130396911621Q14.958333015441895,22.884643969116212,14.958333015441895,22.95833396911621Z" fill="#2E2E2E" fill-opacity="1"/></g></g></svg>