<svg xmlns="http://www.w3.org/2000/svg" xmlns:xlink="http://www.w3.org/1999/xlink" fill="none" version="1.1" width="38" height="38" viewBox="0 0 38 38"><defs><clipPath id="master_svg0_2438_5032"><rect x="0" y="0" width="38" height="38" rx="0"/></clipPath></defs><g clip-path="url(#master_svg0_2438_5032)"><g><path d="M25.333366507720946,4.833333492279053L30.87496650772095,4.833333492279053Q31.824266507720946,4.833333492279053,32.49546650772095,5.504556492279053Q33.16666650772095,6.175767492279053,33.16666650772095,7.125000492279053L33.16666650772095,34.041633492279054Q33.16666650772095,34.990933492279055,32.49546650772095,35.662133492279054Q31.824266507720946,36.33333349227905,30.87496650772095,36.33333349227905L8.708333507720948,36.33333349227905Q7.759086507720947,36.33333349227905,7.087877507720947,35.662133492279054Q6.416666507720947,34.990933492279055,6.416666507720947,34.041633492279054L6.416666507720947,7.125000492279053Q6.416666507720947,6.1757664922790525,7.087868507720947,5.504555492279053Q7.759081507720947,4.833333492279053,8.708333507720948,4.833333492279053L14.249996507720947,4.833333492279053L14.249996507720947,7.833333492279053L8.708333507720948,7.833333492279053Q9.001736507720947,7.833333492279053,9.209206507720948,7.625863492279053Q9.416666507720947,7.418393492279053,9.416666507720947,7.125000492279053L9.416666507720947,34.041633492279054Q9.416666507720947,33.748233492279056,9.209196507720947,33.54083349227905Q9.001726507720948,33.33333349227905,8.708333507720948,33.33333349227905L30.87496650772095,33.33333349227905Q30.581566507720947,33.33333349227905,30.374166507720947,33.54083349227905Q30.166666507720947,33.748233492279056,30.166666507720947,34.041633492279054L30.166666507720947,7.125000492279053Q30.166666507720947,7.418393492279053,30.374166507720947,7.625863492279053Q30.581566507720947,7.833333492279053,30.87496650772095,7.833333492279053L25.333366507720946,7.833333492279053L25.333366507720946,4.833333492279053Z" fill="#2E2E2E" fill-opacity="1"/></g><g><path d="M15.041667,12.5833Q14.09242,12.5833,13.42121,11.91212Q12.75,11.24091,12.75,10.29167L12.75,4.83333L17.37748,4.83333Q16.77261,4.83333,16.3448,5.2609200000000005Q15.91667,5.68882,15.91667,6.29415L15.91667,4.75Q15.91667,3.144923,17.05161,2.009969Q18.18656,0.875,19.79167,0.875Q21.39677,0.875,22.53172,2.009969Q23.66667,3.144923,23.66667,4.75L23.66667,6.29415Q23.66667,5.68879,23.238500000000002,5.26088Q22.8107,4.83333,22.205849999999998,4.83333L26.8333,4.83333L26.8333,10.29167Q26.8333,11.24092,26.162100000000002,11.91212Q25.4909,12.5833,24.5417,12.5833L15.041667,12.5833ZM15.041667,9.58333L24.5417,9.58333Q24.248269999999998,9.58333,24.0408,9.7908Q23.83333,9.99827,23.83333,10.29167L23.83333,6.33333L25.3333,6.33333L25.3333,7.83333L22.205849999999998,7.83333Q21.56858,7.83333,21.11781,7.38283Q20.66667,6.93196,20.66667,6.29415L20.66667,4.75Q20.66667,4.38755,20.41039,4.13128Q20.15412,3.875,19.79167,3.875Q19.42921,3.875,19.17294,4.13128Q18.91667,4.38755,18.91667,4.75L18.91667,6.29415Q18.91667,6.93193,18.46556,7.3828Q18.014780000000002,7.83333,17.37748,7.83333L14.25,7.83333L14.25,6.33333L15.75,6.33333L15.75,10.29167Q15.75,9.99827,15.54253,9.7908Q15.33506,9.58333,15.041667,9.58333Z" fill="#2E2E2E" fill-opacity="1"/></g><g style="mix-blend-mode:passthrough"><path d="M19.01562,17.54688L14.851562,17.54688L14.851562,25.4414L15.94141,25.4414L15.94141,18.66016L17.95703,18.66016L17.95703,25.273400000000002L19.01562,25.273400000000002L19.01562,17.54688ZM16.48047,19.39453L16.48047,23.316409999999998C16.44531,24.351599999999998,16.28906,25.1914,16.01562,25.835900000000002C15.72656,26.4375,15.17578,26.9297,14.359375,27.3398L14.992188,28.335900000000002C15.82031,27.914099999999998,16.42188,27.324199999999998,16.79297,26.582C17.17969,25.7656,17.38281,24.6875,17.41797,23.316409999999998L17.41797,19.39453L16.48047,19.39453ZM17.89844,25.5156L17.16797,26.2344C17.82812,26.9297,18.33203,27.5781,18.69141,28.1797L19.53125,27.3398C19.08594,26.738300000000002,18.54688,26.125,17.89844,25.5156ZM19.49609,18.20703L19.49609,19.38281L25.1953,19.38281L25.1953,18.20703L22.96094,18.20703C22.84375,17.79688,22.71094,17.41406,22.57812,17.07812L21.33203,17.29297C21.47656,17.57031,21.60547,17.87109,21.72656,18.20703L19.49609,18.20703ZM19.31641,21.46875L19.31641,22.66797L25.4727,22.66797L25.4727,21.46875L24.175800000000002,21.46875C24.3906,21.01172,24.6055,20.51953,24.800800000000002,19.96875L23.621090000000002,19.55078C23.42969,20.22266,23.20312,20.85547,22.94922,21.46875L21.92969,21.46875C21.72656,20.73828,21.5,20.10156,21.24609,19.57422L20.10547,20.01562C20.33594,20.47266,20.53906,20.96484,20.70703,21.46875L19.31641,21.46875ZM24.8477,23.472659999999998L19.96094,23.472659999999998L19.96094,28.2031L21.13672,28.2031L21.13672,27.636699999999998L23.683590000000002,27.636699999999998L23.683590000000002,28.2031L24.8477,28.2031L24.8477,23.472659999999998ZM21.13672,26.460900000000002L21.13672,24.648400000000002L23.683590000000002,24.648400000000002L23.683590000000002,26.460900000000002L21.13672,26.460900000000002Z" fill="#2E2E2E" fill-opacity="1"/></g></g></svg>