<svg xmlns="http://www.w3.org/2000/svg" xmlns:xlink="http://www.w3.org/1999/xlink" fill="none" version="1.1" width="38" height="38" viewBox="0 0 38 38"><defs><clipPath id="master_svg0_2438_5011"><rect x="0" y="0" width="38" height="38" rx="0"/></clipPath></defs><g clip-path="url(#master_svg0_2438_5011)"><g><path d="M25.333366507720946,4.833333492279053L30.87496650772095,4.833333492279053Q31.824266507720946,4.833333492279053,32.49546650772095,5.504556492279053Q33.16666650772095,6.175767492279053,33.16666650772095,7.125000492279053L33.16666650772095,34.041633492279054Q33.16666650772095,34.990933492279055,32.49546650772095,35.662133492279054Q31.824266507720946,36.33333349227905,30.87496650772095,36.33333349227905L8.708333507720948,36.33333349227905Q7.759086507720947,36.33333349227905,7.087877507720947,35.662133492279054Q6.416666507720947,34.990933492279055,6.416666507720947,34.041633492279054L6.416666507720947,7.125000492279053Q6.416666507720947,6.1757664922790525,7.087868507720947,5.504555492279053Q7.759081507720947,4.833333492279053,8.708333507720948,4.833333492279053L14.249996507720947,4.833333492279053L14.249996507720947,7.833333492279053L8.708333507720948,7.833333492279053Q9.001736507720947,7.833333492279053,9.209206507720948,7.625863492279053Q9.416666507720947,7.418393492279053,9.416666507720947,7.125000492279053L9.416666507720947,34.041633492279054Q9.416666507720947,33.748233492279056,9.209196507720947,33.54083349227905Q9.001726507720948,33.33333349227905,8.708333507720948,33.33333349227905L30.87496650772095,33.33333349227905Q30.581566507720947,33.33333349227905,30.374166507720947,33.54083349227905Q30.166666507720947,33.748233492279056,30.166666507720947,34.041633492279054L30.166666507720947,7.125000492279053Q30.166666507720947,7.418393492279053,30.374166507720947,7.625863492279053Q30.581566507720947,7.833333492279053,30.87496650772095,7.833333492279053L25.333366507720946,7.833333492279053L25.333366507720946,4.833333492279053Z" fill="#2E2E2E" fill-opacity="1"/></g><g><path d="M15.041667,12.5833Q14.09242,12.5833,13.42121,11.91212Q12.75,11.24091,12.75,10.29167L12.75,4.83333L17.37748,4.83333Q16.77261,4.83333,16.3448,5.2609200000000005Q15.91667,5.68882,15.91667,6.29415L15.91667,4.75Q15.91667,3.144923,17.05161,2.009969Q18.18656,0.875,19.79167,0.875Q21.39677,0.875,22.53172,2.009969Q23.66667,3.144923,23.66667,4.75L23.66667,6.29415Q23.66667,5.68879,23.238500000000002,5.26088Q22.8107,4.83333,22.205849999999998,4.83333L26.8333,4.83333L26.8333,10.29167Q26.8333,11.24092,26.162100000000002,11.91212Q25.4909,12.5833,24.5417,12.5833L15.041667,12.5833ZM15.041667,9.58333L24.5417,9.58333Q24.248269999999998,9.58333,24.0408,9.7908Q23.83333,9.99827,23.83333,10.29167L23.83333,6.33333L25.3333,6.33333L25.3333,7.83333L22.205849999999998,7.83333Q21.56858,7.83333,21.11781,7.38283Q20.66667,6.93196,20.66667,6.29415L20.66667,4.75Q20.66667,4.38755,20.41039,4.13128Q20.15412,3.875,19.79167,3.875Q19.42921,3.875,19.17294,4.13128Q18.91667,4.38755,18.91667,4.75L18.91667,6.29415Q18.91667,6.93193,18.46556,7.3828Q18.014780000000002,7.83333,17.37748,7.83333L14.25,7.83333L14.25,6.33333L15.75,6.33333L15.75,10.29167Q15.75,9.99827,15.54253,9.7908Q15.33506,9.58333,15.041667,9.58333Z" fill="#2E2E2E" fill-opacity="1"/></g><g style="mix-blend-mode:passthrough"><path d="M25.0273,21.07422L18.90625,21.07422L18.90625,25.835900000000002L20.12891,25.835900000000002L20.12891,22.17578L23.80469,22.17578L23.80469,25.824199999999998L25.0273,25.824199999999998L25.0273,21.07422ZM19.28906,17.51953L19.28906,20.53516L24.6797,20.53516L24.6797,17.51953L19.28906,17.51953ZM23.45312,19.5L20.51562,19.5L20.51562,18.57812L23.45312,18.57812L23.45312,19.5ZM21.29297,22.69531L21.29297,23.91797C21.24609,24.7578,21.01953,25.4531,20.60938,25.9922C20.17969,26.4961,19.375,26.9062,18.17578,27.2422L18.84766,28.2969C20.10547,27.9375,21.01953,27.4336,21.59375,26.7852C22.17188,26.0664,22.48438,25.1055,22.54297,23.91797L22.54297,22.69531L21.29297,22.69531ZM16.05078,28.1172C16.87891,28.1172,17.29688,27.699199999999998,17.29688,26.8828L17.29688,23.59375C17.70703,23.41406,18.10156,23.222659999999998,18.5,23.01953L18.5,21.74609C18.10156,21.96094,17.70703,22.152340000000002,17.29688,22.34375L17.29688,20.42578L18.59375,20.42578L18.59375,19.21484L17.29688,19.21484L17.29688,17.16016L16.0625,17.16016L16.0625,19.21484L14.585938,19.21484L14.585938,20.42578L16.0625,20.42578L16.0625,22.83594C15.48438,23.03125,14.910156,23.19922,14.335938,23.32812L14.65625,24.601599999999998C15.125,24.4453,15.59375,24.2773,16.0625,24.1094L16.0625,26.5586C16.0625,26.8477,15.90625,27,15.61719,27C15.30469,27,14.980469,26.976599999999998,14.644531,26.9297L14.921875,28.1172L16.05078,28.1172ZM22.808590000000002,25.6562L22.19531,26.582C23.09375,27.0156,23.972659999999998,27.601599999999998,24.835900000000002,28.3477L25.543,27.2656C24.7148,26.6406,23.80469,26.101599999999998,22.808590000000002,25.6562Z" fill="#2E2E2E" fill-opacity="1"/></g></g></svg>