<svg xmlns="http://www.w3.org/2000/svg" xmlns:xlink="http://www.w3.org/1999/xlink" fill="none" version="1.1" width="38" height="38" viewBox="0 0 38 38"><defs><clipPath id="master_svg0_2438_5020"><rect x="0" y="0" width="38" height="38" rx="0"/></clipPath></defs><g clip-path="url(#master_svg0_2438_5020)"><g><path d="M4.833333492279053,5.166666746139526Q4.833333492279053,3.7169197461395265,5.858459492279053,2.6917927461395266Q6.883586492279052,1.6666667461395264,8.333333492279053,1.6666667461395264L29.666633492279054,1.6666667461395264Q31.116433492279054,1.6666667461395264,32.14153349227905,2.6917927461395266Q33.166633492279054,3.7169197461395265,33.166633492279054,5.166666746139526L33.166633492279054,32.833366746139525Q33.166633492279054,34.283066746139525,32.14153349227905,35.30816674613953Q31.116433492279054,36.333366746139525,29.666633492279054,36.333366746139525L8.333333492279053,36.333366746139525Q6.883584492279053,36.333366746139525,5.858459492279053,35.30816674613953Q4.833333492279053,34.283066746139525,4.833333492279053,32.833366746139525L4.833333492279053,5.166666746139526ZM7.833333492279053,5.166666746139526L7.833333492279053,32.833366746139525Q7.833333492279053,33.04046674613953,7.9797834922790525,33.18686674613953Q8.126223492279053,33.333366746139525,8.333333492279053,33.333366746139525L29.666633492279054,33.333366746139525Q29.873733492279055,33.333366746139525,30.020233492279054,33.18686674613953Q30.166633492279054,33.04046674613953,30.166633492279054,32.833366746139525L30.166633492279054,5.166666746139526Q30.166633492279054,4.959556746139526,30.020233492279054,4.813116746139526Q29.873733492279055,4.666666746139526,29.666633492279054,4.666666746139526L8.333333492279053,4.666666746139526Q8.126223492279053,4.666666746139526,7.9797834922790525,4.813116746139526Q7.833333492279053,4.959556746139526,7.833333492279053,5.166666746139526Z" fill="#2E2E2E" fill-opacity="1"/></g><g><path d="M9.583333015441895,15.833333015441895L9.583333015441895,8.708333015441895Q9.583333015441895,8.634642715441894,9.590553015441895,8.561307015441894Q9.597783015441895,8.487972015441894,9.612153015441894,8.415698015441894Q9.626533015441895,8.343423015441894,9.647923015441894,8.272906015441894Q9.669313015441894,8.202389015441895,9.697513015441894,8.134308015441894Q9.725713015441894,8.066227015441894,9.760453015441895,8.001238015441894Q9.795193015441894,7.936249015441895,9.836133015441895,7.8749780154418945Q9.877073015441894,7.813706015441895,9.923813015441894,7.756743015441894Q9.970563015441895,7.699783015441895,10.022673015441894,7.647673015441894Q10.074783015441895,7.595563015441894,10.131743015441895,7.548813015441894Q10.188706015441895,7.502073015441894,10.249978015441895,7.461133015441894Q10.311249015441895,7.420193015441894,10.376238015441894,7.385453015441895Q10.441227015441894,7.350713015441895,10.509308015441894,7.322513015441895Q10.577389015441895,7.294313015441895,10.647906015441894,7.2729230154418945Q10.718423015441894,7.251533015441894,10.790698015441894,7.237153015441894Q10.862972015441894,7.222783015441895,10.936307015441894,7.215553015441895Q11.009642715441894,7.2083330154418945,11.083333015441895,7.2083330154418945L26.916633015441896,7.2083330154418945Q26.990333015441895,7.2083330154418945,27.063733015441894,7.215553015441895Q27.137033015441894,7.222783015441895,27.209333015441896,7.237153015441894Q27.281533015441894,7.251533015441894,27.352133015441893,7.2729230154418945Q27.422633015441896,7.294313015441895,27.490733015441894,7.322513015441895Q27.558733015441895,7.350713015441895,27.623733015441896,7.385453015441895Q27.688733015441894,7.420193015441894,27.750033015441893,7.461133015441894Q27.811333015441896,7.502073015441894,27.868233015441895,7.548813015441894Q27.925233015441894,7.595563015441894,27.977333015441893,7.647673015441894Q28.029433015441896,7.699783015441895,28.076133015441894,7.756743015441894Q28.122933015441895,7.813706015441895,28.163833015441895,7.8749780154418945Q28.204833015441896,7.936249015441895,28.239533015441893,8.001238015441894Q28.274333015441893,8.066227015441894,28.302433015441895,8.134308015441894Q28.330733015441893,8.202389015441895,28.352033015441894,8.272906015441894Q28.373433015441893,8.343423015441894,28.387833015441895,8.415698015441894Q28.402233015441894,8.487972015441894,28.409433015441895,8.561307015441894Q28.416633015441896,8.634642715441894,28.416633015441896,8.708333015441895L28.416633015441896,15.833333015441895Q28.416633015441896,15.907023015441894,28.409433015441895,15.980363015441895Q28.402233015441894,16.053693015441894,28.387833015441895,16.125963015441894Q28.373433015441893,16.198243015441896,28.352033015441894,16.268763015441895Q28.330733015441893,16.339273015441893,28.302433015441895,16.407353015441895Q28.274333015441893,16.475443015441893,28.239533015441893,16.540423015441895Q28.204833015441896,16.605413015441894,28.163833015441895,16.666683015441894Q28.122933015441895,16.727963015441894,28.076133015441894,16.784923015441894Q28.029433015441896,16.841883015441894,27.977333015441893,16.893993015441893Q27.925233015441894,16.946103015441892,27.868233015441895,16.992853015441895Q27.811333015441896,17.039593015441895,27.750033015441893,17.080533015441894Q27.688733015441894,17.121473015441893,27.623733015441896,17.156213015441892Q27.558733015441895,17.190953015441895,27.490733015441894,17.219153015441897Q27.422633015441896,17.247353015441895,27.352133015441893,17.268743015441892Q27.281533015441894,17.290133015441896,27.209333015441896,17.304513015441895Q27.137033015441894,17.318883015441894,27.063733015441894,17.326113015441894Q26.990333015441895,17.333333015441895,26.916633015441896,17.333333015441895L11.083333015441895,17.333333015441895Q11.009642715441894,17.333333015441895,10.936307015441894,17.326113015441894Q10.862972015441894,17.318883015441894,10.790698015441894,17.304513015441895Q10.718423015441894,17.290133015441896,10.647906015441894,17.268743015441892Q10.577389015441895,17.247353015441895,10.509308015441894,17.219153015441897Q10.441227015441894,17.190953015441895,10.376238015441894,17.156213015441892Q10.311249015441895,17.121473015441893,10.249978015441895,17.080533015441894Q10.188706015441895,17.039593015441895,10.131743015441895,16.992853015441895Q10.074783015441895,16.946103015441892,10.022673015441894,16.893993015441893Q9.970563015441895,16.841883015441894,9.923813015441894,16.784923015441894Q9.877073015441894,16.727963015441894,9.836133015441895,16.666683015441894Q9.795193015441894,16.605413015441894,9.760453015441895,16.540423015441895Q9.725713015441894,16.475443015441893,9.697513015441894,16.407353015441895Q9.669313015441894,16.339273015441893,9.647923015441894,16.268763015441895Q9.626533015441895,16.198243015441896,9.612153015441894,16.125963015441894Q9.597783015441895,16.053693015441894,9.590553015441895,15.980363015441895Q9.583333015441895,15.907023015441894,9.583333015441895,15.833333015441895ZM12.583333015441895,10.208333015441895L12.583333015441895,14.333333015441895L25.416633015441896,14.333333015441895L25.416633015441896,10.208333015441895L12.583333015441895,10.208333015441895Z" fill="#2E2E2E" fill-opacity="1"/></g><g><ellipse cx="13.458333373069763" cy="20.583333373069763" rx="1.5833333730697632" ry="1.5833333730697632" fill="#2E2E2E" fill-opacity="1"/></g><g><ellipse cx="13.458333373069763" cy="25.333333373069763" rx="1.5833333730697632" ry="1.5833333730697632" fill="#2E2E2E" fill-opacity="1"/></g><g><ellipse cx="13.458333373069763" cy="30.083333373069763" rx="1.5833333730697632" ry="1.5833333730697632" fill="#2E2E2E" fill-opacity="1"/></g><g><ellipse cx="18.999999403953552" cy="20.583333373069763" rx="1.5833333730697632" ry="1.5833333730697632" fill="#2E2E2E" fill-opacity="1"/></g><g><ellipse cx="18.999999403953552" cy="25.333333373069763" rx="1.5833333730697632" ry="1.5833333730697632" fill="#2E2E2E" fill-opacity="1"/></g><g><ellipse cx="18.999999403953552" cy="30.083333373069763" rx="1.5833333730697632" ry="1.5833333730697632" fill="#2E2E2E" fill-opacity="1"/></g><g><ellipse cx="24.541667342185974" cy="20.583333373069763" rx="1.5833333730697632" ry="1.5833333730697632" fill="#2E2E2E" fill-opacity="1"/></g><g><ellipse cx="24.541667342185974" cy="25.333333373069763" rx="1.5833333730697632" ry="1.5833333730697632" fill="#2E2E2E" fill-opacity="1"/></g><g><ellipse cx="24.541667342185974" cy="30.083333373069763" rx="1.5833333730697632" ry="1.5833333730697632" fill="#2E2E2E" fill-opacity="1"/></g></g></svg>