<svg xmlns="http://www.w3.org/2000/svg" xmlns:xlink="http://www.w3.org/1999/xlink" fill="none" version="1.1" width="38" height="38" viewBox="0 0 38 38"><defs><clipPath id="master_svg0_2438_5000"><rect x="0" y="0" width="38" height="38" rx="0"/></clipPath></defs><g clip-path="url(#master_svg0_2438_5000)"><g><path d="M17.333333015441895,6.333336746139526Q17.333333015441895,7.023666746139527,17.821503015441895,7.511836746139527Q18.309663015441895,7.9999967461395265,19.000003015441894,7.9999967461395265Q19.690333015441894,7.9999967461395265,20.178503015441894,7.511836746139527Q20.666663015441895,7.023666746139527,20.666663015441895,6.333336746139526Q20.666663015441895,5.642986746139526,20.178503015441894,5.154826746139526Q19.690343015441893,4.666666746139526,19.000003015441894,4.666666746139526Q18.309663015441895,4.666666746139526,17.821493015441895,5.154826746139526Q17.333333015441895,5.642986746139526,17.333333015441895,6.333336746139526ZM14.333333015441895,6.333336746139526Q14.333333015441895,4.400336746139526,15.700183015441894,3.0334977461395263Q17.067023015441894,1.6666667461395264,19.000003015441894,1.6666667461395264Q20.932973015441895,1.6666667461395264,22.299813015441895,3.0334977461395263Q23.666663015441895,4.400336746139526,23.666663015441895,6.333336746139526Q23.666663015441895,8.266306746139527,22.299823015441895,9.633156746139527Q20.932973015441895,10.999996746139526,19.000003015441894,10.999996746139526Q17.067023015441894,10.999996746139526,15.700180015441894,9.633156746139527Q14.333333015441895,8.266306746139527,14.333333015441895,6.333336746139526Z" fill="#2E2E2E" fill-opacity="1"/></g><g><path d="M17.333333015441895,31.66667Q17.333333015441895,32.357,17.821503015441895,32.84517Q18.309663015441895,33.333330000000004,19.000003015441894,33.333330000000004Q19.690333015441894,33.333330000000004,20.178503015441894,32.84517Q20.666663015441895,32.357,20.666663015441895,31.66667Q20.666663015441895,30.97633,20.178503015441894,30.48817Q19.690333015441894,30,19.000003015441894,30Q18.309663015441895,30,17.821503015441895,30.48817Q17.333333015441895,30.97633,17.333333015441895,31.66667ZM14.333333015441895,31.66667Q14.333333015441895,29.73369,15.700180015441894,28.366846Q17.067023015441894,27,19.000003015441894,27Q20.932973015441895,27,22.299823015441895,28.366846Q23.666663015441895,29.73369,23.666663015441895,31.66667Q23.666663015441895,33.59964,22.299823015441895,34.96649Q20.932973015441895,36.333330000000004,19.000003015441894,36.333330000000004Q17.067023015441894,36.333330000000004,15.700180015441894,34.96649Q14.333333015441895,33.59964,14.333333015441895,31.66667Z" fill="#2E2E2E" fill-opacity="1"/></g><g><path d="M4.666666746139526,19.000003015441894Q4.666666746139526,19.690343015441893,5.154826746139526,20.178503015441894Q5.642986746139526,20.666663015441895,6.333336746139526,20.666663015441895Q7.023666746139527,20.666663015441895,7.511836746139527,20.178503015441894Q7.9999967461395265,19.690333015441894,7.9999967461395265,19.000003015441894Q7.9999967461395265,18.309663015441895,7.511836746139527,17.821503015441895Q7.023666746139527,17.333333015441895,6.333336746139526,17.333333015441895Q5.642986746139526,17.333333015441895,5.154826746139526,17.821493015441895Q4.666666746139526,18.309663015441895,4.666666746139526,19.000003015441894L4.666666746139526,19.000003015441894ZM1.6666667461395264,19.000003015441894Q1.6666667461395264,17.067023015441894,3.0334977461395263,15.700183015441894Q4.400336746139526,14.333333015441895,6.333336746139526,14.333333015441895Q8.266306746139527,14.333333015441895,9.633156746139527,15.700180015441894Q10.999996746139526,17.067023015441894,10.999996746139526,19.000003015441894Q10.999996746139526,20.932973015441895,9.633156746139527,22.299823015441895Q8.266306746139527,23.666663015441895,6.333336746139526,23.666663015441895Q4.400336746139526,23.666663015441895,3.0334977461395263,22.299813015441895Q1.6666667461395264,20.932973015441895,1.6666667461395264,19.000003015441894L1.6666667461395264,19.000003015441894Z" fill="#2E2E2E" fill-opacity="1"/></g><g><path d="M30,19.000003015441894Q30,19.690333015441894,30.48817,20.178503015441894Q30.97633,20.666663015441895,31.66667,20.666663015441895Q32.357,20.666663015441895,32.84517,20.178503015441894Q33.333330000000004,19.690333015441894,33.333330000000004,19.000003015441894Q33.333330000000004,18.309663015441895,32.84517,17.821503015441895Q32.357,17.333333015441895,31.66667,17.333333015441895Q30.97633,17.333333015441895,30.48817,17.821503015441895Q30,18.309663015441895,30,19.000003015441894ZM27,19.000003015441894Q27,17.067023015441894,28.366847,15.700179015441895Q29.73369,14.333333015441895,31.66667,14.333333015441895Q33.59964,14.333333015441895,34.96649,15.700179015441895Q36.333330000000004,17.067023015441894,36.333330000000004,19.000003015441894Q36.333330000000004,20.932973015441895,34.96649,22.299823015441895Q33.59964,23.666663015441895,31.66667,23.666663015441895Q29.73369,23.666663015441895,28.366847,22.299823015441895Q27,20.932973015441895,27,19.000003015441894Z" fill="#2E2E2E" fill-opacity="1"/></g><g><path d="M28.5,20.5L9.5,20.5Q9.4263097,20.5,9.352974,20.49278Q9.279639,20.48555,9.207365,20.47118Q9.13509,20.4568,9.064573,20.43541Q8.994056,20.41402,8.925975,20.38582Q8.857894,20.35762,8.792905,20.32288Q8.727916,20.28814,8.666645,20.2472Q8.605373,20.20626,8.54841,20.15952Q8.49145,20.11277,8.43934,20.06066Q8.38723,20.00855,8.34048,19.95159Q8.29374,19.894627,8.2528,19.833355Q8.21186,19.772084,8.17712,19.707095Q8.14238,19.642106,8.11418,19.574025Q8.08598,19.505944,8.064589999999999,19.435427Q8.0432,19.36491,8.02882,19.292635Q8.01445,19.220361,8.00722,19.147026Q8,19.0736903,8,19Q8,18.9263097,8.00722,18.852974Q8.01445,18.779639,8.02882,18.707365Q8.0432,18.63509,8.064589999999999,18.564573Q8.08598,18.494056,8.11418,18.425975Q8.14238,18.357894,8.17712,18.292905Q8.21186,18.227916,8.2528,18.166645Q8.29374,18.105373,8.34048,18.04841Q8.38723,17.99145,8.43934,17.93934Q8.49145,17.88723,8.54841,17.84048Q8.605373,17.79374,8.666645,17.7528Q8.727916,17.71186,8.792905,17.67712Q8.857894,17.64238,8.925975,17.61418Q8.994056,17.58598,9.064573,17.56459Q9.13509,17.5432,9.207365,17.52882Q9.279639,17.51445,9.352974,17.50722Q9.4263097,17.5,9.5,17.5L28.5,17.5Q28.5737,17.5,28.647,17.50722Q28.7204,17.51445,28.7926,17.52882Q28.8649,17.5432,28.9354,17.56459Q29.0059,17.58598,29.074,17.61418Q29.1421,17.64238,29.2071,17.67712Q29.2721,17.71186,29.3334,17.7528Q29.3946,17.79374,29.4516,17.84048Q29.5086,17.88723,29.5607,17.93934Q29.6128,17.99145,29.6595,18.04841Q29.7063,18.105373,29.7472,18.166645Q29.7881,18.227916,29.8229,18.292905Q29.8576,18.357894,29.8858,18.425975Q29.914,18.494056,29.9354,18.564573Q29.9568,18.63509,29.9712,18.707365Q29.9856,18.779639,29.9928,18.852974Q30,18.9263097,30,19Q30,19.0736903,29.9928,19.147026Q29.9856,19.220361,29.9712,19.292635Q29.9568,19.36491,29.9354,19.435427Q29.914,19.505944,29.8858,19.574025Q29.8576,19.642106,29.8229,19.707095Q29.7881,19.772084,29.7472,19.833355Q29.7063,19.894627,29.6595,19.95159Q29.6128,20.00855,29.5607,20.06066Q29.5086,20.11277,29.4516,20.15952Q29.3946,20.20626,29.3334,20.2472Q29.2721,20.28814,29.2071,20.32288Q29.1421,20.35762,29.074,20.38582Q29.0059,20.41402,28.9354,20.43541Q28.8649,20.4568,28.7926,20.47118Q28.7204,20.48555,28.647,20.49278Q28.5737,20.5,28.5,20.5ZM30,19Q30,19.0736903,29.9928,19.147026Q29.9856,19.220361,29.9712,19.292635Q29.9568,19.36491,29.9354,19.435427Q29.914,19.505944,29.8858,19.574025Q29.8576,19.642106,29.8229,19.707095Q29.7881,19.772084,29.7472,19.833355Q29.7063,19.894627,29.6595,19.95159Q29.6128,20.00855,29.5607,20.06066Q29.5086,20.11277,29.4516,20.15952Q29.3946,20.20626,29.3334,20.2472Q29.2721,20.28814,29.2071,20.32288Q29.1421,20.35762,29.074,20.38582Q29.0059,20.41402,28.9354,20.43541Q28.8649,20.4568,28.7926,20.47118Q28.7204,20.48555,28.647,20.49278Q28.5737,20.5,28.5,20.5Q28.4263,20.5,28.353,20.49278Q28.2796,20.48555,28.2074,20.47118Q28.1351,20.4568,28.0646,20.43541Q27.9941,20.41402,27.926,20.38582Q27.8579,20.35762,27.7929,20.32288Q27.7279,20.28814,27.6666,20.2472Q27.6054,20.20626,27.5484,20.15952Q27.4914,20.11277,27.4393,20.06066Q27.3872,20.00855,27.3405,19.95159Q27.2937,19.894627,27.2528,19.833355Q27.2119,19.772084,27.1771,19.707095Q27.1424,19.642106,27.1142,19.574025Q27.086,19.505944,27.0646,19.435427Q27.0432,19.36491,27.0288,19.292635Q27.0144,19.220361,27.0072,19.147026Q27,19.0736903,27,19Q27,18.9263097,27.0072,18.852974Q27.0144,18.779639,27.0288,18.707365Q27.0432,18.63509,27.0646,18.564573Q27.086,18.494056,27.1142,18.425975Q27.1424,18.357894,27.1771,18.292905Q27.2119,18.227916,27.2528,18.166645Q27.2937,18.105373,27.3405,18.04841Q27.3872,17.99145,27.4393,17.93934Q27.4914,17.88723,27.5484,17.84048Q27.6054,17.79374,27.6666,17.7528Q27.7279,17.71186,27.7929,17.67712Q27.8579,17.64238,27.926,17.61418Q27.9941,17.58598,28.0646,17.56459Q28.1351,17.5432,28.2074,17.52882Q28.2796,17.51445,28.353,17.50722Q28.4263,17.5,28.5,17.5Q28.5737,17.5,28.647,17.50722Q28.7204,17.51445,28.7926,17.52882Q28.8649,17.5432,28.9354,17.56459Q29.0059,17.58598,29.074,17.61418Q29.1421,17.64238,29.2071,17.67712Q29.2721,17.71186,29.3334,17.7528Q29.3946,17.79374,29.4516,17.84048Q29.5086,17.88723,29.5607,17.93934Q29.6128,17.99145,29.6595,18.04841Q29.7063,18.105373,29.7472,18.166645Q29.7881,18.227916,29.8229,18.292905Q29.8576,18.357894,29.8858,18.425975Q29.914,18.494056,29.9354,18.564573Q29.9568,18.63509,29.9712,18.707365Q29.9856,18.779639,29.9928,18.852974Q30,18.9263097,30,19ZM11,19Q11,19.0736903,10.99278,19.147026Q10.98555,19.220361,10.97118,19.292635Q10.9568,19.36491,10.935410000000001,19.435427Q10.91402,19.505944,10.88582,19.574025Q10.85762,19.642106,10.82288,19.707095Q10.78814,19.772084,10.7472,19.833355Q10.70626,19.894627,10.65952,19.95159Q10.61277,20.00855,10.56066,20.06066Q10.50855,20.11277,10.45159,20.15952Q10.394627,20.20626,10.333355,20.2472Q10.272084,20.28814,10.207095,20.32288Q10.142106,20.35762,10.074025,20.38582Q10.005944,20.41402,9.935427,20.43541Q9.86491,20.4568,9.792635,20.47118Q9.720361,20.48555,9.647026,20.49278Q9.5736903,20.5,9.5,20.5Q9.4263097,20.5,9.352974,20.49278Q9.279639,20.48555,9.207365,20.47118Q9.13509,20.4568,9.064573,20.43541Q8.994056,20.41402,8.925975,20.38582Q8.857894,20.35762,8.792905,20.32288Q8.727916,20.28814,8.666645,20.2472Q8.605373,20.20626,8.54841,20.15952Q8.49145,20.11277,8.43934,20.06066Q8.38723,20.00855,8.34048,19.95159Q8.29374,19.894627,8.2528,19.833355Q8.21186,19.772084,8.17712,19.707095Q8.14238,19.642106,8.11418,19.574025Q8.08598,19.505944,8.064589999999999,19.435427Q8.0432,19.36491,8.02882,19.292635Q8.01445,19.220361,8.00722,19.147026Q8,19.0736903,8,19Q8,18.9263097,8.00722,18.852974Q8.01445,18.779639,8.02882,18.707365Q8.0432,18.63509,8.064589999999999,18.564573Q8.08598,18.494056,8.11418,18.425975Q8.14238,18.357894,8.17712,18.292905Q8.21186,18.227916,8.2528,18.166645Q8.29374,18.105373,8.34048,18.04841Q8.38723,17.99145,8.43934,17.93934Q8.49145,17.88723,8.54841,17.84048Q8.605373,17.79374,8.666645,17.7528Q8.727916,17.71186,8.792905,17.67712Q8.857894,17.64238,8.925975,17.61418Q8.994056,17.58598,9.064573,17.56459Q9.13509,17.5432,9.207365,17.52882Q9.279639,17.51445,9.352974,17.50722Q9.4263097,17.5,9.5,17.5Q9.5736903,17.5,9.647026,17.50722Q9.720361,17.51445,9.792635,17.52882Q9.86491,17.5432,9.935427,17.56459Q10.005944,17.58598,10.074025,17.61418Q10.142106,17.64238,10.207095,17.67712Q10.272084,17.71186,10.333355,17.7528Q10.394627,17.79374,10.45159,17.84048Q10.50855,17.88723,10.56066,17.93934Q10.61277,17.99145,10.65952,18.04841Q10.70626,18.105373,10.7472,18.166645Q10.78814,18.227916,10.82288,18.292905Q10.85762,18.357894,10.88582,18.425975Q10.91402,18.494056,10.935410000000001,18.564573Q10.9568,18.63509,10.97118,18.707365Q10.98555,18.779639,10.99278,18.852974Q11,18.9263097,11,19Z" fill="#2E2E2E" fill-opacity="1"/></g><g><path d="M17.5,28.5L17.5,9.5Q17.5,9.4263097,17.50722,9.352974Q17.51445,9.279639,17.52882,9.207365Q17.5432,9.13509,17.56459,9.064573Q17.58598,8.994056,17.61418,8.925975Q17.64238,8.857894,17.67712,8.792905Q17.71186,8.727916,17.7528,8.666645Q17.79374,8.605373,17.84048,8.54841Q17.88723,8.49145,17.93934,8.43934Q17.99145,8.38723,18.04841,8.34048Q18.105373,8.29374,18.166645,8.2528Q18.227916,8.21186,18.292905,8.17712Q18.357894,8.14238,18.425975,8.11418Q18.494056,8.08598,18.564573,8.064589999999999Q18.63509,8.0432,18.707365,8.02882Q18.779639,8.01445,18.852974,8.00722Q18.9263097,8,19,8Q19.0736903,8,19.147026,8.00722Q19.220361,8.01445,19.292635,8.02882Q19.36491,8.0432,19.435427,8.064589999999999Q19.505944,8.08598,19.574025,8.11418Q19.642106,8.14238,19.707095,8.17712Q19.772084,8.21186,19.833355,8.2528Q19.894627,8.29374,19.95159,8.34048Q20.00855,8.38723,20.06066,8.43934Q20.11277,8.49145,20.15952,8.54841Q20.20626,8.605373,20.2472,8.666645Q20.28814,8.727916,20.32288,8.792905Q20.35762,8.857894,20.38582,8.925975Q20.41402,8.994056,20.43541,9.064573Q20.4568,9.13509,20.47118,9.207365Q20.48555,9.279639,20.49278,9.352974Q20.5,9.4263097,20.5,9.5L20.5,28.5Q20.5,28.5737,20.49278,28.647Q20.48555,28.7204,20.47118,28.7926Q20.4568,28.8649,20.43541,28.9354Q20.41402,29.0059,20.38582,29.074Q20.35762,29.1421,20.32288,29.2071Q20.28814,29.2721,20.2472,29.3334Q20.20626,29.3946,20.15952,29.4516Q20.11277,29.5086,20.06066,29.5607Q20.00855,29.6128,19.95159,29.6595Q19.894627,29.7063,19.833355,29.7472Q19.772084,29.7881,19.707095,29.8229Q19.642106,29.8576,19.574025,29.8858Q19.505944,29.914,19.435427,29.9354Q19.36491,29.9568,19.292635,29.9712Q19.220361,29.9856,19.147026,29.9928Q19.0736903,30,19,30Q18.9263097,30,18.852974,29.9928Q18.779639,29.9856,18.707365,29.9712Q18.63509,29.9568,18.564573,29.9354Q18.494056,29.914,18.425975,29.8858Q18.357894,29.8576,18.292905,29.8229Q18.227916,29.7881,18.166645,29.7472Q18.105373,29.7063,18.04841,29.6595Q17.99145,29.6128,17.93934,29.5607Q17.88723,29.5086,17.84048,29.4516Q17.79374,29.3946,17.7528,29.3334Q17.71186,29.2721,17.67712,29.2071Q17.64238,29.1421,17.61418,29.074Q17.58598,29.0059,17.56459,28.9354Q17.5432,28.8649,17.52882,28.7926Q17.51445,28.7204,17.50722,28.647Q17.5,28.5737,17.5,28.5ZM20.5,28.5Q20.5,28.5737,20.49278,28.647Q20.48555,28.7204,20.47118,28.7926Q20.4568,28.8649,20.43541,28.9354Q20.41402,29.0059,20.38582,29.074Q20.35762,29.1421,20.32288,29.2071Q20.28814,29.2721,20.2472,29.3334Q20.20626,29.3946,20.15952,29.4516Q20.11277,29.5086,20.06066,29.5607Q20.00855,29.6128,19.95159,29.6595Q19.894627,29.7063,19.833355,29.7472Q19.772084,29.7881,19.707095,29.8229Q19.642106,29.8576,19.574025,29.8858Q19.505944,29.914,19.435427,29.9354Q19.36491,29.9568,19.292635,29.9712Q19.220361,29.9856,19.147026,29.9928Q19.0736903,30,19,30Q18.9263097,30,18.852974,29.9928Q18.779639,29.9856,18.707365,29.9712Q18.63509,29.9568,18.564573,29.9354Q18.494056,29.914,18.425975,29.8858Q18.357894,29.8576,18.292905,29.8229Q18.227916,29.7881,18.166645,29.7472Q18.105373,29.7063,18.04841,29.6595Q17.99145,29.6128,17.93934,29.5607Q17.88723,29.5086,17.84048,29.4516Q17.79374,29.3946,17.7528,29.3334Q17.71186,29.2721,17.67712,29.2071Q17.64238,29.1421,17.61418,29.074Q17.58598,29.0059,17.56459,28.9354Q17.5432,28.8649,17.52882,28.7926Q17.51445,28.7204,17.50722,28.647Q17.5,28.5737,17.5,28.5Q17.5,28.4263,17.50722,28.353Q17.51445,28.2796,17.52882,28.2074Q17.5432,28.1351,17.56459,28.0646Q17.58598,27.9941,17.61418,27.926Q17.64238,27.8579,17.67712,27.7929Q17.71186,27.7279,17.7528,27.6666Q17.79374,27.6054,17.84048,27.5484Q17.88723,27.4914,17.93934,27.4393Q17.99145,27.3872,18.04841,27.3405Q18.105373,27.2937,18.166645,27.2528Q18.227916,27.2119,18.292905,27.1771Q18.357894,27.1424,18.425975,27.1142Q18.494056,27.086,18.564573,27.0646Q18.63509,27.0432,18.707365,27.0288Q18.779639,27.0144,18.852974,27.0072Q18.9263097,27,19,27Q19.0736903,27,19.147026,27.0072Q19.220361,27.0144,19.292635,27.0288Q19.36491,27.0432,19.435427,27.0646Q19.505944,27.086,19.574025,27.1142Q19.642106,27.1424,19.707095,27.1771Q19.772084,27.2119,19.833355,27.2528Q19.894627,27.2937,19.95159,27.3405Q20.00855,27.3872,20.06066,27.4393Q20.11277,27.4914,20.15952,27.5484Q20.20626,27.6054,20.2472,27.6666Q20.28814,27.7279,20.32288,27.7929Q20.35762,27.8579,20.38582,27.926Q20.41402,27.9941,20.43541,28.0646Q20.4568,28.1351,20.47118,28.2074Q20.48555,28.2796,20.49278,28.353Q20.5,28.4263,20.5,28.5ZM20.5,9.5Q20.5,9.5736903,20.49278,9.647026Q20.48555,9.720361,20.47118,9.792635Q20.4568,9.86491,20.43541,9.935427Q20.41402,10.005944,20.38582,10.074025Q20.35762,10.142106,20.32288,10.207095Q20.28814,10.272084,20.2472,10.333355Q20.20626,10.394627,20.15952,10.45159Q20.11277,10.50855,20.06066,10.56066Q20.00855,10.61277,19.95159,10.65952Q19.894627,10.70626,19.833355,10.7472Q19.772084,10.78814,19.707095,10.82288Q19.642106,10.85762,19.574025,10.88582Q19.505944,10.91402,19.435427,10.935410000000001Q19.36491,10.9568,19.292635,10.97118Q19.220361,10.98555,19.147026,10.99278Q19.0736903,11,19,11Q18.9263097,11,18.852974,10.99278Q18.779639,10.98555,18.707365,10.97118Q18.63509,10.9568,18.564573,10.935410000000001Q18.494056,10.91402,18.425975,10.88582Q18.357894,10.85762,18.292905,10.82288Q18.227916,10.78814,18.166645,10.7472Q18.105373,10.70626,18.04841,10.65952Q17.99145,10.61277,17.93934,10.56066Q17.88723,10.50855,17.84048,10.45159Q17.79374,10.394627,17.7528,10.333355Q17.71186,10.272084,17.67712,10.207095Q17.64238,10.142106,17.61418,10.074025Q17.58598,10.005944,17.56459,9.935427Q17.5432,9.86491,17.52882,9.792635Q17.51445,9.720361,17.50722,9.647026Q17.5,9.5736903,17.5,9.5Q17.5,9.4263097,17.50722,9.352974Q17.51445,9.279639,17.52882,9.207365Q17.5432,9.13509,17.56459,9.064573Q17.58598,8.994056,17.61418,8.925975Q17.64238,8.857894,17.67712,8.792905Q17.71186,8.727916,17.7528,8.666645Q17.79374,8.605373,17.84048,8.54841Q17.88723,8.49145,17.93934,8.43934Q17.99145,8.38723,18.04841,8.34048Q18.105373,8.29374,18.166645,8.2528Q18.227916,8.21186,18.292905,8.17712Q18.357894,8.14238,18.425975,8.11418Q18.494056,8.08598,18.564573,8.064589999999999Q18.63509,8.0432,18.707365,8.02882Q18.779639,8.01445,18.852974,8.00722Q18.9263097,8,19,8Q19.0736903,8,19.147026,8.00722Q19.220361,8.01445,19.292635,8.02882Q19.36491,8.0432,19.435427,8.064589999999999Q19.505944,8.08598,19.574025,8.11418Q19.642106,8.14238,19.707095,8.17712Q19.772084,8.21186,19.833355,8.2528Q19.894627,8.29374,19.95159,8.34048Q20.00855,8.38723,20.06066,8.43934Q20.11277,8.49145,20.15952,8.54841Q20.20626,8.605373,20.2472,8.666645Q20.28814,8.727916,20.32288,8.792905Q20.35762,8.857894,20.38582,8.925975Q20.41402,8.994056,20.43541,9.064573Q20.4568,9.13509,20.47118,9.207365Q20.48555,9.279639,20.49278,9.352974Q20.5,9.4263097,20.5,9.5Z" fill="#2E2E2E" fill-opacity="1"/></g><g><path d="M26.872016766357422,7.2202467663574215Q28.030416766357423,7.995690766357422,29.01741676635742,8.982740766357422Q30.004116766357424,9.969316766357421,30.77981676635742,11.128026766357422Q30.82081676635742,11.189256766357422,30.85561676635742,11.254216766357422Q30.890416766357422,11.319176766357423,30.918716766357424,11.387226766357422Q30.946916766357422,11.455286766357421,30.96841676635742,11.525786766357422Q30.98981676635742,11.596286766357423,31.004316766357423,11.668546766357423Q31.01871676635742,11.740806766357423,31.026016766357422,11.814136766357421Q31.033316766357423,11.887466766357422,31.033316766357423,11.961156766357423Q31.033416766357423,12.034846766357422,31.02631676635742,12.108186766357422Q31.01911676635742,12.181526766357422,31.004816766357422,12.253816766357422Q30.990516766357423,12.326106766357421,30.969116766357423,12.396636766357421Q30.947816766357423,12.467176766357422,30.91971676635742,12.535276766357422Q30.891516766357423,12.60338676635742,30.856916766357422,12.668406766357421Q30.82221676635742,12.733426766357422,30.78131676635742,12.794736766357422Q30.740416766357423,12.856036766357422,30.693716766357422,12.913046766357422Q30.64701676635742,12.970046766357422,30.59491676635742,13.022196766357421Q30.542916766357422,13.074356766357422,30.486016766357423,13.121156766357423Q30.42901676635742,13.167956766357422,30.36781676635742,13.208946766357421Q30.306616766357422,13.249946766357422,30.24161676635742,13.284736766357423Q30.176716766357423,13.319526766357422,30.10861676635742,13.347786766357423Q30.04051676635742,13.376046766357423,29.97001676635742,13.397506766357422Q29.899516766357422,13.418956766357422,29.827316766357423,13.433396766357422Q29.75501676635742,13.447836766357423,29.68171676635742,13.455126766357422Q29.608416766357422,13.462416766357421,29.534716766357423,13.462476766357423Q29.46101676635742,13.462546766357422,29.38761676635742,13.455386766357421Q29.314316766357422,13.448226766357422,29.242016766357423,13.433916766357422Q29.16971676635742,13.419606766357422,29.099216766357422,13.398276766357423Q29.028716766357423,13.376946766357422,28.960516766357422,13.348806766357422Q28.89241676635742,13.320666766357423,28.827416766357423,13.285986766357421Q28.762416766357422,13.251306766357422,28.701116766357423,13.210416766357422Q28.639816766357423,13.169536766357421,28.58281676635742,13.122836766357421Q28.525816766357423,13.076136766357422,28.473616766357424,13.024076766357421Q28.42151676635742,12.972016766357422,28.374716766357423,12.915096766357422Q28.327916766357422,12.85816676635742,28.28691676635742,12.796936766357422Q27.674916766357423,11.882726766357422,26.896116766357423,11.104056766357422Q26.117016766357423,10.324996766357422,25.20311676635742,9.713186766357422Q25.141916766357422,9.672186766357422,25.085016766357423,9.625396766357422Q25.02801676635742,9.578596766357421,24.97601676635742,9.526436766357422Q24.923916766357422,9.474286766357421,24.87721676635742,9.417282766357422Q24.830516766357423,9.360278766357421,24.789616766357423,9.298970766357423Q24.74881676635742,9.237663766357421,24.71411676635742,9.172643766357421Q24.679416766357424,9.107623766357422,24.65131676635742,9.039518766357421Q24.623116766357423,8.971412766357421,24.601816766357423,8.900876766357422Q24.580516766357423,8.830340766357422,24.56611676635742,8.758053766357422Q24.551816766357422,8.685766766357421,24.54471676635742,8.612424766357423Q24.53751676635742,8.539083066357422,24.537616766357424,8.465392836357422Q24.537616766357424,8.391702566357422,24.54491676635742,8.318373766357421Q24.55221676635742,8.245044766357422,24.566716766357423,8.172782766357422Q24.58111676635742,8.100521766357422,24.60261676635742,8.030022766357423Q24.62401676635742,7.959524766357422,24.652316766357423,7.891468766357422Q24.68051676635742,7.823412766357422,24.71531676635742,7.758454766357422Q24.750116766357422,7.6934957663574215,24.791116766357423,7.632260766357422Q24.832116766357423,7.571025766357422,24.87891676635742,7.5141037663574215Q24.92571676635742,7.4571767663574215,24.97791676635742,7.4051167663574216Q25.030016766357424,7.353056766357422,25.087016766357422,7.306356766357422Q25.14401676635742,7.259666766357422,25.205316766357424,7.218776766357422Q25.266616766357423,7.177886766357422,25.33171676635742,7.143206766357422Q25.39671676635742,7.108526766357421,25.464816766357423,7.080386766357422Q25.53291676635742,7.052246766357422,25.603416766357423,7.030926766357422Q25.674016766357422,7.009596766357422,25.74621676635742,6.995276766357422Q25.818516766357423,6.980966766357422,25.891916766357422,6.973806766357422Q25.965216766357422,6.966656766357422,26.03891676635742,6.966716766357422Q26.112616766357423,6.966786766357422,26.185916766357423,6.974066766357422Q26.259316766357422,6.981356766357422,26.33151676635742,6.995796766357422Q26.403816766357423,7.010236766357422,26.474316766357422,7.031686766357422Q26.54481676635742,7.053146766357422,26.612816766357422,7.081406766357421Q26.680916766357424,7.109666766357422,26.74581676635742,7.144456766357422Q26.810816766357423,7.179256766357422,26.872016766357422,7.2202467663574215ZM30.594016766357424,27.09821676635742L27.09821676635742,30.594016766357424L26.037616766357424,29.533316766357423L25.20311676635742,28.28691676635742Q26.117316766357423,27.674916766357423,26.896116766357423,26.896116766357423Q27.674916766357423,26.117316766357423,28.28691676635742,25.20311676635742L29.533316766357423,26.037616766357424L30.594016766357424,27.09821676635742ZM28.472716766357422,24.976916766357423Q28.564116766357422,24.885516766357423,28.66981676635742,24.811116766357422Q28.775516766357423,24.73671676635742,28.89231676635742,24.681516766357422Q29.009216766357422,24.626216766357423,29.133816766357423,24.59181676635742Q29.25831676635742,24.55741676635742,29.387016766357423,24.54471676635742Q29.51561676635742,24.532116766357422,29.644516766357423,24.54171676635742Q29.77341676635742,24.55131676635742,29.89881676635742,24.58281676635742Q30.024116766357423,24.614316766357422,30.14231676635742,24.66671676635742Q30.260416766357423,24.719216766357423,30.36781676635742,24.791116766357423Q30.42901676635742,24.832116766357423,30.486016766357423,24.87891676635742Q30.542916766357422,24.92571676635742,30.59491676635742,24.97791676635742Q30.64701676635742,25.030016766357424,30.693716766357422,25.087016766357422Q30.740416766357423,25.14401676635742,30.78131676635742,25.205316766357424Q30.82221676635742,25.266616766357423,30.856916766357422,25.33171676635742Q30.891516766357423,25.39671676635742,30.91971676635742,25.464816766357423Q30.947816766357423,25.53291676635742,30.969116766357423,25.603416766357423Q30.990516766357423,25.674016766357422,31.004816766357422,25.74621676635742Q31.01911676635742,25.818516766357423,31.02631676635742,25.891916766357422Q31.033416766357423,25.965216766357422,31.033316766357423,26.03891676635742Q31.033316766357423,26.112616766357423,31.026016766357422,26.185916766357423Q31.01871676635742,26.259316766357422,31.004316766357423,26.33151676635742Q30.98981676635742,26.403816766357423,30.96841676635742,26.474316766357422Q30.946916766357422,26.54481676635742,30.918716766357424,26.612816766357422Q30.890416766357422,26.680916766357424,30.85561676635742,26.74581676635742Q30.82081676635742,26.810816766357423,30.77981676635742,26.872016766357422Q30.004216766357423,28.030616766357422,29.01741676635742,29.01741676635742Q28.030616766357422,30.004216766357423,26.872016766357422,30.77981676635742Q26.76461676635742,30.851716766357423,26.646516766357422,30.904216766357422Q26.52841676635742,30.95671676635742,26.40301676635742,30.98821676635742Q26.277716766357422,31.019616766357423,26.14881676635742,31.029216766357422Q26.019916766357422,31.03881676635742,25.89121676635742,31.02621676635742Q25.76261676635742,31.013616766357423,25.63801676635742,30.97911676635742Q25.513416766357423,30.944716766357423,25.396516766357422,30.88951676635742Q25.27971676635742,30.83421676635742,25.174016766357422,30.75981676635742Q25.068316766357423,30.68541676635742,24.976916766357423,30.594016766357424Q24.924816766357424,30.54191676635742,24.878116766357422,30.484916766357422Q24.83131676635742,30.428016766357423,24.79041676635742,30.36671676635742Q24.74941676635742,30.30541676635742,24.714716766357423,30.240416766357423Q24.680016766357422,30.175516766357422,24.65181676635742,30.10741676635742Q24.623616766357422,30.039316766357423,24.602216766357422,29.96881676635742Q24.580816766357422,29.89831676635742,24.56641676635742,29.826016766357423Q24.552016766357422,29.75371676635742,24.54481676635742,29.68041676635742Q24.537616766357424,29.60701676635742,24.537616766357424,29.533316766357423Q24.537616766357424,29.45971676635742,24.54481676635742,29.38631676635742Q24.552016766357422,29.31301676635742,24.56641676635742,29.240716766357423Q24.580816766357422,29.16841676635742,24.602216766357422,29.09791676635742Q24.623616766357422,29.027416766357423,24.65181676635742,28.95931676635742Q24.680016766357422,28.89121676635742,24.714716766357423,28.826316766357422Q24.74941676635742,28.76131676635742,24.79041676635742,28.70001676635742Q24.83131676635742,28.638716766357422,24.878116766357422,28.581816766357424Q24.924816766357424,28.52481676635742,24.976916766357423,28.472716766357422L28.472716766357422,24.976916766357423ZM10.901816766357422,30.594016766357424L7.4060567663574215,27.09821676635742L8.466716766357422,26.037616766357424L9.713186766357422,25.20311676635742Q10.324996766357422,26.117016766357423,11.104056766357422,26.896116766357423Q11.882726766357422,27.674916766357423,12.796936766357422,28.28691676635742L11.962476766357423,29.533316766357423L10.901816766357422,30.594016766357424ZM13.023136766357421,28.472716766357422Q13.114536766357421,28.564116766357422,13.188956766357421,28.66981676635742Q13.263366766357422,28.775516766357423,13.318606766357423,28.89231676635742Q13.373846766357422,29.009216766357422,13.408276766357421,29.133816766357423Q13.442706766357421,29.25831676635742,13.455326766357423,29.387016766357423Q13.467936766357422,29.51561676635742,13.458356766357422,29.644516766357423Q13.448776766357422,29.77341676635742,13.417286766357421,29.89881676635742Q13.385796766357423,30.024116766357423,13.333326766357422,30.14231676635742Q13.280856766357422,30.260416766357423,13.208946766357421,30.36781676635742Q13.167956766357422,30.42901676635742,13.121156766357423,30.486016766357423Q13.074356766357422,30.542916766357422,13.022196766357421,30.59491676635742Q12.970046766357422,30.64701676635742,12.913046766357422,30.693716766357422Q12.856036766357422,30.740416766357423,12.794736766357422,30.78131676635742Q12.733426766357422,30.82221676635742,12.668406766357421,30.856916766357422Q12.60338676635742,30.891516766357423,12.535276766357422,30.91971676635742Q12.467176766357422,30.947816766357423,12.396636766357421,30.969116766357423Q12.326106766357421,30.990516766357423,12.253816766357422,31.004816766357422Q12.181526766357422,31.01911676635742,12.108186766357422,31.02631676635742Q12.034846766357422,31.033416766357423,11.961156766357423,31.033316766357423Q11.887466766357422,31.033316766357423,11.814136766357421,31.026016766357422Q11.740806766357423,31.01871676635742,11.668546766357423,31.004316766357423Q11.596286766357423,30.98981676635742,11.525786766357422,30.96841676635742Q11.455286766357421,30.946916766357422,11.387226766357422,30.918716766357424Q11.319176766357423,30.890416766357422,11.254216766357422,30.85561676635742Q11.189256766357422,30.82081676635742,11.128026766357422,30.77981676635742Q9.969316766357421,30.004116766357424,8.982740766357422,29.01741676635742Q7.995690766357422,28.030416766357423,7.2202467663574215,26.872016766357422Q7.148346766357422,26.76461676635742,7.095876766357422,26.646516766357422Q7.0433967663574215,26.52841676635742,7.011906766357422,26.40301676635742Q6.9804267663574215,26.277716766357422,6.970846766357422,26.14881676635742Q6.961266766357422,26.019916766357422,6.973876766357422,25.89121676635742Q6.986486766357422,25.76261676635742,7.020916766357422,25.63801676635742Q7.055356766357422,25.513416766357423,7.110586766357422,25.396516766357422Q7.165826766357422,25.27971676635742,7.240246766357422,25.174016766357422Q7.314656766357421,25.068316766357423,7.4060567663574215,24.976916766357423Q7.458166766357422,24.924816766357424,7.5151267663574215,24.878116766357422Q7.572090766357422,24.83131676635742,7.633361766357422,24.79041676635742Q7.694632766357422,24.74941676635742,7.759621766357422,24.714716766357423Q7.824610766357422,24.680016766357422,7.892691766357422,24.65181676635742Q7.960772766357422,24.623616766357422,8.031289766357421,24.602216766357422Q8.101806766357422,24.580816766357422,8.174081766357421,24.56641676635742Q8.246355766357421,24.552016766357422,8.319691766357423,24.54481676635742Q8.393026766357423,24.537616766357424,8.466717010766422,24.537616766357424Q8.540407266357422,24.537616766357424,8.613742766357422,24.54481676635742Q8.687077766357422,24.552016766357422,8.759352766357422,24.56641676635742Q8.831626766357422,24.580816766357422,8.902143766357423,24.602216766357422Q8.972660766357421,24.623616766357422,9.040741766357423,24.65181676635742Q9.108822766357422,24.680016766357422,9.173811766357423,24.714716766357423Q9.238800766357421,24.74941676635742,9.300072766357422,24.79041676635742Q9.361343766357422,24.83131676635742,9.418306766357421,24.878116766357422Q9.475266766357421,24.924816766357424,9.527376766357422,24.976916766357423L13.023136766357421,28.472716766357422ZM7.4060567663574215,10.901816766357422L10.901816766357422,7.4060567663574215L11.962476766357423,8.466716766357422L12.796936766357422,9.713186766357422Q11.882966766357422,10.325046766357422,11.104126766357421,11.103986766357423Q10.325046766357422,11.882966766357422,9.713186766357422,12.796936766357422L8.466716766357422,11.962476766357423L7.4060567663574215,10.901816766357422ZM9.527376766357422,13.023136766357421Q9.435979766357422,13.114536766357421,9.330293766357421,13.188956766357421Q9.224607766357423,13.263366766357422,9.107750766357421,13.318606766357423Q8.990892766357423,13.373846766357422,8.866307766357421,13.408276766357421Q8.741722766357421,13.442706766357421,8.613083766357422,13.455326766357423Q8.484444966357422,13.467936766357422,8.355544766357422,13.458356766357422Q8.226644766357422,13.448776766357422,8.101283766357422,13.417286766357421Q7.975921766357422,13.385796766357423,7.857795766357421,13.333326766357422Q7.739669766357422,13.280856766357422,7.632260766357422,13.208946766357421Q7.571025766357422,13.167956766357422,7.5141037663574215,13.121156766357423Q7.4571767663574215,13.074356766357422,7.4051167663574216,13.02220676635742Q7.353056766357422,12.970046766357422,7.306356766357422,12.913046766357422Q7.259666766357422,12.856036766357422,7.218776766357422,12.794736766357422Q7.177886766357422,12.733426766357422,7.143206766357422,12.668406766357421Q7.108526766357421,12.60338676635742,7.080386766357422,12.535276766357422Q7.052246766357422,12.467176766357422,7.030926766357422,12.396636766357421Q7.009596766357422,12.326106766357421,6.995276766357422,12.253816766357422Q6.980966766357422,12.181526766357422,6.973806766357422,12.108186766357422Q6.966656766357422,12.034846766357422,6.966716766357422,11.961156766357423Q6.966786766357422,11.887466766357422,6.974066766357422,11.814136766357421Q6.981356766357422,11.740806766357423,6.995796766357422,11.668546766357423Q7.010236766357422,11.596286766357423,7.031686766357422,11.525786766357422Q7.053146766357422,11.455286766357421,7.081406766357421,11.387226766357422Q7.109666766357422,11.319176766357423,7.144456766357422,11.254216766357422Q7.179256766357422,11.189256766357422,7.2202467663574215,11.128026766357422Q7.995794766357422,9.969546766357421,8.982667766357421,8.982811766357422Q9.969546766357421,7.995794766357422,11.128026766357422,7.2202467663574215Q11.235436766357422,7.148346766357422,11.353556766357421,7.095876766357422Q11.471686766357422,7.0433967663574215,11.597046766357423,7.011906766357422Q11.722406766357421,6.9804267663574215,11.851306766357421,6.970846766357422Q11.980206766357423,6.961266766357422,12.108846766357422,6.973876766357422Q12.237486766357422,6.986486766357422,12.362066766357422,7.020916766357422Q12.486656766357422,7.055356766357422,12.603516766357423,7.110586766357422Q12.720366766357422,7.165826766357422,12.826056766357421,7.240246766357422Q12.93174676635742,7.314656766357421,13.023136766357421,7.4060567663574215Q13.075246766357422,7.458166766357422,13.121996766357423,7.5151267663574215Q13.168746766357422,7.572089766357422,13.209686766357422,7.633361766357422Q13.25062676635742,7.694632766357422,13.285366766357422,7.759621766357422Q13.320096766357421,7.824610766357422,13.348296766357421,7.892691766357422Q13.376496766357421,7.960772766357422,13.397886766357422,8.031289766357421Q13.419276766357422,8.101806766357422,13.433656766357423,8.174081766357421Q13.448036766357422,8.246355766357421,13.455256766357422,8.319690766357422Q13.462476766357423,8.393026466357421,13.462476766357423,8.466716766357422Q13.462476766357423,8.540407066357423,13.455256766357422,8.613742766357422Q13.448036766357422,8.687077766357422,13.433656766357423,8.759351766357423Q13.419276766357422,8.831626766357422,13.397886766357422,8.902143766357423Q13.376496766357421,8.972660766357421,13.348296766357421,9.040741766357423Q13.320096766357421,9.108822766357422,13.285366766357422,9.173811766357423Q13.25062676635742,9.238800766357421,13.209686766357422,9.300071766357421Q13.168746766357422,9.361343766357422,13.121996766357423,9.418306766357421Q13.075246766357422,9.475266766357421,13.023136766357421,9.527376766357422L9.527376766357422,13.023136766357421L9.527376766357422,13.023136766357421ZM27.537616766357424,8.466716766357422Q27.537616766357424,8.540407066357423,27.530416766357423,8.613742766357422Q27.523116766357422,8.687077766357422,27.508816766357423,8.759351766357423Q27.49441676635742,8.831626766357422,27.47301676635742,8.902143766357423Q27.45161676635742,8.972660766357421,27.423416766357423,9.040741766357423Q27.39521676635742,9.108822766357422,27.36051676635742,9.173811766357423Q27.325716766357424,9.238800766357421,27.284816766357423,9.300071766357421Q27.243816766357423,9.361343766357422,27.19711676635742,9.418306766357421Q27.15031676635742,9.475266766357421,27.09821676635742,9.527376766357422Q27.04611676635742,9.579486766357421,26.989216766357423,9.626236766357422Q26.93221676635742,9.672976766357422,26.87091676635742,9.713916766357421Q26.809716766357422,9.754856766357422,26.74471676635742,9.789596766357421Q26.679716766357423,9.824336766357423,26.61161676635742,9.852536766357423Q26.54351676635742,9.880736766357423,26.47301676635742,9.902126766357423Q26.402516766357422,9.923516766357421,26.33021676635742,9.937896766357422Q26.257916766357422,9.952266766357422,26.184616766357422,9.959496766357422Q26.111316766357422,9.966716766357422,26.037616766357424,9.966716766357422Q25.96391676635742,9.966716766357422,25.89061676635742,9.959496766357422Q25.817216766357422,9.952266766357422,25.74491676635742,9.937896766357422Q25.67271676635742,9.923516766357421,25.602216766357422,9.902126766357423Q25.531616766357423,9.880736766357423,25.463616766357422,9.852536766357423Q25.39551676635742,9.824336766357423,25.330516766357423,9.789596766357421Q25.265516766357422,9.754856766357422,25.204216766357423,9.713916766357421Q25.143016766357423,9.672976766357422,25.08601676635742,9.626236766357422Q25.029016766357422,9.579486766357421,24.976916766357423,9.527376766357422Q24.924816766357424,9.475266766357421,24.878116766357422,9.418306766357421Q24.83131676635742,9.361343766357422,24.79041676635742,9.300071766357421Q24.74941676635742,9.238800766357421,24.714716766357423,9.173811766357423Q24.680016766357422,9.108822766357422,24.65181676635742,9.040741766357423Q24.623616766357422,8.972660766357421,24.602216766357422,8.902143766357423Q24.580816766357422,8.831626766357422,24.56641676635742,8.759351766357423Q24.552016766357422,8.687077766357422,24.54481676635742,8.613742766357422Q24.537616766357424,8.540407066357423,24.537616766357424,8.466716766357422Q24.537616766357424,8.393026466357421,24.54481676635742,8.319690766357422Q24.552016766357422,8.246355766357421,24.56641676635742,8.174081766357421Q24.580816766357422,8.101806766357422,24.602216766357422,8.031289766357421Q24.623616766357422,7.960772766357422,24.65181676635742,7.892691766357422Q24.680016766357422,7.824610766357422,24.714716766357423,7.759621766357422Q24.74941676635742,7.694632766357422,24.79041676635742,7.633361766357422Q24.83131676635742,7.572089766357422,24.878116766357422,7.5151267663574215Q24.924816766357424,7.458166766357422,24.976916766357423,7.4060567663574215Q25.029016766357422,7.353946766357422,25.08601676635742,7.307196766357421Q25.143016766357423,7.2604567663574215,25.204216766357423,7.219516766357422Q25.265516766357422,7.178576766357422,25.330516766357423,7.143836766357422Q25.39551676635742,7.109096766357422,25.463616766357422,7.080896766357422Q25.531616766357423,7.052696766357422,25.602216766357422,7.031306766357422Q25.67271676635742,7.009916766357422,25.74491676635742,6.9955367663574215Q25.817216766357422,6.981166766357422,25.89061676635742,6.973936766357422Q25.96391676635742,6.966716766357422,26.037616766357424,6.966716766357422Q26.111316766357422,6.966716766357422,26.184616766357422,6.973936766357422Q26.257916766357422,6.981166766357422,26.33021676635742,6.9955367663574215Q26.402516766357422,7.009916766357422,26.47301676635742,7.031306766357422Q26.54351676635742,7.052696766357422,26.61161676635742,7.080896766357422Q26.679716766357423,7.109096766357422,26.74471676635742,7.143836766357422Q26.809716766357422,7.178576766357422,26.87091676635742,7.219516766357422Q26.93221676635742,7.2604567663574215,26.989216766357423,7.307196766357421Q27.04611676635742,7.353946766357422,27.09821676635742,7.4060567663574215Q27.15031676635742,7.458166766357422,27.19711676635742,7.5151267663574215Q27.243816766357423,7.572089766357422,27.284816766357423,7.633361766357422Q27.325716766357424,7.694632766357422,27.36051676635742,7.759621766357422Q27.39521676635742,7.824610766357422,27.423416766357423,7.892691766357422Q27.45161676635742,7.960772766357422,27.47301676635742,8.031289766357421Q27.49441676635742,8.101806766357422,27.508816766357423,8.174081766357421Q27.523116766357422,8.246355766357421,27.530416766357423,8.319690766357422Q27.537616766357424,8.393026466357421,27.537616766357424,8.466716766357422ZM31.033316766357423,11.962476766357423Q31.033316766357423,12.036166766357422,31.026116766357422,12.109506766357422Q31.01891676635742,12.182836766357422,31.004516766357423,12.255116766357421Q30.99011676635742,12.32738676635742,30.96881676635742,12.397906766357423Q30.94741676635742,12.468426766357421,30.919216766357422,12.536506766357423Q30.89101676635742,12.604586766357421,30.856216766357424,12.669576766357423Q30.821516766357423,12.734566766357421,30.780516766357422,12.795836766357422Q30.739616766357422,12.857106766357422,30.69291676635742,12.914066766357422Q30.646116766357423,12.971036766357422,30.594016766357424,13.023136766357421Q30.54191676635742,13.075246766357422,30.484916766357422,13.121996766357423Q30.428016766357423,13.168746766357422,30.36671676635742,13.209686766357422Q30.30541676635742,13.25062676635742,30.240416766357423,13.285356766357422Q30.175516766357422,13.320096766357421,30.10741676635742,13.348296766357421Q30.039316766357423,13.376496766357421,29.96881676635742,13.397886766357422Q29.89831676635742,13.419276766357422,29.826016766357423,13.433656766357423Q29.75371676635742,13.448036766357422,29.68041676635742,13.455256766357422Q29.60701676635742,13.462476766357423,29.533316766357423,13.462476766357423Q29.45971676635742,13.462476766357423,29.38631676635742,13.455256766357422Q29.31301676635742,13.448036766357422,29.240716766357423,13.433656766357423Q29.16841676635742,13.419276766357422,29.09791676635742,13.397886766357422Q29.027416766357423,13.376496766357421,28.95931676635742,13.348296766357421Q28.89121676635742,13.320096766357421,28.826316766357422,13.285366766357422Q28.76131676635742,13.25062676635742,28.70001676635742,13.209686766357422Q28.638716766357422,13.168746766357422,28.581816766357424,13.121996766357423Q28.52481676635742,13.075246766357422,28.472716766357422,13.023136766357421Q28.420616766357423,12.971036766357422,28.37381676635742,12.914066766357422Q28.32711676635742,12.857106766357422,28.286116766357424,12.795836766357422Q28.245216766357423,12.734566766357421,28.210516766357422,12.669576766357423Q28.17571676635742,12.604586766357421,28.147516766357423,12.536506766357423Q28.11931676635742,12.468426766357421,28.09791676635742,12.397906766357423Q28.07651676635742,12.32738676635742,28.062216766357423,12.255116766357421Q28.04781676635742,12.182836766357422,28.04061676635742,12.109506766357422Q28.033316766357423,12.036166766357422,28.033316766357423,11.962476766357423Q28.033316766357423,11.888786766357422,28.04061676635742,11.815456766357421Q28.04781676635742,11.742116766357421,28.062216766357423,11.669846766357422Q28.07651676635742,11.597566766357422,28.09791676635742,11.527056766357422Q28.11931676635742,11.456536766357422,28.147516766357423,11.388456766357422Q28.17571676635742,11.320376766357422,28.210516766357422,11.255386766357422Q28.245216766357423,11.190396766357422,28.286116766357424,11.129126766357421Q28.32711676635742,11.067856766357423,28.37381676635742,11.010886766357421Q28.420616766357423,10.953926766357423,28.472716766357422,10.901816766357422Q28.52481676635742,10.849716766357421,28.581816766357424,10.802966766357422Q28.638716766357422,10.756216766357422,28.70001676635742,10.715276766357421Q28.76131676635742,10.674336766357422,28.826316766357422,10.639596766357421Q28.89121676635742,10.604856766357422,28.95931676635742,10.576656766357422Q29.027416766357423,10.548456766357422,29.09791676635742,10.527066766357422Q29.16841676635742,10.505676766357421,29.240716766357423,10.491306766357422Q29.31301676635742,10.476926766357423,29.38631676635742,10.469706766357422Q29.45971676635742,10.462476766357423,29.533316766357423,10.462476766357423Q29.60701676635742,10.462476766357423,29.68041676635742,10.469706766357422Q29.75371676635742,10.476926766357423,29.826016766357423,10.491306766357422Q29.89831676635742,10.505676766357421,29.96881676635742,10.527066766357422Q30.039316766357423,10.548456766357422,30.10741676635742,10.576656766357422Q30.175516766357422,10.604856766357422,30.240416766357423,10.639596766357421Q30.30541676635742,10.674336766357422,30.36671676635742,10.715276766357421Q30.428016766357423,10.756216766357422,30.484916766357422,10.802966766357422Q30.54191676635742,10.849716766357421,30.594016766357424,10.901816766357422Q30.646116766357423,10.953926766357423,30.69291676635742,11.010886766357421Q30.739616766357422,11.067856766357423,30.780516766357422,11.129126766357421Q30.821516766357423,11.190396766357422,30.856216766357424,11.255386766357422Q30.89101676635742,11.320376766357422,30.919216766357422,11.388456766357422Q30.94741676635742,11.456536766357422,30.96881676635742,11.527056766357422Q30.99011676635742,11.597566766357422,31.004516766357423,11.669846766357422Q31.01891676635742,11.742116766357421,31.026116766357422,11.815456766357421Q31.033316766357423,11.888786766357422,31.033316766357423,11.962476766357423Z" fill="#2E2E2E" fill-opacity="1"/></g></g></svg>