<svg xmlns="http://www.w3.org/2000/svg" xmlns:xlink="http://www.w3.org/1999/xlink" fill="none" version="1.1" width="38" height="38" viewBox="0 0 38 38"><defs><clipPath id="master_svg0_2438_5040"><rect x="0" y="0" width="38" height="38" rx="0"/></clipPath></defs><g clip-path="url(#master_svg0_2438_5040)"><g><path d="M1.6666667461395264,31.6667L1.6666667461395264,11.08333Q1.6666667461395264,9.806156,2.5697597461395265,8.903073Q3.4728417461395265,8,4.7499967461395265,8L33.24996674613953,8Q34.52716674613953,8,35.43026674613952,8.903079Q36.333366746139525,9.806154,36.333366746139525,11.08333L36.333366746139525,31.6667Q36.333366746139525,32.943799999999996,35.43026674613952,33.846900000000005Q34.52716674613953,34.75,33.24996674613953,34.75L4.7499967461395265,34.75Q3.4728417461395265,34.75,2.5697597461395265,33.846900000000005Q1.6666667461395264,32.943799999999996,1.6666667461395264,31.6667ZM4.666666746139526,31.6667Q4.666666746139526,31.75,4.7499967461395265,31.75L33.24996674613953,31.75Q33.333366746139525,31.75,33.333366746139525,31.6667L33.333366746139525,11.08333Q33.333366746139525,11,33.24996674613953,11L4.7499967461395265,11Q4.666666746139526,11,4.666666746139526,11.08333L4.666666746139526,31.6667Z" fill="#2E2E2E" fill-opacity="1"/></g><g><path d="M24.018996984558107,16.102326984558104L20.060656984558104,20.060656984558104Q20.008556984558105,20.112766984558107,19.951586984558105,20.159516984558106Q19.894626984558105,20.206266984558106,19.833356984558105,20.247206984558105Q19.772086984558104,20.288146984558104,19.707096984558106,20.322876984558107Q19.642106984558104,20.357616984558106,19.574026984558106,20.385816984558105Q19.505946984558104,20.414016984558106,19.435426984558106,20.435406984558107Q19.364906984558104,20.456796984558107,19.292636984558104,20.471176984558106Q19.220356984558105,20.485556984558105,19.147026984558106,20.492776984558105Q19.073686984558105,20.499996984558106,18.999996984558106,20.499996984558106Q18.926306984558106,20.499996984558106,18.852976984558104,20.492776984558105Q18.779636984558106,20.485556984558105,18.707366984558107,20.471176984558106Q18.635086984558107,20.456796984558107,18.564576984558105,20.435406984558107Q18.494056984558107,20.414016984558106,18.425976984558105,20.385816984558105Q18.357896984558106,20.357616984558106,18.292906984558105,20.322876984558107Q18.227916984558107,20.288146984558104,18.166646984558106,20.247206984558105Q18.105376984558106,20.206266984558106,18.048406984558106,20.159516984558106Q17.991446984558106,20.112766984558107,17.939336984558107,20.060656984558104L13.981006984558105,16.102326984558104Q13.928896984558106,16.050216984558105,13.882146984558105,15.993256984558105Q13.835406984558105,15.936293984558105,13.794466984558106,15.875021984558105Q13.753526984558105,15.813750984558105,13.718786984558106,15.748761984558106Q13.684046984558105,15.683772984558106,13.655846984558105,15.615691984558106Q13.627646984558105,15.547610984558105,13.606256984558105,15.477093984558106Q13.584866984558106,15.406576984558106,13.570486984558105,15.334301984558106Q13.556116984558106,15.262027984558106,13.548886984558106,15.188692984558106Q13.541666984558105,15.115357284558106,13.541666984558105,15.041666984558105Q13.541666984558105,14.967976684558105,13.548886984558106,14.894640984558105Q13.556116984558106,14.821305984558105,13.570486984558105,14.749031984558105Q13.584866984558106,14.676756984558105,13.606256984558105,14.606239984558105Q13.627646984558105,14.535722984558106,13.655846984558105,14.467641984558105Q13.684046984558105,14.399560984558105,13.718786984558106,14.334571984558105Q13.753526984558105,14.269582984558106,13.794466984558106,14.208311984558106Q13.835406984558105,14.147039984558106,13.882146984558105,14.090076984558106Q13.928896984558106,14.033116984558106,13.981006984558105,13.981006984558105Q14.033116984558106,13.928896984558106,14.090076984558106,13.882146984558105Q14.147039984558106,13.835406984558105,14.208311984558106,13.794466984558106Q14.269582984558106,13.753526984558105,14.334571984558105,13.718786984558106Q14.399560984558105,13.684046984558105,14.467641984558105,13.655846984558105Q14.535722984558106,13.627646984558105,14.606239984558105,13.606256984558105Q14.676756984558105,13.584866984558106,14.749031984558105,13.570486984558105Q14.821305984558105,13.556116984558106,14.894640984558105,13.548886984558106Q14.967976684558105,13.541666984558105,15.041666984558105,13.541666984558105Q15.115357284558106,13.541666984558105,15.188692984558106,13.548886984558106Q15.262027984558106,13.556116984558106,15.334301984558106,13.570486984558105Q15.406576984558106,13.584866984558106,15.477093984558106,13.606256984558105Q15.547610984558105,13.627646984558105,15.615691984558106,13.655846984558105Q15.683772984558106,13.684046984558105,15.748761984558106,13.718786984558106Q15.813750984558105,13.753526984558105,15.875021984558105,13.794466984558106Q15.936293984558105,13.835406984558105,15.993256984558105,13.882146984558105Q16.050216984558105,13.928896984558106,16.102326984558104,13.981006984558105L20.060656984558104,17.939336984558107L18.999996984558106,18.999996984558106L17.939336984558107,17.939336984558107L21.897676984558107,13.981006984558105Q21.949776984558106,13.928896984558106,22.006746984558106,13.882146984558105Q22.063706984558106,13.835406984558105,22.124976984558106,13.794466984558106Q22.186246984558107,13.753526984558105,22.251236984558105,13.718786984558106Q22.316226984558106,13.684046984558105,22.384306984558105,13.655846984558105Q22.452386984558107,13.627646984558105,22.522906984558105,13.606256984558105Q22.593426984558107,13.584866984558106,22.665696984558107,13.570486984558105Q22.737966984558106,13.556116984558106,22.811306984558104,13.548886984558106Q22.884646984558106,13.541666984558105,22.958336984558105,13.541666984558105Q23.032026984558104,13.541666984558105,23.105356984558107,13.548886984558106Q23.178696984558105,13.556116984558106,23.250966984558104,13.570486984558105Q23.323246984558104,13.584866984558106,23.393756984558106,13.606256984558105Q23.464276984558104,13.627646984558105,23.532356984558106,13.655846984558105Q23.600436984558108,13.684046984558105,23.665426984558106,13.718786984558106Q23.730416984558104,13.753526984558105,23.791686984558105,13.794466984558106Q23.852956984558105,13.835406984558105,23.909926984558105,13.882146984558105Q23.966886984558105,13.928896984558106,24.018996984558107,13.981006984558105Q24.071096984558103,14.033116984558106,24.117846984558106,14.090076984558106Q24.164596984558106,14.147040984558105,24.205536984558105,14.208311984558106Q24.246476984558107,14.269582984558106,24.281216984558107,14.334571984558105Q24.315956984558106,14.399560984558105,24.344156984558104,14.467641984558105Q24.372356984558106,14.535722984558106,24.393746984558106,14.606239984558105Q24.415136984558103,14.676756984558105,24.429506984558106,14.749031984558105Q24.443886984558105,14.821305984558105,24.451106984558105,14.894641984558106Q24.458336984558105,14.967976984558106,24.458336984558105,15.041667228967105Q24.458336984558105,15.115357484558105,24.451106984558105,15.188692984558106Q24.443886984558105,15.262027984558106,24.429506984558106,15.334302984558105Q24.415136984558103,15.406576984558106,24.393746984558106,15.477093984558106Q24.372356984558106,15.547610984558105,24.344156984558104,15.615691984558106Q24.315956984558106,15.683772984558106,24.281216984558107,15.748761984558106Q24.246476984558107,15.813750984558105,24.205536984558105,15.875022984558106Q24.164596984558106,15.936293984558105,24.117846984558106,15.993256984558105Q24.071096984558103,16.050216984558105,24.018996984558107,16.102326984558104ZM24.458336984558105,15.041666984558105Q24.458336984558105,15.115357284558106,24.451106984558105,15.188692984558106Q24.443886984558105,15.262027984558106,24.429506984558106,15.334301984558106Q24.415136984558103,15.406576984558106,24.393746984558106,15.477093984558106Q24.372356984558106,15.547610984558105,24.344156984558104,15.615691984558106Q24.315956984558106,15.683772984558106,24.281216984558107,15.748761984558106Q24.246476984558107,15.813750984558105,24.205536984558105,15.875021984558105Q24.164596984558106,15.936293984558105,24.117846984558106,15.993256984558105Q24.071096984558103,16.050216984558105,24.018996984558107,16.102326984558104Q23.966886984558105,16.154436984558107,23.909926984558105,16.201186984558106Q23.852956984558105,16.247926984558106,23.791686984558105,16.288866984558105Q23.730416984558104,16.329806984558104,23.665426984558106,16.364546984558107Q23.600436984558108,16.399286984558106,23.532356984558106,16.427486984558104Q23.464276984558104,16.455686984558106,23.393756984558106,16.477076984558106Q23.323246984558104,16.498466984558107,23.250966984558104,16.512846984558106Q23.178696984558105,16.527216984558105,23.105356984558107,16.534446984558105Q23.032026984558104,16.541666984558105,22.958336984558105,16.541666984558105Q22.884646984558106,16.541666984558105,22.811306984558104,16.534446984558105Q22.737976984558106,16.527216984558105,22.665696984558107,16.512846984558106Q22.593426984558107,16.498466984558107,22.522906984558105,16.477076984558106Q22.452386984558107,16.455686984558106,22.384306984558105,16.427486984558104Q22.316226984558106,16.399286984558106,22.251236984558105,16.364546984558107Q22.186246984558107,16.329806984558104,22.124976984558106,16.288866984558105Q22.063706984558106,16.247926984558106,22.006746984558106,16.201186984558106Q21.949776984558106,16.154436984558107,21.897676984558107,16.102326984558104Q21.845566984558104,16.050216984558105,21.798816984558105,15.993256984558105Q21.752066984558105,15.936293984558105,21.711126984558106,15.875021984558105Q21.670186984558107,15.813750984558105,21.635446984558104,15.748761984558106Q21.600716984558105,15.683772984558106,21.572516984558106,15.615691984558106Q21.544316984558105,15.547610984558105,21.522926984558104,15.477093984558106Q21.501536984558104,15.406576984558106,21.487156984558105,15.334301984558106Q21.472776984558106,15.262027984558106,21.465556984558106,15.188692984558106Q21.458336984558105,15.115357284558106,21.458336984558105,15.041666984558105Q21.458336984558105,14.967976684558105,21.465556984558106,14.894640984558105Q21.472776984558106,14.821305984558105,21.487156984558105,14.749031984558105Q21.501536984558104,14.676756984558105,21.522926984558104,14.606239984558105Q21.544316984558105,14.535722984558106,21.572516984558106,14.467641984558105Q21.600716984558105,14.399560984558105,21.635446984558104,14.334571984558105Q21.670186984558107,14.269582984558106,21.711126984558106,14.208311984558106Q21.752066984558105,14.147039984558106,21.798816984558105,14.090076984558106Q21.845566984558104,14.033116984558106,21.897676984558107,13.981006984558105Q21.949776984558106,13.928896984558106,22.006746984558106,13.882146984558105Q22.063706984558106,13.835406984558105,22.124976984558106,13.794466984558106Q22.186246984558107,13.753526984558105,22.251236984558105,13.718786984558106Q22.316226984558106,13.684046984558105,22.384306984558105,13.655846984558105Q22.452386984558107,13.627646984558105,22.522906984558105,13.606256984558105Q22.593426984558107,13.584866984558106,22.665696984558107,13.570486984558105Q22.737976984558106,13.556116984558106,22.811306984558104,13.548886984558106Q22.884646984558106,13.541666984558105,22.958336984558105,13.541666984558105Q23.032026984558104,13.541666984558105,23.105356984558107,13.548886984558106Q23.178696984558105,13.556116984558106,23.250966984558104,13.570486984558105Q23.323246984558104,13.584866984558106,23.393756984558106,13.606256984558105Q23.464276984558104,13.627646984558105,23.532356984558106,13.655846984558105Q23.600436984558108,13.684046984558105,23.665426984558106,13.718786984558106Q23.730416984558104,13.753526984558105,23.791686984558105,13.794466984558106Q23.852956984558105,13.835406984558105,23.909926984558105,13.882146984558105Q23.966886984558105,13.928896984558106,24.018996984558107,13.981006984558105Q24.071096984558103,14.033116984558106,24.117846984558106,14.090076984558106Q24.164596984558106,14.147039984558106,24.205536984558105,14.208311984558106Q24.246476984558107,14.269582984558106,24.281216984558107,14.334571984558105Q24.315956984558106,14.399560984558105,24.344156984558104,14.467641984558105Q24.372356984558106,14.535722984558106,24.393746984558106,14.606239984558105Q24.415136984558103,14.676756984558105,24.429506984558106,14.749031984558105Q24.443886984558105,14.821305984558105,24.451106984558105,14.894640984558105Q24.458336984558105,14.967976684558105,24.458336984558105,15.041666984558105ZM16.541666984558105,15.041666984558105Q16.541666984558105,15.115357284558106,16.534446984558105,15.188692984558106Q16.527216984558105,15.262027984558106,16.512846984558106,15.334301984558106Q16.498466984558107,15.406576984558106,16.477076984558106,15.477093984558106Q16.455686984558106,15.547610984558105,16.427486984558104,15.615691984558106Q16.399286984558106,15.683772984558106,16.364546984558107,15.748761984558106Q16.329806984558104,15.813750984558105,16.288866984558105,15.875021984558105Q16.247926984558106,15.936293984558105,16.201186984558106,15.993256984558105Q16.154436984558107,16.050216984558105,16.102326984558104,16.102326984558104Q16.050216984558105,16.154436984558107,15.993256984558105,16.201186984558106Q15.936293984558105,16.247926984558106,15.875021984558105,16.288866984558105Q15.813750984558105,16.329806984558104,15.748761984558106,16.364546984558107Q15.683772984558106,16.399286984558106,15.615691984558106,16.427486984558104Q15.547610984558105,16.455686984558106,15.477093984558106,16.477076984558106Q15.406576984558106,16.498466984558107,15.334301984558106,16.512846984558106Q15.262027984558106,16.527216984558105,15.188692984558106,16.534446984558105Q15.115357284558106,16.541666984558105,15.041666984558105,16.541666984558105Q14.967976684558105,16.541666984558105,14.894640984558105,16.534446984558105Q14.821305984558105,16.527216984558105,14.749031984558105,16.512846984558106Q14.676756984558105,16.498466984558107,14.606239984558105,16.477076984558106Q14.535722984558106,16.455686984558106,14.467641984558105,16.427486984558104Q14.399560984558105,16.399286984558106,14.334571984558105,16.364546984558107Q14.269582984558106,16.329806984558104,14.208311984558106,16.288866984558105Q14.147039984558106,16.247926984558106,14.090076984558106,16.201186984558106Q14.033116984558106,16.154436984558107,13.981006984558105,16.102326984558104Q13.928896984558106,16.050216984558105,13.882146984558105,15.993256984558105Q13.835406984558105,15.936293984558105,13.794466984558106,15.875021984558105Q13.753526984558105,15.813750984558105,13.718786984558106,15.748761984558106Q13.684046984558105,15.683772984558106,13.655846984558105,15.615691984558106Q13.627646984558105,15.547610984558105,13.606256984558105,15.477093984558106Q13.584866984558106,15.406576984558106,13.570486984558105,15.334301984558106Q13.556116984558106,15.262027984558106,13.548886984558106,15.188692984558106Q13.541666984558105,15.115357284558106,13.541666984558105,15.041666984558105Q13.541666984558105,14.967976684558105,13.548886984558106,14.894640984558105Q13.556116984558106,14.821305984558105,13.570486984558105,14.749031984558105Q13.584866984558106,14.676756984558105,13.606256984558105,14.606239984558105Q13.627646984558105,14.535722984558106,13.655846984558105,14.467641984558105Q13.684046984558105,14.399560984558105,13.718786984558106,14.334571984558105Q13.753526984558105,14.269582984558106,13.794466984558106,14.208311984558106Q13.835406984558105,14.147039984558106,13.882146984558105,14.090076984558106Q13.928896984558106,14.033116984558106,13.981006984558105,13.981006984558105Q14.033116984558106,13.928896984558106,14.090076984558106,13.882146984558105Q14.147039984558106,13.835406984558105,14.208311984558106,13.794466984558106Q14.269582984558106,13.753526984558105,14.334571984558105,13.718786984558106Q14.399560984558105,13.684046984558105,14.467641984558105,13.655846984558105Q14.535722984558106,13.627646984558105,14.606239984558105,13.606256984558105Q14.676756984558105,13.584866984558106,14.749031984558105,13.570486984558105Q14.821305984558105,13.556116984558106,14.894640984558105,13.548886984558106Q14.967976684558105,13.541666984558105,15.041666984558105,13.541666984558105Q15.115357284558106,13.541666984558105,15.188692984558106,13.548886984558106Q15.262027984558106,13.556116984558106,15.334301984558106,13.570486984558105Q15.406576984558106,13.584866984558106,15.477093984558106,13.606256984558105Q15.547610984558105,13.627646984558105,15.615691984558106,13.655846984558105Q15.683772984558106,13.684046984558105,15.748761984558106,13.718786984558106Q15.813750984558105,13.753526984558105,15.875021984558105,13.794466984558106Q15.936293984558105,13.835406984558105,15.993256984558105,13.882146984558105Q16.050216984558105,13.928896984558106,16.102326984558104,13.981006984558105Q16.154436984558107,14.033116984558106,16.201186984558106,14.090076984558106Q16.247926984558106,14.147039984558106,16.288866984558105,14.208311984558106Q16.329806984558104,14.269582984558106,16.364546984558107,14.334571984558105Q16.399286984558106,14.399560984558105,16.427486984558104,14.467641984558105Q16.455686984558106,14.535722984558106,16.477076984558106,14.606239984558105Q16.498466984558107,14.676756984558105,16.512846984558106,14.749031984558105Q16.527216984558105,14.821305984558105,16.534446984558105,14.894640984558105Q16.541666984558105,14.967976684558105,16.541666984558105,15.041666984558105Z" fill="#2E2E2E" fill-opacity="1"/></g><g><path d="M23.75,21.29166603088379L14.25,21.29166603088379Q14.1763097,21.29166603088379,14.102974,21.28444603088379Q14.029639,21.27721603088379,13.957365,21.26284603088379Q13.88509,21.24846603088379,13.814573,21.22707603088379Q13.744056,21.20568603088379,13.675975,21.177486030883788Q13.607894,21.14928603088379,13.542905,21.11454603088379Q13.477916,21.079806030883788,13.416645,21.03886603088379Q13.355373,20.99792603088379,13.29841,20.95118603088379Q13.24145,20.90443603088379,13.18934,20.852326030883788Q13.13723,20.80021603088379,13.09048,20.74325603088379Q13.04374,20.68629303088379,13.0028,20.62502103088379Q12.96186,20.56375003088379,12.92712,20.498761030883788Q12.89238,20.433772030883787,12.86418,20.365691030883788Q12.83598,20.29761003088379,12.814589999999999,20.22709303088379Q12.7932,20.156576030883787,12.77882,20.08430103088379Q12.76445,20.01202703088379,12.75722,19.93869203088379Q12.75,19.865356330883788,12.75,19.79166603088379Q12.75,19.71797573088379,12.75722,19.64464003088379Q12.76445,19.57130503088379,12.77882,19.49903103088379Q12.7932,19.42675603088379,12.814589999999999,19.35623903088379Q12.83598,19.28572203088379,12.86418,19.21764103088379Q12.89238,19.14956003088379,12.92712,19.08457103088379Q12.96186,19.01958203088379,13.0028,18.958311030883788Q13.04374,18.89703903088379,13.09048,18.84007603088379Q13.13723,18.78311603088379,13.18934,18.73100603088379Q13.24145,18.678896030883788,13.29841,18.63214603088379Q13.355373,18.58540603088379,13.416645,18.54446603088379Q13.477916,18.50352603088379,13.542905,18.468786030883788Q13.607894,18.43404603088379,13.675975,18.40584603088379Q13.744056,18.37764603088379,13.814573,18.356256030883788Q13.88509,18.334866030883788,13.957365,18.32048603088379Q14.029639,18.30611603088379,14.102974,18.29888603088379Q14.1763097,18.29166603088379,14.25,18.29166603088379L23.75,18.29166603088379Q23.82369,18.29166603088379,23.89703,18.29888603088379Q23.97036,18.30611603088379,24.042630000000003,18.32048603088379Q24.114910000000002,18.334866030883788,24.18543,18.356256030883788Q24.2559,18.37764603088379,24.323999999999998,18.40584603088379Q24.3921,18.43404603088379,24.4571,18.468786030883788Q24.522100000000002,18.50352603088379,24.583399999999997,18.54446603088379Q24.6446,18.58540603088379,24.7016,18.63214603088379Q24.7586,18.678896030883788,24.8107,18.73100603088379Q24.8628,18.78311603088379,24.9095,18.84007603088379Q24.9563,18.89703903088379,24.9972,18.958311030883788Q25.0381,19.01958203088379,25.0729,19.08457103088379Q25.107599999999998,19.14956003088379,25.1358,19.21764103088379Q25.164,19.28572203088379,25.1854,19.35623903088379Q25.2068,19.42675603088379,25.2212,19.49903103088379Q25.235599999999998,19.57130503088379,25.242800000000003,19.64464003088379Q25.25,19.71797573088379,25.25,19.79166603088379Q25.25,19.865356330883788,25.242800000000003,19.93869203088379Q25.235599999999998,20.01202703088379,25.2212,20.08430103088379Q25.2068,20.156576030883787,25.1854,20.22709303088379Q25.164,20.29761003088379,25.1358,20.365691030883788Q25.107599999999998,20.433772030883787,25.0729,20.498761030883788Q25.0381,20.56375003088379,24.9972,20.62502103088379Q24.9563,20.68629303088379,24.9095,20.74325603088379Q24.8628,20.80021603088379,24.8107,20.852326030883788Q24.7586,20.90443603088379,24.7016,20.95118603088379Q24.6446,20.99792603088379,24.583399999999997,21.03886603088379Q24.522100000000002,21.079806030883788,24.4571,21.11454603088379Q24.3921,21.14928603088379,24.323999999999998,21.177486030883788Q24.2559,21.20568603088379,24.18543,21.22707603088379Q24.114910000000002,21.24846603088379,24.042630000000003,21.26284603088379Q23.97036,21.27721603088379,23.89703,21.28444603088379Q23.82369,21.29166603088379,23.75,21.29166603088379ZM25.25,19.79166603088379Q25.25,19.865356330883788,25.242800000000003,19.93869203088379Q25.235599999999998,20.01202703088379,25.2212,20.08430103088379Q25.2068,20.156576030883787,25.1854,20.22709303088379Q25.164,20.29761003088379,25.1358,20.365691030883788Q25.107599999999998,20.433772030883787,25.0729,20.498761030883788Q25.0381,20.56375003088379,24.9972,20.62502103088379Q24.9563,20.68629303088379,24.9095,20.74325603088379Q24.8628,20.80021603088379,24.8107,20.852326030883788Q24.7586,20.90443603088379,24.7016,20.95118603088379Q24.6446,20.99792603088379,24.583399999999997,21.03886603088379Q24.522100000000002,21.079806030883788,24.4571,21.11454603088379Q24.3921,21.14928603088379,24.323999999999998,21.177486030883788Q24.2559,21.20568603088379,24.18543,21.22707603088379Q24.114910000000002,21.24846603088379,24.042630000000003,21.26284603088379Q23.97036,21.27721603088379,23.89703,21.28444603088379Q23.82369,21.29166603088379,23.75,21.29166603088379Q23.67631,21.29166603088379,23.60297,21.28444603088379Q23.52964,21.27721603088379,23.45736,21.26284603088379Q23.385089999999998,21.24846603088379,23.31457,21.22707603088379Q23.244059999999998,21.20568603088379,23.17597,21.177486030883788Q23.107889999999998,21.14928603088379,23.0429,21.11454603088379Q22.977919999999997,21.079806030883788,22.91664,21.03886603088379Q22.85537,20.99792603088379,22.79841,20.95118603088379Q22.74145,20.90443603088379,22.68934,20.852326030883788Q22.637230000000002,20.80021603088379,22.59048,20.74325603088379Q22.54374,20.68629303088379,22.5028,20.62502103088379Q22.46185,20.56375003088379,22.427120000000002,20.498761030883788Q22.39238,20.433772030883787,22.364179999999998,20.365691030883788Q22.33598,20.29761003088379,22.314590000000003,20.22709303088379Q22.2932,20.156576030883787,22.27882,20.08430103088379Q22.26445,20.01202703088379,22.25722,19.93869203088379Q22.25,19.865356330883788,22.25,19.79166603088379Q22.25,19.71797573088379,22.25722,19.64464003088379Q22.26445,19.57130503088379,22.27882,19.49903103088379Q22.2932,19.42675603088379,22.314590000000003,19.35623903088379Q22.33598,19.28572203088379,22.364179999999998,19.21764103088379Q22.39238,19.14956003088379,22.427120000000002,19.08457103088379Q22.46185,19.01958203088379,22.502789999999997,18.958311030883788Q22.54374,18.89703903088379,22.59048,18.84007603088379Q22.637230000000002,18.78311603088379,22.68934,18.73100603088379Q22.74145,18.678896030883788,22.79841,18.63214603088379Q22.85537,18.58540603088379,22.91664,18.54446603088379Q22.97791,18.50352603088379,23.0429,18.468786030883788Q23.107889999999998,18.43404603088379,23.17597,18.40584603088379Q23.244059999999998,18.37764603088379,23.31457,18.356256030883788Q23.385089999999998,18.334866030883788,23.45736,18.32048603088379Q23.52964,18.30611603088379,23.60297,18.29888603088379Q23.67631,18.29166603088379,23.75,18.29166603088379Q23.82369,18.29166603088379,23.89703,18.29888603088379Q23.97036,18.30611603088379,24.042630000000003,18.32048603088379Q24.114910000000002,18.334866030883788,24.18543,18.356256030883788Q24.2559,18.37764603088379,24.323999999999998,18.40584603088379Q24.3921,18.43404603088379,24.4571,18.468786030883788Q24.522100000000002,18.50352603088379,24.583399999999997,18.54446603088379Q24.6446,18.58540603088379,24.7016,18.63214603088379Q24.7586,18.678896030883788,24.8107,18.73100603088379Q24.8628,18.78311603088379,24.9095,18.84007603088379Q24.9563,18.89703903088379,24.9972,18.958311030883788Q25.0381,19.01958203088379,25.0729,19.08457103088379Q25.107599999999998,19.14956003088379,25.1358,19.21764103088379Q25.164,19.28572203088379,25.1854,19.35623903088379Q25.2068,19.42675603088379,25.2212,19.49903103088379Q25.235599999999998,19.57130503088379,25.242800000000003,19.64464003088379Q25.25,19.71797573088379,25.25,19.79166603088379ZM15.75,19.79166603088379Q15.75,19.865356330883788,15.74278,19.93869203088379Q15.73555,20.01202703088379,15.72118,20.08430103088379Q15.7068,20.156576030883787,15.685410000000001,20.22709303088379Q15.66402,20.29761003088379,15.63582,20.365691030883788Q15.60762,20.433772030883787,15.57288,20.498761030883788Q15.53814,20.56375003088379,15.4972,20.62502103088379Q15.45626,20.68629303088379,15.40952,20.74325603088379Q15.36277,20.80021603088379,15.31066,20.852326030883788Q15.25855,20.90443603088379,15.20159,20.95118603088379Q15.144627,20.99792603088379,15.083355,21.03886603088379Q15.022084,21.079806030883788,14.957095,21.11454603088379Q14.892106,21.14928603088379,14.824025,21.177486030883788Q14.755944,21.20568603088379,14.685427,21.22707603088379Q14.61491,21.24846603088379,14.542635,21.26284603088379Q14.470361,21.27721603088379,14.397026,21.28444603088379Q14.3236903,21.29166603088379,14.25,21.29166603088379Q14.1763097,21.29166603088379,14.102974,21.28444603088379Q14.029639,21.27721603088379,13.957365,21.26284603088379Q13.88509,21.24846603088379,13.814573,21.22707603088379Q13.744056,21.20568603088379,13.675975,21.177486030883788Q13.607894,21.14928603088379,13.542905,21.11454603088379Q13.477916,21.079806030883788,13.416645,21.03886603088379Q13.355373,20.99792603088379,13.29841,20.95118603088379Q13.24145,20.90443603088379,13.18934,20.852326030883788Q13.13723,20.80021603088379,13.09048,20.74325603088379Q13.04374,20.68629303088379,13.0028,20.62502103088379Q12.96186,20.56375003088379,12.92712,20.498761030883788Q12.89238,20.433772030883787,12.86418,20.365691030883788Q12.83598,20.29761003088379,12.814589999999999,20.22709303088379Q12.7932,20.156576030883787,12.77882,20.08430103088379Q12.76445,20.01202703088379,12.75722,19.93869203088379Q12.75,19.865356330883788,12.75,19.79166603088379Q12.75,19.71797573088379,12.75722,19.64464003088379Q12.76445,19.57130503088379,12.77882,19.49903103088379Q12.7932,19.42675603088379,12.814589999999999,19.35623903088379Q12.83598,19.28572203088379,12.86418,19.21764103088379Q12.89238,19.14956003088379,12.92712,19.08457103088379Q12.96186,19.01958203088379,13.0028,18.958311030883788Q13.04374,18.89703903088379,13.09048,18.84007603088379Q13.13723,18.78311603088379,13.18934,18.73100603088379Q13.24145,18.678896030883788,13.29841,18.63214603088379Q13.355373,18.58540603088379,13.416645,18.54446603088379Q13.477916,18.50352603088379,13.542905,18.468786030883788Q13.607894,18.43404603088379,13.675975,18.40584603088379Q13.744056,18.37764603088379,13.814573,18.356256030883788Q13.88509,18.334866030883788,13.957365,18.32048603088379Q14.029639,18.30611603088379,14.102974,18.29888603088379Q14.1763097,18.29166603088379,14.25,18.29166603088379Q14.3236903,18.29166603088379,14.397026,18.29888603088379Q14.470361,18.30611603088379,14.542635,18.32048603088379Q14.61491,18.334866030883788,14.685427,18.356256030883788Q14.755944,18.37764603088379,14.824025,18.40584603088379Q14.892106,18.43404603088379,14.957095,18.468786030883788Q15.022084,18.50352603088379,15.083355,18.54446603088379Q15.144627,18.58540603088379,15.20159,18.63214603088379Q15.25855,18.678896030883788,15.31066,18.73100603088379Q15.36277,18.78311603088379,15.40952,18.84007603088379Q15.45626,18.89703903088379,15.4972,18.958311030883788Q15.53814,19.01958203088379,15.57288,19.08457103088379Q15.60762,19.14956003088379,15.63582,19.21764103088379Q15.66402,19.28572203088379,15.685410000000001,19.35623903088379Q15.7068,19.42675603088379,15.72118,19.49903103088379Q15.73555,19.57130503088379,15.74278,19.64464003088379Q15.75,19.71797573088379,15.75,19.79166603088379Z" fill="#2E2E2E" fill-opacity="1"/></g><g><path d="M23.75,26.04166603088379L14.25,26.04166603088379Q14.1763097,26.04166603088379,14.102974,26.03444603088379Q14.029639,26.02721603088379,13.957365,26.01284603088379Q13.88509,25.99846603088379,13.814573,25.97707603088379Q13.744056,25.95568603088379,13.675975,25.927486030883788Q13.607894,25.89928603088379,13.542905,25.86454603088379Q13.477916,25.829806030883788,13.416645,25.78886603088379Q13.355373,25.74792603088379,13.29841,25.70118603088379Q13.24145,25.65443603088379,13.18934,25.602326030883788Q13.13723,25.55021603088379,13.09048,25.49325603088379Q13.04374,25.43629303088379,13.0028,25.37502103088379Q12.96186,25.31375003088379,12.92712,25.248761030883788Q12.89238,25.183772030883787,12.86418,25.115691030883788Q12.83598,25.04761003088379,12.814589999999999,24.97709303088379Q12.7932,24.906576030883787,12.77882,24.83430103088379Q12.76445,24.76202703088379,12.75722,24.68869203088379Q12.75,24.615356330883788,12.75,24.54166603088379Q12.75,24.46797573088379,12.75722,24.39464003088379Q12.76445,24.32130503088379,12.77882,24.24903103088379Q12.7932,24.17675603088379,12.814589999999999,24.10623903088379Q12.83598,24.03572203088379,12.86418,23.96764103088379Q12.89238,23.89956003088379,12.92712,23.83457103088379Q12.96186,23.76958203088379,13.0028,23.708311030883788Q13.04374,23.64703903088379,13.09048,23.59007603088379Q13.13723,23.53311603088379,13.18934,23.48100603088379Q13.24145,23.428896030883788,13.29841,23.38214603088379Q13.355373,23.33540603088379,13.416645,23.29446603088379Q13.477916,23.25352603088379,13.542905,23.218786030883788Q13.607894,23.18404603088379,13.675975,23.15584603088379Q13.744056,23.12764603088379,13.814573,23.106256030883788Q13.88509,23.084866030883788,13.957365,23.07048603088379Q14.029639,23.05611603088379,14.102974,23.04888603088379Q14.1763097,23.04166603088379,14.25,23.04166603088379L23.75,23.04166603088379Q23.82369,23.04166603088379,23.89703,23.04888603088379Q23.97036,23.05611603088379,24.042630000000003,23.07048603088379Q24.114910000000002,23.084866030883788,24.18543,23.106256030883788Q24.2559,23.12764603088379,24.323999999999998,23.15584603088379Q24.3921,23.18404603088379,24.4571,23.218786030883788Q24.522100000000002,23.25352603088379,24.583399999999997,23.29446603088379Q24.6446,23.33540603088379,24.7016,23.38214603088379Q24.7586,23.428896030883788,24.8107,23.48100603088379Q24.8628,23.53311603088379,24.9095,23.59007603088379Q24.9563,23.64703903088379,24.9972,23.708311030883788Q25.0381,23.76958203088379,25.0729,23.83457103088379Q25.107599999999998,23.89956003088379,25.1358,23.96764103088379Q25.164,24.03572203088379,25.1854,24.10623903088379Q25.2068,24.17675603088379,25.2212,24.24903103088379Q25.235599999999998,24.32130503088379,25.242800000000003,24.39464003088379Q25.25,24.46797573088379,25.25,24.54166603088379Q25.25,24.615356330883788,25.242800000000003,24.68869203088379Q25.235599999999998,24.76202703088379,25.2212,24.83430103088379Q25.2068,24.906576030883787,25.1854,24.97709303088379Q25.164,25.04761003088379,25.1358,25.115691030883788Q25.107599999999998,25.183772030883787,25.0729,25.248761030883788Q25.0381,25.31375003088379,24.9972,25.37502103088379Q24.9563,25.43629303088379,24.9095,25.49325603088379Q24.8628,25.55021603088379,24.8107,25.602326030883788Q24.7586,25.65443603088379,24.7016,25.70118603088379Q24.6446,25.74792603088379,24.583399999999997,25.78886603088379Q24.522100000000002,25.829806030883788,24.4571,25.86454603088379Q24.3921,25.89928603088379,24.323999999999998,25.927486030883788Q24.2559,25.95568603088379,24.18543,25.97707603088379Q24.114910000000002,25.99846603088379,24.042630000000003,26.01284603088379Q23.97036,26.02721603088379,23.89703,26.03444603088379Q23.82369,26.04166603088379,23.75,26.04166603088379ZM25.25,24.54166603088379Q25.25,24.615356330883788,25.242800000000003,24.68869203088379Q25.235599999999998,24.76202703088379,25.2212,24.83430103088379Q25.2068,24.906576030883787,25.1854,24.97709303088379Q25.164,25.04761003088379,25.1358,25.115691030883788Q25.107599999999998,25.183772030883787,25.0729,25.248761030883788Q25.0381,25.31375003088379,24.9972,25.37502103088379Q24.9563,25.43629303088379,24.9095,25.49325603088379Q24.8628,25.55021603088379,24.8107,25.602326030883788Q24.7586,25.65443603088379,24.7016,25.70118603088379Q24.6446,25.74792603088379,24.583399999999997,25.78886603088379Q24.522100000000002,25.829806030883788,24.4571,25.86454603088379Q24.3921,25.89928603088379,24.323999999999998,25.927486030883788Q24.2559,25.95568603088379,24.18543,25.97707603088379Q24.114910000000002,25.99846603088379,24.042630000000003,26.01284603088379Q23.97036,26.02721603088379,23.89703,26.03444603088379Q23.82369,26.04166603088379,23.75,26.04166603088379Q23.67631,26.04166603088379,23.60297,26.03444603088379Q23.52964,26.02721603088379,23.45736,26.01284603088379Q23.385089999999998,25.99846603088379,23.31457,25.97707603088379Q23.244059999999998,25.95568603088379,23.17597,25.927486030883788Q23.107889999999998,25.89928603088379,23.0429,25.86454603088379Q22.977919999999997,25.829806030883788,22.91664,25.78886603088379Q22.85537,25.74792603088379,22.79841,25.70118603088379Q22.74145,25.65443603088379,22.68934,25.602326030883788Q22.637230000000002,25.55021603088379,22.59048,25.49325603088379Q22.54374,25.43629303088379,22.5028,25.37502103088379Q22.46185,25.31375003088379,22.427120000000002,25.248761030883788Q22.39238,25.183772030883787,22.364179999999998,25.115691030883788Q22.33598,25.04761003088379,22.314590000000003,24.97709303088379Q22.2932,24.906576030883787,22.27882,24.83430103088379Q22.26445,24.76202703088379,22.25722,24.68869203088379Q22.25,24.615356330883788,22.25,24.54166603088379Q22.25,24.46797573088379,22.25722,24.39464003088379Q22.26445,24.32130503088379,22.27882,24.24903103088379Q22.2932,24.17675603088379,22.314590000000003,24.10623903088379Q22.33598,24.03572203088379,22.364179999999998,23.96764103088379Q22.39238,23.89956003088379,22.427120000000002,23.83457103088379Q22.46185,23.76958203088379,22.502789999999997,23.708311030883788Q22.54374,23.64703903088379,22.59048,23.59007603088379Q22.637230000000002,23.53311603088379,22.68934,23.48100603088379Q22.74145,23.428896030883788,22.79841,23.38214603088379Q22.85537,23.33540603088379,22.91664,23.29446603088379Q22.97791,23.25352603088379,23.0429,23.218786030883788Q23.107889999999998,23.18404603088379,23.17597,23.15584603088379Q23.244059999999998,23.12764603088379,23.31457,23.106256030883788Q23.385089999999998,23.084866030883788,23.45736,23.07048603088379Q23.52964,23.05611603088379,23.60297,23.04888603088379Q23.67631,23.04166603088379,23.75,23.04166603088379Q23.82369,23.04166603088379,23.89703,23.04888603088379Q23.97036,23.05611603088379,24.042630000000003,23.07048603088379Q24.114910000000002,23.084866030883788,24.18543,23.106256030883788Q24.2559,23.12764603088379,24.323999999999998,23.15584603088379Q24.3921,23.18404603088379,24.4571,23.218786030883788Q24.522100000000002,23.25352603088379,24.583399999999997,23.29446603088379Q24.6446,23.33540603088379,24.7016,23.38214603088379Q24.7586,23.428896030883788,24.8107,23.48100603088379Q24.8628,23.53311603088379,24.9095,23.59007603088379Q24.9563,23.64703903088379,24.9972,23.708311030883788Q25.0381,23.76958203088379,25.0729,23.83457103088379Q25.107599999999998,23.89956003088379,25.1358,23.96764103088379Q25.164,24.03572203088379,25.1854,24.10623903088379Q25.2068,24.17675603088379,25.2212,24.24903103088379Q25.235599999999998,24.32130503088379,25.242800000000003,24.39464003088379Q25.25,24.46797573088379,25.25,24.54166603088379ZM15.75,24.54166603088379Q15.75,24.615356330883788,15.74278,24.68869203088379Q15.73555,24.76202703088379,15.72118,24.83430103088379Q15.7068,24.906576030883787,15.685410000000001,24.97709303088379Q15.66402,25.04761003088379,15.63582,25.115691030883788Q15.60762,25.183772030883787,15.57288,25.248761030883788Q15.53814,25.31375003088379,15.4972,25.37502103088379Q15.45626,25.43629303088379,15.40952,25.49325603088379Q15.36277,25.55021603088379,15.31066,25.602326030883788Q15.25855,25.65443603088379,15.20159,25.70118603088379Q15.144627,25.74792603088379,15.083355,25.78886603088379Q15.022084,25.829806030883788,14.957095,25.86454603088379Q14.892106,25.89928603088379,14.824025,25.927486030883788Q14.755944,25.95568603088379,14.685427,25.97707603088379Q14.61491,25.99846603088379,14.542635,26.01284603088379Q14.470361,26.02721603088379,14.397026,26.03444603088379Q14.3236903,26.04166603088379,14.25,26.04166603088379Q14.1763097,26.04166603088379,14.102974,26.03444603088379Q14.029639,26.02721603088379,13.957365,26.01284603088379Q13.88509,25.99846603088379,13.814573,25.97707603088379Q13.744056,25.95568603088379,13.675975,25.927486030883788Q13.607894,25.89928603088379,13.542905,25.86454603088379Q13.477916,25.829806030883788,13.416645,25.78886603088379Q13.355373,25.74792603088379,13.29841,25.70118603088379Q13.24145,25.65443603088379,13.18934,25.602326030883788Q13.13723,25.55021603088379,13.09048,25.49325603088379Q13.04374,25.43629303088379,13.0028,25.37502103088379Q12.96186,25.31375003088379,12.92712,25.248761030883788Q12.89238,25.183772030883787,12.86418,25.115691030883788Q12.83598,25.04761003088379,12.814589999999999,24.97709303088379Q12.7932,24.906576030883787,12.77882,24.83430103088379Q12.76445,24.76202703088379,12.75722,24.68869203088379Q12.75,24.615356330883788,12.75,24.54166603088379Q12.75,24.46797573088379,12.75722,24.39464003088379Q12.76445,24.32130503088379,12.77882,24.24903103088379Q12.7932,24.17675603088379,12.814589999999999,24.10623903088379Q12.83598,24.03572203088379,12.86418,23.96764103088379Q12.89238,23.89956003088379,12.92712,23.83457103088379Q12.96186,23.76958203088379,13.0028,23.708311030883788Q13.04374,23.64703903088379,13.09048,23.59007603088379Q13.13723,23.53311603088379,13.18934,23.48100603088379Q13.24145,23.428896030883788,13.29841,23.38214603088379Q13.355373,23.33540603088379,13.416645,23.29446603088379Q13.477916,23.25352603088379,13.542905,23.218786030883788Q13.607894,23.18404603088379,13.675975,23.15584603088379Q13.744056,23.12764603088379,13.814573,23.106256030883788Q13.88509,23.084866030883788,13.957365,23.07048603088379Q14.029639,23.05611603088379,14.102974,23.04888603088379Q14.1763097,23.04166603088379,14.25,23.04166603088379Q14.3236903,23.04166603088379,14.397026,23.04888603088379Q14.470361,23.05611603088379,14.542635,23.07048603088379Q14.61491,23.084866030883788,14.685427,23.106256030883788Q14.755944,23.12764603088379,14.824025,23.15584603088379Q14.892106,23.18404603088379,14.957095,23.218786030883788Q15.022084,23.25352603088379,15.083355,23.29446603088379Q15.144627,23.33540603088379,15.20159,23.38214603088379Q15.25855,23.428896030883788,15.31066,23.48100603088379Q15.36277,23.53311603088379,15.40952,23.59007603088379Q15.45626,23.64703903088379,15.4972,23.708311030883788Q15.53814,23.76958203088379,15.57288,23.83457103088379Q15.60762,23.89956003088379,15.63582,23.96764103088379Q15.66402,24.03572203088379,15.685410000000001,24.10623903088379Q15.7068,24.17675603088379,15.72118,24.24903103088379Q15.73555,24.32130503088379,15.74278,24.39464003088379Q15.75,24.46797573088379,15.75,24.54166603088379Z" fill="#2E2E2E" fill-opacity="1"/></g><g><path d="M17.5,27.70833603088379L17.5,19.79166603088379Q17.5,19.71797573088379,17.50722,19.64464003088379Q17.51445,19.57130503088379,17.52882,19.49903103088379Q17.5432,19.42675603088379,17.56459,19.35623903088379Q17.58598,19.28572203088379,17.61418,19.21764103088379Q17.64238,19.14956003088379,17.67712,19.08457103088379Q17.71186,19.01958203088379,17.7528,18.958311030883788Q17.79374,18.89703903088379,17.84048,18.84007603088379Q17.88723,18.78311603088379,17.93934,18.73100603088379Q17.99145,18.678896030883788,18.04841,18.63214603088379Q18.105373,18.58540603088379,18.166645,18.54446603088379Q18.227916,18.50352603088379,18.292905,18.468786030883788Q18.357894,18.43404603088379,18.425975,18.40584603088379Q18.494056,18.37764603088379,18.564573,18.356256030883788Q18.63509,18.334866030883788,18.707365,18.32048603088379Q18.779639,18.30611603088379,18.852974,18.29888603088379Q18.9263097,18.29166603088379,19,18.29166603088379Q19.0736903,18.29166603088379,19.147026,18.29888603088379Q19.220361,18.30611603088379,19.292635,18.32048603088379Q19.36491,18.334866030883788,19.435427,18.356256030883788Q19.505944,18.37764603088379,19.574025,18.40584603088379Q19.642106,18.43404603088379,19.707095,18.468786030883788Q19.772084,18.50352603088379,19.833355,18.54446603088379Q19.894627,18.58540603088379,19.95159,18.63214603088379Q20.00855,18.678896030883788,20.06066,18.73100603088379Q20.11277,18.78311603088379,20.15952,18.84007603088379Q20.20626,18.89703903088379,20.2472,18.958311030883788Q20.28814,19.01958203088379,20.32288,19.08457103088379Q20.35762,19.14956003088379,20.38582,19.21764103088379Q20.41402,19.28572203088379,20.43541,19.35623903088379Q20.4568,19.42675603088379,20.47118,19.49903103088379Q20.48555,19.57130503088379,20.49278,19.64464003088379Q20.5,19.71797573088379,20.5,19.79166603088379L20.5,27.70833603088379Q20.5,27.782026030883788,20.49278,27.85535603088379Q20.48555,27.92869603088379,20.47118,28.000966030883788Q20.4568,28.073246030883787,20.43541,28.14375603088379Q20.41402,28.214276030883788,20.38582,28.28235603088379Q20.35762,28.35043603088379,20.32288,28.41542603088379Q20.28814,28.480416030883788,20.2472,28.54168603088379Q20.20626,28.60295603088379,20.15952,28.65992603088379Q20.11277,28.71688603088379,20.06066,28.76899603088379Q20.00855,28.82110603088379,19.95159,28.86784603088379Q19.894627,28.91459603088379,19.833355,28.95553603088379Q19.772084,28.99647603088379,19.707095,29.03121603088379Q19.642106,29.06595603088379,19.574025,29.094156030883788Q19.505944,29.12235603088379,19.435427,29.14374603088379Q19.36491,29.165136030883787,19.292635,29.17951603088379Q19.220361,29.19388603088379,19.147026,29.20111603088379Q19.0736903,29.20833603088379,19,29.20833603088379Q18.9263097,29.20833603088379,18.852974,29.20111603088379Q18.779639,29.19388603088379,18.707365,29.17951603088379Q18.63509,29.165136030883787,18.564573,29.14374603088379Q18.494056,29.12235603088379,18.425975,29.094156030883788Q18.357894,29.06595603088379,18.292905,29.03121603088379Q18.227916,28.99647603088379,18.166645,28.95553603088379Q18.105373,28.91459603088379,18.04841,28.86784603088379Q17.99145,28.82110603088379,17.93934,28.76899603088379Q17.88723,28.71688603088379,17.84048,28.65992603088379Q17.79374,28.60295603088379,17.7528,28.54168603088379Q17.71186,28.480416030883788,17.67712,28.41542603088379Q17.64238,28.35043603088379,17.61418,28.28235603088379Q17.58598,28.214276030883788,17.56459,28.14376603088379Q17.5432,28.073246030883787,17.52882,28.000966030883788Q17.51445,27.92869603088379,17.50722,27.85535603088379Q17.5,27.782026030883788,17.5,27.70833603088379ZM20.5,27.70833603088379Q20.5,27.782026030883788,20.49278,27.85535603088379Q20.48555,27.92869603088379,20.47118,28.000966030883788Q20.4568,28.073246030883787,20.43541,28.14375603088379Q20.41402,28.214276030883788,20.38582,28.28235603088379Q20.35762,28.35043603088379,20.32288,28.41542603088379Q20.28814,28.480416030883788,20.2472,28.54168603088379Q20.20626,28.60295603088379,20.15952,28.65992603088379Q20.11277,28.71688603088379,20.06066,28.76899603088379Q20.00855,28.82110603088379,19.95159,28.86784603088379Q19.894627,28.91459603088379,19.833355,28.95553603088379Q19.772084,28.99647603088379,19.707095,29.03121603088379Q19.642106,29.06595603088379,19.574025,29.094156030883788Q19.505944,29.12235603088379,19.435427,29.14374603088379Q19.36491,29.165136030883787,19.292635,29.17951603088379Q19.220361,29.19388603088379,19.147026,29.20111603088379Q19.0736903,29.20833603088379,19,29.20833603088379Q18.9263097,29.20833603088379,18.852974,29.20111603088379Q18.779639,29.19388603088379,18.707365,29.17951603088379Q18.63509,29.165136030883787,18.564573,29.14374603088379Q18.494056,29.12235603088379,18.425975,29.094156030883788Q18.357894,29.06595603088379,18.292905,29.03121603088379Q18.227916,28.99647603088379,18.166645,28.95553603088379Q18.105373,28.91459603088379,18.04841,28.86784603088379Q17.99145,28.82110603088379,17.93934,28.76899603088379Q17.88723,28.71688603088379,17.84048,28.65992603088379Q17.79374,28.60295603088379,17.7528,28.54168603088379Q17.71186,28.480416030883788,17.67712,28.41542603088379Q17.64238,28.35043603088379,17.61418,28.28235603088379Q17.58598,28.214276030883788,17.56459,28.14376603088379Q17.5432,28.073246030883787,17.52882,28.000966030883788Q17.51445,27.92869603088379,17.50722,27.85535603088379Q17.5,27.782026030883788,17.5,27.70833603088379Q17.5,27.63464603088379,17.50722,27.561306030883788Q17.51445,27.48797603088379,17.52882,27.41569603088379Q17.5432,27.34342603088379,17.56459,27.27290603088379Q17.58598,27.20238603088379,17.61418,27.13430603088379Q17.64238,27.06622603088379,17.67712,27.00123603088379Q17.71186,26.93624603088379,17.7528,26.87497603088379Q17.79374,26.81370603088379,17.84048,26.75674603088379Q17.88723,26.69977603088379,17.93934,26.64767603088379Q17.99145,26.595566030883788,18.04841,26.54881603088379Q18.105373,26.50206603088379,18.166645,26.46112603088379Q18.227916,26.42018603088379,18.292905,26.385456030883788Q18.357894,26.350716030883788,18.425975,26.32251603088379Q18.494056,26.294316030883788,18.564573,26.272926030883788Q18.63509,26.251536030883788,18.707365,26.23715603088379Q18.779639,26.22277603088379,18.852974,26.21555603088379Q18.9263097,26.20833603088379,19,26.20833603088379Q19.0736903,26.20833603088379,19.147026,26.21555603088379Q19.220361,26.22277603088379,19.292635,26.23715603088379Q19.36491,26.251536030883788,19.435427,26.272926030883788Q19.505944,26.294316030883788,19.574025,26.32251603088379Q19.642106,26.350716030883788,19.707095,26.385456030883788Q19.772084,26.42018603088379,19.833355,26.46112603088379Q19.894627,26.50206603088379,19.95159,26.54881603088379Q20.00855,26.595566030883788,20.06066,26.64767603088379Q20.11277,26.69977603088379,20.15952,26.75674603088379Q20.20626,26.81370603088379,20.2472,26.87497603088379Q20.28814,26.93624603088379,20.32288,27.00123603088379Q20.35762,27.06622603088379,20.38582,27.13430603088379Q20.41402,27.20238603088379,20.43541,27.27290603088379Q20.4568,27.34342603088379,20.47118,27.41569603088379Q20.48555,27.48797603088379,20.49278,27.561306030883788Q20.5,27.63464603088379,20.5,27.70833603088379ZM20.5,19.79166603088379Q20.5,19.865356330883788,20.49278,19.93869203088379Q20.48555,20.01202703088379,20.47118,20.08430103088379Q20.4568,20.156576030883787,20.43541,20.22709303088379Q20.41402,20.29761003088379,20.38582,20.365691030883788Q20.35762,20.433772030883787,20.32288,20.498761030883788Q20.28814,20.56375003088379,20.2472,20.62502103088379Q20.20626,20.68629303088379,20.15952,20.74325603088379Q20.11277,20.80021603088379,20.06066,20.852326030883788Q20.00855,20.90443603088379,19.95159,20.95118603088379Q19.894627,20.99792603088379,19.833355,21.03886603088379Q19.772084,21.079806030883788,19.707095,21.11454603088379Q19.642106,21.14928603088379,19.574025,21.177486030883788Q19.505944,21.20568603088379,19.435427,21.22707603088379Q19.36491,21.24846603088379,19.292635,21.26284603088379Q19.220361,21.27721603088379,19.147026,21.28444603088379Q19.0736903,21.29166603088379,19,21.29166603088379Q18.9263097,21.29166603088379,18.852974,21.28444603088379Q18.779639,21.27721603088379,18.707365,21.26284603088379Q18.63509,21.24846603088379,18.564573,21.22707603088379Q18.494056,21.20568603088379,18.425975,21.177486030883788Q18.357894,21.14928603088379,18.292905,21.11454603088379Q18.227916,21.079806030883788,18.166645,21.03886603088379Q18.105373,20.99792603088379,18.04841,20.95118603088379Q17.99145,20.90443603088379,17.93934,20.852326030883788Q17.88723,20.80021603088379,17.84048,20.74325603088379Q17.79374,20.68629303088379,17.7528,20.62502103088379Q17.71186,20.56375003088379,17.67712,20.498761030883788Q17.64238,20.433772030883787,17.61418,20.365691030883788Q17.58598,20.29761003088379,17.56459,20.22709303088379Q17.5432,20.156576030883787,17.52882,20.08430103088379Q17.51445,20.01202703088379,17.50722,19.93869203088379Q17.5,19.865356330883788,17.5,19.79166603088379Q17.5,19.71797573088379,17.50722,19.64464003088379Q17.51445,19.57130503088379,17.52882,19.49903103088379Q17.5432,19.42675603088379,17.56459,19.35623903088379Q17.58598,19.28572203088379,17.61418,19.21764103088379Q17.64238,19.14956003088379,17.67712,19.08457103088379Q17.71186,19.01958203088379,17.7528,18.958311030883788Q17.79374,18.89703903088379,17.84048,18.84007603088379Q17.88723,18.78311603088379,17.93934,18.73100603088379Q17.99145,18.678896030883788,18.04841,18.63214603088379Q18.105373,18.58540603088379,18.166645,18.54446603088379Q18.227916,18.50352603088379,18.292905,18.468786030883788Q18.357894,18.43404603088379,18.425975,18.40584603088379Q18.494056,18.37764603088379,18.564573,18.356256030883788Q18.63509,18.334866030883788,18.707365,18.32048603088379Q18.779639,18.30611603088379,18.852974,18.29888603088379Q18.9263097,18.29166603088379,19,18.29166603088379Q19.0736903,18.29166603088379,19.147026,18.29888603088379Q19.220361,18.30611603088379,19.292635,18.32048603088379Q19.36491,18.334866030883788,19.435427,18.356256030883788Q19.505944,18.37764603088379,19.574025,18.40584603088379Q19.642106,18.43404603088379,19.707095,18.468786030883788Q19.772084,18.50352603088379,19.833355,18.54446603088379Q19.894627,18.58540603088379,19.95159,18.63214603088379Q20.00855,18.678896030883788,20.06066,18.73100603088379Q20.11277,18.78311603088379,20.15952,18.84007603088379Q20.20626,18.89703903088379,20.2472,18.958311030883788Q20.28814,19.01958203088379,20.32288,19.08457103088379Q20.35762,19.14956003088379,20.38582,19.21764103088379Q20.41402,19.28572203088379,20.43541,19.35623903088379Q20.4568,19.42675603088379,20.47118,19.49903103088379Q20.48555,19.57130503088379,20.49278,19.64464003088379Q20.5,19.71797573088379,20.5,19.79166603088379Z" fill="#2E2E2E" fill-opacity="1"/></g><g><path d="M31.666633492279054,6.25L6.333333492279053,6.25Q6.259643192279053,6.25,6.186307492279052,6.24278Q6.112972492279053,6.23555,6.040698492279053,6.22118Q5.968423492279053,6.2068,5.897906492279053,6.18541Q5.827389492279053,6.16402,5.759308492279053,6.13582Q5.691227492279053,6.10762,5.626238492279053,6.07288Q5.561249492279053,6.03814,5.499978492279053,5.9972Q5.438706492279053,5.95626,5.381743492279052,5.9095200000000006Q5.324783492279053,5.86277,5.272673492279052,5.81066Q5.2205634922790525,5.75855,5.173813492279052,5.70159Q5.127073492279052,5.644627,5.086133492279052,5.583355Q5.0451934922790524,5.5220839999999995,5.010453492279053,5.457095Q4.975713492279053,5.392106,4.947513492279053,5.324025Q4.919313492279053,5.2559439999999995,4.897923492279053,5.185427Q4.876533492279052,5.11491,4.862153492279052,5.042635Q4.847783492279053,4.970361,4.840553492279053,4.897026Q4.833333492279053,4.8236903,4.833333492279053,4.75Q4.833333492279053,4.6763097,4.840553492279053,4.602974Q4.847783492279053,4.529639,4.862153492279052,4.457365Q4.876533492279052,4.38509,4.897923492279053,4.314573Q4.919313492279053,4.2440560000000005,4.947513492279053,4.175975Q4.975713492279053,4.107894,5.010453492279053,4.042905Q5.0451934922790524,3.977916,5.086133492279052,3.916645Q5.127073492279052,3.855373,5.173813492279052,3.79841Q5.2205634922790525,3.74145,5.272673492279052,3.68934Q5.324783492279053,3.6372299999999997,5.381743492279052,3.59048Q5.438706492279053,3.5437399999999997,5.499978492279053,3.5027999999999997Q5.561249492279053,3.4618599999999997,5.626238492279053,3.42712Q5.691227492279053,3.39238,5.759308492279053,3.36418Q5.827389492279053,3.33598,5.897906492279053,3.31459Q5.968423492279053,3.2931999999999997,6.040698492279053,3.27882Q6.112972492279053,3.26445,6.186307492279052,3.2572200000000002Q6.259643192279053,3.25,6.333333492279053,3.25L31.666633492279054,3.25Q31.740333492279053,3.25,31.813733492279052,3.2572200000000002Q31.887033492279052,3.26445,31.959333492279054,3.27882Q32.03153349227905,3.2931999999999997,32.10213349227905,3.31459Q32.172633492279054,3.33598,32.24073349227905,3.36418Q32.30873349227905,3.39238,32.37373349227906,3.42712Q32.438733492279056,3.4618599999999997,32.50003349227905,3.5027999999999997Q32.561333492279054,3.5437399999999997,32.61823349227905,3.59048Q32.67523349227905,3.6372299999999997,32.72733349227905,3.68934Q32.779433492279054,3.74145,32.826133492279055,3.79841Q32.87293349227905,3.855373,32.91383349227905,3.916645Q32.95483349227905,3.977916,32.98953349227905,4.042905Q33.024333492279055,4.107894,33.05243349227905,4.175975Q33.08063349227905,4.2440560000000005,33.10203349227905,4.314573Q33.12343349227905,4.38509,33.13783349227906,4.457365Q33.15223349227905,4.529639,33.15943349227905,4.602974Q33.166633492279054,4.6763097,33.166633492279054,4.75Q33.166633492279054,4.8236903,33.15943349227905,4.897026Q33.15223349227905,4.970361,33.13783349227906,5.042635Q33.12343349227905,5.11491,33.10203349227905,5.185427Q33.08073349227905,5.2559439999999995,33.05253349227905,5.324025Q33.024333492279055,5.392106,32.98953349227905,5.457095Q32.95483349227905,5.5220839999999995,32.91383349227905,5.583355Q32.87293349227905,5.644627,32.826133492279055,5.70159Q32.779433492279054,5.75855,32.72733349227905,5.81066Q32.67523349227905,5.86277,32.61823349227905,5.9095200000000006Q32.561333492279054,5.95626,32.50003349227905,5.9972Q32.438733492279056,6.03814,32.37373349227906,6.07288Q32.30873349227905,6.10762,32.24073349227905,6.13582Q32.172633492279054,6.16402,32.10213349227905,6.18541Q32.03153349227905,6.2068,31.959333492279054,6.22118Q31.887033492279052,6.23555,31.813733492279052,6.24278Q31.740333492279053,6.25,31.666633492279054,6.25ZM33.166633492279054,4.75Q33.166633492279054,4.8236903,33.15943349227905,4.897026Q33.15223349227905,4.970361,33.13783349227906,5.042635Q33.12343349227905,5.11491,33.10203349227905,5.185427Q33.08073349227905,5.2559439999999995,33.05253349227905,5.324025Q33.024333492279055,5.392106,32.98953349227905,5.457095Q32.95483349227905,5.5220839999999995,32.91383349227905,5.583355Q32.87293349227905,5.644627,32.826133492279055,5.70159Q32.779433492279054,5.75855,32.72733349227905,5.81066Q32.67523349227905,5.86277,32.61823349227905,5.9095200000000006Q32.561333492279054,5.95626,32.50003349227905,5.9972Q32.438733492279056,6.03814,32.37373349227906,6.07288Q32.30873349227905,6.10762,32.24073349227905,6.13582Q32.172633492279054,6.16402,32.10213349227905,6.18541Q32.03153349227905,6.2068,31.959333492279054,6.22118Q31.887033492279052,6.23555,31.813733492279052,6.24278Q31.740333492279053,6.25,31.666633492279054,6.25Q31.59293349227905,6.25,31.519633492279052,6.24278Q31.446333492279052,6.23555,31.374033492279054,6.22118Q31.30173349227905,6.2068,31.231233492279053,6.18541Q31.160733492279054,6.16402,31.092633492279052,6.13582Q31.02453349227905,6.10762,30.959533492279053,6.07288Q30.894533492279052,6.03814,30.833333492279053,5.9972Q30.772033492279053,5.95626,30.71503349227905,5.9095200000000006Q30.658133492279052,5.86277,30.606033492279053,5.81066Q30.553933492279054,5.75855,30.507133492279053,5.70159Q30.46043349227905,5.644627,30.41943349227905,5.583355Q30.378533492279054,5.5220839999999995,30.343833492279053,5.457095Q30.309033492279053,5.392106,30.280833492279054,5.324025Q30.252633492279053,5.2559439999999995,30.231233492279053,5.185427Q30.209833492279053,5.11491,30.195533492279054,5.042635Q30.181133492279052,4.970361,30.17393349227905,4.897026Q30.166633492279054,4.8236903,30.166633492279054,4.75Q30.166633492279054,4.6763097,30.17393349227905,4.602974Q30.181133492279052,4.529639,30.195533492279054,4.457365Q30.209833492279053,4.38509,30.231233492279053,4.314573Q30.252633492279053,4.2440560000000005,30.280833492279054,4.175975Q30.309033492279053,4.107894,30.343833492279053,4.042905Q30.378533492279054,3.977916,30.41943349227905,3.916645Q30.46043349227905,3.855373,30.507133492279053,3.79841Q30.553933492279054,3.74145,30.606033492279053,3.68934Q30.658133492279052,3.6372299999999997,30.71503349227905,3.59048Q30.772033492279053,3.5437399999999997,30.833333492279053,3.5027999999999997Q30.894533492279052,3.4618599999999997,30.959533492279053,3.42712Q31.02453349227905,3.39238,31.092633492279052,3.36418Q31.160733492279054,3.33598,31.231233492279053,3.31459Q31.30173349227905,3.2931999999999997,31.374033492279054,3.27882Q31.446333492279052,3.26445,31.519633492279052,3.2572200000000002Q31.59293349227905,3.25,31.666633492279054,3.25Q31.740333492279053,3.25,31.813733492279052,3.2572200000000002Q31.887033492279052,3.26445,31.959333492279054,3.27882Q32.03153349227905,3.2931999999999997,32.10213349227905,3.31459Q32.172633492279054,3.33598,32.24073349227905,3.36418Q32.30873349227905,3.39238,32.37373349227906,3.42712Q32.438733492279056,3.4618599999999997,32.50003349227905,3.5027999999999997Q32.561333492279054,3.5437399999999997,32.61823349227905,3.59048Q32.67523349227905,3.6372299999999997,32.72733349227905,3.68934Q32.779433492279054,3.74145,32.826133492279055,3.79841Q32.87293349227905,3.855373,32.91383349227905,3.916645Q32.95483349227905,3.977916,32.98953349227905,4.042905Q33.024333492279055,4.107894,33.05243349227905,4.175975Q33.08063349227905,4.2440560000000005,33.10203349227905,4.314573Q33.12343349227905,4.38509,33.13783349227906,4.457365Q33.15223349227905,4.529639,33.15943349227905,4.602974Q33.166633492279054,4.6763097,33.166633492279054,4.75ZM7.833333492279053,4.75Q7.833333492279053,4.8236903,7.8261134922790525,4.897026Q7.818883492279053,4.970361,7.804513492279053,5.042635Q7.790133492279053,5.11491,7.768743492279053,5.185427Q7.747353492279053,5.2559439999999995,7.719153492279053,5.324025Q7.690953492279053,5.392106,7.656213492279052,5.457095Q7.621473492279053,5.5220839999999995,7.580533492279053,5.583355Q7.539593492279053,5.644627,7.492853492279053,5.70159Q7.446103492279053,5.75855,7.393993492279053,5.81066Q7.341883492279052,5.86277,7.284923492279053,5.9095200000000006Q7.227960492279053,5.95626,7.166688492279053,5.9972Q7.105417492279052,6.03814,7.0404284922790525,6.07288Q6.975439492279053,6.10762,6.9073584922790525,6.13582Q6.839277492279052,6.16402,6.7687604922790525,6.18541Q6.698243492279053,6.2068,6.6259684922790525,6.22118Q6.553694492279052,6.23555,6.480359492279053,6.24278Q6.407023792279053,6.25,6.333333492279053,6.25Q6.259643192279053,6.25,6.186307492279052,6.24278Q6.112972492279053,6.23555,6.040698492279053,6.22118Q5.968423492279053,6.2068,5.897906492279053,6.18541Q5.827389492279053,6.16402,5.759308492279053,6.13582Q5.691227492279053,6.10762,5.626238492279053,6.07288Q5.561249492279053,6.03814,5.499978492279053,5.9972Q5.438706492279053,5.95626,5.381743492279052,5.9095200000000006Q5.324783492279053,5.86277,5.272673492279052,5.81066Q5.2205634922790525,5.75855,5.173813492279052,5.70159Q5.127073492279052,5.644627,5.086133492279052,5.583355Q5.0451934922790524,5.5220839999999995,5.010453492279053,5.457095Q4.975713492279053,5.392106,4.947513492279053,5.324025Q4.919313492279053,5.2559439999999995,4.897923492279053,5.185427Q4.876533492279052,5.11491,4.862153492279052,5.042635Q4.847783492279053,4.970361,4.840553492279053,4.897026Q4.833333492279053,4.8236903,4.833333492279053,4.75Q4.833333492279053,4.6763097,4.840553492279053,4.602974Q4.847783492279053,4.529639,4.862153492279052,4.457365Q4.876533492279052,4.38509,4.897923492279053,4.314573Q4.919313492279053,4.2440560000000005,4.947513492279053,4.175975Q4.975713492279053,4.107894,5.010453492279053,4.042905Q5.0451934922790524,3.977916,5.086133492279052,3.916645Q5.127073492279052,3.855373,5.173813492279052,3.79841Q5.2205634922790525,3.74145,5.272673492279052,3.68934Q5.324783492279053,3.6372299999999997,5.381743492279052,3.59048Q5.438706492279053,3.5437399999999997,5.499978492279053,3.5027999999999997Q5.561249492279053,3.4618599999999997,5.626238492279053,3.42712Q5.691227492279053,3.39238,5.759308492279053,3.36418Q5.827389492279053,3.33598,5.897906492279053,3.31459Q5.968423492279053,3.2931999999999997,6.040698492279053,3.27882Q6.112972492279053,3.26445,6.186307492279052,3.2572200000000002Q6.259643192279053,3.25,6.333333492279053,3.25Q6.407023792279053,3.25,6.480359492279053,3.2572200000000002Q6.553694492279052,3.26445,6.6259684922790525,3.27882Q6.698243492279053,3.2931999999999997,6.7687604922790525,3.31459Q6.839277492279052,3.33598,6.9073584922790525,3.36418Q6.975439492279053,3.39238,7.0404284922790525,3.42712Q7.105417492279052,3.4618599999999997,7.166688492279053,3.5027999999999997Q7.227960492279053,3.5437399999999997,7.284923492279053,3.59048Q7.341883492279052,3.6372299999999997,7.393993492279053,3.68934Q7.446103492279053,3.74145,7.492853492279053,3.79841Q7.539593492279053,3.855373,7.580533492279053,3.916645Q7.621473492279053,3.977916,7.656213492279052,4.042905Q7.690953492279053,4.107894,7.719153492279053,4.175975Q7.747353492279053,4.2440560000000005,7.768743492279053,4.314573Q7.790133492279053,4.38509,7.804513492279053,4.457365Q7.818883492279053,4.529639,7.8261134922790525,4.602974Q7.833333492279053,4.6763097,7.833333492279053,4.75Z" fill="#2E2E2E" fill-opacity="1"/></g></g></svg>