<svg xmlns="http://www.w3.org/2000/svg" xmlns:xlink="http://www.w3.org/1999/xlink" fill="none" version="1.1" width="38" height="38" viewBox="0 0 38 38"><defs><clipPath id="master_svg0_2438_4984"><rect x="0" y="0" width="38" height="38" rx="0"/></clipPath></defs><g clip-path="url(#master_svg0_2438_4984)"><g><path d="M32.37496650772095,15.836966746139526L32.37496650772095,33.24996674613953Q32.37496650772095,34.52716674613953,31.471966507720946,35.43026674613952Q30.568866507720948,36.333366746139525,29.291666507720947,36.333366746139525L7.124996507720947,36.333366746139525Q5.847835507720947,36.333366746139525,4.944757507720947,35.43026674613952Q4.041666507720947,34.52716674613953,4.041666507720947,33.24996674613953L4.041666507720947,4.7499967461395265Q4.041666507720947,3.4728417461395265,4.944754507720948,2.5697537461395266Q5.847841507720947,1.6666667461395264,7.124996507720947,1.6666667461395264L22.958366507720946,1.6666667461395264Q23.03206650772095,1.6666667461395264,23.105366507720948,1.6738867461395264Q23.178666507720948,1.6811167461395264,23.250966507720946,1.6954867461395264Q23.32326650772095,1.7098667461395263,23.393766507720947,1.7312567461395263Q23.464266507720946,1.7526467461395263,23.532366507720948,1.7808467461395263Q23.60046650772095,1.8090467461395263,23.665466507720947,1.8437867461395263Q23.730366507720948,1.8785267461395263,23.791666507720947,1.9194667461395263Q23.852966507720947,1.9604067461395263,23.90996650772095,2.0071467461395263Q23.966866507720948,2.053896746139526,24.018966507720947,2.1060067461395264Q24.071066507720946,2.1581167461395263,24.117866507720947,2.2150767461395264Q24.16456650772095,2.2720397461395265,24.20556650772095,2.3333117461395263Q24.246466507720946,2.3945827461395264,24.281166507720947,2.4595717461395266Q24.315966507720947,2.5245607461395263,24.344166507720946,2.5926417461395266Q24.372366507720947,2.6607227461395264,24.393766507720947,2.7312397461395266Q24.415166507720947,2.8017567461395263,24.429466507720946,2.8740317461395266Q24.443866507720948,2.9463057461395263,24.45106650772095,3.0196407461395265Q24.458366507720946,3.0929764461395264,24.458366507720946,3.1666667461395264Q24.458366507720946,3.2403570461395264,24.45106650772095,3.3136927461395262Q24.443866507720948,3.3870277461395264,24.429466507720946,3.459301746139526Q24.415166507720947,3.5315767461395264,24.393766507720947,3.602093746139526Q24.372366507720947,3.6726107461395263,24.344166507720946,3.740691746139526Q24.315966507720947,3.8087727461395264,24.281166507720947,3.873761746139526Q24.246466507720946,3.9387507461395264,24.20556650772095,4.000021746139526Q24.16456650772095,4.061293746139526,24.117866507720947,4.118256746139527Q24.071066507720946,4.175216746139526,24.018966507720947,4.227326746139527Q23.966866507720948,4.279436746139527,23.90996650772095,4.326186746139527Q23.852966507720947,4.372926746139527,23.791666507720947,4.413866746139527Q23.730366507720948,4.454806746139527,23.665466507720947,4.489546746139526Q23.60046650772095,4.524286746139526,23.532366507720948,4.552486746139526Q23.464266507720946,4.580686746139526,23.393766507720947,4.602076746139526Q23.32326650772095,4.623466746139527,23.250966507720946,4.637846746139527Q23.178666507720948,4.652216746139526,23.105366507720948,4.659446746139526Q23.03206650772095,4.666666746139526,22.958366507720946,4.666666746139526L7.124996507720947,4.666666746139526Q7.041666507720947,4.666666746139526,7.041666507720947,4.7499967461395265L7.041666507720947,33.24996674613953Q7.041666507720947,33.284566746139525,7.066066507720947,33.308966746139525Q7.090476507720947,33.333366746139525,7.124996507720947,33.333366746139525L29.291666507720947,33.333366746139525Q29.32616650772095,33.333366746139525,29.35056650772095,33.308966746139525Q29.37496650772095,33.284566746139525,29.37496650772095,33.24996674613953L29.37496650772095,15.836966746139526Q29.37496650772095,15.763266746139527,29.382266507720946,15.689966746139527Q29.389466507720947,15.616566746139526,29.40386650772095,15.544366746139527Q29.418166507720947,15.472066746139527,29.439566507720947,15.401566746139526Q29.460966507720947,15.331066746139527,29.48916650772095,15.262966746139526Q29.517366507720947,15.194866746139526,29.552166507720948,15.129866746139527Q29.58686650772095,15.064866746139526,29.627766507720946,15.003666746139526Q29.668766507720946,14.942366746139527,29.715466507720947,14.885366746139526Q29.76226650772095,14.828466746139526,29.814366507720948,14.776266746139527Q29.866466507720947,14.724166746139526,29.923366507720946,14.677466746139526Q29.980366507720948,14.630666746139527,30.041666507720947,14.589766746139526Q30.102866507720947,14.548866746139526,30.167866507720948,14.514066746139527Q30.232866507720946,14.479366746139526,30.300966507720947,14.451166746139526Q30.369066507720948,14.422966746139526,30.439566507720947,14.401566746139526Q30.510066507720946,14.380166746139526,30.58236650772095,14.365766746139526Q30.654666507720947,14.351466746139526,30.727966507720947,14.344166746139527Q30.801266507720946,14.336966746139526,30.87496650772095,14.336966746139526Q30.948666507720947,14.336966746139526,31.022066507720947,14.344166746139527Q31.095366507720946,14.351466746139526,31.16766650772095,14.365766746139526Q31.239866507720947,14.380166746139526,31.310466507720946,14.401566746139526Q31.38096650772095,14.422966746139526,31.449066507720946,14.451166746139526Q31.517066507720948,14.479366746139526,31.58206650772095,14.514066746139527Q31.647066507720947,14.548866746139526,31.708366507720946,14.589766746139526Q31.76966650772095,14.630666746139527,31.826566507720948,14.677466746139526Q31.883566507720946,14.724166746139526,31.935666507720946,14.776266746139527Q31.98776650772095,14.828466746139526,32.03446650772095,14.885366746139526Q32.08126650772095,14.942366746139527,32.12216650772095,15.003666746139526Q32.163166507720945,15.064866746139526,32.197866507720946,15.129866746139527Q32.23266650772095,15.194866746139526,32.26086650772095,15.262966746139526Q32.289066507720946,15.331066746139527,32.31036650772094,15.401566746139526Q32.33176650772094,15.472066746139527,32.34616650772095,15.544366746139527Q32.36056650772095,15.616566746139526,32.367766507720944,15.689966746139527Q32.37496650772095,15.763266746139527,32.37496650772095,15.836966746139526ZM32.37496650772095,15.836966746139526Q32.37496650772095,15.910666746139526,32.367766507720944,15.983966746139526Q32.36056650772095,16.05736674613953,32.34616650772095,16.129566746139524Q32.33176650772094,16.201866746139526,32.31036650772094,16.272366746139525Q32.289066507720946,16.342966746139524,32.26086650772095,16.41096674613953Q32.23266650772095,16.479066746139527,32.197866507720946,16.544066746139528Q32.163166507720945,16.609066746139526,32.12216650772095,16.67036674613953Q32.08126650772095,16.731566746139528,32.03446650772095,16.788566746139526Q31.98776650772095,16.845566746139525,31.935666507720946,16.897666746139528Q31.883566507720946,16.949766746139524,31.826566507720948,16.996466746139525Q31.76966650772095,17.043266746139526,31.708366507720946,17.084166746139527Q31.647066507720947,17.125166746139527,31.58206650772095,17.159866746139528Q31.517066507720948,17.19456674613953,31.449066507720946,17.222766746139527Q31.38096650772095,17.250966746139525,31.310466507720946,17.272366746139525Q31.239866507720947,17.293766746139525,31.16766650772095,17.308166746139527Q31.095366507720946,17.32256674613953,31.022066507720947,17.329766746139526Q30.948666507720947,17.336966746139524,30.87496650772095,17.336966746139524Q30.801266507720946,17.336966746139524,30.727966507720947,17.329766746139526Q30.654666507720947,17.32256674613953,30.58236650772095,17.308166746139527Q30.510066507720946,17.293766746139525,30.439566507720947,17.272366746139525Q30.369066507720948,17.250966746139525,30.300966507720947,17.222766746139527Q30.232866507720946,17.19456674613953,30.167866507720948,17.159866746139528Q30.102866507720947,17.125166746139527,30.041666507720947,17.084166746139527Q29.980366507720948,17.043266746139526,29.923366507720946,16.996466746139525Q29.866466507720947,16.949766746139524,29.814366507720948,16.897666746139528Q29.76226650772095,16.845566746139525,29.715466507720947,16.788566746139526Q29.668766507720946,16.731566746139528,29.627766507720946,16.67036674613953Q29.58686650772095,16.609066746139526,29.552166507720948,16.544066746139528Q29.517366507720947,16.479066746139527,29.48916650772095,16.41096674613953Q29.460966507720947,16.342966746139524,29.439566507720947,16.272366746139525Q29.418166507720947,16.201866746139526,29.40386650772095,16.129566746139524Q29.389466507720947,16.05736674613953,29.382266507720946,15.983966746139526Q29.37496650772095,15.910666746139526,29.37496650772095,15.836966746139526Q29.37496650772095,15.763266746139527,29.382266507720946,15.689966746139527Q29.389466507720947,15.616566746139526,29.40386650772095,15.544366746139527Q29.418166507720947,15.472066746139527,29.439566507720947,15.401566746139526Q29.460966507720947,15.331066746139527,29.48916650772095,15.262966746139526Q29.517366507720947,15.194866746139526,29.552166507720948,15.129866746139527Q29.58686650772095,15.064866746139526,29.627766507720946,15.003666746139526Q29.668766507720946,14.942366746139527,29.715466507720947,14.885366746139526Q29.76226650772095,14.828466746139526,29.814366507720948,14.776266746139527Q29.866466507720947,14.724166746139526,29.923366507720946,14.677466746139526Q29.980366507720948,14.630666746139527,30.041666507720947,14.589766746139526Q30.102866507720947,14.548866746139526,30.167866507720948,14.514066746139527Q30.232866507720946,14.479366746139526,30.300966507720947,14.451166746139526Q30.369066507720948,14.422966746139526,30.439566507720947,14.401566746139526Q30.510066507720946,14.380166746139526,30.58236650772095,14.365766746139526Q30.654666507720947,14.351466746139526,30.727966507720947,14.344166746139527Q30.801266507720946,14.336966746139526,30.87496650772095,14.336966746139526Q30.948666507720947,14.336966746139526,31.022066507720947,14.344166746139527Q31.095366507720946,14.351466746139526,31.16766650772095,14.365766746139526Q31.239866507720947,14.380166746139526,31.310466507720946,14.401566746139526Q31.38096650772095,14.422966746139526,31.449066507720946,14.451166746139526Q31.517066507720948,14.479366746139526,31.58206650772095,14.514066746139527Q31.647066507720947,14.548866746139526,31.708366507720946,14.589766746139526Q31.76966650772095,14.630666746139527,31.826566507720948,14.677466746139526Q31.883566507720946,14.724166746139526,31.935666507720946,14.776266746139527Q31.98776650772095,14.828466746139526,32.03446650772095,14.885366746139526Q32.08126650772095,14.942366746139527,32.12216650772095,15.003666746139526Q32.163166507720945,15.064866746139526,32.197866507720946,15.129866746139527Q32.23266650772095,15.194866746139526,32.26086650772095,15.262966746139526Q32.289066507720946,15.331066746139527,32.31036650772094,15.401566746139526Q32.33176650772094,15.472066746139527,32.34616650772095,15.544366746139527Q32.36056650772095,15.616566746139526,32.367766507720944,15.689966746139527Q32.37496650772095,15.763266746139527,32.37496650772095,15.836966746139526ZM24.458366507720946,3.1666667461395264Q24.458366507720946,3.2403570461395264,24.45106650772095,3.3136927461395262Q24.443866507720948,3.3870277461395264,24.429466507720946,3.459301746139526Q24.415166507720947,3.5315767461395264,24.393766507720947,3.602093746139526Q24.372366507720947,3.6726107461395263,24.344166507720946,3.740691746139526Q24.315966507720947,3.8087727461395264,24.281166507720947,3.873761746139526Q24.246466507720946,3.9387507461395264,24.20556650772095,4.000021746139526Q24.16456650772095,4.061293746139526,24.117866507720947,4.118256746139527Q24.071066507720946,4.175216746139526,24.018966507720947,4.227326746139527Q23.966866507720948,4.279436746139527,23.90996650772095,4.326186746139527Q23.852966507720947,4.372926746139527,23.791666507720947,4.413866746139527Q23.730366507720948,4.454806746139527,23.665466507720947,4.489546746139526Q23.60046650772095,4.524286746139526,23.532366507720948,4.552486746139526Q23.464266507720946,4.580686746139526,23.393766507720947,4.602076746139526Q23.32326650772095,4.623466746139527,23.250966507720946,4.637846746139527Q23.178666507720948,4.652216746139526,23.105366507720948,4.659446746139526Q23.03206650772095,4.666666746139526,22.958366507720946,4.666666746139526Q22.884666507720947,4.666666746139526,22.811266507720948,4.659446746139526Q22.737966507720948,4.652216746139526,22.665666507720946,4.637846746139527Q22.593466507720947,4.623466746139527,22.52286650772095,4.602076746139526Q22.452366507720946,4.580686746139526,22.384266507720948,4.552486746139526Q22.316266507720947,4.524286746139526,22.251266507720945,4.489546746139526Q22.186266507720948,4.454806746139527,22.12496650772095,4.413866746139527Q22.063666507720946,4.372926746139527,22.006766507720947,4.326186746139527Q21.94976650772095,4.279436746139527,21.89766650772095,4.227326746139527Q21.845566507720946,4.175216746139526,21.79886650772095,4.118256746139527Q21.752066507720947,4.061293746139526,21.711166507720947,4.000021746139526Q21.670166507720946,3.9387507461395264,21.63546650772095,3.873761746139526Q21.60066650772095,3.8087727461395264,21.572466507720947,3.740691746139526Q21.54426650772095,3.6726107461395263,21.522966507720945,3.602093746139526Q21.501566507720945,3.5315767461395264,21.487166507720946,3.459301746139526Q21.472766507720948,3.3870277461395264,21.465566507720947,3.3136927461395262Q21.458366507720946,3.2403570461395264,21.458366507720946,3.1666667461395264Q21.458366507720946,3.0929764461395264,21.465566507720947,3.0196407461395265Q21.472766507720948,2.9463057461395263,21.487166507720946,2.8740317461395266Q21.501566507720945,2.8017567461395263,21.522966507720945,2.7312397461395266Q21.54426650772095,2.6607227461395264,21.572466507720947,2.5926417461395266Q21.60066650772095,2.5245607461395263,21.63546650772095,2.4595717461395266Q21.670166507720946,2.3945827461395264,21.711166507720947,2.3333117461395263Q21.752066507720947,2.2720397461395265,21.79886650772095,2.2150767461395264Q21.845566507720946,2.1581167461395263,21.89766650772095,2.1060067461395264Q21.94976650772095,2.053896746139526,22.006766507720947,2.0071467461395263Q22.063666507720946,1.9604067461395263,22.12496650772095,1.9194667461395263Q22.186266507720948,1.8785267461395263,22.251266507720945,1.8437867461395263Q22.316266507720947,1.8090467461395263,22.384266507720948,1.7808467461395263Q22.452366507720946,1.7526467461395263,22.52286650772095,1.7312567461395263Q22.593466507720947,1.7098667461395263,22.665666507720946,1.6954867461395264Q22.737966507720948,1.6811167461395264,22.811266507720948,1.6738867461395264Q22.884666507720947,1.6666667461395264,22.958366507720946,1.6666667461395264Q23.03206650772095,1.6666667461395264,23.105366507720948,1.6738867461395264Q23.178666507720948,1.6811167461395264,23.250966507720946,1.6954867461395264Q23.32326650772095,1.7098667461395263,23.393766507720947,1.7312567461395263Q23.464266507720946,1.7526467461395263,23.532366507720948,1.7808467461395263Q23.60046650772095,1.8090467461395263,23.665466507720947,1.8437867461395263Q23.730366507720948,1.8785267461395263,23.791666507720947,1.9194667461395263Q23.852966507720947,1.9604067461395263,23.90996650772095,2.0071467461395263Q23.966866507720948,2.053896746139526,24.018966507720947,2.1060067461395264Q24.071066507720946,2.1581167461395263,24.117866507720947,2.2150767461395264Q24.16456650772095,2.2720397461395265,24.20556650772095,2.3333117461395263Q24.246466507720946,2.3945827461395264,24.281166507720947,2.4595717461395266Q24.315966507720947,2.5245607461395263,24.344166507720946,2.5926417461395266Q24.372366507720947,2.6607227461395264,24.393766507720947,2.7312397461395266Q24.415166507720947,2.8017567461395263,24.429466507720946,2.8740317461395266Q24.443866507720948,2.9463057461395263,24.45106650772095,3.0196407461395265Q24.458366507720946,3.0929764461395264,24.458366507720946,3.1666667461395264Z" fill="#2E2E2E" fill-opacity="1"/></g><g><path d="M16.624996984558106,15.75L10.291666984558105,15.75Q10.217976684558105,15.75,10.144640984558105,15.74278Q10.071305984558105,15.73555,9.999031984558105,15.72118Q9.926756984558105,15.7068,9.856239984558105,15.685410000000001Q9.785722984558106,15.66402,9.717641984558105,15.63582Q9.649560984558105,15.60762,9.584571984558105,15.57288Q9.519582984558106,15.53814,9.458311984558106,15.4972Q9.397039984558106,15.45626,9.340076984558106,15.40952Q9.283116984558106,15.36277,9.231006984558105,15.31066Q9.178896984558106,15.25855,9.132146984558105,15.20159Q9.085406984558105,15.144627,9.044466984558106,15.083355Q9.003526984558105,15.022084,8.968786984558106,14.957095Q8.934046984558105,14.892106,8.905846984558105,14.824025Q8.877646984558105,14.755944,8.856256984558105,14.685427Q8.834866984558106,14.61491,8.820486984558105,14.542635Q8.806116984558106,14.470361,8.798886984558106,14.397026Q8.791666984558105,14.3236903,8.791666984558105,14.25Q8.791666984558105,14.1763097,8.798886984558106,14.102974Q8.806116984558106,14.029639,8.820486984558105,13.957365Q8.834866984558106,13.88509,8.856256984558105,13.814573Q8.877646984558105,13.744056,8.905846984558105,13.675975Q8.934046984558105,13.607894,8.968786984558106,13.542905Q9.003526984558105,13.477916,9.044466984558106,13.416645Q9.085406984558105,13.355373,9.132146984558105,13.29841Q9.178896984558106,13.24145,9.231006984558105,13.18934Q9.283116984558106,13.13723,9.340076984558106,13.09048Q9.397039984558106,13.04374,9.458311984558106,13.0028Q9.519582984558106,12.96186,9.584571984558105,12.92712Q9.649560984558105,12.89238,9.717641984558105,12.86418Q9.785722984558106,12.83598,9.856239984558105,12.814589999999999Q9.926756984558105,12.7932,9.999031984558105,12.77882Q10.071305984558105,12.76445,10.144640984558105,12.75722Q10.217976684558105,12.75,10.291666984558105,12.75L16.624996984558106,12.75Q16.698686984558105,12.75,16.772026984558106,12.75722Q16.845356984558105,12.76445,16.917636984558104,12.77882Q16.989906984558104,12.7932,17.060426984558106,12.814589999999999Q17.130946984558104,12.83598,17.199026984558106,12.86418Q17.267106984558104,12.89238,17.332096984558106,12.92712Q17.397086984558104,12.96186,17.458356984558105,13.0028Q17.519626984558105,13.04374,17.576586984558105,13.09048Q17.633556984558105,13.13723,17.685656984558104,13.18934Q17.737766984558107,13.24145,17.784516984558106,13.29841Q17.831266984558106,13.355373,17.872206984558105,13.416645Q17.913146984558104,13.477916,17.947876984558107,13.542905Q17.982616984558106,13.607894,18.010816984558105,13.675975Q18.039016984558106,13.744056,18.060406984558107,13.814573Q18.081796984558107,13.88509,18.096176984558106,13.957365Q18.110556984558105,14.029639,18.117776984558105,14.102974Q18.124996984558106,14.1763097,18.124996984558106,14.25Q18.124996984558106,14.3236903,18.117776984558105,14.397026Q18.110556984558105,14.470361,18.096176984558106,14.542635Q18.081796984558107,14.61491,18.060406984558107,14.685427Q18.039016984558106,14.755944,18.010816984558105,14.824025Q17.982616984558106,14.892106,17.947876984558107,14.957095Q17.913146984558104,15.022084,17.872206984558105,15.083355Q17.831266984558106,15.144627,17.784516984558106,15.20159Q17.737766984558107,15.25855,17.685656984558104,15.31066Q17.633556984558105,15.36277,17.576586984558105,15.40952Q17.519626984558105,15.45626,17.458356984558105,15.4972Q17.397086984558104,15.53814,17.332096984558106,15.57288Q17.267106984558104,15.60762,17.199026984558106,15.63582Q17.130946984558104,15.66402,17.060426984558106,15.685410000000001Q16.989906984558104,15.7068,16.917636984558104,15.72118Q16.845356984558105,15.73555,16.772026984558106,15.74278Q16.698686984558105,15.75,16.624996984558106,15.75ZM18.124996984558106,14.25Q18.124996984558106,14.3236903,18.117776984558105,14.397026Q18.110556984558105,14.470361,18.096176984558106,14.542635Q18.081796984558107,14.61491,18.060406984558107,14.685427Q18.039016984558106,14.755944,18.010816984558105,14.824025Q17.982616984558106,14.892106,17.947876984558107,14.957095Q17.913146984558104,15.022084,17.872206984558105,15.083355Q17.831266984558106,15.144627,17.784516984558106,15.20159Q17.737766984558107,15.25855,17.685656984558104,15.31066Q17.633556984558105,15.36277,17.576586984558105,15.40952Q17.519626984558105,15.45626,17.458356984558105,15.4972Q17.397086984558104,15.53814,17.332096984558106,15.57288Q17.267106984558104,15.60762,17.199026984558106,15.63582Q17.130946984558104,15.66402,17.060426984558106,15.685410000000001Q16.989906984558104,15.7068,16.917636984558104,15.72118Q16.845356984558105,15.73555,16.772026984558106,15.74278Q16.698686984558105,15.75,16.624996984558106,15.75Q16.551306984558106,15.75,16.477976984558104,15.74278Q16.404636984558106,15.73555,16.332366984558107,15.72118Q16.260086984558107,15.7068,16.189576984558105,15.685410000000001Q16.119056984558107,15.66402,16.050976984558105,15.63582Q15.982896984558106,15.60762,15.917906984558105,15.57288Q15.852916984558107,15.53814,15.791646984558106,15.4972Q15.730376984558106,15.45626,15.673406984558106,15.40952Q15.616446984558106,15.36277,15.564336984558105,15.31066Q15.512236984558106,15.25855,15.465486984558105,15.20159Q15.418736984558105,15.144627,15.377796984558106,15.083355Q15.336856984558105,15.022084,15.302116984558104,14.957095Q15.267376984558105,14.892106,15.239176984558107,14.824025Q15.210976984558105,14.755944,15.189586984558105,14.685427Q15.168196984558104,14.61491,15.153816984558105,14.542635Q15.139446984558106,14.470361,15.132226984558105,14.397026Q15.124996984558106,14.3236903,15.124996984558106,14.25Q15.124996984558106,14.1763097,15.132226984558105,14.102974Q15.139446984558106,14.029639,15.153816984558105,13.957365Q15.168196984558104,13.88509,15.189586984558105,13.814573Q15.210976984558105,13.744056,15.239176984558107,13.675975Q15.267376984558105,13.607894,15.302116984558104,13.542905Q15.336856984558105,13.477916,15.377796984558106,13.416645Q15.418736984558105,13.355373,15.465486984558105,13.29841Q15.512236984558106,13.24145,15.564336984558105,13.18934Q15.616446984558106,13.13723,15.673406984558106,13.09048Q15.730376984558106,13.04374,15.791646984558106,13.0028Q15.852916984558107,12.96186,15.917906984558105,12.92712Q15.982896984558106,12.89238,16.050976984558105,12.86418Q16.119056984558107,12.83598,16.189576984558105,12.814589999999999Q16.260086984558107,12.7932,16.332366984558107,12.77882Q16.404636984558106,12.76445,16.477976984558104,12.75722Q16.551306984558106,12.75,16.624996984558106,12.75Q16.698686984558105,12.75,16.772026984558106,12.75722Q16.845356984558105,12.76445,16.917636984558104,12.77882Q16.989906984558104,12.7932,17.060426984558106,12.814589999999999Q17.130946984558104,12.83598,17.199026984558106,12.86418Q17.267106984558104,12.89238,17.332096984558106,12.92712Q17.397086984558104,12.96186,17.458356984558105,13.0028Q17.519626984558105,13.04374,17.576586984558105,13.09048Q17.633556984558105,13.13723,17.685656984558104,13.18934Q17.737766984558107,13.24145,17.784516984558106,13.29841Q17.831266984558106,13.355373,17.872206984558105,13.416645Q17.913146984558104,13.477916,17.947876984558107,13.542905Q17.982616984558106,13.607894,18.010816984558105,13.675975Q18.039016984558106,13.744056,18.060406984558107,13.814573Q18.081796984558107,13.88509,18.096176984558106,13.957365Q18.110556984558105,14.029639,18.117776984558105,14.102974Q18.124996984558106,14.1763097,18.124996984558106,14.25ZM11.791666984558105,14.25Q11.791666984558105,14.3236903,11.784446984558105,14.397026Q11.777216984558105,14.470361,11.762846984558106,14.542635Q11.748466984558105,14.61491,11.727076984558106,14.685427Q11.705686984558106,14.755944,11.677486984558106,14.824025Q11.649286984558106,14.892106,11.614546984558105,14.957095Q11.579806984558106,15.022084,11.538866984558105,15.083355Q11.497926984558106,15.144627,11.451186984558106,15.20159Q11.404436984558105,15.25855,11.352326984558106,15.31066Q11.300216984558105,15.36277,11.243256984558105,15.40952Q11.186293984558105,15.45626,11.125021984558105,15.4972Q11.063750984558105,15.53814,10.998761984558106,15.57288Q10.933772984558106,15.60762,10.865691984558106,15.63582Q10.797610984558105,15.66402,10.727093984558106,15.685410000000001Q10.656576984558106,15.7068,10.584301984558106,15.72118Q10.512027984558106,15.73555,10.438692984558106,15.74278Q10.365357284558106,15.75,10.291666984558105,15.75Q10.217976684558105,15.75,10.144640984558105,15.74278Q10.071305984558105,15.73555,9.999031984558105,15.72118Q9.926756984558105,15.7068,9.856239984558105,15.685410000000001Q9.785722984558106,15.66402,9.717641984558105,15.63582Q9.649560984558105,15.60762,9.584571984558105,15.57288Q9.519582984558106,15.53814,9.458311984558106,15.4972Q9.397039984558106,15.45626,9.340076984558106,15.40952Q9.283116984558106,15.36277,9.231006984558105,15.31066Q9.178896984558106,15.25855,9.132146984558105,15.20159Q9.085406984558105,15.144627,9.044466984558106,15.083355Q9.003526984558105,15.022084,8.968786984558106,14.957095Q8.934046984558105,14.892106,8.905846984558105,14.824025Q8.877646984558105,14.755944,8.856256984558105,14.685427Q8.834866984558106,14.61491,8.820486984558105,14.542635Q8.806116984558106,14.470361,8.798886984558106,14.397026Q8.791666984558105,14.3236903,8.791666984558105,14.25Q8.791666984558105,14.1763097,8.798886984558106,14.102974Q8.806116984558106,14.029639,8.820486984558105,13.957365Q8.834866984558106,13.88509,8.856256984558105,13.814573Q8.877646984558105,13.744056,8.905846984558105,13.675975Q8.934046984558105,13.607894,8.968786984558106,13.542905Q9.003526984558105,13.477916,9.044466984558106,13.416645Q9.085406984558105,13.355373,9.132146984558105,13.29841Q9.178896984558106,13.24145,9.231006984558105,13.18934Q9.283116984558106,13.13723,9.340076984558106,13.09048Q9.397039984558106,13.04374,9.458311984558106,13.0028Q9.519582984558106,12.96186,9.584571984558105,12.92712Q9.649560984558105,12.89238,9.717641984558105,12.86418Q9.785722984558106,12.83598,9.856239984558105,12.814589999999999Q9.926756984558105,12.7932,9.999031984558105,12.77882Q10.071305984558105,12.76445,10.144640984558105,12.75722Q10.217976684558105,12.75,10.291666984558105,12.75Q10.365357284558106,12.75,10.438692984558106,12.75722Q10.512027984558106,12.76445,10.584301984558106,12.77882Q10.656576984558106,12.7932,10.727093984558106,12.814589999999999Q10.797610984558105,12.83598,10.865691984558106,12.86418Q10.933772984558106,12.89238,10.998761984558106,12.92712Q11.063750984558105,12.96186,11.125021984558105,13.0028Q11.186293984558105,13.04374,11.243256984558105,13.09048Q11.300216984558105,13.13723,11.352326984558106,13.18934Q11.404436984558105,13.24145,11.451186984558106,13.29841Q11.497926984558106,13.355373,11.538866984558105,13.416645Q11.579806984558106,13.477916,11.614546984558105,13.542905Q11.649286984558106,13.607894,11.677486984558106,13.675975Q11.705686984558106,13.744056,11.727076984558106,13.814573Q11.748466984558105,13.88509,11.762846984558106,13.957365Q11.777216984558105,14.029639,11.784446984558105,14.102974Q11.791666984558105,14.1763097,11.791666984558105,14.25Z" fill="#2E2E2E" fill-opacity="1"/></g><g><path d="M19.791666984558105,23.66666603088379L10.291666984558105,23.66666603088379Q10.217976684558105,23.66666603088379,10.144640984558105,23.65944603088379Q10.071305984558105,23.65221603088379,9.999031984558105,23.63784603088379Q9.926756984558105,23.62346603088379,9.856239984558105,23.60207603088379Q9.785722984558106,23.58068603088379,9.717641984558105,23.552486030883788Q9.649560984558105,23.52428603088379,9.584571984558105,23.48954603088379Q9.519582984558106,23.454806030883788,9.458311984558106,23.41386603088379Q9.397039984558106,23.37292603088379,9.340076984558106,23.32618603088379Q9.283116984558106,23.27943603088379,9.231006984558105,23.227326030883788Q9.178896984558106,23.17521603088379,9.132146984558105,23.11825603088379Q9.085406984558105,23.06129303088379,9.044466984558106,23.00002103088379Q9.003526984558105,22.93875003088379,8.968786984558106,22.873761030883788Q8.934046984558105,22.808772030883787,8.905846984558105,22.740691030883788Q8.877646984558105,22.67261003088379,8.856256984558105,22.60209303088379Q8.834866984558106,22.531576030883787,8.820486984558105,22.45930103088379Q8.806116984558106,22.38702703088379,8.798886984558106,22.31369203088379Q8.791666984558105,22.240356330883788,8.791666984558105,22.16666603088379Q8.791666984558105,22.09297573088379,8.798886984558106,22.01964003088379Q8.806116984558106,21.94630503088379,8.820486984558105,21.87403103088379Q8.834866984558106,21.80175603088379,8.856256984558105,21.73123903088379Q8.877646984558105,21.66072203088379,8.905846984558105,21.59264103088379Q8.934046984558105,21.52456003088379,8.968786984558106,21.45957103088379Q9.003526984558105,21.39458203088379,9.044466984558106,21.333311030883788Q9.085406984558105,21.27203903088379,9.132146984558105,21.21507603088379Q9.178896984558106,21.15811603088379,9.231006984558105,21.10600603088379Q9.283116984558106,21.053896030883788,9.340076984558106,21.00714603088379Q9.397039984558106,20.96040603088379,9.458311984558106,20.91946603088379Q9.519582984558106,20.87852603088379,9.584571984558105,20.843786030883788Q9.649560984558105,20.80904603088379,9.717641984558105,20.78084603088379Q9.785722984558106,20.75264603088379,9.856239984558105,20.731256030883788Q9.926756984558105,20.709866030883788,9.999031984558105,20.69548603088379Q10.071305984558105,20.68111603088379,10.144640984558105,20.67388603088379Q10.217976684558105,20.66666603088379,10.291666984558105,20.66666603088379L19.791666984558105,20.66666603088379Q19.865356984558105,20.66666603088379,19.938696984558106,20.67388603088379Q20.012026984558105,20.68111603088379,20.084296984558108,20.69548603088379Q20.156576984558107,20.709866030883788,20.227096984558106,20.731256030883788Q20.297566984558106,20.75264603088379,20.365666984558104,20.78084603088379Q20.433766984558105,20.80904603088379,20.498766984558106,20.843786030883788Q20.563766984558107,20.87852603088379,20.625066984558103,20.91946603088379Q20.686266984558106,20.96040603088379,20.743266984558105,21.00714603088379Q20.800266984558107,21.053896030883788,20.852366984558106,21.10600603088379Q20.904466984558105,21.15811603088379,20.951166984558107,21.21507603088379Q20.997966984558104,21.27203903088379,21.038866984558105,21.333311030883788Q21.079766984558105,21.39458203088379,21.114566984558106,21.45957103088379Q21.149266984558103,21.52456003088379,21.177466984558105,21.59264103088379Q21.205666984558107,21.66072203088379,21.227066984558107,21.73123903088379Q21.248466984558107,21.80175603088379,21.262866984558105,21.87403103088379Q21.277266984558104,21.94630503088379,21.284466984558108,22.01964003088379Q21.291666984558105,22.09297573088379,21.291666984558105,22.16666603088379Q21.291666984558105,22.240356330883788,21.284466984558108,22.31369203088379Q21.277266984558104,22.38702703088379,21.262866984558105,22.45930103088379Q21.248466984558107,22.531576030883787,21.227066984558107,22.60209303088379Q21.205666984558107,22.67261003088379,21.177466984558105,22.740691030883788Q21.149266984558103,22.808772030883787,21.114566984558106,22.873761030883788Q21.079766984558105,22.93875003088379,21.038866984558105,23.00002103088379Q20.997966984558104,23.06129303088379,20.951166984558107,23.11825603088379Q20.904466984558105,23.17521603088379,20.852366984558106,23.227326030883788Q20.800266984558107,23.27943603088379,20.743266984558105,23.32618603088379Q20.686266984558106,23.37292603088379,20.625066984558103,23.41386603088379Q20.563766984558107,23.454806030883788,20.498766984558106,23.48954603088379Q20.433766984558105,23.52428603088379,20.365666984558104,23.552486030883788Q20.297566984558106,23.58068603088379,20.227096984558106,23.60207603088379Q20.156576984558107,23.62346603088379,20.084296984558108,23.63784603088379Q20.012026984558105,23.65221603088379,19.938696984558106,23.65944603088379Q19.865356984558105,23.66666603088379,19.791666984558105,23.66666603088379ZM21.291666984558105,22.16666603088379Q21.291666984558105,22.240356330883788,21.284466984558108,22.31369203088379Q21.277266984558104,22.38702703088379,21.262866984558105,22.45930103088379Q21.248466984558107,22.531576030883787,21.227066984558107,22.60209303088379Q21.205666984558107,22.67261003088379,21.177466984558105,22.740691030883788Q21.149266984558103,22.808772030883787,21.114566984558106,22.873761030883788Q21.079766984558105,22.93875003088379,21.038866984558105,23.00002103088379Q20.997966984558104,23.06129303088379,20.951166984558107,23.11825603088379Q20.904466984558105,23.17521603088379,20.852366984558106,23.227326030883788Q20.800266984558107,23.27943603088379,20.743266984558105,23.32618603088379Q20.686266984558106,23.37292603088379,20.625066984558103,23.41386603088379Q20.563766984558107,23.454806030883788,20.498766984558106,23.48954603088379Q20.433766984558105,23.52428603088379,20.365666984558104,23.552486030883788Q20.297566984558106,23.58068603088379,20.227096984558106,23.60207603088379Q20.156576984558107,23.62346603088379,20.084296984558108,23.63784603088379Q20.012026984558105,23.65221603088379,19.938696984558106,23.65944603088379Q19.865356984558105,23.66666603088379,19.791666984558105,23.66666603088379Q19.717976984558106,23.66666603088379,19.644636984558105,23.65944603088379Q19.571306984558106,23.65221603088379,19.499026984558107,23.63784603088379Q19.426756984558104,23.62346603088379,19.356236984558105,23.60207603088379Q19.285716984558107,23.58068603088379,19.217636984558105,23.552486030883788Q19.149556984558103,23.52428603088379,19.084566984558105,23.48954603088379Q19.019576984558107,23.454806030883788,18.958306984558106,23.41386603088379Q18.897036984558106,23.37292603088379,18.840076984558106,23.32618603088379Q18.783116984558106,23.27943603088379,18.731006984558107,23.227326030883788Q18.678896984558108,23.17521603088379,18.632146984558105,23.11825603088379Q18.585406984558105,23.06129303088379,18.544456984558103,23.00002103088379Q18.503516984558104,22.93875003088379,18.468786984558108,22.873761030883788Q18.434046984558105,22.808772030883787,18.405846984558103,22.740691030883788Q18.377646984558105,22.67261003088379,18.356256984558108,22.60209303088379Q18.334866984558104,22.531576030883787,18.320486984558105,22.45930103088379Q18.306116984558106,22.38702703088379,18.298886984558106,22.31369203088379Q18.291666984558105,22.240356330883788,18.291666984558105,22.16666603088379Q18.291666984558105,22.09297573088379,18.298886984558106,22.01964003088379Q18.306116984558106,21.94630503088379,18.320486984558105,21.87403103088379Q18.334866984558104,21.80175603088379,18.356256984558108,21.73123903088379Q18.377646984558105,21.66072203088379,18.405846984558103,21.59264103088379Q18.434046984558105,21.52456003088379,18.468786984558108,21.45957103088379Q18.503516984558104,21.39458203088379,18.544456984558103,21.333311030883788Q18.585406984558105,21.27203903088379,18.632146984558105,21.21507603088379Q18.678896984558108,21.15811603088379,18.731006984558107,21.10600603088379Q18.783116984558106,21.053896030883788,18.840076984558106,21.00714603088379Q18.897036984558106,20.96040603088379,18.958306984558106,20.91946603088379Q19.019576984558107,20.87852603088379,19.084566984558105,20.843786030883788Q19.149556984558103,20.80904603088379,19.217636984558105,20.78084603088379Q19.285716984558107,20.75264603088379,19.356236984558105,20.731256030883788Q19.426756984558104,20.709866030883788,19.499026984558107,20.69548603088379Q19.571306984558106,20.68111603088379,19.644636984558105,20.67388603088379Q19.717976984558106,20.66666603088379,19.791666984558105,20.66666603088379Q19.865356984558105,20.66666603088379,19.938696984558106,20.67388603088379Q20.012026984558105,20.68111603088379,20.084296984558108,20.69548603088379Q20.156576984558107,20.709866030883788,20.227096984558106,20.731256030883788Q20.297566984558106,20.75264603088379,20.365666984558104,20.78084603088379Q20.433766984558105,20.80904603088379,20.498766984558106,20.843786030883788Q20.563766984558107,20.87852603088379,20.625066984558103,20.91946603088379Q20.686266984558106,20.96040603088379,20.743266984558105,21.00714603088379Q20.800266984558107,21.053896030883788,20.852366984558106,21.10600603088379Q20.904466984558105,21.15811603088379,20.951166984558107,21.21507603088379Q20.997966984558104,21.27203903088379,21.038866984558105,21.333311030883788Q21.079766984558105,21.39458203088379,21.114566984558106,21.45957103088379Q21.149266984558103,21.52456003088379,21.177466984558105,21.59264103088379Q21.205666984558107,21.66072203088379,21.227066984558107,21.73123903088379Q21.248466984558107,21.80175603088379,21.262866984558105,21.87403103088379Q21.277266984558104,21.94630503088379,21.284466984558108,22.01964003088379Q21.291666984558105,22.09297573088379,21.291666984558105,22.16666603088379ZM11.791666984558105,22.16666603088379Q11.791666984558105,22.240356330883788,11.784446984558105,22.31369203088379Q11.777216984558105,22.38702703088379,11.762846984558106,22.45930103088379Q11.748466984558105,22.531576030883787,11.727076984558106,22.60209303088379Q11.705686984558106,22.67261003088379,11.677486984558106,22.740691030883788Q11.649286984558106,22.808772030883787,11.614546984558105,22.873761030883788Q11.579806984558106,22.93875003088379,11.538866984558105,23.00002103088379Q11.497926984558106,23.06129303088379,11.451186984558106,23.11825603088379Q11.404436984558105,23.17521603088379,11.352326984558106,23.227326030883788Q11.300216984558105,23.27943603088379,11.243256984558105,23.32618603088379Q11.186293984558105,23.37292603088379,11.125021984558105,23.41386603088379Q11.063750984558105,23.454806030883788,10.998761984558106,23.48954603088379Q10.933772984558106,23.52428603088379,10.865691984558106,23.552486030883788Q10.797610984558105,23.58068603088379,10.727093984558106,23.60207603088379Q10.656576984558106,23.62346603088379,10.584301984558106,23.63784603088379Q10.512027984558106,23.65221603088379,10.438692984558106,23.65944603088379Q10.365357284558106,23.66666603088379,10.291666984558105,23.66666603088379Q10.217976684558105,23.66666603088379,10.144640984558105,23.65944603088379Q10.071305984558105,23.65221603088379,9.999031984558105,23.63784603088379Q9.926756984558105,23.62346603088379,9.856239984558105,23.60207603088379Q9.785722984558106,23.58068603088379,9.717641984558105,23.552486030883788Q9.649560984558105,23.52428603088379,9.584571984558105,23.48954603088379Q9.519582984558106,23.454806030883788,9.458311984558106,23.41386603088379Q9.397039984558106,23.37292603088379,9.340076984558106,23.32618603088379Q9.283116984558106,23.27943603088379,9.231006984558105,23.227326030883788Q9.178896984558106,23.17521603088379,9.132146984558105,23.11825603088379Q9.085406984558105,23.06129303088379,9.044466984558106,23.00002103088379Q9.003526984558105,22.93875003088379,8.968786984558106,22.873761030883788Q8.934046984558105,22.808772030883787,8.905846984558105,22.740691030883788Q8.877646984558105,22.67261003088379,8.856256984558105,22.60209303088379Q8.834866984558106,22.531576030883787,8.820486984558105,22.45930103088379Q8.806116984558106,22.38702703088379,8.798886984558106,22.31369203088379Q8.791666984558105,22.240356330883788,8.791666984558105,22.16666603088379Q8.791666984558105,22.09297573088379,8.798886984558106,22.01964003088379Q8.806116984558106,21.94630503088379,8.820486984558105,21.87403103088379Q8.834866984558106,21.80175603088379,8.856256984558105,21.73123903088379Q8.877646984558105,21.66072203088379,8.905846984558105,21.59264103088379Q8.934046984558105,21.52456003088379,8.968786984558106,21.45957103088379Q9.003526984558105,21.39458203088379,9.044466984558106,21.333311030883788Q9.085406984558105,21.27203903088379,9.132146984558105,21.21507603088379Q9.178896984558106,21.15811603088379,9.231006984558105,21.10600603088379Q9.283116984558106,21.053896030883788,9.340076984558106,21.00714603088379Q9.397039984558106,20.96040603088379,9.458311984558106,20.91946603088379Q9.519582984558106,20.87852603088379,9.584571984558105,20.843786030883788Q9.649560984558105,20.80904603088379,9.717641984558105,20.78084603088379Q9.785722984558106,20.75264603088379,9.856239984558105,20.731256030883788Q9.926756984558105,20.709866030883788,9.999031984558105,20.69548603088379Q10.071305984558105,20.68111603088379,10.144640984558105,20.67388603088379Q10.217976684558105,20.66666603088379,10.291666984558105,20.66666603088379Q10.365357284558106,20.66666603088379,10.438692984558106,20.67388603088379Q10.512027984558106,20.68111603088379,10.584301984558106,20.69548603088379Q10.656576984558106,20.709866030883788,10.727093984558106,20.731256030883788Q10.797610984558105,20.75264603088379,10.865691984558106,20.78084603088379Q10.933772984558106,20.80904603088379,10.998761984558106,20.843786030883788Q11.063750984558105,20.87852603088379,11.125021984558105,20.91946603088379Q11.186293984558105,20.96040603088379,11.243256984558105,21.00714603088379Q11.300216984558105,21.053896030883788,11.352326984558106,21.10600603088379Q11.404436984558105,21.15811603088379,11.451186984558106,21.21507603088379Q11.497926984558106,21.27203903088379,11.538866984558105,21.333311030883788Q11.579806984558106,21.39458203088379,11.614546984558105,21.45957103088379Q11.649286984558106,21.52456003088379,11.677486984558106,21.59264103088379Q11.705686984558106,21.66072203088379,11.727076984558106,21.73123903088379Q11.748466984558105,21.80175603088379,11.762846984558106,21.87403103088379Q11.777216984558105,21.94630503088379,11.784446984558105,22.01964003088379Q11.791666984558105,22.09297573088379,11.791666984558105,22.16666603088379Z" fill="#2E2E2E" fill-opacity="1"/></g><g><path d="M21.901146787719725,13.186015814056397L31.396956787719727,3.6901258140563966Q31.449066787719726,3.6380158140563967,31.506026787719726,3.5912658140563964Q31.562986787719726,3.544515814056396,31.624256787719727,3.503575814056396Q31.685526787719727,3.462635814056396,31.750516787719725,3.4278958140563964Q31.815506787719727,3.3931558140563967,31.88358678771973,3.3649558140563967Q31.951666787719727,3.3367558140563967,32.022186787719725,3.3153658140563964Q32.09270678771973,3.293975814056396,32.16497678771972,3.2795958140563966Q32.23725678771973,3.2652258140563966,32.31058678771973,3.2579958140563967Q32.38392678771973,3.2507758140563965,32.45761678771973,3.2507758140563965Q32.53130678771973,3.2507758140563965,32.60463678771973,3.2579958140563967Q32.67797678771973,3.2652158140563965,32.750246787719725,3.2795958140563966Q32.822526787719724,3.293975814056396,32.893046787719726,3.3153658140563964Q32.963516787719726,3.3367558140563967,33.03161678771973,3.3649558140563967Q33.09971678771973,3.3931558140563967,33.164716787719726,3.4278858140563964Q33.229716787719724,3.4626258140563966,33.29101678771973,3.5035658140563966Q33.352216787719726,3.5445058140563965,33.40921678771973,3.5912558140563964Q33.46621678771973,3.6380058140563962,33.518316787719726,3.6901058140563965Q33.57041678771972,3.7422158140563964,33.61711678771972,3.7991798140563966Q33.66391678771973,3.8561438140563964,33.70481678771973,3.9174148140563965Q33.74571678771973,3.9786858140563965,33.780516787719726,4.043673814056397Q33.81521678771973,4.108662814056396,33.843416787719725,4.176743814056397Q33.87161678771973,4.244824814056397,33.89301678771973,4.315341814056397Q33.91441678771973,4.385858814056396,33.928816787719725,4.4581328140563965Q33.94321678771973,4.530407814056397,33.950416787719725,4.603742814056396Q33.95761678771973,4.6770782140563965,33.95761678771973,4.750768481786396Q33.95761678771973,4.824458714056396,33.950416787719725,4.897793814056397Q33.94321678771973,4.971129814056397,33.928816787719725,5.043403814056396Q33.91441678771973,5.1156788140563965,33.89301678771973,5.186195814056396Q33.87161678771973,5.256712814056397,33.843416787719725,5.324793814056396Q33.81521678771973,5.3928748140563965,33.780516787719726,5.457864814056396Q33.745816787719725,5.522853814056397,33.70481678771973,5.584124814056397Q33.66391678771973,5.645396814056396,33.61711678771972,5.702359814056397Q33.57041678771972,5.759325814056396,33.518316787719726,5.811425814056396L24.02248678771973,15.307375814056396Q23.970376787719726,15.359475814056397,23.913412787719725,15.406175814056397Q23.856448787719728,15.452975814056396,23.795177787719727,15.493875814056397Q23.733906787719725,15.534775814056397,23.668918787719726,15.569575814056396Q23.603929787719725,15.604275814056397,23.535848787719726,15.632475814056397Q23.467767787719726,15.660675814056397,23.397250787719727,15.682075814056397Q23.326733787719725,15.703475814056397,23.254459787719725,15.717875814056397Q23.182184787719727,15.732275814056397,23.108849787719727,15.739475814056396Q23.035514387719726,15.746675814056397,22.961824119989725,15.746675814056397Q22.888133887719725,15.746675814056397,22.814798787719727,15.739475814056396Q22.741462787719726,15.732275814056397,22.669188787719726,15.717875814056397Q22.59691378771973,15.703475814056397,22.526396787719726,15.682075814056397Q22.455879787719727,15.660675814056397,22.387798787719728,15.632475814056397Q22.319717787719725,15.604275814056397,22.254727787719727,15.569575814056396Q22.189738787719726,15.534775814056397,22.128467787719728,15.493875814056397Q22.067195787719726,15.452975814056396,22.010232787719726,15.406175814056397Q21.953266787719727,15.359475814056397,21.901166787719728,15.307375814056396Q21.849056787719725,15.255275814056397,21.802306787719726,15.198275814056396Q21.755556787719726,15.141275814056396,21.714616787719727,15.080075814056396Q21.673676787719728,15.018775814056397,21.638936787719725,14.953775814056396Q21.604196787719726,14.888775814056396,21.575996787719728,14.820675814056397Q21.547796787719726,14.752575814056396,21.526406787719726,14.682105814056397Q21.505016787719725,14.611595814056397,21.490636787719726,14.539315814056396Q21.476266787719727,14.467045814056396,21.469036787719727,14.393705814056396Q21.461816787719727,14.320375814056396,21.461816787719727,14.246685814056397Q21.461816787719727,14.172995814056396,21.469036787719727,14.099655814056396Q21.476256787719727,14.026325814056397,21.490636787719726,13.954045814056396Q21.505016787719725,13.881775814056397,21.526406787719726,13.811255814056397Q21.547796787719726,13.740735814056396,21.575996787719728,13.672655814056396Q21.604196787719726,13.604575814056396,21.638926787719726,13.539585814056396Q21.673666787719725,13.474595814056396,21.714606787719728,13.413325814056396Q21.755546787719727,13.352055814056396,21.802296787719726,13.295085814056396Q21.849046787719725,13.238125814056396,21.901146787719725,13.186015814056397ZM24.461816787719727,14.246675814056397Q24.461816787719727,14.320365814056396,24.454596787719726,14.393695814056397Q24.447366787719726,14.467035814056397,24.432996787719727,14.539305814056396Q24.418616787719728,14.611585814056397,24.397226787719728,14.682105814056397Q24.375836787719727,14.752575814056396,24.347636787719726,14.820675814056397Q24.319436787719727,14.888775814056396,24.284696787719728,14.953775814056396Q24.249956787719725,15.018775814056397,24.209016787719726,15.080075814056396Q24.168076787719727,15.141275814056396,24.121336787719727,15.198275814056396Q24.074586787719728,15.255275814056397,24.022476787719725,15.307375814056396Q23.970366787719726,15.359475814056397,23.913406787719726,15.406175814056397Q23.856443787719726,15.452975814056396,23.795171787719728,15.493875814056397Q23.733900787719726,15.534775814056397,23.668911787719725,15.569575814056396Q23.603922787719725,15.604275814056397,23.535841787719725,15.632475814056397Q23.467760787719726,15.660675814056397,23.397243787719727,15.682075814056397Q23.326726787719725,15.703475814056397,23.254451787719727,15.717875814056397Q23.182177787719727,15.732275814056397,23.108842787719727,15.739475814056396Q23.035507087719726,15.746675814056397,22.961816787719727,15.746675814056397Q22.888126487719727,15.746675814056397,22.814790787719726,15.739475814056396Q22.741455787719726,15.732275814056397,22.669181787719726,15.717875814056397Q22.59690678771973,15.703475814056397,22.526389787719726,15.682075814056397Q22.455872787719727,15.660675814056397,22.387791787719728,15.632475814056397Q22.31971078771973,15.604275814056397,22.254721787719728,15.569575814056396Q22.189732787719727,15.534775814056397,22.128461787719726,15.493875814056397Q22.067189787719727,15.452975814056396,22.010226787719727,15.406175814056397Q21.953266787719727,15.359475814056397,21.901156787719728,15.307375814056396Q21.849046787719725,15.255275814056397,21.802296787719726,15.198275814056396Q21.755556787719726,15.141275814056396,21.714616787719727,15.080075814056396Q21.673676787719728,15.018775814056397,21.638936787719725,14.953775814056396Q21.604196787719726,14.888775814056396,21.575996787719728,14.820675814056397Q21.547796787719726,14.752575814056396,21.526406787719726,14.682105814056397Q21.505016787719725,14.611585814056397,21.490636787719726,14.539305814056396Q21.476266787719727,14.467035814056397,21.469036787719727,14.393695814056397Q21.461816787719727,14.320365814056396,21.461816787719727,14.246675814056397Q21.461816787719727,14.172985814056396,21.469036787719727,14.099645814056396Q21.476266787719727,14.026315814056396,21.490636787719726,13.954035814056397Q21.505016787719725,13.881765814056397,21.526406787719726,13.811245814056397Q21.547796787719726,13.740725814056397,21.575996787719728,13.672645814056397Q21.604196787719726,13.604565814056397,21.638936787719725,13.539575814056397Q21.673676787719728,13.474585814056397,21.714616787719727,13.413315814056396Q21.755556787719726,13.352045814056396,21.802296787719726,13.295085814056396Q21.849046787719725,13.238125814056396,21.901156787719728,13.186015814056397Q21.953266787719727,13.133905814056396,22.010226787719727,13.087155814056397Q22.067189787719727,13.040405814056397,22.128461787719726,12.999475814056396Q22.189732787719727,12.958535814056397,22.254721787719728,12.923795814056396Q22.31971078771973,12.889055814056396,22.387791787719728,12.860855814056396Q22.455872787719727,12.832655814056396,22.526389787719726,12.811265814056396Q22.59690678771973,12.789875814056396,22.669181787719726,12.775495814056397Q22.741455787719726,12.761125814056397,22.814790787719726,12.753895814056396Q22.888126487719727,12.746675814056395,22.961816787719727,12.746675814056395Q23.035507087719726,12.746675814056395,23.108842787719727,12.753895814056396Q23.182177787719727,12.761125814056397,23.254451787719727,12.775495814056397Q23.326726787719725,12.789875814056396,23.397243787719727,12.811265814056396Q23.467760787719726,12.832655814056396,23.535841787719725,12.860855814056396Q23.603922787719725,12.889055814056396,23.668911787719725,12.923795814056396Q23.733900787719726,12.958535814056397,23.795171787719728,12.999465814056396Q23.856443787719726,13.040405814056397,23.913406787719726,13.087155814056397Q23.970366787719726,13.133905814056396,24.022476787719725,13.186015814056397Q24.074586787719728,13.238125814056396,24.121336787719727,13.295085814056396Q24.168076787719727,13.352045814056396,24.209016787719726,13.413315814056396Q24.249956787719725,13.474585814056397,24.284696787719728,13.539575814056397Q24.319436787719727,13.604565814056397,24.347636787719726,13.672645814056397Q24.375836787719727,13.740725814056397,24.397226787719728,13.811245814056397Q24.418616787719728,13.881765814056397,24.432996787719727,13.954035814056397Q24.447366787719726,14.026315814056396,24.454596787719726,14.099645814056396Q24.461816787719727,14.172985814056396,24.461816787719727,14.246675814056397ZM33.95761678771973,4.7507758140563965Q33.95761678771973,4.8244661140563965,33.950416787719725,4.897801814056397Q33.94321678771973,4.971136814056396,33.928816787719725,5.043410814056396Q33.91441678771973,5.1156858140563966,33.89301678771973,5.186202814056396Q33.87161678771973,5.256719814056396,33.843416787719725,5.324800814056396Q33.81521678771973,5.3928818140563965,33.780516787719726,5.457870814056396Q33.745816787719725,5.522859814056396,33.70481678771973,5.5841308140563966Q33.66391678771973,5.645402814056396,33.61711678771972,5.702365814056397Q33.57041678771972,5.759325814056396,33.518316787719726,5.811435814056397Q33.46621678771973,5.863545814056397,33.40921678771973,5.910295814056397Q33.352216787719726,5.957035814056397,33.29101678771973,5.997975814056397Q33.229716787719724,6.038915814056397,33.164716787719726,6.073655814056396Q33.09971678771973,6.108395814056396,33.03161678771973,6.136595814056396Q32.963516787719726,6.164795814056396,32.893046787719726,6.186185814056397Q32.822526787719724,6.207575814056397,32.75025678771973,6.221955814056397Q32.677986787719725,6.236325814056396,32.60464678771973,6.243555814056396Q32.531316787719724,6.2507758140563965,32.457626787719725,6.2507758140563965Q32.383936787719726,6.2507758140563965,32.310596787719724,6.243555814056396Q32.23725678771973,6.236325814056396,32.16498678771973,6.221955814056397Q32.09271678771972,6.207575814056397,32.02219678771973,6.186185814056397Q31.951676787719727,6.164795814056396,31.883596787719725,6.136595814056396Q31.815516787719726,6.108395814056396,31.75052678771973,6.073655814056396Q31.685536787719727,6.038915814056397,31.624266787719726,5.997975814056397Q31.562996787719726,5.957035814056397,31.506036787719726,5.910295814056397Q31.449066787719726,5.863545814056397,31.396956787719727,5.811435814056397Q31.344856787719728,5.759325814056396,31.298106787719725,5.702365814056397Q31.25135678771973,5.645402814056396,31.210416787719726,5.5841308140563966Q31.169476787719727,5.522859814056396,31.134736787719724,5.457870814056396Q31.100006787719728,5.3928818140563965,31.071806787719726,5.324800814056396Q31.043606787719725,5.256719814056396,31.022216787719728,5.186202814056396Q31.000826787719724,5.1156858140563966,30.98644678771973,5.043410814056396Q30.972066787719726,4.971136814056396,30.96484678771973,4.897801814056397Q30.957626787719725,4.8244661140563965,30.957626787719725,4.7507758140563965Q30.957626787719725,4.6770855140563965,30.96484678771973,4.603749814056396Q30.972066787719726,4.530414814056397,30.98644678771973,4.458140814056397Q31.000816787719728,4.385865814056396,31.022216787719728,4.315348814056397Q31.043606787719725,4.244831814056397,31.071806787719726,4.176750814056397Q31.100006787719728,4.108669814056396,31.134736787719724,4.043680814056397Q31.169476787719727,3.9786918140563965,31.210416787719726,3.9174208140563964Q31.25135678771973,3.8561488140563966,31.298106787719725,3.7991858140563965Q31.344856787719728,3.7422258140563964,31.396956787719727,3.6901158140563965Q31.449066787719726,3.6380058140563962,31.506036787719726,3.5912558140563964Q31.562996787719726,3.544515814056396,31.624266787719726,3.503575814056396Q31.685536787719727,3.462635814056396,31.75052678771973,3.4278958140563964Q31.815516787719726,3.3931558140563967,31.883596787719725,3.3649558140563967Q31.951676787719727,3.3367558140563967,32.02219678771973,3.3153658140563964Q32.09271678771972,3.293975814056396,32.16498678771973,3.2795958140563966Q32.23725678771973,3.2652258140563966,32.310596787719724,3.2579958140563967Q32.383936787719726,3.2507758140563965,32.457626787719725,3.2507758140563965Q32.531316787719724,3.2507758140563965,32.60464678771973,3.2579958140563967Q32.677986787719725,3.2652258140563966,32.75025678771973,3.2795958140563966Q32.822526787719724,3.293975814056396,32.893046787719726,3.3153658140563964Q32.963516787719726,3.3367558140563967,33.03161678771973,3.3649558140563967Q33.09971678771973,3.3931558140563967,33.164716787719726,3.4278958140563964Q33.229716787719724,3.462635814056396,33.29101678771973,3.503575814056396Q33.352216787719726,3.544515814056396,33.40921678771973,3.5912558140563964Q33.46621678771973,3.6380058140563962,33.518316787719726,3.6901158140563965Q33.57041678771972,3.7422258140563964,33.61711678771972,3.7991858140563965Q33.66391678771973,3.8561488140563966,33.70481678771973,3.9174208140563964Q33.745816787719725,3.9786918140563965,33.780516787719726,4.043680814056397Q33.81521678771973,4.108669814056396,33.843416787719725,4.176750814056397Q33.87161678771973,4.244831814056397,33.89301678771973,4.315348814056397Q33.91441678771973,4.385865814056396,33.928816787719725,4.458140814056397Q33.94321678771973,4.530414814056397,33.950416787719725,4.603749814056396Q33.95761678771973,4.6770855140563965,33.95761678771973,4.7507758140563965Z" fill="#2E2E2E" fill-opacity="1"/></g></g></svg>