<svg xmlns="http://www.w3.org/2000/svg" xmlns:xlink="http://www.w3.org/1999/xlink" fill="none" version="1.1" width="38" height="38" viewBox="0 0 38 38"><defs><clipPath id="master_svg0_2438_4974"><rect x="0" y="0" width="38" height="38" rx="0"/></clipPath></defs><g clip-path="url(#master_svg0_2438_4974)"><g><path d="M31.6666078125,29.833251953125L6.3330078125,29.833251953125Q6.2675053125,29.833251953125,6.2023178125,29.826851953125Q6.1371308125,29.820451953125,6.0728878125,29.807651953125Q6.0086438125,29.794851953125,5.9459618125,29.775851953125Q5.8832798125,29.756851953125,5.8227638125,29.731751953125Q5.7622468125,29.706651953125,5.7044788125,29.675851953125Q5.6467108125,29.644951953125,5.5922478125,29.608551953125Q5.5377838125,29.572151953125,5.4871498125,29.530551953125Q5.4365158125,29.489051953125,5.3901988124999995,29.442751953125Q5.3438818125,29.396451953125,5.3023278125,29.345751953125Q5.2607778125,29.295151953125,5.2243778125,29.240651953125Q5.1879878125,29.186251953125,5.1571178125,29.128451953125Q5.1262378125,29.070651953125,5.1011678125,29.010151953125Q5.0760978125000005,28.949651953125,5.0570878125,28.886951953125Q5.0380778125,28.824251953125,5.0252978125,28.760051953125Q5.0125178125000005,28.695751953125,5.0060978125,28.630651953125Q4.9996778125,28.565451953125,4.9996778125,28.499951953125Q4.9996778125,28.499551953125,4.9996778125,28.499151953125L5.0033278125,22.199551953125Q5.0047578125,21.319151953125,5.6265448125,20.697751953125Q6.2483315125,20.076251953125,7.1273338125,20.075351953125L15.0467478125,20.075351953125L15.0469578125,20.075351953125Q14.8383078125,20.075351953125,14.6201578125,20.254551953125Q14.4310078125,20.409851953125,14.3911178125,20.564051953125Q14.4392878125,20.377951953125,14.4392678125,19.245251953125Q14.4392678125,19.245251953125,14.4392678125,19.220951953125002Q14.4392678125,19.285951953125,14.4527378125,19.319451953125Q14.4345278125,19.274151953125,14.3701078125,19.182451953125Q14.2281278125,18.980251953125,13.7129378125,18.424451953125Q12.3220678125,16.923951953125,11.684767812499999,15.730551953125Q10.5588378125,13.621971953125,10.5588378125,10.966721953124999Q10.5588378125,6.602481953125,13.5158378125,4.367749953125Q15.8219578125,2.624921953125,19.2530078125,2.624921953125Q22.6491078125,2.624921953125,24.8350078125,4.395380953125Q27.5661078125,6.607581953125,27.5661078125,10.966721953124999Q27.5661078125,13.523541953125,26.5199078125,15.499151953125Q25.9207078125,16.630551953125,24.5774078125,18.069051953124998Q23.7061078125,19.002051953124997,23.7061078125,19.220951953125002Q23.7061078125,20.587351953125,23.7411078125,20.723451953125Q23.6573078125,20.398251953125,23.3047078125,20.192851953125Q23.1531078125,20.104451953125,23.0008078125,20.079651953125L22.9907078125,20.075351953125L30.5243078125,20.075351953125L30.8749078125,20.075351953125Q31.7551078125,20.075351953125,32.3775078125,20.697751953125Q32.9999078125,21.320151953125,32.9999078125,22.200351953125L32.9999078125,28.499951953125Q32.9999078125,28.565451953125,32.9935078125,28.630651953125Q32.9871078125,28.695751953125,32.9743078125,28.760051953125Q32.9615078125,28.824251953125,32.9425078125,28.886951953125Q32.9235078125,28.949651953125,32.8984078125,29.010151953125Q32.8733078125,29.070651953125,32.8425078125,29.128451953125Q32.8116078125,29.186251953125,32.7752078125,29.240651953125Q32.7388078125,29.295151953125,32.6973078125,29.345751953125Q32.6557078125,29.396451953125,32.609407812499995,29.442751953125Q32.5631078125,29.489051953125,32.5124078125,29.530551953125Q32.4618078125,29.572151953125,32.4073078125,29.608551953125Q32.3529078125,29.644951953125,32.2951078125,29.675851953125Q32.2373078125,29.706651953125,32.1768078125,29.731751953125Q32.1163078125,29.756851953125,32.053607812500005,29.775851953125Q31.9909078125,29.794851953125,31.9267078125,29.807651953125Q31.8624078125,29.820451953125,31.7973078125,29.826851953125Q31.7321078125,29.833251953125,31.6666078125,29.833251953125ZM31.6666078125,27.166551953125L31.6666078125,28.499951953125L30.3332078125,28.499951953125L30.3332078125,22.200351953125Q30.3332078125,22.424751953125,30.4919078125,22.583351953125Q30.6505078125,22.741951953125,30.8749078125,22.741951953125L30.5243078125,22.741951953125L22.9907078125,22.741951953125Q21.507507812500002,22.741951953125,21.1588078125,21.388851953125Q21.039407812500002,20.925451953125,21.039407812500002,19.220951953125002Q21.039407812500002,18.313751953125,21.624807812500002,17.441751953125Q21.9066078125,17.021951953125,22.6285078125,16.248951953125Q23.7300078125,15.069451953125,24.1633078125,14.251251953125Q24.8995078125,12.861031953125,24.8995078125,10.966721953124999Q24.8995078125,7.879321953125,23.1565078125,6.467571953125001Q21.7047078125,5.291581953125,19.2530078125,5.291581953125Q16.7163078125,5.291581953125,15.1236478125,6.495201953125Q13.2255078125,7.929711953125,13.2255078125,10.966721953124999Q13.2255078125,12.954581953125,14.0370678125,14.474451953125Q14.5120378125,15.363851953125,15.6686278125,16.611651953124998Q16.306697812499998,17.299951953125,16.5525078125,17.650051953125Q17.1059078125,18.438251953125,17.1059078125,19.220951953125002Q17.1059078125,19.245251953125,17.1059078125,19.245251953125Q17.1059078125,20.717351953125,16.972707812499998,21.232151953125Q16.7949078125,21.919051953125,16.3128178125,22.315051953125Q15.7931478125,22.741951953125,15.0469578125,22.741951953125L15.0467478125,22.741951953125L7.1302318125,22.741951953125Q7.3536778125,22.741751953125,7.5116478125,22.583851953125Q7.6696278125,22.425951953125,7.6699878125000005,22.201051953125L7.6663378125,28.500651953125L6.3330078125,28.499951953125L6.3330078125,27.166551953125L31.6666078125,27.166551953125Z" fill="#2E2E2E" fill-opacity="1"/></g><g><path d="M31.6663078125,34.58333L6.3330078125,34.58333Q6.2675053125,34.58333,6.2023178125,34.57691Q6.1371308125,34.57049,6.0728878125,34.55771Q6.0086438125,34.54493,5.9459618125,34.52592Q5.8832798125,34.50691,5.8227638125,34.48184Q5.7622468125,34.45677,5.7044788125,34.42589Q5.6467108125,34.39502,5.5922478125,34.35863Q5.5377838125,34.32223,5.4871498125,34.28068Q5.4365158125,34.239126,5.3901988124999995,34.192809Q5.3438818125,34.146492,5.3023278125,34.095858Q5.2607778125,34.045224,5.2243778125,33.99076Q5.1879878125,33.936297,5.1571178125,33.878529Q5.1262378125,33.820761,5.1011678125,33.760244Q5.0760978125000005,33.699728,5.0570878125,33.637046Q5.0380778125,33.574364,5.0252978125,33.51012Q5.0125178125000005,33.445877,5.0060978125,33.38069Q4.9996778125,33.3155025,4.9996778125,33.25Q4.9996778125,33.1844975,5.0060978125,33.11931Q5.0125178125000005,33.054123,5.0252978125,32.98988Q5.0380778125,32.925636,5.0570878125,32.862954Q5.0760978125000005,32.800272,5.1011678125,32.739756Q5.1262378125,32.679239,5.1571178125,32.621471Q5.1879878125,32.563703,5.2243778125,32.50924Q5.2607778125,32.454776,5.3023278125,32.404142Q5.3438818125,32.353508,5.3901988124999995,32.307191Q5.4365158125,32.260874,5.4871498125,32.21932Q5.5377838125,32.17777,5.5922478125,32.14137Q5.6467108125,32.10498,5.7044788125,32.07411Q5.7622468125,32.04323,5.8227638125,32.01816Q5.8832798125,31.99309,5.9459618125,31.97408Q6.0086438125,31.95507,6.0728878125,31.94229Q6.1371308125,31.92951,6.2023178125,31.92309Q6.2675053125,31.91667,6.3330078125,31.91667L31.6663078125,31.91667Q31.7318078125,31.91667,31.7970078125,31.92309Q31.8622078125,31.92951,31.9265078125,31.94229Q31.9907078125,31.95507,32.0534078125,31.97408Q32.116107812500005,31.99309,32.176607812499995,32.01816Q32.2371078125,32.04323,32.2949078125,32.07411Q32.3526078125,32.10498,32.4071078125,32.14137Q32.4616078125,32.17777,32.5122078125,32.21932Q32.5628078125,32.260874,32.6091078125,32.307191Q32.655507812500005,32.353508,32.697007812500004,32.404142Q32.7386078125,32.454776,32.7750078125,32.50924Q32.811307812500004,32.563703,32.8422078125,32.621471Q32.873107812499995,32.679239,32.898207812500004,32.739756Q32.923207812499996,32.800272,32.942307812500005,32.862954Q32.961307812499996,32.925636,32.9740078125,32.98988Q32.986807812500004,33.054123,32.9932078125,33.11931Q32.9997078125,33.1844975,32.9997078125,33.25Q32.9997078125,33.3155025,32.9932078125,33.38069Q32.986807812500004,33.445877,32.9740078125,33.51012Q32.961307812499996,33.574364,32.942307812500005,33.637046Q32.923207812499996,33.699728,32.898207812500004,33.760244Q32.873107812499995,33.820761,32.8422078125,33.878529Q32.811307812500004,33.936297,32.7750078125,33.99076Q32.7386078125,34.045224,32.697007812500004,34.095858Q32.655507812500005,34.146492,32.6091078125,34.192809Q32.5628078125,34.239126,32.5122078125,34.28068Q32.4616078125,34.32223,32.4071078125,34.35863Q32.3526078125,34.39502,32.2949078125,34.42589Q32.2371078125,34.45677,32.176607812499995,34.48184Q32.116107812500005,34.50691,32.0534078125,34.52592Q31.9907078125,34.54493,31.9265078125,34.55771Q31.8622078125,34.57049,31.7970078125,34.57691Q31.7318078125,34.58333,31.6663078125,34.58333ZM33.0013078125,33.25Q33.0013078125,33.3155843,32.9949078125,33.380853Q32.9885078125,33.446121,32.975707812500005,33.510446Q32.9629078125,33.57477,32.9438078125,33.63753Q32.9248078125,33.70029,32.8997078125,33.760882Q32.8746078125,33.821474,32.8437078125,33.879315Q32.8128078125,33.937155,32.7763078125,33.991686Q32.7399078125,34.046218,32.698307812500005,34.096915Q32.6567078125,34.147612,32.6103078125,34.193988Q32.5639078125,34.240363,32.5132078125,34.28197Q32.4625078125,34.32358,32.4080078125,34.36001Q32.3535078125,34.39645,32.295607812499995,34.42736Q32.2378078125,34.45828,32.1772078125,34.48338Q32.1166078125,34.50848,32.0539078125,34.52752Q31.9911078125,34.54655,31.9268078125,34.55935Q31.8625078125,34.57214,31.7972078125,34.57857Q31.7319078125,34.585,31.6663078125,34.585Q31.6007078125,34.585,31.5355078125,34.57857Q31.4702078125,34.57214,31.4059078125,34.55935Q31.3416078125,34.54655,31.2788078125,34.52752Q31.2160078125,34.50848,31.1554078125,34.48338Q31.0949078125,34.45828,31.0370078125,34.42736Q30.9792078125,34.39645,30.9246078125,34.36001Q30.8701078125,34.32358,30.8194078125,34.28197Q30.7687078125,34.240363,30.7223078125,34.193988Q30.6760078125,34.147612,30.6344078125,34.096915Q30.5928078125,34.046218,30.5563078125,33.991686Q30.5199078125,33.937155,30.4890078125,33.879315Q30.4581078125,33.821474,30.4330078125,33.760882Q30.4079078125,33.70029,30.3888078125,33.63753Q30.3698078125,33.57477,30.3570078125,33.510446Q30.3442078125,33.446121,30.3378078125,33.380853Q30.3313078125,33.3155843,30.3313078125,33.25Q30.3313078125,33.1844157,30.3378078125,33.119147Q30.3442078125,33.053879,30.3570078125,32.989554Q30.3698078125,32.92523,30.3888078125,32.86247Q30.4079078125,32.79971,30.4330078125,32.739118Q30.4580078125,32.678526,30.4890078125,32.620685Q30.5199078125,32.562845,30.5563078125,32.508314Q30.5928078125,32.453782,30.6344078125,32.403085Q30.6760078125,32.352388,30.7223078125,32.306012Q30.7687078125,32.259637,30.8194078125,32.21803Q30.8701078125,32.17642,30.9246078125,32.13999Q30.9792078125,32.10355,31.0370078125,32.07264Q31.0949078125,32.04172,31.1554078125,32.01662Q31.2160078125,31.99152,31.2788078125,31.97248Q31.3416078125,31.95345,31.4059078125,31.94065Q31.4702078125,31.92786,31.5355078125,31.92143Q31.6007078125,31.915,31.6663078125,31.915Q31.7319078125,31.915,31.7972078125,31.92143Q31.8625078125,31.92786,31.9268078125,31.94065Q31.9911078125,31.95345,32.0539078125,31.97248Q32.1166078125,31.99152,32.1772078125,32.01662Q32.2378078125,32.04172,32.295607812499995,32.07264Q32.3535078125,32.10355,32.4080078125,32.13999Q32.4625078125,32.17642,32.5132078125,32.21803Q32.5639078125,32.259637,32.6103078125,32.306012Q32.6567078125,32.352388,32.698307812500005,32.403085Q32.7399078125,32.453782,32.7763078125,32.508314Q32.8128078125,32.562845,32.8437078125,32.620685Q32.8746078125,32.678526,32.8997078125,32.739118Q32.9248078125,32.79971,32.9438078125,32.86247Q32.9629078125,32.92523,32.975707812500005,32.989554Q32.9885078125,33.053879,32.9949078125,33.119147Q33.0013078125,33.1844157,33.0013078125,33.25ZM7.6680078125,33.25Q7.6680078125,33.3155843,7.6615778125,33.380853Q7.6551478125,33.446121,7.6423578125,33.510446Q7.6295578125,33.57477,7.6105278125,33.63753Q7.5914878125000005,33.70029,7.5663878125,33.760882Q7.5412878125,33.821474,7.5103678125,33.879315Q7.4794578125,33.937155,7.4430178125,33.991686Q7.4065878125,34.046218,7.3649778125,34.096915Q7.3233708125,34.147612,7.2769958125,34.193988Q7.2306198125,34.240363,7.1799228125,34.28197Q7.1292258125,34.32358,7.0746938125,34.36001Q7.0201628125,34.39645,6.9623228125,34.42736Q6.9044818125,34.45828,6.8438898125,34.48338Q6.7832978125,34.50848,6.7205378125,34.52752Q6.6577778125,34.54655,6.5934538125,34.55935Q6.5291288125,34.57214,6.4638608125,34.57857Q6.3985921125,34.585,6.3330078125,34.585Q6.2674235125,34.585,6.2021548125,34.57857Q6.1368868125,34.57214,6.0725618125,34.55935Q6.0082378125,34.54655,5.9454778125,34.52752Q5.8827178125,34.50848,5.8221258125,34.48338Q5.7615338125,34.45828,5.7036928125,34.42736Q5.6458528125,34.39645,5.5913218125,34.36001Q5.5367898125,34.32358,5.4860928125,34.28197Q5.4353958125,34.240363,5.3890198125,34.193988Q5.3426448125,34.147612,5.3010378125,34.096915Q5.2594278125,34.046218,5.2229978125,33.991686Q5.1865578125,33.937155,5.1556478125,33.879315Q5.1247278125,33.821474,5.0996278125,33.760882Q5.0745278124999995,33.70029,5.0554878125,33.63753Q5.0364578125,33.57477,5.0236578125,33.510446Q5.0108678125,33.446121,5.0044378125,33.380853Q4.9980078125,33.3155843,4.9980078125,33.25Q4.9980078125,33.1844157,5.0044378125,33.119147Q5.0108678125,33.053879,5.0236578125,32.989554Q5.0364578125,32.92523,5.0554878125,32.86247Q5.0745278124999995,32.79971,5.0996278125,32.739118Q5.1247278125,32.678526,5.1556478125,32.620685Q5.1865578125,32.562845,5.2229978125,32.508314Q5.2594278125,32.453782,5.3010378125,32.403085Q5.3426448125,32.352388,5.3890198125,32.306012Q5.4353958125,32.259637,5.4860928125,32.21803Q5.5367898125,32.17642,5.5913218125,32.13999Q5.6458528125,32.10355,5.7036928125,32.07264Q5.7615338125,32.04172,5.8221258125,32.01662Q5.8827178125,31.99152,5.9454778125,31.97248Q6.0082378125,31.95345,6.0725618125,31.94065Q6.1368868125,31.92786,6.2021548125,31.92143Q6.2674235125,31.915,6.3330078125,31.915Q6.3985921125,31.915,6.4638608125,31.92143Q6.5291288125,31.92786,6.5934538125,31.94065Q6.6577778125,31.95345,6.7205378125,31.97248Q6.7832978125,31.99152,6.8438898125,32.01662Q6.9044818125,32.04172,6.9623228125,32.07264Q7.0201628125,32.10355,7.0746938125,32.13999Q7.1292258125,32.17642,7.1799228125,32.21803Q7.2306198125,32.259637,7.2769958125,32.306012Q7.3233708125,32.352388,7.3649778125,32.403085Q7.4065878125,32.453782,7.4430178125,32.508314Q7.4794578125,32.562845,7.5103678125,32.620685Q7.5412878125,32.678526,7.5663878125,32.739118Q7.5914878125000005,32.79971,7.6105278125,32.86247Q7.6295578125,32.92523,7.6423578125,32.989554Q7.6551478125,33.053879,7.6615778125,33.119147Q7.6680078125,33.1844157,7.6680078125,33.25Z" fill="#2E2E2E" fill-opacity="1"/></g></g></svg>