<svg xmlns="http://www.w3.org/2000/svg" xmlns:xlink="http://www.w3.org/1999/xlink" fill="none" version="1.1" width="38" height="38" viewBox="0 0 38 38"><defs><clipPath id="master_svg0_2438_4940"><rect x="0" y="0" width="38" height="38" rx="0"/></clipPath></defs><g clip-path="url(#master_svg0_2438_4940)"><g><path d="M14.33333,6.33333Q14.33333,6.29881,14.30893,6.2744Q14.28453,6.25,14.25,6.25L6.33333,6.25Q6.25,6.25,6.25,6.33333L6.25,14.25Q6.25,14.33333,6.33333,14.33333L14.25,14.33333Q14.28454,14.33333,14.30893,14.30893Q14.33333,14.28454,14.33333,14.25L14.33333,6.33333ZM17.3333,6.33333L17.3333,14.25Q17.3333,15.5272,16.430300000000003,16.430300000000003Q15.5272,17.3333,14.25,17.3333L6.33333,17.3333Q5.056175,17.3333,4.153093,16.430300000000003Q3.25,15.5272,3.25,14.25L3.25,6.33333Q3.25,5.056175,4.153087,4.153087Q5.056174,3.25,6.33333,3.25L14.25,3.25Q15.5272,3.25,16.430300000000003,4.153093Q17.3333,5.056175,17.3333,6.33333Z" fill="#2E2E2E" fill-opacity="1"/></g><g><path d="M14.33333,23.74999603088379Q14.33333,23.66666603088379,14.25,23.66666603088379L6.33333,23.66666603088379Q6.25,23.66666603088379,6.25,23.74999603088379L6.25,31.66666603088379Q6.25,31.74999603088379,6.33333,31.74999603088379L14.25,31.74999603088379Q14.33333,31.74999603088379,14.33333,31.66666603088379L14.33333,23.74999603088379ZM17.3333,23.74999603088379L17.3333,31.66666603088379Q17.3333,32.94386603088379,16.430300000000003,33.84696603088379Q15.5272,34.74996603088379,14.25,34.74996603088379L6.33333,34.74996603088379Q5.056175,34.74996603088379,4.153093,33.84696603088379Q3.25,32.94386603088379,3.25,31.66666603088379L3.25,23.74999603088379Q3.25,22.472823030883788,4.153093,21.569739030883788Q5.056175,20.66666603088379,6.33333,20.66666603088379L14.25,20.66666603088379Q15.5272,20.66666603088379,16.430300000000003,21.569745030883787Q17.3333,22.472823030883788,17.3333,23.74999603088379Z" fill="#2E2E2E" fill-opacity="1"/></g><g><path d="M31.74999603088379,6.33333Q31.74999603088379,6.25,31.66666603088379,6.25L23.74999603088379,6.25Q23.66666603088379,6.25,23.66666603088379,6.33333L23.66666603088379,14.25Q23.66666603088379,14.33333,23.74999603088379,14.33333L31.66666603088379,14.33333Q31.74999603088379,14.33333,31.74999603088379,14.25L31.74999603088379,6.33333ZM34.74996603088379,6.33333L34.74996603088379,14.25Q34.74996603088379,15.5272,33.84696603088379,16.430300000000003Q32.94386603088379,17.3333,31.66666603088379,17.3333L23.74999603088379,17.3333Q22.472823030883788,17.3333,21.569745030883787,16.430300000000003Q20.66666603088379,15.5272,20.66666603088379,14.25L20.66666603088379,6.33333Q20.66666603088379,5.056175,21.569739030883788,4.153093Q22.472823030883788,3.25,23.74999603088379,3.25L31.66666603088379,3.25Q32.94386603088379,3.25,33.84696603088379,4.153093Q34.74996603088379,5.056175,34.74996603088379,6.33333Z" fill="#2E2E2E" fill-opacity="1"/></g><g><path d="M31.74999603088379,23.74999603088379Q31.74999603088379,23.66666603088379,31.66666603088379,23.66666603088379L23.74999603088379,23.66666603088379Q23.66666603088379,23.66666603088379,23.66666603088379,23.74999603088379L23.66666603088379,31.66666603088379Q23.66666603088379,31.74999603088379,23.74999603088379,31.74999603088379L31.66666603088379,31.74999603088379Q31.74999603088379,31.74999603088379,31.74999603088379,31.66666603088379L31.74999603088379,23.74999603088379ZM34.74996603088379,23.74999603088379L34.74996603088379,31.66666603088379Q34.74996603088379,32.94386603088379,33.84696603088379,33.84696603088379Q32.94386603088379,34.74996603088379,31.66666603088379,34.74996603088379L23.74999603088379,34.74996603088379Q22.47282203088379,34.74996603088379,21.569745030883787,33.84696603088379Q20.66666603088379,32.94386603088379,20.66666603088379,31.66666603088379L20.66666603088379,23.74999603088379Q20.66666603088379,22.472823030883788,21.569745030883787,21.569745030883787Q22.472823030883788,20.66666603088379,23.74999603088379,20.66666603088379L31.66666603088379,20.66666603088379Q32.94386603088379,20.66666603088379,33.84696603088379,21.569745030883787Q34.74996603088379,22.47282203088379,34.74996603088379,23.74999603088379Z" fill="#2E2E2E" fill-opacity="1"/></g></g></svg>