<svg xmlns="http://www.w3.org/2000/svg" xmlns:xlink="http://www.w3.org/1999/xlink" fill="none" version="1.1" width="38" height="38" viewBox="0 0 38 38"><defs><clipPath id="master_svg0_2438_4989"><rect x="0" y="0" width="38" height="38" rx="0"/></clipPath></defs><g clip-path="url(#master_svg0_2438_4989)"><g><path d="M31.1252921875,26.91630390625L31.1252921875,11.08293390625L32.4586921875,11.08293390625L31.7826921875,12.23218390625L18.3242921875,4.31575390625L19.0002921875,3.16650390625L19.6762921875,4.31575390625L6.2180041875,12.23218390625L5.5419921875,11.08293390625L6.8753221875,11.08293390625L6.8753221875,26.91630390625L5.5419921875,26.91630390625L6.2180291875,25.76710390625L19.6763921875,33.683903906249995L19.0002921875,34.83320390625L18.3242921875,33.683903906249995L31.7825921875,25.76710390625L32.4586921875,26.91630390625L31.1252921875,26.91630390625ZM33.7919921875,26.91630390625Q33.7919921875,27.09050390625,33.7472921875,27.25880390625Q33.7024921875,27.42710390625,33.6160921875,27.57830390625Q33.5295921875,27.72950390625,33.4071921875,27.85340390625Q33.2847921875,27.97730390625,33.1346921875,28.06560390625L19.6763921875,35.98240390625Q19.5226921875,36.07280390625,19.3506921875,36.11970390625Q19.1785921875,36.16650390625,19.0002921875,36.16650390625Q18.8219921875,36.16650390625,18.6499921875,36.11970390625Q18.4779921875,36.07280390625,18.3242921875,35.98240390625L4.8659551875,28.06560390625Q4.7158431875,27.97730390625,4.5934491875,27.85340390625Q4.4710521875,27.72950390625,4.3845921875,27.57830390625Q4.2981221875,27.42710390625,4.2533921875,27.25880390625Q4.2086621875,27.09050390625,4.2086621875,26.91630390625L4.2086621875,11.08293390625Q4.2086621875,10.908773906250001,4.2533921875,10.74045390625Q4.2981321875,10.57213390625,4.3846021875000005,10.42095390625Q4.4710621875,10.26977390625,4.5934641875,10.14587390625Q4.7158641875,10.02197390625,4.8659801875,9.93367390625L18.3242921875,2.0172539062499997Q18.4779921875,1.92685390625,18.6499921875,1.88001390625Q18.8219921875,1.83317390625,19.0002921875,1.83317390625Q19.1785921875,1.83317390625,19.3505921875,1.88001390625Q19.5226921875,1.92685390625,19.6762921875,2.0172539062499997L33.1346921875,9.93367390625Q33.2847921875,10.02197390625,33.4071921875,10.14587390625Q33.5295921875,10.26977390625,33.6160921875,10.42095390625Q33.7024921875,10.57213390625,33.7472921875,10.74045390625Q33.7919921875,10.908773906250001,33.7919921875,11.08293390625L33.7919921875,26.91630390625Z" fill="#2E2E2E" fill-opacity="1"/></g><g><path d="M26.0365921875,16.170364921875L19.7017521875,20.130764921875Q19.6226221875,20.180224921875002,19.5373821875,20.218194921875Q19.4521421875,20.256154921875,19.3624421875,20.281874921875Q19.2727421875,20.307594921875,19.1803321875,20.320564921875Q19.0879321875,20.333544921875,18.9946121875,20.333514921875Q18.9013021875,20.333494921875,18.8089021875,20.320474921875Q18.716502187499998,20.307454921875,18.6268121875,20.281694921875Q18.5371221875,20.255934921875,18.4519021875,20.217924921875Q18.3666821875,20.179924921875,18.2875821875,20.130414921875L11.9596301875,16.170024921875Q11.9041061875,16.135274921875,11.852255187499999,16.095244921875Q11.8004041875,16.055224921875,11.7527251875,16.010306921875Q11.7050471875,15.965391921875,11.6620021875,15.916019921875Q11.6189521875,15.866647921875,11.5809521875,15.813294921875Q11.5429521875,15.759940921875,11.5103721875,15.703119921875Q11.4777821875,15.646298921875,11.4509221875,15.586556921875Q11.4240621875,15.526814921875,11.4031821875,15.464727921875Q11.3823121875,15.402640921875,11.3676221875,15.338806921875Q11.3529321875,15.274972921875,11.3445721875,15.210006921875Q11.3362021875,15.145039921875,11.3342521875,15.079566721875Q11.3323021875,15.014093321875,11.3367721875,14.948743821875Q11.3412421875,14.883393921875,11.3521021875,14.818797921875Q11.362962187499999,14.754200921875,11.3800921875,14.690979921875Q11.3972321875,14.627758921875,11.4204821875,14.566521921875Q11.4437321875,14.505284921874999,11.4728721875,14.446620921875Q11.5020121875,14.387957921875,11.536762187499999,14.332432921875Q11.5715121875,14.276908921875,11.6115421875,14.225057921874999Q11.6515621875,14.173206921875,11.6964801875,14.125527921875Q11.7413951875,14.077849921875,11.7907671875,14.034804921875Q11.8401391875,13.991754921875,11.8934921875,13.953754921875Q11.9468461875,13.915754921875,12.0036671875,13.883174921875Q12.0604881875,13.850584921875,12.1202301875,13.823724921875Q12.1799721875,13.796864921875,12.2420591875,13.775984921875Q12.3041461875,13.755114921875,12.3679801875,13.740424921875Q12.4318141875,13.725734921875,12.4967801875,13.717374921875Q12.5617471875,13.709004921875,12.6272203875,13.707054921875Q12.6926937875,13.705104921875,12.7580432875,13.709574921875Q12.8233931875,13.714044921875,12.8879891875,13.724904921875Q12.9525861875,13.735764921874999,13.0158071875,13.752894921875Q13.0790281875,13.770034921875,13.1402651875,13.793284921875Q13.201502187500001,13.816534921875,13.2601661875,13.845674921875Q13.3188291875,13.874814921875,13.3743541875,13.909564921874999L19.7023021875,17.869954921875L18.9949421875,19.000184921875L18.2881321875,17.869614921874998L24.6229921875,13.909224921875Q24.678492187499998,13.874494921875,24.7371921875,13.845384921875Q24.7958921875,13.816274921875,24.8570921875,13.793054921875001Q24.9183921875,13.769834921875,24.9815921875,13.752724921875Q25.0447921875,13.735624921875,25.1093921875,13.724794921875Q25.173992187499998,13.713974921875,25.239392187500002,13.709524921875Q25.304692187500002,13.705084921875,25.370192187500002,13.707074921875Q25.435692187500003,13.709064921875001,25.5005921875,13.717454921875Q25.565592187500002,13.725844921875,25.629392187500002,13.740564921875Q25.6932921875,13.755284921874999,25.7552921875,13.776194921875Q25.817392187499998,13.797104921875,25.8770921875,13.823994921875Q25.9368921875,13.850884921875,25.993692187500002,13.883494921875Q26.050492187499998,13.916114921875,26.103792187499998,13.954134921875Q26.1571921875,13.992164921875,26.2064921875,14.035234921875Q26.255892187500002,14.078302921875,26.300692187499997,14.126002921875Q26.3455921875,14.173703921875,26.385592187500002,14.225573921875Q26.4255921875,14.277444921875,26.4603921875,14.332985921875Q26.4950921875,14.388527921875,26.5241921875,14.447205921875Q26.5532921875,14.505882921875,26.5764921875,14.567131921875Q26.5996921875,14.628379921875,26.6168921875,14.691609921875Q26.6339921875,14.754838921875,26.644792187500002,14.819440921875Q26.655592187499998,14.884042921875,26.6600921875,14.949394621875Q26.664492187500002,15.014746321875,26.6624921875,15.080218721875Q26.660492187499997,15.145690921875,26.6520921875,15.210653921875Q26.6436921875,15.275615921875,26.6289921875,15.339442921875Q26.6142921875,15.403269921875,26.5933921875,15.465345921875Q26.5724921875,15.527422921875,26.5455921875,15.587151921875Q26.5186921875,15.646879921875,26.4860921875,15.703685921875Q26.4534921875,15.760490921875,26.4153921875,15.813825921875Q26.3773921875,15.867160921875,26.334292187499997,15.916511921875Q26.291292187499998,15.965862921875,26.2435921875,16.010754921875Q26.1958921875,16.055644921875,26.1439921875,16.095644921875Q26.0920921875,16.135644921875,26.0365921875,16.170364921875ZM26.664792187499998,15.039794921875Q26.664792187499998,15.105379221875,26.6583921875,15.170647921875Q26.6518921875,15.235915921875,26.639092187499998,15.300240921875Q26.6262921875,15.364564921875001,26.6072921875,15.427324921875Q26.588292187500002,15.490084921875,26.5631921875,15.550676921875Q26.5380921875,15.611268921875,26.5071921875,15.669109921875Q26.4761921875,15.726949921875,26.4397921875,15.781480921875Q26.4033921875,15.836012921875,26.3617921875,15.886709921875Q26.3201921875,15.937406921875,26.2737921875,15.983782921875001Q26.2273921875,16.030157921875,26.176692187500002,16.071764921875Q26.1259921875,16.113374921875,26.0714921875,16.149804921875Q26.016892187499998,16.186244921875,25.959092187499998,16.217154921875Q25.901292187499998,16.248074921875,25.8406921875,16.273174921875Q25.7800921875,16.298274921875,25.7172921875,16.317314921875Q25.6545921875,16.336344921875,25.5901921875,16.349144921875Q25.5258921875,16.361934921875,25.460592187499998,16.368364921875Q25.3953921875,16.374794921875,25.3297921875,16.374794921875Q25.2641921875,16.374794921875,25.1988921875,16.368364921875Q25.1336921875,16.361934921875,25.0692921875,16.349144921875Q25.0049921875,16.336344921875,24.9422921875,16.317314921875Q24.8794921875,16.298274921875,24.818892187499998,16.273174921875Q24.7582921875,16.248074921875,24.7004921875,16.217154921875Q24.6425921875,16.186244921875,24.5880921875,16.149804921875Q24.5335921875,16.113374921875,24.4828921875,16.071764921875Q24.4321921875,16.030157921875,24.3857921875,15.983782921875001Q24.3393921875,15.937406921875,24.2977921875,15.886709921875Q24.256192187499998,15.836012921875,24.219792187499998,15.781480921875Q24.1832921875,15.726949921875,24.1523921875,15.669109921875Q24.1214921875,15.611268921875,24.0963921875,15.550676921875Q24.0712921875,15.490084921875,24.0522921875,15.427324921875Q24.0331921875,15.364564921875001,24.0203921875,15.300240921875Q24.007592187500002,15.235915921875,24.0011921875,15.170647921875Q23.9947921875,15.105379221875,23.9947921875,15.039794921875Q23.9947921875,14.974210621875,24.0011921875,14.908941921875Q24.007592187500002,14.843673921875,24.0203921875,14.779348921875Q24.0331921875,14.715024921874999,24.0522921875,14.652264921875Q24.0712921875,14.589504921875,24.0963921875,14.528912921875Q24.1214921875,14.468320921875,24.1523921875,14.410479921875Q24.1832921875,14.352639921875,24.219792187499998,14.298108921875Q24.256192187499998,14.243576921875,24.2977921875,14.192879921875Q24.3393921875,14.142182921875,24.3857921875,14.095806921874999Q24.4321921875,14.049431921875,24.4828921875,14.007824921875Q24.5335921875,13.966214921875,24.5880921875,13.929784921875001Q24.6425921875,13.893344921875,24.7004921875,13.862434921875Q24.7582921875,13.831514921875,24.818892187499998,13.806414921875Q24.8794921875,13.781314921875,24.9422921875,13.762274921875001Q25.0049921875,13.743244921875,25.0692921875,13.730444921875Q25.1336921875,13.717654921874999,25.1988921875,13.711224921875Q25.2641921875,13.704794921875,25.3297921875,13.704794921875Q25.3953921875,13.704794921875,25.460592187499998,13.711224921875Q25.5258921875,13.717654921874999,25.5901921875,13.730444921875Q25.6545921875,13.743244921875,25.7172921875,13.762274921875001Q25.7800921875,13.781314921875,25.8406921875,13.806414921875Q25.901292187499998,13.831514921875,25.959092187499998,13.862434921875Q26.016892187499998,13.893344921875,26.0714921875,13.929784921875001Q26.1259921875,13.966214921875,26.176692187500002,14.007824921875Q26.2273921875,14.049431921875,26.2737921875,14.095806921874999Q26.3201921875,14.142182921875,26.3617921875,14.192879921875Q26.4033921875,14.243576921875,26.4397921875,14.298108921875Q26.4761921875,14.352639921875,26.5071921875,14.410479921875Q26.5380921875,14.468320921875,26.5631921875,14.528912921875Q26.588292187500002,14.589504921875,26.6072921875,14.652264921875Q26.6262921875,14.715024921874999,26.639092187499998,14.779348921875Q26.6518921875,14.843673921875,26.6583921875,14.908941921875Q26.664792187499998,14.974210621875,26.664792187499998,15.039794921875ZM14.0019921875,15.039794921875Q14.0019921875,15.105379221875,13.9955621875,15.170647921875Q13.989132187500001,15.235915921875,13.9763421875,15.300240921875Q13.9635421875,15.364564921875001,13.944512187499999,15.427324921875Q13.9254721875,15.490084921875,13.9003721875,15.550676921875Q13.8752721875,15.611268921875,13.8443521875,15.669109921875Q13.8134421875,15.726949921875,13.777002187499999,15.781480921875Q13.7405721875,15.836012921875,13.6989621875,15.886709921875Q13.6573551875,15.937406921875,13.610980187500001,15.983782921875001Q13.5646041875,16.030157921875,13.5139071875,16.071764921875Q13.4632101875,16.113374921875,13.4086781875,16.149804921875Q13.3541471875,16.186244921875,13.2963071875,16.217154921875Q13.2384661875,16.248074921875,13.1778741875,16.273174921875Q13.1172821875,16.298274921875,13.0545221875,16.317314921875Q12.991762187500001,16.336344921875,12.9274381875,16.349144921875Q12.8631131875,16.361934921875,12.7978451875,16.368364921875Q12.7325764875,16.374794921875,12.6669921875,16.374794921875Q12.6014078875,16.374794921875,12.5361391875,16.368364921875Q12.4708711875,16.361934921875,12.4065461875,16.349144921875Q12.342222187499999,16.336344921875,12.2794621875,16.317314921875Q12.2167021875,16.298274921875,12.1561101875,16.273174921875Q12.0955181875,16.248074921875,12.0376771875,16.217154921875Q11.9798371875,16.186244921875,11.9253061875,16.149804921875Q11.8707741875,16.113374921875,11.8200771875,16.071764921875Q11.7693801875,16.030157921875,11.723004187499999,15.983782921875001Q11.6766291875,15.937406921875,11.6350221875,15.886709921875Q11.5934121875,15.836012921875,11.556982187500001,15.781480921875Q11.5205421875,15.726949921875,11.4896321875,15.669109921875Q11.4587121875,15.611268921875,11.4336121875,15.550676921875Q11.4085121875,15.490084921875,11.389472187500001,15.427324921875Q11.3704421875,15.364564921875001,11.3576421875,15.300240921875Q11.344852187499999,15.235915921875,11.3384221875,15.170647921875Q11.3319921875,15.105379221875,11.3319921875,15.039794921875Q11.3319921875,14.974210621875,11.3384221875,14.908941921875Q11.344852187499999,14.843673921875,11.3576421875,14.779348921875Q11.3704421875,14.715024921874999,11.389472187500001,14.652264921875Q11.4085121875,14.589504921875,11.4336121875,14.528912921875Q11.4587121875,14.468320921875,11.4896321875,14.410479921875Q11.5205421875,14.352639921875,11.556982187500001,14.298108921875Q11.5934121875,14.243576921875,11.6350221875,14.192879921875Q11.6766291875,14.142182921875,11.723004187499999,14.095806921874999Q11.7693801875,14.049431921875,11.8200771875,14.007824921875Q11.8707741875,13.966214921875,11.9253061875,13.929784921875001Q11.9798371875,13.893344921875,12.0376771875,13.862434921875Q12.0955181875,13.831514921875,12.1561101875,13.806414921875Q12.2167021875,13.781314921875,12.2794621875,13.762274921875001Q12.342222187499999,13.743244921875,12.4065461875,13.730444921875Q12.4708711875,13.717654921874999,12.5361391875,13.711224921875Q12.6014078875,13.704794921875,12.6669921875,13.704794921875Q12.7325764875,13.704794921875,12.7978451875,13.711224921875Q12.8631131875,13.717654921874999,12.9274381875,13.730444921875Q12.991762187500001,13.743244921875,13.0545221875,13.762274921875001Q13.1172821875,13.781314921875,13.1778741875,13.806414921875Q13.2384661875,13.831514921875,13.2963071875,13.862434921875Q13.3541471875,13.893344921875,13.4086781875,13.929784921875001Q13.4632101875,13.966214921875,13.5139071875,14.007824921875Q13.5646041875,14.049431921875,13.610980187500001,14.095806921874999Q13.6573551875,14.142182921875,13.6989621875,14.192879921875Q13.7405721875,14.243576921875,13.777002187499999,14.298108921875Q13.8134421875,14.352639921875,13.8443521875,14.410479921875Q13.8752721875,14.468320921875,13.9003721875,14.528912921875Q13.9254721875,14.589504921875,13.944512187499999,14.652264921875Q13.9635421875,14.715024921874999,13.9763421875,14.779348921875Q13.989132187500001,14.843673921875,13.9955621875,14.908941921875Q14.0019921875,14.974210621875,14.0019921875,15.039794921875Z" fill="#2E2E2E" fill-opacity="1"/></g><g><path d="M17.66667,26.125L17.66667,19Q17.66667,18.9344975,17.67309,18.86931Q17.67951,18.804123,17.69229,18.73988Q17.70507,18.675636,17.72408,18.612954Q17.74309,18.550272,17.76816,18.489756Q17.79323,18.429239,17.82411,18.371471Q17.85498,18.313703,17.89137,18.25924Q17.92777,18.204776,17.96932,18.154142Q18.010874,18.103508,18.057191,18.057191Q18.103508,18.010874,18.154142,17.96932Q18.204776,17.92777,18.25924,17.89137Q18.313703,17.85498,18.371471,17.82411Q18.429239,17.79323,18.489756,17.76816Q18.550272,17.74309,18.612954,17.72408Q18.675636,17.70507,18.73988,17.69229Q18.804123,17.67951,18.86931,17.67309Q18.9344975,17.66667,19,17.66667Q19.0655025,17.66667,19.13069,17.67309Q19.195877,17.67951,19.26012,17.69229Q19.324364,17.70507,19.387046,17.72408Q19.449728,17.74309,19.510244,17.76816Q19.570761,17.79323,19.628529,17.82411Q19.686297,17.85498,19.74076,17.89137Q19.795224,17.92777,19.845858,17.96932Q19.896492,18.010874,19.942809,18.057191Q19.989126,18.103508,20.03068,18.154142Q20.07223,18.204776,20.10863,18.25924Q20.14502,18.313703,20.17589,18.371471Q20.20677,18.429239,20.23184,18.489756Q20.25691,18.550272,20.27592,18.612954Q20.29493,18.675636,20.30771,18.73988Q20.32049,18.804123,20.32691,18.86931Q20.33333,18.9344975,20.33333,19L20.33333,26.125Q20.33333,26.1905,20.32691,26.25569Q20.32049,26.32088,20.30771,26.38512Q20.29493,26.44936,20.27592,26.512050000000002Q20.25691,26.57473,20.23184,26.63524Q20.20677,26.69576,20.17589,26.753529999999998Q20.14502,26.8113,20.10863,26.86576Q20.07223,26.92022,20.03068,26.970860000000002Q19.989126,27.02149,19.942809,27.06781Q19.896492,27.11413,19.845858,27.15568Q19.795224,27.197229999999998,19.74076,27.233629999999998Q19.686297,27.270020000000002,19.628529,27.300890000000003Q19.570761,27.33177,19.510244,27.35684Q19.449728,27.3819,19.387046,27.40092Q19.324364,27.41993,19.26012,27.43271Q19.195877,27.44549,19.13069,27.451909999999998Q19.0655025,27.45833,19,27.45833Q18.9344975,27.45833,18.86931,27.451909999999998Q18.804123,27.44549,18.73988,27.43271Q18.675636,27.41993,18.612954,27.40092Q18.550272,27.3819,18.489756,27.35684Q18.429239,27.33177,18.371471,27.300890000000003Q18.313703,27.270020000000002,18.25924,27.233629999999998Q18.204776,27.197229999999998,18.154142,27.15568Q18.103508,27.11413,18.057191,27.06781Q18.010874,27.02149,17.96932,26.970860000000002Q17.92777,26.92022,17.89137,26.86576Q17.85498,26.8113,17.82411,26.753529999999998Q17.79323,26.69576,17.76816,26.63524Q17.74309,26.57473,17.72408,26.512050000000002Q17.70507,26.44936,17.69229,26.38512Q17.67951,26.32088,17.67309,26.25569Q17.66667,26.1905,17.66667,26.125ZM20.335,26.125Q20.335,26.19059,20.32857,26.25585Q20.32214,26.32112,20.30935,26.38545Q20.29655,26.44977,20.27752,26.512529999999998Q20.25848,26.57529,20.23338,26.63588Q20.20828,26.696469999999998,20.17736,26.75431Q20.14645,26.81215,20.11001,26.86669Q20.07358,26.921219999999998,20.03197,26.97191Q19.990363,27.02261,19.943988,27.06899Q19.897612,27.115360000000003,19.846915,27.15697Q19.796218,27.19858,19.741686,27.235010000000003Q19.687155,27.27145,19.629315,27.30237Q19.571474,27.333280000000002,19.510882,27.35838Q19.45029,27.38348,19.38753,27.40251Q19.32477,27.42155,19.260446,27.434350000000002Q19.196121,27.447139999999997,19.130853,27.45357Q19.0655843,27.46,19,27.46Q18.9344157,27.46,18.869147,27.45357Q18.803879,27.447139999999997,18.739554,27.434350000000002Q18.67523,27.42155,18.61247,27.40251Q18.54971,27.38348,18.489118,27.35838Q18.428526,27.333280000000002,18.370685,27.30236Q18.312845,27.27145,18.258314,27.235010000000003Q18.203782,27.19858,18.153085,27.15697Q18.102388,27.115360000000003,18.056012,27.06899Q18.009637,27.02261,17.96803,26.97191Q17.92642,26.921219999999998,17.88999,26.86669Q17.85355,26.81215,17.82264,26.75431Q17.79172,26.696469999999998,17.76662,26.63588Q17.74152,26.57529,17.72248,26.512529999999998Q17.70345,26.44977,17.69065,26.38544Q17.67786,26.32112,17.67143,26.25585Q17.665,26.19059,17.665,26.125Q17.665,26.05942,17.67143,25.99415Q17.67786,25.92888,17.69065,25.86455Q17.70345,25.80023,17.72248,25.737470000000002Q17.74152,25.67471,17.76662,25.61412Q17.79172,25.553530000000002,17.82264,25.49569Q17.85355,25.43784,17.88999,25.38331Q17.92642,25.328780000000002,17.96803,25.27808Q18.009637,25.22739,18.056012,25.18101Q18.102388,25.13464,18.153085,25.09303Q18.203782,25.05142,18.258314,25.01499Q18.312845,24.97855,18.370685,24.94763Q18.428526,24.916719999999998,18.489118,24.89162Q18.54971,24.86652,18.61247,24.84748Q18.67523,24.82845,18.739554,24.815649999999998Q18.803879,24.80286,18.869147,24.79643Q18.9344157,24.79,19,24.79Q19.0655843,24.79,19.130853,24.79643Q19.196121,24.80286,19.260446,24.815649999999998Q19.32477,24.82845,19.38753,24.84748Q19.45029,24.86652,19.510882,24.89162Q19.571474,24.916719999999998,19.629315,24.94763Q19.687155,24.97855,19.741686,25.01499Q19.796218,25.05142,19.846915,25.09303Q19.897612,25.13464,19.943988,25.18101Q19.990363,25.22739,20.03197,25.27808Q20.07358,25.328780000000002,20.11001,25.38331Q20.14645,25.43784,20.17736,25.49569Q20.20828,25.553530000000002,20.23338,25.61412Q20.25848,25.67471,20.27752,25.737470000000002Q20.29655,25.80023,20.30935,25.86455Q20.32214,25.92888,20.32857,25.99415Q20.335,26.05942,20.335,26.125ZM20.335,19Q20.335,19.0655843,20.32857,19.130853Q20.32214,19.196121,20.30935,19.260446Q20.29655,19.32477,20.27752,19.38753Q20.25848,19.45029,20.23338,19.510882Q20.20828,19.571474,20.17736,19.629315Q20.14645,19.687155,20.11001,19.741686Q20.07358,19.796218,20.03197,19.846915Q19.990363,19.897612,19.943988,19.943988Q19.897612,19.990363,19.846915,20.03197Q19.796218,20.07358,19.741686,20.11001Q19.687155,20.14645,19.629315,20.17736Q19.571474,20.20828,19.510882,20.23338Q19.45029,20.25848,19.38753,20.27752Q19.32477,20.29655,19.260446,20.30935Q19.196121,20.32214,19.130853,20.32857Q19.0655843,20.335,19,20.335Q18.9344157,20.335,18.869147,20.32857Q18.803879,20.32214,18.739554,20.30935Q18.67523,20.29655,18.61247,20.27752Q18.54971,20.25848,18.489118,20.23338Q18.428526,20.20828,18.370685,20.17736Q18.312845,20.14645,18.258314,20.11001Q18.203782,20.07358,18.153085,20.03197Q18.102388,19.990363,18.056012,19.943988Q18.009637,19.897612,17.96803,19.846915Q17.92642,19.796218,17.88999,19.741686Q17.85355,19.687155,17.82264,19.629315Q17.79172,19.571474,17.76662,19.510882Q17.74152,19.45029,17.72248,19.38753Q17.70345,19.32477,17.69065,19.260446Q17.67786,19.196121,17.67143,19.130853Q17.665,19.0655843,17.665,19Q17.665,18.9344157,17.67143,18.869147Q17.67786,18.803879,17.69065,18.739554Q17.70345,18.67523,17.72248,18.61247Q17.74152,18.54971,17.76662,18.489118Q17.79172,18.428526,17.82264,18.370685Q17.85355,18.312845,17.88999,18.258314Q17.92642,18.203782,17.96803,18.153085Q18.009637,18.102388,18.056012,18.056012Q18.102388,18.009637,18.153085,17.96803Q18.203782,17.92642,18.258314,17.88999Q18.312845,17.85355,18.370685,17.82264Q18.428526,17.79172,18.489118,17.76662Q18.54971,17.74152,18.61247,17.72248Q18.67523,17.70345,18.739554,17.69065Q18.803879,17.67786,18.869147,17.67143Q18.9344157,17.665,19,17.665Q19.0655843,17.665,19.130853,17.67143Q19.196121,17.67786,19.260446,17.69065Q19.32477,17.70345,19.38753,17.72248Q19.45029,17.74152,19.510882,17.76662Q19.571474,17.79172,19.629315,17.82264Q19.687155,17.85355,19.741686,17.88999Q19.796218,17.92642,19.846915,17.96803Q19.897612,18.009637,19.943988,18.056012Q19.990363,18.102388,20.03197,18.153085Q20.07358,18.203782,20.11001,18.258314Q20.14645,18.312845,20.17736,18.370685Q20.20828,18.428526,20.23338,18.489118Q20.25848,18.54971,20.27752,18.61247Q20.29655,18.67523,20.30935,18.739554Q20.32214,18.803879,20.32857,18.869147Q20.335,18.9344157,20.335,19Z" fill="#2E2E2E" fill-opacity="1"/></g></g></svg>