<svg xmlns="http://www.w3.org/2000/svg" xmlns:xlink="http://www.w3.org/1999/xlink" fill="none" version="1.1" width="38" height="38" viewBox="0 0 38 38"><defs><clipPath id="master_svg0_2438_4937"><rect x="0" y="0" width="38" height="38" rx="0"/></clipPath></defs><g clip-path="url(#master_svg0_2438_4937)"><g><path d="M19.0002921875,32.3750357421875Q17.9257921875,32.3750357421875,17.0665921875,33.012535742187495Q16.2216921875,33.6394357421875,15.9037921875,34.6340357421875Q15.8815921875,34.703335742187505,15.8528921875,34.7701357421875Q15.8240921875,34.8369357421875,15.7889921875,34.900635742187504Q15.7538921875,34.964435742187504,15.7128921875,35.0244357421875Q15.6717921875,35.0844357421875,15.6250921875,35.1402357421875Q15.5783921875,35.196035742187505,15.5264921875,35.2470357421875Q15.4745921875,35.2980357421875,15.4179921875,35.343735742187505Q15.3614921875,35.389535742187505,15.3006921875,35.4295357421875Q15.2399921875,35.4695357421875,15.1756921875,35.503535742187495Q15.1112921875,35.5375357421875,15.0439921875,35.5651357421875Q14.9766921875,35.5927357421875,14.9069921875,35.6137357421875Q14.8373921875,35.6346357421875,14.7659921875,35.6487357421875Q14.6945921875,35.6628357421875,14.6222921875,35.6700357421875Q14.5498921875,35.6771357421875,14.4770921875,35.6772357421875Q14.4043921875,35.677335742187495,14.3318921875,35.6704357421875Q14.2594921875,35.6634357421875,14.1880921875,35.649535742187496Q14.1166921875,35.6356357421875,14.0469921875,35.6149357421875Q9.6834221875,34.3157357421875,6.5099221875,31.0181357421875Q6.4622021875,30.9685357421875,6.4192221875,30.9148357421875Q6.3762421875,30.8610357421875,6.3383621875,30.8036357421875Q6.3004921875,30.7461357421875,6.268032187499999,30.6854357421875Q6.2355721875,30.6248357421875,6.2088121874999995,30.5614357421875Q6.1820521875,30.4980357421875,6.1612021875,30.4324357421875Q6.1403521875,30.3668357421875,6.1256021875,30.2996357421875Q6.1108521875,30.2324357421875,6.1023121875,30.1641357421875Q6.0937721875,30.0958357421875,6.0915221875,30.0270357421875Q6.089272187500001,29.9582357421875,6.0933321875,29.8895357421875Q6.097392187500001,29.8208357421875,6.1077221875,29.7528357421875Q6.1180521875,29.6848357421875,6.1345721875,29.6180357421875Q6.1510921875,29.5511357421875,6.1736621875,29.4861357421875Q6.1962221875,29.4211357421875,6.2246521875,29.3584357421875Q6.2530721875,29.2958357421875,6.2871121875,29.2360357421875Q6.3211521875,29.1762357421875,6.3605321875000005,29.1197357421875Q6.3999121875,29.0633357421875,6.4442921875,29.0107357421875Q7.2086621875,28.1048357421875,7.2086621875,26.9167357421875Q7.2086621875,25.5705357421875,6.2567521875,24.6186357421875Q5.3048521875,23.6667357421875,3.9586581875,23.6667357421875Q3.7963721875000003,23.6667357421875,3.6350991875,23.6825357421875Q3.5666151875,23.6893357421875,3.4978031875,23.6897357421875Q3.4289901875,23.6901357421875,3.3604271875,23.6843357421875Q3.2918641875,23.6784357421875,3.2241269875,23.6663357421875Q3.1563894875,23.6541357421875,3.0900465875,23.6359357421875Q3.0237031875,23.6176357421875,2.9593121875,23.5933357421875Q2.8949211875,23.5691357421875,2.8330231875,23.5390357421875Q2.7711251875,23.5089357421875,2.7122401875,23.4733357421875Q2.6533541874999997,23.4377357421875,2.5979761875,23.3969357421875Q2.5425991875,23.3560357421875,2.4911931875,23.3103357421875Q2.4397881875,23.2645357421875,2.3927881875,23.2142357421875Q2.3457871875,23.1640357421875,2.3035861875,23.1096357421875Q2.2613851875,23.0553357421875,2.2243371874999998,22.9973357421875Q2.1872901875,22.9393357421875,2.1557121875,22.8782357421875Q2.1241221875000003,22.8170357421875,2.0982721875,22.7532357421875Q2.0724221875,22.6895357421875,2.0525221875,22.6236357421875Q2.0326121875,22.5577357421875,2.0188221875,22.4903357421875Q1.6669921875,20.7701357421875,1.6669921875,19.0000357421875Q1.6669921875,16.3276357421875,2.4609301875,13.8000357421875Q2.4967861875,13.6859257421875,2.5502841875,13.5788957421875Q2.6037831875,13.4718757421875,2.6735711875,13.3746857421875Q2.7433581875,13.2774957421875,2.8276701875,13.1926057421875Q2.9119821875,13.1077057421875,3.0086871875,13.0372457421875Q3.1053912875,12.9667857421875,3.2120421875,12.9125457421875Q3.3186931875,12.8583157421875,3.4325931875,12.8216657421875Q3.5464931875,12.7850257421875,3.6647621875,12.7668957421875Q3.7830311875,12.7487757421875,3.9026781875,12.7496257421875L3.9693441875,12.7500957421875Q5.3048521875,12.7500657421875,6.2567521875,11.7981557421875Q7.2086621875,10.8462557421875,7.2086621875,9.5000657421875Q7.2086621875,8.7400357421875,6.8760821875,8.0654257421875Q6.8229121875,7.9575857421875,6.7876021875,7.8426557421875Q6.7522921875,7.7277157421875,6.7357421875,7.6086257421875Q6.7191921875,7.4895357421875,6.7218221875,7.3693257421875Q6.7244621875,7.2491257421875,6.7462021875,7.1308757421875Q6.767952187500001,7.0126157421875,6.8082521875,6.8993357421875Q6.8485521875,6.7860657421875,6.9063921875,6.6806457421875Q6.9642221875,6.5752357421875,7.0381121874999995,6.4803857421875Q7.1119921875,6.3855257421875,7.2000421875,6.3036557421875Q10.3031721875,3.4182717421875,14.3663921875,2.2935057421875Q14.4903921875,2.2591757421875,14.6183921875,2.2464657421875Q14.7464921875,2.2337657421875,14.8747921875,2.2430457421875003Q15.0030921875,2.2523257421875,15.1279921875,2.2833357421875Q15.2528921875,2.3143357421874997,15.3706921875,2.3661557421875Q15.4883921875,2.4179757421875,15.5956921875,2.4890957421874997Q15.7028921875,2.5602157421875003,15.7963921875,2.6485557421875Q15.8899921875,2.7368957421875,15.9670921875,2.8398737421874998Q16.044292187499998,2.9428557421875,16.1026921875,3.0574697421875Q16.5131921875,3.8619647421875,17.2806921875,4.3419147421875Q18.0665921875,4.8334157421874995,19.0002921875,4.8334157421874995Q19.9339921875,4.8334157421874995,20.7199921875,4.3419147421875Q21.4874921875,3.8619657421875,21.8978921875,3.0574697421875Q21.9563921875,2.9428557421875,22.0334921875,2.8398747421875Q22.1106921875,2.7368957421875,22.2041921875,2.6485557421875Q22.2977921875,2.5602157421875003,22.4049921875,2.4890957421874997Q22.5121921875,2.4179757421875,22.6299921875,2.3661557421875Q22.7477921875,2.3143357421874997,22.8725921875,2.2833357421875Q22.9974921875,2.2523257421875,23.1257921875,2.2430457421875003Q23.2541921875,2.2337657421875,23.3821921875,2.2464657421875Q23.5102921875,2.2591757421875,23.6342921875,2.2935057421875Q27.6974921875,3.4182717421875,30.8005921875,6.3036557421875Q30.8886921875,6.3855257421875,30.9624921875,6.4803857421875Q31.0363921875,6.5752357421875,31.0942921875,6.6806457421875Q31.1520921875,6.7860657421875,31.1923921875,6.8993457421875Q31.2326921875,7.0126157421875,31.2544921875,7.1308757421875Q31.2761921875,7.2491257421875,31.2787921875,7.3693357421875Q31.2814921875,7.4895357421875,31.2648921875,7.6086257421875Q31.2483921875,7.7277157421875,31.2130921875,7.8426557421875Q31.1776921875,7.9575857421875,31.1245921875,8.0654257421875Q30.7919921875,8.7400357421875,30.7919921875,9.5000657421875Q30.7919921875,10.8462557421875,31.7438921875,11.7981557421875Q32.695792187500004,12.7500657421875,34.0419921875,12.7500657421875L34.0979921875,12.7496257421875Q34.2175921875,12.7487757421875,34.3358921875,12.7668957421875Q34.4541921875,12.7850257421875,34.5680921875,12.8216657421875Q34.6819921875,12.8583157421875,34.7885921875,12.9125557421875Q34.895292187500004,12.9667857421875,34.9919921875,13.0372457421875Q35.0886921875,13.1077057421875,35.1729921875,13.1926057421875Q35.2572921875,13.2775057421875,35.3270921875,13.3746957421875Q35.3968921875,13.4718857421875,35.4503921875,13.5789157421875Q35.5038921875,13.6859357421875,35.5396921875,13.8001357421875Q36.3336921875,16.3277357421875,36.3336921875,19.0000357421875Q36.3336921875,20.7701357421875,35.9817921875,22.4903357421875Q35.9679921875,22.5577357421875,35.9480921875,22.6236357421875Q35.9281921875,22.6895357421875,35.9023921875,22.7532357421875Q35.8764921875,22.8170357421875,35.8448921875,22.8782357421875Q35.8133921875,22.9393357421875,35.7762921875,22.9973357421875Q35.7392921875,23.0553357421875,35.6970921875,23.1096357421875Q35.6548921875,23.1640357421875,35.6078921875,23.2142357421875Q35.5608921875,23.2645357421875,35.5094921875,23.3103357421875Q35.4580921875,23.3560357421875,35.4026921875,23.3969357421875Q35.3472921875,23.4377357421875,35.2883921875,23.4733357421875Q35.2294921875,23.5089357421875,35.1675921875,23.5390357421875Q35.1056921875,23.5691357421875,35.041292187500005,23.5933357421875Q34.9769921875,23.6176357421875,34.9105921875,23.6359357421875Q34.8442921875,23.6541357421875,34.7764921875,23.6663357421875Q34.708792187499995,23.6784357421875,34.6401921875,23.6843357421875Q34.5716921875,23.6901357421875,34.502892187499995,23.6897357421875Q34.433992187499996,23.6893357421875,34.3655921875,23.6825357421875Q34.2042921875,23.6667357421875,34.0419921875,23.6667357421875Q32.695792187500004,23.6667357421875,31.7438921875,24.6186357421875Q30.7919921875,25.5705357421875,30.7919921875,26.9167357421875Q30.7919921875,28.1048357421875,31.5563921875,29.0107357421875Q31.6006921875,29.0633357421875,31.6400921875,29.1197357421875Q31.6794921875,29.1762357421875,31.7134921875,29.2360357421875Q31.7475921875,29.2958357421875,31.7759921875,29.3585357421875Q31.8043921875,29.4211357421875,31.8269921875,29.4861357421875Q31.8494921875,29.5512357421875,31.8660921875,29.6180357421875Q31.8825921875,29.6848357421875,31.8928921875,29.7528357421875Q31.9031921875,29.8208357421875,31.9072921875,29.8895357421875Q31.9113921875,29.9582357421875,31.9090921875,30.0270357421875Q31.9068921875,30.0958357421875,31.8982921875,30.1641357421875Q31.8897921875,30.2324357421875,31.8749921875,30.2996357421875Q31.8602921875,30.3668357421875,31.8393921875,30.4324357421875Q31.8185921875,30.4980357421875,31.7917921875,30.5614357421875Q31.7650921875,30.6248357421875,31.7325921875,30.6854357421875Q31.7000921875,30.7461357421875,31.6622921875,30.8036357421875Q31.6243921875,30.8610357421875,31.5813921875,30.9148357421875Q31.5383921875,30.9685357421875,31.4906921875,31.0181357421875Q28.3172921875,34.3157357421875,23.9536921875,35.6149357421875Q23.8839921875,35.6356357421875,23.8124921875,35.649535742187496Q23.7410921875,35.6634357421875,23.6686921875,35.6704357421875Q23.5962921875,35.677335742187495,23.5235921875,35.6772357421875Q23.4507921875,35.6771357421875,23.3783921875,35.6700357421875Q23.3059921875,35.6628357421875,23.2345921875,35.6487357421875Q23.1632921875,35.6346357421875,23.0935921875,35.6137357421875Q23.0239921875,35.5927357421875,22.9565921875,35.5651357421875Q22.8892921875,35.5375357421875,22.8249921875,35.503535742187495Q22.7606921875,35.4696357421875,22.6998921875,35.4295357421875Q22.6391921875,35.389535742187505,22.5825921875,35.343735742187505Q22.5260921875,35.2980357421875,22.4741921875,35.2470357421875Q22.4222921875,35.196035742187505,22.3755921875,35.1402357421875Q22.3288921875,35.0844357421875,22.2877921875,35.0244357421875Q22.2466921875,34.964435742187504,22.2115921875,34.900635742187504Q22.1764921875,34.8369357421875,22.1477921875,34.7701357421875Q22.1189921875,34.703335742187505,22.0968921875,34.6340357421875Q21.7788921875,33.6394357421875,20.9339921875,33.012535742187495Q20.0747921875,32.3750357421875,19.0002921875,32.3750357421875L19.0002921875,32.3750357421875ZM19.0002921875,29.3750357421875Q21.0661921875,29.3750357421875,22.7215921875,30.6033357421875Q24.3422921875,31.8058357421875,24.9543921875,33.7205357421875L23.5256921875,34.1772357421875L23.0975921875,32.7396357421875Q26.7036921875,31.6660357421875,29.3290921875,28.9379357421875L30.4098921875,29.9780357421875L29.2634921875,30.9453357421875Q27.7919921875,29.2013357421875,27.7919921875,26.9167357421875Q27.7919921875,24.3279357421875,29.6225921875,22.4973357421875Q31.4531921875,20.6667357421875,34.0419921875,20.6667357421875Q34.3512921875,20.6667357421875,34.6588921875,20.6969357421875L34.5121921875,22.1897357421875L33.042692187499995,21.8892357421875Q33.3336921875,20.4664357421875,33.3336921875,19.0000357421875Q33.3336921875,16.7878357421875,32.6775921875,14.6991357421875L34.1086921875,14.2496357421875L34.1192921875,15.7495357421875L34.0419921875,15.7500357421875Q31.4531921875,15.7500357421875,29.6225921875,13.9194357421875Q27.7919921875,12.0888857421875,27.7919921875,9.5000657421875Q27.7919921875,8.040715742187501,28.4337921875,6.7388757421875L29.7791921875,7.4021557421874995L28.7577921875,8.5006557421875Q26.1910921875,6.114105742187499,22.8338921875,5.1847657421874995L23.2340921875,3.7391357421875L24.5701921875,4.4208017421875Q23.7823921875,5.965175742187499,22.3105921875,6.885515742187501Q20.7947921875,7.8334157421875,19.0002921875,7.8334157421875Q17.205792187500002,7.8334157421875,15.6899921875,6.885515742187501Q14.2182921875,5.965175742187499,13.4303921875,4.4208017421875L14.7665921875,3.7391357421875L15.1667921875,5.1847657421874995Q11.8095321875,6.114105742187499,9.2428921875,8.5006557421875L8.2214621875,7.4021557421874995L9.5668521875,6.7388757421875Q10.2086621875,8.040715742187501,10.2086621875,9.5000657421875Q10.2086621875,12.0888857421875,8.378072187499999,13.9194357421875Q6.5474921875,15.7500357421875,3.9479731875,15.7500357421875L3.8813071875,15.7495357421875L3.8919921875,14.2496357421875L5.3230521875,14.6991357421875Q4.6669921875,16.7877357421875,4.6669921875,19.0000357421875Q4.6669921875,20.4665357421875,4.9579721875,21.8892357421875L3.4884011875,22.1897357421875L3.3417021875,20.6969357421875Q3.6493201875,20.6667357421875,3.9586581875,20.6667357421875Q6.5474921875,20.6667357421875,8.378072187499999,22.4973357421875Q10.2086621875,24.3279357421875,10.2086621875,26.9167357421875Q10.2086621875,29.2013357421875,8.737162187500001,30.9453357421875L7.5907221875,29.9780357421875L8.671522187499999,28.9379357421875Q11.2969721875,31.6660357421875,14.9029921875,32.7396357421875L14.4749921875,34.1772357421875L13.0462321875,33.7205357421875Q13.6582921875,31.8058357421875,15.2789921875,30.6033357421875Q16.934392187500002,29.3750357421875,19.0002921875,29.3750357421875L19.0002921875,29.3750357421875Z" fill="#2E2E2E" fill-opacity="1"/></g><g><path d="M14.9580078125,18.999921953125Q14.9580078125,20.674031953125,16.1417778125,21.857811953125Q17.3255578125,23.041581953125,18.9996778125,23.041581953125Q20.6737878125,23.041581953125,21.8575678125,21.857811953125Q23.0413378125,20.674031953125,23.0413378125,18.999921953125Q23.0413378125,17.325801953125,21.8575678125,16.142021953125Q20.6737878125,14.958251953125,18.9996778125,14.958251953125Q17.3255578125,14.958251953125,16.1417778125,16.142021953125Q14.9580078125,17.325801953125,14.9580078125,18.999921953125ZM11.9580078125,18.999921953125Q11.9580078125,16.083161953125,14.0204618125,14.020705953125Q16.0829178125,11.958251953125,18.9996778125,11.958251953125Q21.9164278125,11.958251953125,23.978907812499997,14.020705953125Q26.0413078125,16.083161953125,26.0413078125,18.999921953125Q26.0413078125,21.916671953125,23.978907812499997,23.979151953124997Q21.9164378125,26.041551953125,18.9996778125,26.041551953125Q16.0829178125,26.041551953125,14.0204618125,23.979151953124997Q11.9580078125,21.916671953125,11.9580078125,18.999921953125Z" fill="#2E2E2E" fill-opacity="1"/></g></g></svg>