<svg xmlns="http://www.w3.org/2000/svg" xmlns:xlink="http://www.w3.org/1999/xlink" fill="none" version="1.1" width="38" height="38" viewBox="0 0 38 38"><defs><clipPath id="master_svg0_2438_5067"><rect x="0" y="0" width="38" height="38" rx="0"/></clipPath></defs><g clip-path="url(#master_svg0_2438_5067)"><g><path d="M4.833333492279053,33.25L4.833333492279053,23.75Q4.833333492279053,23.6763097,4.840553492279053,23.602974Q4.847783492279053,23.529639,4.862153492279052,23.457365Q4.876533492279052,23.38509,4.897923492279053,23.314573Q4.919313492279053,23.244056,4.947513492279053,23.175975Q4.975713492279053,23.107894,5.010453492279053,23.042905Q5.0451934922790524,22.977916,5.086133492279052,22.916645Q5.127073492279052,22.855373,5.173813492279052,22.79841Q5.2205634922790525,22.74145,5.272673492279052,22.68934Q5.324783492279053,22.63723,5.381743492279052,22.59048Q5.438706492279053,22.54374,5.499978492279053,22.5028Q5.561249492279053,22.46186,5.626238492279053,22.42712Q5.691227492279053,22.39238,5.759308492279053,22.36418Q5.827389492279053,22.33598,5.897906492279053,22.31459Q5.968423492279053,22.2932,6.040698492279053,22.27882Q6.112972492279053,22.26445,6.186307492279052,22.25722Q6.259643192279053,22.25,6.333333492279053,22.25L31.666633492279054,22.25Q31.740333492279053,22.25,31.813733492279052,22.25722Q31.887033492279052,22.26445,31.959333492279054,22.27882Q32.03153349227905,22.2932,32.10213349227905,22.31459Q32.172633492279054,22.33598,32.24073349227905,22.36418Q32.30873349227905,22.39238,32.37373349227906,22.42712Q32.438733492279056,22.46186,32.50003349227905,22.5028Q32.561333492279054,22.54374,32.61823349227905,22.59048Q32.67523349227905,22.63723,32.72733349227905,22.68934Q32.779433492279054,22.74145,32.826133492279055,22.79841Q32.87293349227905,22.855373,32.91383349227905,22.916645Q32.95483349227905,22.977916,32.98953349227905,23.042905Q33.024333492279055,23.107894,33.05243349227905,23.175975Q33.08063349227905,23.244056,33.10203349227905,23.314573Q33.12343349227905,23.38509,33.13783349227906,23.457365Q33.15223349227905,23.529639,33.15943349227905,23.602974Q33.166633492279054,23.6763097,33.166633492279054,23.75L33.166633492279054,33.25Q33.166633492279054,34.5272,32.263633492279055,35.4303Q31.360533492279053,36.3333,30.083333492279053,36.3333L7.916663492279053,36.3333Q6.639508492279052,36.3333,5.736426492279053,35.4303Q4.833333492279053,34.5272,4.833333492279053,33.25ZM7.833333492279053,33.25Q7.833333492279053,33.333330000000004,7.916663492279053,33.333330000000004L30.083333492279053,33.333330000000004Q30.117833492279054,33.333330000000004,30.142233492279054,33.308930000000004Q30.166633492279054,33.28454,30.166633492279054,33.25L30.166633492279054,23.75L31.666633492279054,23.75L31.666633492279054,25.25L6.333333492279053,25.25L6.333333492279053,23.75L7.833333492279053,23.75L7.833333492279053,33.25Z" fill="#2E2E2E" fill-opacity="1"/></g><g><path d="M4.833333492279053,23.749966746139528L4.833333492279053,4.7499967461395265Q4.833333492279053,3.4728417461395265,5.736420492279053,2.5697537461395266Q6.639507492279053,1.6666667461395264,7.916663492279053,1.6666667461395264L30.083333492279053,1.6666667461395264Q31.360533492279053,1.6666667461395264,32.263633492279055,2.5697597461395265Q33.166633492279054,3.472842746139526,33.166633492279054,4.7499967461395265L33.166633492279054,23.749966746139528L30.166633492279054,23.749966746139528L30.166633492279054,4.7499967461395265Q30.166633492279054,4.666666746139526,30.083333492279053,4.666666746139526L7.916663492279053,4.666666746139526Q7.833333492279053,4.666666746139526,7.833333492279053,4.7499967461395265L7.833333492279053,23.749966746139528L4.833333492279053,23.749966746139528Z" fill="#2E2E2E" fill-opacity="1"/></g><g><path d="M20.58333603088379,30.79166603088379L17.41666603088379,30.79166603088379Q17.34297573088379,30.79166603088379,17.26964003088379,30.78444603088379Q17.19630503088379,30.77721603088379,17.12403103088379,30.76284603088379Q17.05175603088379,30.74846603088379,16.98123903088379,30.72707603088379Q16.91072203088379,30.70568603088379,16.84264103088379,30.677486030883788Q16.77456003088379,30.64928603088379,16.70957103088379,30.61454603088379Q16.64458203088379,30.579806030883788,16.583311030883788,30.53886603088379Q16.52203903088379,30.49792603088379,16.46507603088379,30.45118603088379Q16.40811603088379,30.40443603088379,16.35600603088379,30.352326030883788Q16.303896030883788,30.30021603088379,16.25714603088379,30.24325603088379Q16.21040603088379,30.18629303088379,16.16946603088379,30.12502103088379Q16.12852603088379,30.06375003088379,16.093786030883788,29.998761030883788Q16.05904603088379,29.933772030883787,16.03084603088379,29.865691030883788Q16.00264603088379,29.79761003088379,15.981256030883788,29.72709303088379Q15.95986603088379,29.656576030883787,15.945486030883789,29.58430103088379Q15.93111603088379,29.51202703088379,15.92388603088379,29.43869203088379Q15.916666030883789,29.365356330883788,15.916666030883789,29.29166603088379Q15.916666030883789,29.21797573088379,15.92388603088379,29.14464003088379Q15.93111603088379,29.07130503088379,15.945486030883789,28.99903103088379Q15.95986603088379,28.92675603088379,15.981256030883788,28.85623903088379Q16.00264603088379,28.78572203088379,16.03084603088379,28.71764103088379Q16.05904603088379,28.64956003088379,16.093786030883788,28.58457103088379Q16.12852603088379,28.51958203088379,16.16946603088379,28.458311030883788Q16.21040603088379,28.39703903088379,16.25714603088379,28.34007603088379Q16.303896030883788,28.28311603088379,16.35600603088379,28.23100603088379Q16.40811603088379,28.178896030883788,16.46507603088379,28.13214603088379Q16.52203903088379,28.08540603088379,16.583311030883788,28.04446603088379Q16.64458203088379,28.00352603088379,16.70957103088379,27.968786030883788Q16.77456003088379,27.93404603088379,16.84264103088379,27.90584603088379Q16.91072203088379,27.87764603088379,16.98123903088379,27.856256030883788Q17.05175603088379,27.834866030883788,17.12403103088379,27.82048603088379Q17.19630503088379,27.80611603088379,17.26964003088379,27.79888603088379Q17.34297573088379,27.79166603088379,17.41666603088379,27.79166603088379L20.58333603088379,27.79166603088379Q20.657026030883788,27.79166603088379,20.73035603088379,27.79888603088379Q20.80369603088379,27.80611603088379,20.875966030883788,27.82048603088379Q20.948246030883787,27.834866030883788,21.01875603088379,27.856256030883788Q21.089276030883788,27.87764603088379,21.15735603088379,27.90584603088379Q21.225436030883788,27.93404603088379,21.29042603088379,27.968786030883788Q21.355416030883788,28.00352603088379,21.41668603088379,28.04446603088379Q21.47795603088379,28.08540603088379,21.53492603088379,28.13214603088379Q21.59188603088379,28.178896030883788,21.64399603088379,28.23100603088379Q21.696096030883787,28.28311603088379,21.74284603088379,28.34007603088379Q21.78959603088379,28.39703903088379,21.83053603088379,28.458311030883788Q21.87147603088379,28.51958203088379,21.90621603088379,28.58457103088379Q21.94095603088379,28.64956003088379,21.969156030883788,28.71764103088379Q21.99735603088379,28.78572203088379,22.01874603088379,28.85623903088379Q22.04013603088379,28.92675603088379,22.05451603088379,28.99903103088379Q22.06888603088379,29.07130503088379,22.07610603088379,29.14464003088379Q22.08333603088379,29.21797573088379,22.08333603088379,29.29166603088379Q22.08333603088379,29.365356330883788,22.07610603088379,29.43869203088379Q22.06888603088379,29.51202703088379,22.05451603088379,29.58430103088379Q22.04013603088379,29.656576030883787,22.01874603088379,29.72709303088379Q21.99735603088379,29.79761003088379,21.969156030883788,29.865691030883788Q21.94095603088379,29.933772030883787,21.90621603088379,29.998761030883788Q21.87147603088379,30.06375003088379,21.83053603088379,30.12502103088379Q21.78959603088379,30.18629303088379,21.74284603088379,30.24325603088379Q21.696096030883787,30.30021603088379,21.64399603088379,30.352326030883788Q21.59188603088379,30.40443603088379,21.53492603088379,30.45118603088379Q21.47795603088379,30.49792603088379,21.41668603088379,30.53886603088379Q21.355416030883788,30.579806030883788,21.29042603088379,30.61454603088379Q21.225436030883788,30.64928603088379,21.15735603088379,30.677486030883788Q21.089276030883788,30.70568603088379,21.01875603088379,30.72707603088379Q20.948246030883787,30.74846603088379,20.875966030883788,30.76284603088379Q20.80369603088379,30.77721603088379,20.73035603088379,30.78444603088379Q20.657026030883788,30.79166603088379,20.58333603088379,30.79166603088379ZM22.08333603088379,29.29166603088379Q22.08333603088379,29.365356330883788,22.07610603088379,29.43869203088379Q22.06888603088379,29.51202703088379,22.05451603088379,29.58430103088379Q22.04013603088379,29.656576030883787,22.01874603088379,29.72709303088379Q21.99735603088379,29.79761003088379,21.969156030883788,29.865691030883788Q21.94095603088379,29.933772030883787,21.90621603088379,29.998761030883788Q21.87147603088379,30.06375003088379,21.83053603088379,30.12502103088379Q21.78959603088379,30.18629303088379,21.74284603088379,30.24325603088379Q21.696096030883787,30.30021603088379,21.64399603088379,30.352326030883788Q21.59188603088379,30.40443603088379,21.53492603088379,30.45118603088379Q21.47795603088379,30.49792603088379,21.41668603088379,30.53886603088379Q21.355416030883788,30.579806030883788,21.29042603088379,30.61454603088379Q21.225436030883788,30.64928603088379,21.15735603088379,30.677486030883788Q21.089276030883788,30.70568603088379,21.01875603088379,30.72707603088379Q20.948246030883787,30.74846603088379,20.875966030883788,30.76284603088379Q20.80369603088379,30.77721603088379,20.73035603088379,30.78444603088379Q20.657026030883788,30.79166603088379,20.58333603088379,30.79166603088379Q20.50964603088379,30.79166603088379,20.436306030883788,30.78444603088379Q20.36297603088379,30.77721603088379,20.29069603088379,30.76284603088379Q20.21842603088379,30.74846603088379,20.14790603088379,30.72707603088379Q20.07738603088379,30.70568603088379,20.00930603088379,30.677486030883788Q19.94122603088379,30.64928603088379,19.87623603088379,30.61454603088379Q19.81124603088379,30.579806030883788,19.74997603088379,30.53886603088379Q19.68870603088379,30.49792603088379,19.63174603088379,30.45118603088379Q19.57477603088379,30.40443603088379,19.52267603088379,30.352326030883788Q19.470566030883788,30.30021603088379,19.42381603088379,30.24325603088379Q19.37706603088379,30.18629303088379,19.33612603088379,30.12502103088379Q19.29518603088379,30.06375003088379,19.260456030883788,29.998761030883788Q19.225716030883788,29.933772030883787,19.19751603088379,29.865691030883788Q19.169316030883788,29.79761003088379,19.147926030883788,29.72709303088379Q19.126536030883788,29.656576030883787,19.11215603088379,29.58430103088379Q19.09777603088379,29.51202703088379,19.09055603088379,29.43869203088379Q19.08333603088379,29.365356330883788,19.08333603088379,29.29166603088379Q19.08333603088379,29.21797573088379,19.09055603088379,29.14464003088379Q19.09777603088379,29.07130503088379,19.11215603088379,28.99903103088379Q19.126536030883788,28.92675603088379,19.147926030883788,28.85623903088379Q19.169316030883788,28.78572203088379,19.19751603088379,28.71764103088379Q19.225716030883788,28.64956003088379,19.260456030883788,28.58457103088379Q19.29518603088379,28.51958203088379,19.33612603088379,28.458311030883788Q19.37706603088379,28.39703903088379,19.42381603088379,28.34007603088379Q19.470566030883788,28.28311603088379,19.52267603088379,28.23100603088379Q19.57477603088379,28.178896030883788,19.63174603088379,28.13214603088379Q19.68870603088379,28.08540603088379,19.74997603088379,28.04446603088379Q19.81124603088379,28.00352603088379,19.87623603088379,27.968786030883788Q19.94122603088379,27.93404603088379,20.00930603088379,27.90584603088379Q20.07738603088379,27.87764603088379,20.14790603088379,27.856256030883788Q20.21842603088379,27.834866030883788,20.29069603088379,27.82048603088379Q20.36297603088379,27.80611603088379,20.436306030883788,27.79888603088379Q20.50964603088379,27.79166603088379,20.58333603088379,27.79166603088379Q20.657026030883788,27.79166603088379,20.73035603088379,27.79888603088379Q20.80369603088379,27.80611603088379,20.875966030883788,27.82048603088379Q20.948246030883787,27.834866030883788,21.01875603088379,27.856256030883788Q21.089276030883788,27.87764603088379,21.15735603088379,27.90584603088379Q21.225436030883788,27.93404603088379,21.29042603088379,27.968786030883788Q21.355416030883788,28.00352603088379,21.41668603088379,28.04446603088379Q21.47795603088379,28.08540603088379,21.53492603088379,28.13214603088379Q21.59188603088379,28.178896030883788,21.64399603088379,28.23100603088379Q21.696096030883787,28.28311603088379,21.74284603088379,28.34007603088379Q21.78959603088379,28.39703903088379,21.83053603088379,28.458311030883788Q21.87147603088379,28.51958203088379,21.90621603088379,28.58457103088379Q21.94095603088379,28.64956003088379,21.969156030883788,28.71764103088379Q21.99735603088379,28.78572203088379,22.01874603088379,28.85623903088379Q22.04013603088379,28.92675603088379,22.05451603088379,28.99903103088379Q22.06888603088379,29.07130503088379,22.07610603088379,29.14464003088379Q22.08333603088379,29.21797573088379,22.08333603088379,29.29166603088379ZM18.91666603088379,29.29166603088379Q18.91666603088379,29.365356330883788,18.90944603088379,29.43869203088379Q18.90221603088379,29.51202703088379,18.88784603088379,29.58430103088379Q18.87346603088379,29.656576030883787,18.85207603088379,29.72709303088379Q18.83068603088379,29.79761003088379,18.802486030883788,29.865691030883788Q18.77428603088379,29.933772030883787,18.73954603088379,29.998761030883788Q18.704806030883788,30.06375003088379,18.66386603088379,30.12502103088379Q18.62292603088379,30.18629303088379,18.57618603088379,30.24325603088379Q18.52943603088379,30.30021603088379,18.477326030883788,30.352326030883788Q18.42521603088379,30.40443603088379,18.36825603088379,30.45118603088379Q18.31129303088379,30.49792603088379,18.25002103088379,30.53886603088379Q18.18875003088379,30.579806030883788,18.123761030883788,30.61454603088379Q18.058772030883787,30.64928603088379,17.990691030883788,30.677486030883788Q17.92261003088379,30.70568603088379,17.85209303088379,30.72707603088379Q17.781576030883787,30.74846603088379,17.70930103088379,30.76284603088379Q17.63702703088379,30.77721603088379,17.56369203088379,30.78444603088379Q17.490356330883788,30.79166603088379,17.41666603088379,30.79166603088379Q17.34297573088379,30.79166603088379,17.26964003088379,30.78444603088379Q17.19630503088379,30.77721603088379,17.12403103088379,30.76284603088379Q17.05175603088379,30.74846603088379,16.98123903088379,30.72707603088379Q16.91072203088379,30.70568603088379,16.84264103088379,30.677486030883788Q16.77456003088379,30.64928603088379,16.70957103088379,30.61454603088379Q16.64458203088379,30.579806030883788,16.583311030883788,30.53886603088379Q16.52203903088379,30.49792603088379,16.46507603088379,30.45118603088379Q16.40811603088379,30.40443603088379,16.35600603088379,30.352326030883788Q16.303896030883788,30.30021603088379,16.25714603088379,30.24325603088379Q16.21040603088379,30.18629303088379,16.16946603088379,30.12502103088379Q16.12852603088379,30.06375003088379,16.093786030883788,29.998761030883788Q16.05904603088379,29.933772030883787,16.03084603088379,29.865691030883788Q16.00264603088379,29.79761003088379,15.981256030883788,29.72709303088379Q15.95986603088379,29.656576030883787,15.945486030883789,29.58430103088379Q15.93111603088379,29.51202703088379,15.92388603088379,29.43869203088379Q15.916666030883789,29.365356330883788,15.916666030883789,29.29166603088379Q15.916666030883789,29.21797573088379,15.92388603088379,29.14464003088379Q15.93111603088379,29.07130503088379,15.945486030883789,28.99903103088379Q15.95986603088379,28.92675603088379,15.981256030883788,28.85623903088379Q16.00264603088379,28.78572203088379,16.03084603088379,28.71764103088379Q16.05904603088379,28.64956003088379,16.093786030883788,28.58457103088379Q16.12852603088379,28.51958203088379,16.16946603088379,28.458311030883788Q16.21040603088379,28.39703903088379,16.25714603088379,28.34007603088379Q16.303896030883788,28.28311603088379,16.35600603088379,28.23100603088379Q16.40811603088379,28.178896030883788,16.46507603088379,28.13214603088379Q16.52203903088379,28.08540603088379,16.583311030883788,28.04446603088379Q16.64458203088379,28.00352603088379,16.70957103088379,27.968786030883788Q16.77456003088379,27.93404603088379,16.84264103088379,27.90584603088379Q16.91072203088379,27.87764603088379,16.98123903088379,27.856256030883788Q17.05175603088379,27.834866030883788,17.12403103088379,27.82048603088379Q17.19630503088379,27.80611603088379,17.26964003088379,27.79888603088379Q17.34297573088379,27.79166603088379,17.41666603088379,27.79166603088379Q17.490356330883788,27.79166603088379,17.56369203088379,27.79888603088379Q17.63702703088379,27.80611603088379,17.70930103088379,27.82048603088379Q17.781576030883787,27.834866030883788,17.85209303088379,27.856256030883788Q17.92261003088379,27.87764603088379,17.990691030883788,27.90584603088379Q18.058772030883787,27.93404603088379,18.123761030883788,27.968786030883788Q18.18875003088379,28.00352603088379,18.25002103088379,28.04446603088379Q18.31129303088379,28.08540603088379,18.36825603088379,28.13214603088379Q18.42521603088379,28.178896030883788,18.477326030883788,28.23100603088379Q18.52943603088379,28.28311603088379,18.57618603088379,28.34007603088379Q18.62292603088379,28.39703903088379,18.66386603088379,28.458311030883788Q18.704806030883788,28.51958203088379,18.73954603088379,28.58457103088379Q18.77428603088379,28.64956003088379,18.802486030883788,28.71764103088379Q18.83068603088379,28.78572203088379,18.85207603088379,28.85623903088379Q18.87346603088379,28.92675603088379,18.88784603088379,28.99903103088379Q18.90221603088379,29.07130503088379,18.90944603088379,29.14464003088379Q18.91666603088379,29.21797573088379,18.91666603088379,29.29166603088379Z" fill="#2E2E2E" fill-opacity="1"/></g><g><path d="M18.000030517578125,19.9583740234375L18.000030517578125,11.9583740234375Q18.000030517578125,11.8598840234375,18.019240517578126,11.7632840234375Q18.038460517578123,11.6666840234375,18.076150517578125,11.5756940234375Q18.113840517578126,11.4846940234375,18.168560517578126,11.4028040234375Q18.223280517578125,11.3209140234375,18.292920517578125,11.2512640234375Q18.362570517578124,11.1816240234375,18.444460517578126,11.1269040234375Q18.526350517578123,11.0721840234375,18.617350517578124,11.0344940234375Q18.708340517578126,10.9968040234375,18.804940517578125,10.977584023437501Q18.901540517578127,10.9583740234375,19.000030517578125,10.9583740234375Q19.098520517578123,10.9583740234375,19.195120517578125,10.977584023437501Q19.291720517578124,10.9968040234375,19.382710517578126,11.0344940234375Q19.473710517578127,11.0721840234375,19.555600517578124,11.1269040234375Q19.637490517578126,11.1816240234375,19.707140517578125,11.2512640234375Q19.776780517578125,11.3209140234375,19.831500517578124,11.4028040234375Q19.886220517578124,11.4846940234375,19.923910517578125,11.5756940234375Q19.961600517578127,11.6666840234375,19.980810517578124,11.7632840234375Q20.000030517578125,11.8598840234375,20.000030517578125,11.9583740234375L20.000030517578125,19.9583740234375Q20.000030517578125,20.0568740234375,19.980810517578124,20.1534740234375Q19.961600517578127,20.2500740234375,19.923910517578125,20.3410740234375Q19.886220517578124,20.4320740234375,19.831500517578124,20.5139740234375Q19.776780517578125,20.5958740234375,19.707140517578125,20.6654740234375Q19.637490517578126,20.735074023437498,19.555600517578124,20.7898740234375Q19.473710517578127,20.844574023437502,19.382710517578126,20.8822740234375Q19.291720517578124,20.9199740234375,19.195120517578125,20.939174023437502Q19.098520517578123,20.9583740234375,19.000030517578125,20.9583740234375Q18.901540517578127,20.9583740234375,18.804940517578125,20.939174023437502Q18.708340517578126,20.9199740234375,18.617350517578124,20.8822740234375Q18.526350517578123,20.844574023437502,18.444460517578126,20.7898740234375Q18.362570517578124,20.735074023437498,18.292920517578125,20.6654740234375Q18.223280517578125,20.5958740234375,18.168560517578126,20.5139740234375Q18.113840517578126,20.4320740234375,18.076150517578125,20.3410740234375Q18.038460517578123,20.2500740234375,18.019240517578126,20.1534740234375Q18.000030517578125,20.0568740234375,18.000030517578125,19.9583740234375ZM23.000030517578125,16.9583740234375L15.000030517578125,16.9583740234375Q14.901539117578125,16.9583740234375,14.804940517578125,16.9391540234375Q14.708341517578125,16.919944023437502,14.617347517578125,16.8822540234375Q14.526352517578125,16.8445640234375,14.444460517578126,16.7898440234375Q14.362567517578125,16.7351240234375,14.292923517578124,16.6654840234375Q14.223279517578124,16.5958340234375,14.168560517578126,16.5139440234375Q14.113842517578124,16.4320540234375,14.076151517578126,16.3410540234375Q14.038460517578125,16.2500640234375,14.019245517578124,16.1534640234375Q14.000030517578125,16.056864023437498,14.000030517578125,15.9583740234375Q14.000030517578125,15.8598840234375,14.019245517578124,15.7632840234375Q14.038460517578125,15.6666840234375,14.076151517578126,15.5756940234375Q14.113842517578124,15.4846940234375,14.168560517578126,15.4028040234375Q14.223279517578124,15.3209140234375,14.292923517578124,15.2512640234375Q14.362567517578125,15.1816240234375,14.444460517578126,15.1269040234375Q14.526352517578125,15.0721840234375,14.617347517578125,15.0344940234375Q14.708341517578125,14.9968040234375,14.804940517578125,14.9775840234375Q14.901539117578125,14.9583740234375,15.000030517578125,14.9583740234375L23.000030517578125,14.9583740234375Q23.098520517578123,14.9583740234375,23.195120517578125,14.9775840234375Q23.291720517578124,14.9968040234375,23.382710517578126,15.0344940234375Q23.473710517578127,15.0721840234375,23.555600517578124,15.1269040234375Q23.637490517578126,15.1816240234375,23.707140517578125,15.2512640234375Q23.776780517578125,15.3209140234375,23.831500517578124,15.4028040234375Q23.886220517578124,15.4846940234375,23.923910517578125,15.5756940234375Q23.961600517578127,15.6666840234375,23.980810517578124,15.7632840234375Q24.000030517578125,15.8598840234375,24.000030517578125,15.9583740234375Q24.000030517578125,16.056864023437498,23.980810517578124,16.1534640234375Q23.961600517578127,16.2500640234375,23.923910517578125,16.3410540234375Q23.886220517578124,16.4320540234375,23.831500517578124,16.5139440234375Q23.776780517578125,16.5958340234375,23.707140517578125,16.6654840234375Q23.637490517578126,16.7351240234375,23.555600517578124,16.7898440234375Q23.473710517578127,16.8445640234375,23.382710517578126,16.8822540234375Q23.291720517578124,16.919944023437502,23.195120517578125,16.9391540234375Q23.098520517578123,16.9583740234375,23.000030517578125,16.9583740234375ZM23.000030517578125,12.9583740234375L15.000030517578125,12.9583740234375Q14.901539117578125,12.9583740234375,14.804940517578125,12.9391540234375Q14.708341517578125,12.9199440234375,14.617347517578125,12.8822540234375Q14.526352517578125,12.8445640234375,14.444460517578126,12.7898440234375Q14.362567517578125,12.7351240234375,14.292923517578124,12.6654840234375Q14.223279517578124,12.5958340234375,14.168560517578126,12.5139440234375Q14.113842517578124,12.4320540234375,14.076151517578126,12.3410540234375Q14.038460517578125,12.2500640234375,14.019245517578124,12.1534640234375Q14.000030517578125,12.0568640234375,14.000030517578125,11.9583740234375Q14.000030517578125,11.8598840234375,14.019245517578124,11.7632840234375Q14.038460517578125,11.6666840234375,14.076151517578126,11.5756940234375Q14.113842517578124,11.4846940234375,14.168560517578126,11.4028040234375Q14.223279517578124,11.3209140234375,14.292923517578124,11.2512640234375Q14.362567517578125,11.1816240234375,14.444460517578126,11.1269040234375Q14.526352517578125,11.0721840234375,14.617347517578125,11.0344940234375Q14.708341517578125,10.9968040234375,14.804940517578125,10.977584023437501Q14.901539117578125,10.9583740234375,15.000030517578125,10.9583740234375L23.000030517578125,10.9583740234375Q23.098520517578123,10.9583740234375,23.195120517578125,10.977584023437501Q23.291720517578124,10.9968040234375,23.382710517578126,11.0344940234375Q23.473710517578127,11.0721840234375,23.555600517578124,11.1269040234375Q23.637490517578126,11.1816240234375,23.707140517578125,11.2512640234375Q23.776780517578125,11.3209140234375,23.831500517578124,11.4028040234375Q23.886220517578124,11.4846940234375,23.923910517578125,11.5756940234375Q23.961600517578127,11.6666840234375,23.980810517578124,11.7632840234375Q24.000030517578125,11.8598840234375,24.000030517578125,11.9583740234375Q24.000030517578125,12.0568640234375,23.980810517578124,12.1534640234375Q23.961600517578127,12.2500640234375,23.923910517578125,12.3410540234375Q23.886220517578124,12.4320540234375,23.831500517578124,12.5139440234375Q23.776780517578125,12.5958340234375,23.707140517578125,12.6654840234375Q23.637490517578126,12.7351240234375,23.555600517578124,12.7898440234375Q23.473710517578127,12.8445640234375,23.382710517578126,12.8822540234375Q23.291720517578124,12.9199440234375,23.195120517578125,12.9391540234375Q23.098520517578123,12.9583740234375,23.000030517578125,12.9583740234375ZM15.707137517578126,6.2512670234375L19.707140517578125,10.2512640234375L19.000030517578125,10.9583740234375L18.292920517578125,10.2512640234375L22.292920517578125,6.2512670234375Q22.362570517578124,6.1816230234375,22.444460517578126,6.1269040234375Q22.526350517578123,6.0721860234375,22.617350517578124,6.0344950234375Q22.708340517578126,5.9968040234375,22.804940517578125,5.9775890234375Q22.901540517578127,5.9583740234375,23.000030517578125,5.9583740234375Q23.098520517578123,5.9583740234375,23.195120517578125,5.9775890234375Q23.291720517578124,5.9968040234375,23.382710517578126,6.0344950234375Q23.473710517578127,6.0721860234375,23.555600517578124,6.1269040234375Q23.637490517578126,6.1816230234375,23.707140517578125,6.2512670234375Q23.776780517578125,6.3209110234375,23.831500517578124,6.4028040234375Q23.886220517578124,6.4846960234375,23.923910517578125,6.5756910234375Q23.961600517578127,6.6666850234375,23.980810517578124,6.7632840234375Q24.000030517578125,6.8598826234375,24.000030517578125,6.9583740234375Q24.000030517578125,7.0568654234375,23.980810517578124,7.1534640234375Q23.961600517578127,7.2500630234375,23.923910517578125,7.3410570234375Q23.886220517578124,7.4320520234375,23.831500517578124,7.5139440234375Q23.776780517578125,7.5958370234375,23.707140517578125,7.6654810234375L19.707140517578125,11.6654840234375Q19.637490517578126,11.7351240234375,19.555600517578124,11.7898440234375Q19.473710517578127,11.8445640234375,19.382710517578126,11.8822540234375Q19.291720517578124,11.9199440234375,19.195120517578125,11.9391540234375Q19.098520517578123,11.9583740234375,19.000030517578125,11.9583740234375Q18.901540517578127,11.9583740234375,18.804940517578125,11.9391540234375Q18.708340517578126,11.9199440234375,18.617350517578124,11.8822540234375Q18.526350517578123,11.8445640234375,18.444460517578126,11.7898440234375Q18.362570517578124,11.7351240234375,18.292920517578125,11.6654840234375L14.292923517578124,7.6654810234375Q14.223279517578124,7.5958370234375,14.168560517578126,7.5139440234375Q14.113842517578124,7.4320520234375,14.076151517578126,7.3410570234375Q14.038460517578125,7.2500630234375,14.019245517578124,7.1534640234375Q14.000030517578125,7.0568654234375,14.000030517578125,6.9583740234375Q14.000030517578125,6.8598826234375,14.019245517578124,6.7632840234375Q14.038460517578125,6.6666850234375,14.076151517578126,6.5756910234375Q14.113842517578124,6.4846960234375,14.168560517578126,6.4028040234375Q14.223279517578124,6.3209110234375,14.292923517578124,6.2512670234375Q14.362567517578125,6.1816230234375,14.444460517578126,6.1269040234375Q14.526352517578125,6.0721860234375,14.617347517578125,6.0344950234375Q14.708341517578125,5.9968040234375,14.804940517578125,5.9775890234375Q14.901539117578125,5.9583740234375,15.000030517578125,5.9583740234375Q15.098521917578125,5.9583740234375,15.195120517578125,5.9775890234375Q15.291719517578125,5.9968040234375,15.382713517578125,6.0344950234375Q15.473708517578125,6.0721860234375,15.555600517578124,6.1269040234375Q15.637493517578125,6.1816230234375,15.707137517578126,6.2512670234375ZM20.000030517578125,19.9583740234375Q20.000030517578125,20.0568740234375,19.980810517578124,20.1534740234375Q19.961600517578127,20.2500740234375,19.923910517578125,20.3410740234375Q19.886220517578124,20.4320740234375,19.831500517578124,20.5139740234375Q19.776780517578125,20.5958740234375,19.707140517578125,20.6654740234375Q19.637490517578126,20.735074023437498,19.555600517578124,20.7898740234375Q19.473710517578127,20.844574023437502,19.382710517578126,20.8822740234375Q19.291720517578124,20.9199740234375,19.195120517578125,20.939174023437502Q19.098520517578123,20.9583740234375,19.000030517578125,20.9583740234375Q18.901540517578127,20.9583740234375,18.804940517578125,20.939174023437502Q18.708340517578126,20.9199740234375,18.617350517578124,20.8822740234375Q18.526350517578123,20.844574023437502,18.444460517578126,20.7898740234375Q18.362570517578124,20.735074023437498,18.292920517578125,20.6654740234375Q18.223280517578125,20.5958740234375,18.168560517578126,20.5139740234375Q18.113840517578126,20.4320740234375,18.076150517578125,20.3410740234375Q18.038460517578123,20.2500740234375,18.019240517578126,20.1534740234375Q18.000030517578125,20.0568740234375,18.000030517578125,19.9583740234375Q18.000030517578125,19.8598740234375,18.019240517578126,19.7632740234375Q18.038460517578123,19.6666740234375,18.076150517578125,19.5756740234375Q18.113840517578126,19.4846740234375,18.168560517578126,19.4027740234375Q18.223280517578125,19.3208740234375,18.292920517578125,19.2512740234375Q18.362570517578124,19.1815740234375,18.444460517578126,19.1268740234375Q18.526350517578123,19.072174023437498,18.617350517578124,19.0344740234375Q18.708340517578126,18.9967740234375,18.804940517578125,18.977574023437498Q18.901540517578127,18.9583740234375,19.000030517578125,18.9583740234375Q19.098520517578123,18.9583740234375,19.195120517578125,18.977574023437498Q19.291720517578124,18.9967740234375,19.382710517578126,19.0344740234375Q19.473710517578127,19.072174023437498,19.555600517578124,19.1268740234375Q19.637490517578126,19.1815740234375,19.707140517578125,19.2512740234375Q19.776780517578125,19.3208740234375,19.831500517578124,19.4027740234375Q19.886220517578124,19.4846740234375,19.923910517578125,19.5756740234375Q19.961600517578127,19.6666740234375,19.980810517578124,19.7632740234375Q20.000030517578125,19.8598740234375,20.000030517578125,19.9583740234375ZM20.000030517578125,11.9583740234375Q20.000030517578125,12.0568640234375,19.980810517578124,12.1534640234375Q19.961600517578127,12.2500640234375,19.923910517578125,12.3410540234375Q19.886220517578124,12.4320540234375,19.831500517578124,12.5139440234375Q19.776780517578125,12.5958340234375,19.707140517578125,12.6654840234375Q19.637490517578126,12.7351240234375,19.555600517578124,12.7898440234375Q19.473710517578127,12.8445640234375,19.382710517578126,12.8822540234375Q19.291720517578124,12.9199440234375,19.195120517578125,12.9391540234375Q19.098520517578123,12.9583740234375,19.000030517578125,12.9583740234375Q18.901540517578127,12.9583740234375,18.804940517578125,12.9391540234375Q18.708340517578126,12.9199440234375,18.617350517578124,12.8822540234375Q18.526350517578123,12.8445640234375,18.444460517578126,12.7898440234375Q18.362570517578124,12.7351240234375,18.292920517578125,12.6654840234375Q18.223280517578125,12.5958340234375,18.168560517578126,12.5139440234375Q18.113840517578126,12.4320540234375,18.076150517578125,12.3410540234375Q18.038460517578123,12.2500640234375,18.019240517578126,12.1534640234375Q18.000030517578125,12.0568640234375,18.000030517578125,11.9583740234375Q18.000030517578125,11.8598840234375,18.019240517578126,11.7632840234375Q18.038460517578123,11.6666840234375,18.076150517578125,11.5756940234375Q18.113840517578126,11.4846940234375,18.168560517578126,11.4028040234375Q18.223280517578125,11.3209140234375,18.292920517578125,11.2512640234375Q18.362570517578124,11.1816240234375,18.444460517578126,11.1269040234375Q18.526350517578123,11.0721840234375,18.617350517578124,11.0344940234375Q18.708340517578126,10.9968040234375,18.804940517578125,10.977584023437501Q18.901540517578127,10.9583740234375,19.000030517578125,10.9583740234375Q19.098520517578123,10.9583740234375,19.195120517578125,10.977584023437501Q19.291720517578124,10.9968040234375,19.382710517578126,11.0344940234375Q19.473710517578127,11.0721840234375,19.555600517578124,11.1269040234375Q19.637490517578126,11.1816240234375,19.707140517578125,11.2512640234375Q19.776780517578125,11.3209140234375,19.831500517578124,11.4028040234375Q19.886220517578124,11.4846940234375,19.923910517578125,11.5756940234375Q19.961600517578127,11.6666840234375,19.980810517578124,11.7632840234375Q20.000030517578125,11.8598840234375,20.000030517578125,11.9583740234375ZM24.000030517578125,15.9583740234375Q24.000030517578125,16.056864023437498,23.980810517578124,16.1534640234375Q23.961600517578127,16.2500640234375,23.923910517578125,16.3410540234375Q23.886220517578124,16.4320540234375,23.831500517578124,16.5139440234375Q23.776780517578125,16.5958340234375,23.707140517578125,16.6654840234375Q23.637490517578126,16.7351240234375,23.555600517578124,16.7898440234375Q23.473710517578127,16.8445640234375,23.382710517578126,16.8822540234375Q23.291720517578124,16.919944023437502,23.195120517578125,16.9391540234375Q23.098520517578123,16.9583740234375,23.000030517578125,16.9583740234375Q22.901540517578127,16.9583740234375,22.804940517578125,16.9391540234375Q22.708340517578126,16.919944023437502,22.617350517578124,16.8822540234375Q22.526350517578123,16.8445640234375,22.444460517578126,16.7898440234375Q22.362570517578124,16.7351240234375,22.292920517578125,16.6654840234375Q22.223280517578125,16.5958340234375,22.168560517578126,16.5139440234375Q22.113840517578126,16.4320540234375,22.076150517578125,16.3410540234375Q22.038460517578123,16.2500640234375,22.019240517578126,16.1534640234375Q22.000030517578125,16.056864023437498,22.000030517578125,15.9583740234375Q22.000030517578125,15.8598840234375,22.019240517578126,15.7632840234375Q22.038460517578123,15.6666840234375,22.076150517578125,15.5756940234375Q22.113840517578126,15.4846940234375,22.168560517578126,15.4028040234375Q22.223280517578125,15.3209140234375,22.292920517578125,15.2512640234375Q22.362570517578124,15.1816240234375,22.444460517578126,15.1269040234375Q22.526350517578123,15.0721840234375,22.617350517578124,15.0344940234375Q22.708340517578126,14.9968040234375,22.804940517578125,14.9775840234375Q22.901540517578127,14.9583740234375,23.000030517578125,14.9583740234375Q23.098520517578123,14.9583740234375,23.195120517578125,14.9775840234375Q23.291720517578124,14.9968040234375,23.382710517578126,15.0344940234375Q23.473710517578127,15.0721840234375,23.555600517578124,15.1269040234375Q23.637490517578126,15.1816240234375,23.707140517578125,15.2512640234375Q23.776780517578125,15.3209140234375,23.831500517578124,15.4028040234375Q23.886220517578124,15.4846940234375,23.923910517578125,15.5756940234375Q23.961600517578127,15.6666840234375,23.980810517578124,15.7632840234375Q24.000030517578125,15.8598840234375,24.000030517578125,15.9583740234375ZM16.000030517578125,15.9583740234375Q16.000030517578125,16.056864023437498,15.980815517578126,16.1534640234375Q15.961600517578125,16.2500640234375,15.923909517578124,16.3410540234375Q15.886218517578126,16.4320540234375,15.831500517578124,16.5139440234375Q15.776781517578126,16.5958340234375,15.707137517578126,16.6654840234375Q15.637493517578125,16.7351240234375,15.555600517578124,16.7898440234375Q15.473708517578125,16.8445640234375,15.382713517578125,16.8822540234375Q15.291719517578125,16.919944023437502,15.195120517578125,16.9391540234375Q15.098521917578125,16.9583740234375,15.000030517578125,16.9583740234375Q14.901539117578125,16.9583740234375,14.804940517578125,16.9391540234375Q14.708341517578125,16.919944023437502,14.617347517578125,16.8822540234375Q14.526352517578125,16.8445640234375,14.444460517578126,16.7898440234375Q14.362567517578125,16.7351240234375,14.292923517578124,16.6654840234375Q14.223279517578124,16.5958340234375,14.168560517578126,16.5139440234375Q14.113842517578124,16.4320540234375,14.076151517578126,16.3410540234375Q14.038460517578125,16.2500640234375,14.019245517578124,16.1534640234375Q14.000030517578125,16.056864023437498,14.000030517578125,15.9583740234375Q14.000030517578125,15.8598840234375,14.019245517578124,15.7632840234375Q14.038460517578125,15.6666840234375,14.076151517578126,15.5756940234375Q14.113842517578124,15.4846940234375,14.168560517578126,15.4028040234375Q14.223279517578124,15.3209140234375,14.292923517578124,15.2512640234375Q14.362567517578125,15.1816240234375,14.444460517578126,15.1269040234375Q14.526352517578125,15.0721840234375,14.617347517578125,15.0344940234375Q14.708341517578125,14.9968040234375,14.804940517578125,14.9775840234375Q14.901539117578125,14.9583740234375,15.000030517578125,14.9583740234375Q15.098521917578125,14.9583740234375,15.195120517578125,14.9775840234375Q15.291719517578125,14.9968040234375,15.382713517578125,15.0344940234375Q15.473708517578125,15.0721840234375,15.555600517578124,15.1269040234375Q15.637493517578125,15.1816240234375,15.707137517578126,15.2512640234375Q15.776781517578126,15.3209140234375,15.831500517578124,15.4028040234375Q15.886218517578126,15.4846940234375,15.923909517578124,15.5756940234375Q15.961600517578125,15.6666840234375,15.980815517578126,15.7632840234375Q16.000030517578125,15.8598840234375,16.000030517578125,15.9583740234375ZM24.000030517578125,11.9583740234375Q24.000030517578125,12.0568640234375,23.980810517578124,12.1534640234375Q23.961600517578127,12.2500640234375,23.923910517578125,12.3410540234375Q23.886220517578124,12.4320540234375,23.831500517578124,12.5139440234375Q23.776780517578125,12.5958340234375,23.707140517578125,12.6654840234375Q23.637490517578126,12.7351240234375,23.555600517578124,12.7898440234375Q23.473710517578127,12.8445640234375,23.382710517578126,12.8822540234375Q23.291720517578124,12.9199440234375,23.195120517578125,12.9391540234375Q23.098520517578123,12.9583740234375,23.000030517578125,12.9583740234375Q22.901540517578127,12.9583740234375,22.804940517578125,12.9391540234375Q22.708340517578126,12.9199440234375,22.617350517578124,12.8822540234375Q22.526350517578123,12.8445640234375,22.444460517578126,12.7898440234375Q22.362570517578124,12.7351240234375,22.292920517578125,12.6654840234375Q22.223280517578125,12.5958340234375,22.168560517578126,12.5139440234375Q22.113840517578126,12.4320540234375,22.076150517578125,12.3410540234375Q22.038460517578123,12.2500640234375,22.019240517578126,12.1534640234375Q22.000030517578125,12.0568640234375,22.000030517578125,11.9583740234375Q22.000030517578125,11.8598840234375,22.019240517578126,11.7632840234375Q22.038460517578123,11.6666840234375,22.076150517578125,11.5756940234375Q22.113840517578126,11.4846940234375,22.168560517578126,11.4028040234375Q22.223280517578125,11.3209140234375,22.292920517578125,11.2512640234375Q22.362570517578124,11.1816240234375,22.444460517578126,11.1269040234375Q22.526350517578123,11.0721840234375,22.617350517578124,11.0344940234375Q22.708340517578126,10.9968040234375,22.804940517578125,10.977584023437501Q22.901540517578127,10.9583740234375,23.000030517578125,10.9583740234375Q23.098520517578123,10.9583740234375,23.195120517578125,10.977584023437501Q23.291720517578124,10.9968040234375,23.382710517578126,11.0344940234375Q23.473710517578127,11.0721840234375,23.555600517578124,11.1269040234375Q23.637490517578126,11.1816240234375,23.707140517578125,11.2512640234375Q23.776780517578125,11.3209140234375,23.831500517578124,11.4028040234375Q23.886220517578124,11.4846940234375,23.923910517578125,11.5756940234375Q23.961600517578127,11.6666840234375,23.980810517578124,11.7632840234375Q24.000030517578125,11.8598840234375,24.000030517578125,11.9583740234375ZM16.000030517578125,11.9583740234375Q16.000030517578125,12.0568640234375,15.980815517578126,12.1534640234375Q15.961600517578125,12.2500640234375,15.923909517578124,12.3410540234375Q15.886218517578126,12.4320540234375,15.831500517578124,12.5139440234375Q15.776781517578126,12.5958340234375,15.707137517578126,12.6654840234375Q15.637493517578125,12.7351240234375,15.555600517578124,12.7898440234375Q15.473708517578125,12.8445640234375,15.382713517578125,12.8822540234375Q15.291719517578125,12.9199440234375,15.195120517578125,12.9391540234375Q15.098521917578125,12.9583740234375,15.000030517578125,12.9583740234375Q14.901539117578125,12.9583740234375,14.804940517578125,12.9391540234375Q14.708341517578125,12.9199440234375,14.617347517578125,12.8822540234375Q14.526352517578125,12.8445640234375,14.444460517578126,12.7898440234375Q14.362567517578125,12.7351240234375,14.292923517578124,12.6654840234375Q14.223279517578124,12.5958340234375,14.168560517578126,12.5139440234375Q14.113842517578124,12.4320540234375,14.076151517578126,12.3410540234375Q14.038460517578125,12.2500640234375,14.019245517578124,12.1534640234375Q14.000030517578125,12.0568640234375,14.000030517578125,11.9583740234375Q14.000030517578125,11.8598840234375,14.019245517578124,11.7632840234375Q14.038460517578125,11.6666840234375,14.076151517578126,11.5756940234375Q14.113842517578124,11.4846940234375,14.168560517578126,11.4028040234375Q14.223279517578124,11.3209140234375,14.292923517578124,11.2512640234375Q14.362567517578125,11.1816240234375,14.444460517578126,11.1269040234375Q14.526352517578125,11.0721840234375,14.617347517578125,11.0344940234375Q14.708341517578125,10.9968040234375,14.804940517578125,10.977584023437501Q14.901539117578125,10.9583740234375,15.000030517578125,10.9583740234375Q15.098521917578125,10.9583740234375,15.195120517578125,10.977584023437501Q15.291719517578125,10.9968040234375,15.382713517578125,11.0344940234375Q15.473708517578125,11.0721840234375,15.555600517578124,11.1269040234375Q15.637493517578125,11.1816240234375,15.707137517578126,11.2512640234375Q15.776781517578126,11.3209140234375,15.831500517578124,11.4028040234375Q15.886218517578126,11.4846940234375,15.923909517578124,11.5756940234375Q15.961600517578125,11.6666840234375,15.980815517578126,11.7632840234375Q16.000030517578125,11.8598840234375,16.000030517578125,11.9583740234375Z" fill="#2E2E2E" fill-opacity="1"/></g></g></svg>