<svg xmlns="http://www.w3.org/2000/svg" xmlns:xlink="http://www.w3.org/1999/xlink" fill="none" version="1.1" width="38" height="38" viewBox="0 0 38 38"><defs><clipPath id="master_svg0_2438_5072"><rect x="0" y="0" width="38" height="38" rx="0"/></clipPath></defs><g clip-path="url(#master_svg0_2438_5072)"><g><path d="M4.833333492279053,33.25L4.833333492279053,23.75Q4.833333492279053,23.6763097,4.840553492279053,23.602974Q4.847783492279053,23.529639,4.862153492279052,23.457365Q4.876533492279052,23.38509,4.897923492279053,23.314573Q4.919313492279053,23.244056,4.947513492279053,23.175975Q4.975713492279053,23.107894,5.010453492279053,23.042905Q5.0451934922790524,22.977916,5.086133492279052,22.916645Q5.127073492279052,22.855373,5.173813492279052,22.79841Q5.2205634922790525,22.74145,5.272673492279052,22.68934Q5.324783492279053,22.63723,5.381743492279052,22.59048Q5.438706492279053,22.54374,5.499978492279053,22.5028Q5.561249492279053,22.46186,5.626238492279053,22.42712Q5.691227492279053,22.39238,5.759308492279053,22.36418Q5.827389492279053,22.33598,5.897906492279053,22.31459Q5.968423492279053,22.2932,6.040698492279053,22.27882Q6.112972492279053,22.26445,6.186307492279052,22.25722Q6.259643192279053,22.25,6.333333492279053,22.25L31.666633492279054,22.25Q31.740333492279053,22.25,31.813733492279052,22.25722Q31.887033492279052,22.26445,31.959333492279054,22.27882Q32.03153349227905,22.2932,32.10213349227905,22.31459Q32.172633492279054,22.33598,32.24073349227905,22.36418Q32.30873349227905,22.39238,32.37373349227906,22.42712Q32.438733492279056,22.46186,32.50003349227905,22.5028Q32.561333492279054,22.54374,32.61823349227905,22.59048Q32.67523349227905,22.63723,32.72733349227905,22.68934Q32.779433492279054,22.74145,32.826133492279055,22.79841Q32.87293349227905,22.855373,32.91383349227905,22.916645Q32.95483349227905,22.977916,32.98953349227905,23.042905Q33.024333492279055,23.107894,33.05243349227905,23.175975Q33.08063349227905,23.244056,33.10203349227905,23.314573Q33.12343349227905,23.38509,33.13783349227906,23.457365Q33.15223349227905,23.529639,33.15943349227905,23.602974Q33.166633492279054,23.6763097,33.166633492279054,23.75L33.166633492279054,33.25Q33.166633492279054,34.5272,32.263633492279055,35.4303Q31.360533492279053,36.3333,30.083333492279053,36.3333L7.916663492279053,36.3333Q6.639508492279052,36.3333,5.736426492279053,35.4303Q4.833333492279053,34.5272,4.833333492279053,33.25ZM7.833333492279053,33.25Q7.833333492279053,33.333330000000004,7.916663492279053,33.333330000000004L30.083333492279053,33.333330000000004Q30.117833492279054,33.333330000000004,30.142233492279054,33.308930000000004Q30.166633492279054,33.28454,30.166633492279054,33.25L30.166633492279054,23.75L31.666633492279054,23.75L31.666633492279054,25.25L6.333333492279053,25.25L6.333333492279053,23.75L7.833333492279053,23.75L7.833333492279053,33.25Z" fill="#2E2E2E" fill-opacity="1"/></g><g><path d="M4.833333492279053,23.749966746139528L4.833333492279053,4.7499967461395265Q4.833333492279053,3.4728417461395265,5.736420492279053,2.5697537461395266Q6.639507492279053,1.6666667461395264,7.916663492279053,1.6666667461395264L30.083333492279053,1.6666667461395264Q31.360533492279053,1.6666667461395264,32.263633492279055,2.5697597461395265Q33.166633492279054,3.472842746139526,33.166633492279054,4.7499967461395265L33.166633492279054,23.749966746139528L30.166633492279054,23.749966746139528L30.166633492279054,4.7499967461395265Q30.166633492279054,4.666666746139526,30.083333492279053,4.666666746139526L7.916663492279053,4.666666746139526Q7.833333492279053,4.666666746139526,7.833333492279053,4.7499967461395265L7.833333492279053,23.749966746139528L4.833333492279053,23.749966746139528Z" fill="#2E2E2E" fill-opacity="1"/></g><g><path d="M20.58333603088379,30.79166603088379L17.41666603088379,30.79166603088379Q17.34297573088379,30.79166603088379,17.26964003088379,30.78444603088379Q17.19630503088379,30.77721603088379,17.12403103088379,30.76284603088379Q17.05175603088379,30.74846603088379,16.98123903088379,30.72707603088379Q16.91072203088379,30.70568603088379,16.84264103088379,30.677486030883788Q16.77456003088379,30.64928603088379,16.70957103088379,30.61454603088379Q16.64458203088379,30.579806030883788,16.583311030883788,30.53886603088379Q16.52203903088379,30.49792603088379,16.46507603088379,30.45118603088379Q16.40811603088379,30.40443603088379,16.35600603088379,30.352326030883788Q16.303896030883788,30.30021603088379,16.25714603088379,30.24325603088379Q16.21040603088379,30.18629303088379,16.16946603088379,30.12502103088379Q16.12852603088379,30.06375003088379,16.093786030883788,29.998761030883788Q16.05904603088379,29.933772030883787,16.03084603088379,29.865691030883788Q16.00264603088379,29.79761003088379,15.981256030883788,29.72709303088379Q15.95986603088379,29.656576030883787,15.945486030883789,29.58430103088379Q15.93111603088379,29.51202703088379,15.92388603088379,29.43869203088379Q15.916666030883789,29.365356330883788,15.916666030883789,29.29166603088379Q15.916666030883789,29.21797573088379,15.92388603088379,29.14464003088379Q15.93111603088379,29.07130503088379,15.945486030883789,28.99903103088379Q15.95986603088379,28.92675603088379,15.981256030883788,28.85623903088379Q16.00264603088379,28.78572203088379,16.03084603088379,28.71764103088379Q16.05904603088379,28.64956003088379,16.093786030883788,28.58457103088379Q16.12852603088379,28.51958203088379,16.16946603088379,28.458311030883788Q16.21040603088379,28.39703903088379,16.25714603088379,28.34007603088379Q16.303896030883788,28.28311603088379,16.35600603088379,28.23100603088379Q16.40811603088379,28.178896030883788,16.46507603088379,28.13214603088379Q16.52203903088379,28.08540603088379,16.583311030883788,28.04446603088379Q16.64458203088379,28.00352603088379,16.70957103088379,27.968786030883788Q16.77456003088379,27.93404603088379,16.84264103088379,27.90584603088379Q16.91072203088379,27.87764603088379,16.98123903088379,27.856256030883788Q17.05175603088379,27.834866030883788,17.12403103088379,27.82048603088379Q17.19630503088379,27.80611603088379,17.26964003088379,27.79888603088379Q17.34297573088379,27.79166603088379,17.41666603088379,27.79166603088379L20.58333603088379,27.79166603088379Q20.657026030883788,27.79166603088379,20.73035603088379,27.79888603088379Q20.80369603088379,27.80611603088379,20.875966030883788,27.82048603088379Q20.948246030883787,27.834866030883788,21.01875603088379,27.856256030883788Q21.089276030883788,27.87764603088379,21.15735603088379,27.90584603088379Q21.225436030883788,27.93404603088379,21.29042603088379,27.968786030883788Q21.355416030883788,28.00352603088379,21.41668603088379,28.04446603088379Q21.47795603088379,28.08540603088379,21.53492603088379,28.13214603088379Q21.59188603088379,28.178896030883788,21.64399603088379,28.23100603088379Q21.696096030883787,28.28311603088379,21.74284603088379,28.34007603088379Q21.78959603088379,28.39703903088379,21.83053603088379,28.458311030883788Q21.87147603088379,28.51958203088379,21.90621603088379,28.58457103088379Q21.94095603088379,28.64956003088379,21.969156030883788,28.71764103088379Q21.99735603088379,28.78572203088379,22.01874603088379,28.85623903088379Q22.04013603088379,28.92675603088379,22.05451603088379,28.99903103088379Q22.06888603088379,29.07130503088379,22.07610603088379,29.14464003088379Q22.08333603088379,29.21797573088379,22.08333603088379,29.29166603088379Q22.08333603088379,29.365356330883788,22.07610603088379,29.43869203088379Q22.06888603088379,29.51202703088379,22.05451603088379,29.58430103088379Q22.04013603088379,29.656576030883787,22.01874603088379,29.72709303088379Q21.99735603088379,29.79761003088379,21.969156030883788,29.865691030883788Q21.94095603088379,29.933772030883787,21.90621603088379,29.998761030883788Q21.87147603088379,30.06375003088379,21.83053603088379,30.12502103088379Q21.78959603088379,30.18629303088379,21.74284603088379,30.24325603088379Q21.696096030883787,30.30021603088379,21.64399603088379,30.352326030883788Q21.59188603088379,30.40443603088379,21.53492603088379,30.45118603088379Q21.47795603088379,30.49792603088379,21.41668603088379,30.53886603088379Q21.355416030883788,30.579806030883788,21.29042603088379,30.61454603088379Q21.225436030883788,30.64928603088379,21.15735603088379,30.677486030883788Q21.089276030883788,30.70568603088379,21.01875603088379,30.72707603088379Q20.948246030883787,30.74846603088379,20.875966030883788,30.76284603088379Q20.80369603088379,30.77721603088379,20.73035603088379,30.78444603088379Q20.657026030883788,30.79166603088379,20.58333603088379,30.79166603088379ZM22.08333603088379,29.29166603088379Q22.08333603088379,29.365356330883788,22.07610603088379,29.43869203088379Q22.06888603088379,29.51202703088379,22.05451603088379,29.58430103088379Q22.04013603088379,29.656576030883787,22.01874603088379,29.72709303088379Q21.99735603088379,29.79761003088379,21.969156030883788,29.865691030883788Q21.94095603088379,29.933772030883787,21.90621603088379,29.998761030883788Q21.87147603088379,30.06375003088379,21.83053603088379,30.12502103088379Q21.78959603088379,30.18629303088379,21.74284603088379,30.24325603088379Q21.696096030883787,30.30021603088379,21.64399603088379,30.352326030883788Q21.59188603088379,30.40443603088379,21.53492603088379,30.45118603088379Q21.47795603088379,30.49792603088379,21.41668603088379,30.53886603088379Q21.355416030883788,30.579806030883788,21.29042603088379,30.61454603088379Q21.225436030883788,30.64928603088379,21.15735603088379,30.677486030883788Q21.089276030883788,30.70568603088379,21.01875603088379,30.72707603088379Q20.948246030883787,30.74846603088379,20.875966030883788,30.76284603088379Q20.80369603088379,30.77721603088379,20.73035603088379,30.78444603088379Q20.657026030883788,30.79166603088379,20.58333603088379,30.79166603088379Q20.50964603088379,30.79166603088379,20.436306030883788,30.78444603088379Q20.36297603088379,30.77721603088379,20.29069603088379,30.76284603088379Q20.21842603088379,30.74846603088379,20.14790603088379,30.72707603088379Q20.07738603088379,30.70568603088379,20.00930603088379,30.677486030883788Q19.94122603088379,30.64928603088379,19.87623603088379,30.61454603088379Q19.81124603088379,30.579806030883788,19.74997603088379,30.53886603088379Q19.68870603088379,30.49792603088379,19.63174603088379,30.45118603088379Q19.57477603088379,30.40443603088379,19.52267603088379,30.352326030883788Q19.470566030883788,30.30021603088379,19.42381603088379,30.24325603088379Q19.37706603088379,30.18629303088379,19.33612603088379,30.12502103088379Q19.29518603088379,30.06375003088379,19.260456030883788,29.998761030883788Q19.225716030883788,29.933772030883787,19.19751603088379,29.865691030883788Q19.169316030883788,29.79761003088379,19.147926030883788,29.72709303088379Q19.126536030883788,29.656576030883787,19.11215603088379,29.58430103088379Q19.09777603088379,29.51202703088379,19.09055603088379,29.43869203088379Q19.08333603088379,29.365356330883788,19.08333603088379,29.29166603088379Q19.08333603088379,29.21797573088379,19.09055603088379,29.14464003088379Q19.09777603088379,29.07130503088379,19.11215603088379,28.99903103088379Q19.126536030883788,28.92675603088379,19.147926030883788,28.85623903088379Q19.169316030883788,28.78572203088379,19.19751603088379,28.71764103088379Q19.225716030883788,28.64956003088379,19.260456030883788,28.58457103088379Q19.29518603088379,28.51958203088379,19.33612603088379,28.458311030883788Q19.37706603088379,28.39703903088379,19.42381603088379,28.34007603088379Q19.470566030883788,28.28311603088379,19.52267603088379,28.23100603088379Q19.57477603088379,28.178896030883788,19.63174603088379,28.13214603088379Q19.68870603088379,28.08540603088379,19.74997603088379,28.04446603088379Q19.81124603088379,28.00352603088379,19.87623603088379,27.968786030883788Q19.94122603088379,27.93404603088379,20.00930603088379,27.90584603088379Q20.07738603088379,27.87764603088379,20.14790603088379,27.856256030883788Q20.21842603088379,27.834866030883788,20.29069603088379,27.82048603088379Q20.36297603088379,27.80611603088379,20.436306030883788,27.79888603088379Q20.50964603088379,27.79166603088379,20.58333603088379,27.79166603088379Q20.657026030883788,27.79166603088379,20.73035603088379,27.79888603088379Q20.80369603088379,27.80611603088379,20.875966030883788,27.82048603088379Q20.948246030883787,27.834866030883788,21.01875603088379,27.856256030883788Q21.089276030883788,27.87764603088379,21.15735603088379,27.90584603088379Q21.225436030883788,27.93404603088379,21.29042603088379,27.968786030883788Q21.355416030883788,28.00352603088379,21.41668603088379,28.04446603088379Q21.47795603088379,28.08540603088379,21.53492603088379,28.13214603088379Q21.59188603088379,28.178896030883788,21.64399603088379,28.23100603088379Q21.696096030883787,28.28311603088379,21.74284603088379,28.34007603088379Q21.78959603088379,28.39703903088379,21.83053603088379,28.458311030883788Q21.87147603088379,28.51958203088379,21.90621603088379,28.58457103088379Q21.94095603088379,28.64956003088379,21.969156030883788,28.71764103088379Q21.99735603088379,28.78572203088379,22.01874603088379,28.85623903088379Q22.04013603088379,28.92675603088379,22.05451603088379,28.99903103088379Q22.06888603088379,29.07130503088379,22.07610603088379,29.14464003088379Q22.08333603088379,29.21797573088379,22.08333603088379,29.29166603088379ZM18.91666603088379,29.29166603088379Q18.91666603088379,29.365356330883788,18.90944603088379,29.43869203088379Q18.90221603088379,29.51202703088379,18.88784603088379,29.58430103088379Q18.87346603088379,29.656576030883787,18.85207603088379,29.72709303088379Q18.83068603088379,29.79761003088379,18.802486030883788,29.865691030883788Q18.77428603088379,29.933772030883787,18.73954603088379,29.998761030883788Q18.704806030883788,30.06375003088379,18.66386603088379,30.12502103088379Q18.62292603088379,30.18629303088379,18.57618603088379,30.24325603088379Q18.52943603088379,30.30021603088379,18.477326030883788,30.352326030883788Q18.42521603088379,30.40443603088379,18.36825603088379,30.45118603088379Q18.31129303088379,30.49792603088379,18.25002103088379,30.53886603088379Q18.18875003088379,30.579806030883788,18.123761030883788,30.61454603088379Q18.058772030883787,30.64928603088379,17.990691030883788,30.677486030883788Q17.92261003088379,30.70568603088379,17.85209303088379,30.72707603088379Q17.781576030883787,30.74846603088379,17.70930103088379,30.76284603088379Q17.63702703088379,30.77721603088379,17.56369203088379,30.78444603088379Q17.490356330883788,30.79166603088379,17.41666603088379,30.79166603088379Q17.34297573088379,30.79166603088379,17.26964003088379,30.78444603088379Q17.19630503088379,30.77721603088379,17.12403103088379,30.76284603088379Q17.05175603088379,30.74846603088379,16.98123903088379,30.72707603088379Q16.91072203088379,30.70568603088379,16.84264103088379,30.677486030883788Q16.77456003088379,30.64928603088379,16.70957103088379,30.61454603088379Q16.64458203088379,30.579806030883788,16.583311030883788,30.53886603088379Q16.52203903088379,30.49792603088379,16.46507603088379,30.45118603088379Q16.40811603088379,30.40443603088379,16.35600603088379,30.352326030883788Q16.303896030883788,30.30021603088379,16.25714603088379,30.24325603088379Q16.21040603088379,30.18629303088379,16.16946603088379,30.12502103088379Q16.12852603088379,30.06375003088379,16.093786030883788,29.998761030883788Q16.05904603088379,29.933772030883787,16.03084603088379,29.865691030883788Q16.00264603088379,29.79761003088379,15.981256030883788,29.72709303088379Q15.95986603088379,29.656576030883787,15.945486030883789,29.58430103088379Q15.93111603088379,29.51202703088379,15.92388603088379,29.43869203088379Q15.916666030883789,29.365356330883788,15.916666030883789,29.29166603088379Q15.916666030883789,29.21797573088379,15.92388603088379,29.14464003088379Q15.93111603088379,29.07130503088379,15.945486030883789,28.99903103088379Q15.95986603088379,28.92675603088379,15.981256030883788,28.85623903088379Q16.00264603088379,28.78572203088379,16.03084603088379,28.71764103088379Q16.05904603088379,28.64956003088379,16.093786030883788,28.58457103088379Q16.12852603088379,28.51958203088379,16.16946603088379,28.458311030883788Q16.21040603088379,28.39703903088379,16.25714603088379,28.34007603088379Q16.303896030883788,28.28311603088379,16.35600603088379,28.23100603088379Q16.40811603088379,28.178896030883788,16.46507603088379,28.13214603088379Q16.52203903088379,28.08540603088379,16.583311030883788,28.04446603088379Q16.64458203088379,28.00352603088379,16.70957103088379,27.968786030883788Q16.77456003088379,27.93404603088379,16.84264103088379,27.90584603088379Q16.91072203088379,27.87764603088379,16.98123903088379,27.856256030883788Q17.05175603088379,27.834866030883788,17.12403103088379,27.82048603088379Q17.19630503088379,27.80611603088379,17.26964003088379,27.79888603088379Q17.34297573088379,27.79166603088379,17.41666603088379,27.79166603088379Q17.490356330883788,27.79166603088379,17.56369203088379,27.79888603088379Q17.63702703088379,27.80611603088379,17.70930103088379,27.82048603088379Q17.781576030883787,27.834866030883788,17.85209303088379,27.856256030883788Q17.92261003088379,27.87764603088379,17.990691030883788,27.90584603088379Q18.058772030883787,27.93404603088379,18.123761030883788,27.968786030883788Q18.18875003088379,28.00352603088379,18.25002103088379,28.04446603088379Q18.31129303088379,28.08540603088379,18.36825603088379,28.13214603088379Q18.42521603088379,28.178896030883788,18.477326030883788,28.23100603088379Q18.52943603088379,28.28311603088379,18.57618603088379,28.34007603088379Q18.62292603088379,28.39703903088379,18.66386603088379,28.458311030883788Q18.704806030883788,28.51958203088379,18.73954603088379,28.58457103088379Q18.77428603088379,28.64956003088379,18.802486030883788,28.71764103088379Q18.83068603088379,28.78572203088379,18.85207603088379,28.85623903088379Q18.87346603088379,28.92675603088379,18.88784603088379,28.99903103088379Q18.90221603088379,29.07130503088379,18.90944603088379,29.14464003088379Q18.91666603088379,29.21797573088379,18.91666603088379,29.29166603088379Z" fill="#2E2E2E" fill-opacity="1"/></g><g><path d="M24.1161,19.8839L21.41572,17.183500000000002Q21.3723,17.1401,21.33334,17.092599999999997Q21.29439,17.045099999999998,21.26027,16.99408Q21.22615,16.94302,21.197200000000002,16.88886Q21.16826,16.83471,21.144759999999998,16.77797Q21.12125,16.72124,21.10343,16.66247Q21.0856,16.60371,21.07362,16.543480000000002Q21.06164,16.483249999999998,21.055619999999998,16.42214Q21.049599999999998,16.36103,21.049599999999998,16.29962Q21.049599999999998,16.238210000000002,21.055619999999998,16.1771Q21.06164,16.11598,21.07362,16.05575Q21.0856,15.99553,21.10343,15.93676Q21.12125,15.878,21.144750000000002,15.82126Q21.16825,15.76453,21.197200000000002,15.71037Q21.22615,15.65621,21.26027,15.60515Q21.29438,15.5541,21.33334,15.50663Q21.3723,15.45916,21.41572,15.41573Q21.459139999999998,15.37231,21.506610000000002,15.33335Q21.55408,15.2944,21.60514,15.26028Q21.6562,15.22616,21.71036,15.19722Q21.76451,15.16827,21.82125,15.14477Q21.87798,15.12127,21.93675,15.10344Q21.99551,15.08561,22.05574,15.07364Q22.11597,15.06166,22.17708,15.05564Q22.23819,15.04962,22.299599999999998,15.04962Q22.36101,15.04962,22.42212,15.05564Q22.483240000000002,15.06165,22.54346,15.07363Q22.60369,15.08561,22.66246,15.10344Q22.721220000000002,15.12126,22.77796,15.14476Q22.834690000000002,15.16827,22.888849999999998,15.19721Q22.94301,15.22616,22.994059999999998,15.26028Q23.045099999999998,15.29439,23.092599999999997,15.33335Q23.1401,15.37231,23.183500000000002,15.41573L25.8839,18.1161Q25.927300000000002,18.1595,25.9663,18.207Q26.005200000000002,18.2545,26.0393,18.305500000000002Q26.0735,18.3566,26.1024,18.410800000000002Q26.1313,18.4649,26.1548,18.5216Q26.1783,18.578400000000002,26.196199999999997,18.6371Q26.214,18.6959,26.226,18.7561Q26.238,18.8164,26.244,18.877499999999998Q26.25,18.9386,26.25,19Q26.25,19.0614,26.244,19.122500000000002Q26.238,19.1836,26.226,19.2439Q26.214,19.3041,26.196199999999997,19.3629Q26.1783,19.421599999999998,26.1548,19.4783Q26.1313,19.5351,26.1024,19.589199999999998Q26.0735,19.6434,26.0393,19.694499999999998Q26.005200000000002,19.7455,25.9663,19.793Q25.927300000000002,19.8405,25.8839,19.8839Q25.8405,19.927300000000002,25.793,19.9663Q25.7455,20.005200000000002,25.694499999999998,20.0393Q25.6434,20.0735,25.589199999999998,20.1024Q25.5351,20.1313,25.4784,20.1548Q25.421599999999998,20.1783,25.3629,20.196199999999997Q25.3041,20.214,25.2439,20.226Q25.1836,20.238,25.122500000000002,20.244Q25.0614,20.25,25,20.25Q24.9386,20.25,24.877499999999998,20.244Q24.8164,20.238,24.7561,20.226Q24.6959,20.214,24.6371,20.196199999999997Q24.578400000000002,20.1783,24.5216,20.1548Q24.4649,20.1313,24.410800000000002,20.1024Q24.3566,20.0735,24.305500000000002,20.0393Q24.2545,20.005200000000002,24.207,19.9663Q24.1595,19.927300000000002,24.1161,19.8839ZM14.25,12.41012Q14.25,14.133289999999999,15.46848,15.35177Q16.68696,16.57025,18.41015,16.57025Q20.13333,16.57025,21.35181,15.35177Q22.57029,14.133289999999999,22.57029,12.41012Q22.57029,10.68696,21.35181,9.46848Q20.13333,8.25,18.41015,8.25Q16.68696,8.25,15.46848,9.46848Q14.25,10.68695,14.25,12.41012L14.25,12.41012ZM11.75,12.41012Q11.75,9.65142,13.700718,7.700708Q15.65143,5.75,18.41015,5.75Q21.168860000000002,5.75,23.1196,7.700708Q25.0703,9.65142,25.0703,12.41012Q25.0703,15.16883,23.1196,17.119500000000002Q21.168860000000002,19.0702,18.41015,19.0702Q15.65143,19.0702,13.700718,17.119500000000002Q11.75,15.16883,11.75,12.41012L11.75,12.41012ZM26.25,19Q26.25,19.0614,26.244,19.122500000000002Q26.238,19.1836,26.226,19.2439Q26.214,19.3041,26.196199999999997,19.3629Q26.1783,19.421599999999998,26.1548,19.4784Q26.1313,19.5351,26.1024,19.589199999999998Q26.0735,19.6434,26.0393,19.694499999999998Q26.005200000000002,19.7455,25.9663,19.793Q25.927300000000002,19.8405,25.8839,19.8839Q25.8405,19.927300000000002,25.793,19.9663Q25.7455,20.005200000000002,25.694499999999998,20.0393Q25.6434,20.0735,25.589199999999998,20.1024Q25.5351,20.1313,25.4784,20.1548Q25.421599999999998,20.1783,25.3629,20.196199999999997Q25.3041,20.214,25.2439,20.226Q25.1836,20.238,25.122500000000002,20.244Q25.0614,20.25,25,20.25Q24.9386,20.25,24.877499999999998,20.244Q24.8164,20.238,24.7561,20.226Q24.6959,20.214,24.6371,20.196199999999997Q24.578400000000002,20.1783,24.5216,20.1548Q24.4649,20.1313,24.410800000000002,20.1024Q24.3566,20.0735,24.305500000000002,20.0393Q24.2545,20.005200000000002,24.207,19.9663Q24.1595,19.927300000000002,24.1161,19.8839Q24.072699999999998,19.8405,24.0337,19.793Q23.994799999999998,19.7455,23.9607,19.694499999999998Q23.9265,19.6434,23.8976,19.589199999999998Q23.8687,19.5351,23.845100000000002,19.4784Q23.8217,19.421599999999998,23.803800000000003,19.3629Q23.786,19.3041,23.774,19.2439Q23.762,19.1836,23.756,19.122500000000002Q23.75,19.0614,23.75,19Q23.75,18.9386,23.756,18.877499999999998Q23.762,18.8164,23.774,18.7561Q23.786,18.6959,23.803800000000003,18.6371Q23.8217,18.578400000000002,23.845100000000002,18.5216Q23.8687,18.4649,23.8976,18.410800000000002Q23.9265,18.3566,23.9607,18.305500000000002Q23.994799999999998,18.2545,24.0337,18.207Q24.072699999999998,18.1595,24.1161,18.1161Q24.1595,18.072699999999998,24.207,18.0337Q24.2545,17.994799999999998,24.305500000000002,17.9607Q24.3566,17.9265,24.410800000000002,17.8976Q24.4649,17.8687,24.5216,17.845100000000002Q24.578400000000002,17.8217,24.6371,17.803800000000003Q24.6959,17.786,24.7561,17.774Q24.8164,17.762,24.877499999999998,17.756Q24.9386,17.75,25,17.75Q25.0614,17.75,25.122500000000002,17.756Q25.1836,17.762,25.2439,17.774Q25.3041,17.786,25.3629,17.803800000000003Q25.421599999999998,17.8217,25.4784,17.845100000000002Q25.5351,17.8687,25.589199999999998,17.8976Q25.6434,17.9265,25.694499999999998,17.9607Q25.7455,17.994799999999998,25.793,18.0337Q25.8405,18.072699999999998,25.8839,18.1161Q25.927300000000002,18.1595,25.9663,18.207Q26.005200000000002,18.2545,26.0393,18.305500000000002Q26.0735,18.3566,26.1024,18.410800000000002Q26.1313,18.4649,26.1548,18.5216Q26.1783,18.578400000000002,26.196199999999997,18.6371Q26.214,18.6959,26.226,18.7561Q26.238,18.8164,26.244,18.877499999999998Q26.25,18.9386,26.25,19ZM23.549599999999998,16.29962Q23.549599999999998,16.36102,23.543599999999998,16.42214Q23.537599999999998,16.483249999999998,23.5256,16.543480000000002Q23.5136,16.60371,23.4958,16.66247Q23.478,16.72124,23.4545,16.77797Q23.430999999999997,16.834699999999998,23.402,16.88886Q23.3731,16.94302,23.338900000000002,16.99408Q23.3048,17.045099999999998,23.265900000000002,17.092599999999997Q23.2269,17.1401,23.183500000000002,17.183500000000002Q23.1401,17.2269,23.092599999999997,17.265900000000002Q23.045099999999998,17.3048,22.99407,17.339Q22.94301,17.3731,22.888849999999998,17.402Q22.834690000000002,17.430999999999997,22.77796,17.4545Q22.721220000000002,17.478,22.66246,17.4958Q22.60369,17.5136,22.54347,17.5256Q22.483240000000002,17.537599999999998,22.42213,17.543599999999998Q22.36101,17.549599999999998,22.299599999999998,17.549599999999998Q22.2382,17.549599999999998,22.17708,17.543599999999998Q22.11597,17.537599999999998,22.05574,17.5256Q21.99551,17.5136,21.93675,17.4958Q21.87798,17.478,21.82125,17.4545Q21.76451,17.430999999999997,21.71036,17.402Q21.6562,17.3731,21.60514,17.339Q21.55408,17.3048,21.506610000000002,17.265900000000002Q21.459139999999998,17.2269,21.41572,17.183500000000002Q21.3723,17.1401,21.33334,17.092599999999997Q21.29438,17.045099999999998,21.26027,16.99408Q21.22615,16.94302,21.197200000000002,16.88886Q21.16825,16.834699999999998,21.144750000000002,16.77797Q21.12125,16.72124,21.10343,16.66247Q21.0856,16.60371,21.07362,16.543480000000002Q21.06164,16.483249999999998,21.055619999999998,16.42214Q21.049599999999998,16.36102,21.049599999999998,16.29962Q21.049599999999998,16.238210000000002,21.055619999999998,16.17709Q21.06164,16.11598,21.07362,16.05575Q21.0856,15.99552,21.10343,15.93676Q21.12125,15.87799,21.144750000000002,15.82126Q21.16825,15.76453,21.197200000000002,15.71037Q21.22615,15.65621,21.26027,15.60515Q21.29438,15.55409,21.33334,15.50662Q21.3723,15.45915,21.41572,15.41573Q21.459139999999998,15.37231,21.506610000000002,15.33335Q21.55408,15.29439,21.60514,15.26028Q21.6562,15.22616,21.71036,15.19721Q21.76451,15.16827,21.82125,15.14477Q21.87798,15.12127,21.93675,15.10344Q21.99551,15.08561,22.05574,15.07363Q22.11597,15.06165,22.17708,15.05564Q22.2382,15.04962,22.299599999999998,15.04962Q22.36101,15.04962,22.42213,15.05564Q22.483240000000002,15.06165,22.54347,15.07363Q22.60369,15.08561,22.66246,15.10344Q22.721220000000002,15.12127,22.77796,15.14477Q22.834690000000002,15.16827,22.888849999999998,15.19721Q22.94301,15.22616,22.99407,15.26028Q23.045099999999998,15.29439,23.092599999999997,15.33335Q23.1401,15.37231,23.183500000000002,15.41573Q23.2269,15.45915,23.265900000000002,15.50662Q23.3048,15.55409,23.338900000000002,15.60515Q23.3731,15.65621,23.402,15.71037Q23.430999999999997,15.76453,23.4545,15.82126Q23.478,15.87799,23.4958,15.93676Q23.5136,15.99552,23.5256,16.05575Q23.537599999999998,16.11598,23.543599999999998,16.17709Q23.549599999999998,16.238210000000002,23.549599999999998,16.29962Z" fill="#333333" fill-opacity="1"/></g></g></svg>