<svg xmlns="http://www.w3.org/2000/svg" xmlns:xlink="http://www.w3.org/1999/xlink" fill="none" version="1.1" width="38" height="38" viewBox="0 0 38 38"><defs><clipPath id="master_svg0_2438_5077"><rect x="0" y="0" width="38" height="38" rx="0"/></clipPath></defs><g clip-path="url(#master_svg0_2438_5077)"><g><path d="M4.833333492279053,33.25L4.833333492279053,23.75Q4.833333492279053,23.6763097,4.840553492279053,23.602974Q4.847783492279053,23.529639,4.862153492279052,23.457365Q4.876533492279052,23.38509,4.897923492279053,23.314573Q4.919313492279053,23.244056,4.947513492279053,23.175975Q4.975713492279053,23.107894,5.010453492279053,23.042905Q5.0451934922790524,22.977916,5.086133492279052,22.916645Q5.127073492279052,22.855373,5.173813492279052,22.79841Q5.2205634922790525,22.74145,5.272673492279052,22.68934Q5.324783492279053,22.63723,5.381743492279052,22.59048Q5.438706492279053,22.54374,5.499978492279053,22.5028Q5.561249492279053,22.46186,5.626238492279053,22.42712Q5.691227492279053,22.39238,5.759308492279053,22.36418Q5.827389492279053,22.33598,5.897906492279053,22.31459Q5.968423492279053,22.2932,6.040698492279053,22.27882Q6.112972492279053,22.26445,6.186307492279052,22.25722Q6.259643192279053,22.25,6.333333492279053,22.25L31.666633492279054,22.25Q31.740333492279053,22.25,31.813733492279052,22.25722Q31.887033492279052,22.26445,31.959333492279054,22.27882Q32.03153349227905,22.2932,32.10213349227905,22.31459Q32.172633492279054,22.33598,32.24073349227905,22.36418Q32.30873349227905,22.39238,32.37373349227906,22.42712Q32.438733492279056,22.46186,32.50003349227905,22.5028Q32.561333492279054,22.54374,32.61823349227905,22.59048Q32.67523349227905,22.63723,32.72733349227905,22.68934Q32.779433492279054,22.74145,32.826133492279055,22.79841Q32.87293349227905,22.855373,32.91383349227905,22.916645Q32.95483349227905,22.977916,32.98953349227905,23.042905Q33.024333492279055,23.107894,33.05243349227905,23.175975Q33.08063349227905,23.244056,33.10203349227905,23.314573Q33.12343349227905,23.38509,33.13783349227906,23.457365Q33.15223349227905,23.529639,33.15943349227905,23.602974Q33.166633492279054,23.6763097,33.166633492279054,23.75L33.166633492279054,33.25Q33.166633492279054,34.5272,32.263633492279055,35.4303Q31.360533492279053,36.3333,30.083333492279053,36.3333L7.916663492279053,36.3333Q6.639508492279052,36.3333,5.736426492279053,35.4303Q4.833333492279053,34.5272,4.833333492279053,33.25ZM7.833333492279053,33.25Q7.833333492279053,33.333330000000004,7.916663492279053,33.333330000000004L30.083333492279053,33.333330000000004Q30.117833492279054,33.333330000000004,30.142233492279054,33.308930000000004Q30.166633492279054,33.28454,30.166633492279054,33.25L30.166633492279054,23.75L31.666633492279054,23.75L31.666633492279054,25.25L6.333333492279053,25.25L6.333333492279053,23.75L7.833333492279053,23.75L7.833333492279053,33.25Z" fill="#2E2E2E" fill-opacity="1"/></g><g><path d="M4.833333492279053,23.749966746139528L4.833333492279053,4.7499967461395265Q4.833333492279053,3.4728417461395265,5.736420492279053,2.5697537461395266Q6.639507492279053,1.6666667461395264,7.916663492279053,1.6666667461395264L30.083333492279053,1.6666667461395264Q31.360533492279053,1.6666667461395264,32.263633492279055,2.5697597461395265Q33.166633492279054,3.472842746139526,33.166633492279054,4.7499967461395265L33.166633492279054,23.749966746139528L30.166633492279054,23.749966746139528L30.166633492279054,4.7499967461395265Q30.166633492279054,4.666666746139526,30.083333492279053,4.666666746139526L7.916663492279053,4.666666746139526Q7.833333492279053,4.666666746139526,7.833333492279053,4.7499967461395265L7.833333492279053,23.749966746139528L4.833333492279053,23.749966746139528Z" fill="#2E2E2E" fill-opacity="1"/></g><g><path d="M20.58333603088379,30.79166603088379L17.41666603088379,30.79166603088379Q17.34297573088379,30.79166603088379,17.26964003088379,30.78444603088379Q17.19630503088379,30.77721603088379,17.12403103088379,30.76284603088379Q17.05175603088379,30.74846603088379,16.98123903088379,30.72707603088379Q16.91072203088379,30.70568603088379,16.84264103088379,30.677486030883788Q16.77456003088379,30.64928603088379,16.70957103088379,30.61454603088379Q16.64458203088379,30.579806030883788,16.583311030883788,30.53886603088379Q16.52203903088379,30.49792603088379,16.46507603088379,30.45118603088379Q16.40811603088379,30.40443603088379,16.35600603088379,30.352326030883788Q16.303896030883788,30.30021603088379,16.25714603088379,30.24325603088379Q16.21040603088379,30.18629303088379,16.16946603088379,30.12502103088379Q16.12852603088379,30.06375003088379,16.093786030883788,29.998761030883788Q16.05904603088379,29.933772030883787,16.03084603088379,29.865691030883788Q16.00264603088379,29.79761003088379,15.981256030883788,29.72709303088379Q15.95986603088379,29.656576030883787,15.945486030883789,29.58430103088379Q15.93111603088379,29.51202703088379,15.92388603088379,29.43869203088379Q15.916666030883789,29.365356330883788,15.916666030883789,29.29166603088379Q15.916666030883789,29.21797573088379,15.92388603088379,29.14464003088379Q15.93111603088379,29.07130503088379,15.945486030883789,28.99903103088379Q15.95986603088379,28.92675603088379,15.981256030883788,28.85623903088379Q16.00264603088379,28.78572203088379,16.03084603088379,28.71764103088379Q16.05904603088379,28.64956003088379,16.093786030883788,28.58457103088379Q16.12852603088379,28.51958203088379,16.16946603088379,28.458311030883788Q16.21040603088379,28.39703903088379,16.25714603088379,28.34007603088379Q16.303896030883788,28.28311603088379,16.35600603088379,28.23100603088379Q16.40811603088379,28.178896030883788,16.46507603088379,28.13214603088379Q16.52203903088379,28.08540603088379,16.583311030883788,28.04446603088379Q16.64458203088379,28.00352603088379,16.70957103088379,27.968786030883788Q16.77456003088379,27.93404603088379,16.84264103088379,27.90584603088379Q16.91072203088379,27.87764603088379,16.98123903088379,27.856256030883788Q17.05175603088379,27.834866030883788,17.12403103088379,27.82048603088379Q17.19630503088379,27.80611603088379,17.26964003088379,27.79888603088379Q17.34297573088379,27.79166603088379,17.41666603088379,27.79166603088379L20.58333603088379,27.79166603088379Q20.657026030883788,27.79166603088379,20.73035603088379,27.79888603088379Q20.80369603088379,27.80611603088379,20.875966030883788,27.82048603088379Q20.948246030883787,27.834866030883788,21.01875603088379,27.856256030883788Q21.089276030883788,27.87764603088379,21.15735603088379,27.90584603088379Q21.225436030883788,27.93404603088379,21.29042603088379,27.968786030883788Q21.355416030883788,28.00352603088379,21.41668603088379,28.04446603088379Q21.47795603088379,28.08540603088379,21.53492603088379,28.13214603088379Q21.59188603088379,28.178896030883788,21.64399603088379,28.23100603088379Q21.696096030883787,28.28311603088379,21.74284603088379,28.34007603088379Q21.78959603088379,28.39703903088379,21.83053603088379,28.458311030883788Q21.87147603088379,28.51958203088379,21.90621603088379,28.58457103088379Q21.94095603088379,28.64956003088379,21.969156030883788,28.71764103088379Q21.99735603088379,28.78572203088379,22.01874603088379,28.85623903088379Q22.04013603088379,28.92675603088379,22.05451603088379,28.99903103088379Q22.06888603088379,29.07130503088379,22.07610603088379,29.14464003088379Q22.08333603088379,29.21797573088379,22.08333603088379,29.29166603088379Q22.08333603088379,29.365356330883788,22.07610603088379,29.43869203088379Q22.06888603088379,29.51202703088379,22.05451603088379,29.58430103088379Q22.04013603088379,29.656576030883787,22.01874603088379,29.72709303088379Q21.99735603088379,29.79761003088379,21.969156030883788,29.865691030883788Q21.94095603088379,29.933772030883787,21.90621603088379,29.998761030883788Q21.87147603088379,30.06375003088379,21.83053603088379,30.12502103088379Q21.78959603088379,30.18629303088379,21.74284603088379,30.24325603088379Q21.696096030883787,30.30021603088379,21.64399603088379,30.352326030883788Q21.59188603088379,30.40443603088379,21.53492603088379,30.45118603088379Q21.47795603088379,30.49792603088379,21.41668603088379,30.53886603088379Q21.355416030883788,30.579806030883788,21.29042603088379,30.61454603088379Q21.225436030883788,30.64928603088379,21.15735603088379,30.677486030883788Q21.089276030883788,30.70568603088379,21.01875603088379,30.72707603088379Q20.948246030883787,30.74846603088379,20.875966030883788,30.76284603088379Q20.80369603088379,30.77721603088379,20.73035603088379,30.78444603088379Q20.657026030883788,30.79166603088379,20.58333603088379,30.79166603088379ZM22.08333603088379,29.29166603088379Q22.08333603088379,29.365356330883788,22.07610603088379,29.43869203088379Q22.06888603088379,29.51202703088379,22.05451603088379,29.58430103088379Q22.04013603088379,29.656576030883787,22.01874603088379,29.72709303088379Q21.99735603088379,29.79761003088379,21.969156030883788,29.865691030883788Q21.94095603088379,29.933772030883787,21.90621603088379,29.998761030883788Q21.87147603088379,30.06375003088379,21.83053603088379,30.12502103088379Q21.78959603088379,30.18629303088379,21.74284603088379,30.24325603088379Q21.696096030883787,30.30021603088379,21.64399603088379,30.352326030883788Q21.59188603088379,30.40443603088379,21.53492603088379,30.45118603088379Q21.47795603088379,30.49792603088379,21.41668603088379,30.53886603088379Q21.355416030883788,30.579806030883788,21.29042603088379,30.61454603088379Q21.225436030883788,30.64928603088379,21.15735603088379,30.677486030883788Q21.089276030883788,30.70568603088379,21.01875603088379,30.72707603088379Q20.948246030883787,30.74846603088379,20.875966030883788,30.76284603088379Q20.80369603088379,30.77721603088379,20.73035603088379,30.78444603088379Q20.657026030883788,30.79166603088379,20.58333603088379,30.79166603088379Q20.50964603088379,30.79166603088379,20.436306030883788,30.78444603088379Q20.36297603088379,30.77721603088379,20.29069603088379,30.76284603088379Q20.21842603088379,30.74846603088379,20.14790603088379,30.72707603088379Q20.07738603088379,30.70568603088379,20.00930603088379,30.677486030883788Q19.94122603088379,30.64928603088379,19.87623603088379,30.61454603088379Q19.81124603088379,30.579806030883788,19.74997603088379,30.53886603088379Q19.68870603088379,30.49792603088379,19.63174603088379,30.45118603088379Q19.57477603088379,30.40443603088379,19.52267603088379,30.352326030883788Q19.470566030883788,30.30021603088379,19.42381603088379,30.24325603088379Q19.37706603088379,30.18629303088379,19.33612603088379,30.12502103088379Q19.29518603088379,30.06375003088379,19.260456030883788,29.998761030883788Q19.225716030883788,29.933772030883787,19.19751603088379,29.865691030883788Q19.169316030883788,29.79761003088379,19.147926030883788,29.72709303088379Q19.126536030883788,29.656576030883787,19.11215603088379,29.58430103088379Q19.09777603088379,29.51202703088379,19.09055603088379,29.43869203088379Q19.08333603088379,29.365356330883788,19.08333603088379,29.29166603088379Q19.08333603088379,29.21797573088379,19.09055603088379,29.14464003088379Q19.09777603088379,29.07130503088379,19.11215603088379,28.99903103088379Q19.126536030883788,28.92675603088379,19.147926030883788,28.85623903088379Q19.169316030883788,28.78572203088379,19.19751603088379,28.71764103088379Q19.225716030883788,28.64956003088379,19.260456030883788,28.58457103088379Q19.29518603088379,28.51958203088379,19.33612603088379,28.458311030883788Q19.37706603088379,28.39703903088379,19.42381603088379,28.34007603088379Q19.470566030883788,28.28311603088379,19.52267603088379,28.23100603088379Q19.57477603088379,28.178896030883788,19.63174603088379,28.13214603088379Q19.68870603088379,28.08540603088379,19.74997603088379,28.04446603088379Q19.81124603088379,28.00352603088379,19.87623603088379,27.968786030883788Q19.94122603088379,27.93404603088379,20.00930603088379,27.90584603088379Q20.07738603088379,27.87764603088379,20.14790603088379,27.856256030883788Q20.21842603088379,27.834866030883788,20.29069603088379,27.82048603088379Q20.36297603088379,27.80611603088379,20.436306030883788,27.79888603088379Q20.50964603088379,27.79166603088379,20.58333603088379,27.79166603088379Q20.657026030883788,27.79166603088379,20.73035603088379,27.79888603088379Q20.80369603088379,27.80611603088379,20.875966030883788,27.82048603088379Q20.948246030883787,27.834866030883788,21.01875603088379,27.856256030883788Q21.089276030883788,27.87764603088379,21.15735603088379,27.90584603088379Q21.225436030883788,27.93404603088379,21.29042603088379,27.968786030883788Q21.355416030883788,28.00352603088379,21.41668603088379,28.04446603088379Q21.47795603088379,28.08540603088379,21.53492603088379,28.13214603088379Q21.59188603088379,28.178896030883788,21.64399603088379,28.23100603088379Q21.696096030883787,28.28311603088379,21.74284603088379,28.34007603088379Q21.78959603088379,28.39703903088379,21.83053603088379,28.458311030883788Q21.87147603088379,28.51958203088379,21.90621603088379,28.58457103088379Q21.94095603088379,28.64956003088379,21.969156030883788,28.71764103088379Q21.99735603088379,28.78572203088379,22.01874603088379,28.85623903088379Q22.04013603088379,28.92675603088379,22.05451603088379,28.99903103088379Q22.06888603088379,29.07130503088379,22.07610603088379,29.14464003088379Q22.08333603088379,29.21797573088379,22.08333603088379,29.29166603088379ZM18.91666603088379,29.29166603088379Q18.91666603088379,29.365356330883788,18.90944603088379,29.43869203088379Q18.90221603088379,29.51202703088379,18.88784603088379,29.58430103088379Q18.87346603088379,29.656576030883787,18.85207603088379,29.72709303088379Q18.83068603088379,29.79761003088379,18.802486030883788,29.865691030883788Q18.77428603088379,29.933772030883787,18.73954603088379,29.998761030883788Q18.704806030883788,30.06375003088379,18.66386603088379,30.12502103088379Q18.62292603088379,30.18629303088379,18.57618603088379,30.24325603088379Q18.52943603088379,30.30021603088379,18.477326030883788,30.352326030883788Q18.42521603088379,30.40443603088379,18.36825603088379,30.45118603088379Q18.31129303088379,30.49792603088379,18.25002103088379,30.53886603088379Q18.18875003088379,30.579806030883788,18.123761030883788,30.61454603088379Q18.058772030883787,30.64928603088379,17.990691030883788,30.677486030883788Q17.92261003088379,30.70568603088379,17.85209303088379,30.72707603088379Q17.781576030883787,30.74846603088379,17.70930103088379,30.76284603088379Q17.63702703088379,30.77721603088379,17.56369203088379,30.78444603088379Q17.490356330883788,30.79166603088379,17.41666603088379,30.79166603088379Q17.34297573088379,30.79166603088379,17.26964003088379,30.78444603088379Q17.19630503088379,30.77721603088379,17.12403103088379,30.76284603088379Q17.05175603088379,30.74846603088379,16.98123903088379,30.72707603088379Q16.91072203088379,30.70568603088379,16.84264103088379,30.677486030883788Q16.77456003088379,30.64928603088379,16.70957103088379,30.61454603088379Q16.64458203088379,30.579806030883788,16.583311030883788,30.53886603088379Q16.52203903088379,30.49792603088379,16.46507603088379,30.45118603088379Q16.40811603088379,30.40443603088379,16.35600603088379,30.352326030883788Q16.303896030883788,30.30021603088379,16.25714603088379,30.24325603088379Q16.21040603088379,30.18629303088379,16.16946603088379,30.12502103088379Q16.12852603088379,30.06375003088379,16.093786030883788,29.998761030883788Q16.05904603088379,29.933772030883787,16.03084603088379,29.865691030883788Q16.00264603088379,29.79761003088379,15.981256030883788,29.72709303088379Q15.95986603088379,29.656576030883787,15.945486030883789,29.58430103088379Q15.93111603088379,29.51202703088379,15.92388603088379,29.43869203088379Q15.916666030883789,29.365356330883788,15.916666030883789,29.29166603088379Q15.916666030883789,29.21797573088379,15.92388603088379,29.14464003088379Q15.93111603088379,29.07130503088379,15.945486030883789,28.99903103088379Q15.95986603088379,28.92675603088379,15.981256030883788,28.85623903088379Q16.00264603088379,28.78572203088379,16.03084603088379,28.71764103088379Q16.05904603088379,28.64956003088379,16.093786030883788,28.58457103088379Q16.12852603088379,28.51958203088379,16.16946603088379,28.458311030883788Q16.21040603088379,28.39703903088379,16.25714603088379,28.34007603088379Q16.303896030883788,28.28311603088379,16.35600603088379,28.23100603088379Q16.40811603088379,28.178896030883788,16.46507603088379,28.13214603088379Q16.52203903088379,28.08540603088379,16.583311030883788,28.04446603088379Q16.64458203088379,28.00352603088379,16.70957103088379,27.968786030883788Q16.77456003088379,27.93404603088379,16.84264103088379,27.90584603088379Q16.91072203088379,27.87764603088379,16.98123903088379,27.856256030883788Q17.05175603088379,27.834866030883788,17.12403103088379,27.82048603088379Q17.19630503088379,27.80611603088379,17.26964003088379,27.79888603088379Q17.34297573088379,27.79166603088379,17.41666603088379,27.79166603088379Q17.490356330883788,27.79166603088379,17.56369203088379,27.79888603088379Q17.63702703088379,27.80611603088379,17.70930103088379,27.82048603088379Q17.781576030883787,27.834866030883788,17.85209303088379,27.856256030883788Q17.92261003088379,27.87764603088379,17.990691030883788,27.90584603088379Q18.058772030883787,27.93404603088379,18.123761030883788,27.968786030883788Q18.18875003088379,28.00352603088379,18.25002103088379,28.04446603088379Q18.31129303088379,28.08540603088379,18.36825603088379,28.13214603088379Q18.42521603088379,28.178896030883788,18.477326030883788,28.23100603088379Q18.52943603088379,28.28311603088379,18.57618603088379,28.34007603088379Q18.62292603088379,28.39703903088379,18.66386603088379,28.458311030883788Q18.704806030883788,28.51958203088379,18.73954603088379,28.58457103088379Q18.77428603088379,28.64956003088379,18.802486030883788,28.71764103088379Q18.83068603088379,28.78572203088379,18.85207603088379,28.85623903088379Q18.87346603088379,28.92675603088379,18.88784603088379,28.99903103088379Q18.90221603088379,29.07130503088379,18.90944603088379,29.14464003088379Q18.91666603088379,29.21797573088379,18.91666603088379,29.29166603088379Z" fill="#2E2E2E" fill-opacity="1"/></g><g><path d="M24.999961853027344,10.5L11.999961853027344,10.5Q11.926271553027343,10.5,11.852935853027343,10.49278Q11.779600853027343,10.48555,11.707326853027343,10.47118Q11.635051853027344,10.4568,11.564534853027343,10.435410000000001Q11.494017853027344,10.41402,11.425936853027343,10.38582Q11.357855853027344,10.35762,11.292866853027343,10.32288Q11.227877853027344,10.28814,11.166606853027345,10.2472Q11.105334853027344,10.20626,11.048371853027344,10.15952Q10.991411853027344,10.11277,10.939301853027343,10.06066Q10.887191853027344,10.00855,10.840441853027343,9.95159Q10.793701853027343,9.894627,10.752761853027344,9.833355Q10.711821853027343,9.772084,10.677081853027344,9.707095Q10.642341853027343,9.642106,10.614141853027343,9.574025Q10.585941853027343,9.505944,10.564551853027343,9.435427Q10.543161853027344,9.36491,10.528781853027343,9.292635Q10.514411853027344,9.220361,10.507181853027344,9.147026Q10.499961853027344,9.0736903,10.499961853027344,9Q10.499961853027344,8.9263097,10.507181853027344,8.852974Q10.514411853027344,8.779639,10.528781853027343,8.707365Q10.543161853027344,8.63509,10.564551853027343,8.564573Q10.585941853027343,8.494056,10.614141853027343,8.425975Q10.642341853027343,8.357894,10.677081853027344,8.292905Q10.711821853027343,8.227916,10.752761853027344,8.166645Q10.793701853027343,8.105373,10.840441853027343,8.04841Q10.887191853027344,7.99145,10.939301853027343,7.93934Q10.991411853027344,7.88723,11.048371853027344,7.8404799999999994Q11.105334853027344,7.79374,11.166606853027345,7.7528Q11.227877853027344,7.71186,11.292866853027343,7.67712Q11.357855853027344,7.64238,11.425936853027343,7.61418Q11.494017853027344,7.58598,11.564534853027343,7.56459Q11.635051853027344,7.5432,11.707326853027343,7.52882Q11.779600853027343,7.51445,11.852935853027343,7.50722Q11.926271553027343,7.5,11.999961853027344,7.5L24.999961853027344,7.5Q25.073661853027346,7.5,25.146961853027342,7.50722Q25.22036185302734,7.51445,25.292561853027344,7.52882Q25.364861853027342,7.5432,25.435361853027345,7.56459Q25.505861853027344,7.58598,25.573961853027342,7.61418Q25.642061853027343,7.64238,25.707061853027344,7.67712Q25.772061853027346,7.71186,25.83336185302734,7.7528Q25.894561853027344,7.79374,25.951561853027343,7.8404799999999994Q26.008561853027345,7.88723,26.060661853027344,7.93934Q26.112761853027344,7.99145,26.159461853027345,8.04841Q26.206261853027343,8.105373,26.247161853027343,8.166645Q26.288061853027344,8.227916,26.322861853027344,8.292905Q26.35756185302734,8.357894,26.385761853027343,8.425975Q26.413961853027345,8.494056,26.435361853027345,8.564573Q26.456761853027345,8.63509,26.471161853027343,8.707365Q26.485561853027342,8.779639,26.492761853027346,8.852974Q26.499961853027344,8.9263097,26.499961853027344,9Q26.499961853027344,9.0736903,26.492761853027346,9.147026Q26.485561853027342,9.220361,26.471161853027343,9.292635Q26.456761853027345,9.36491,26.435361853027345,9.435427Q26.413961853027345,9.505944,26.385761853027343,9.574025Q26.35756185302734,9.642106,26.322861853027344,9.707095Q26.288061853027344,9.772084,26.247161853027343,9.833355Q26.206261853027343,9.894627,26.159461853027345,9.95159Q26.112761853027344,10.00855,26.060661853027344,10.06066Q26.008561853027345,10.11277,25.951561853027343,10.15952Q25.894561853027344,10.20626,25.83336185302734,10.2472Q25.772061853027346,10.28814,25.707061853027344,10.32288Q25.642061853027343,10.35762,25.573961853027342,10.38582Q25.505861853027344,10.41402,25.435361853027345,10.435410000000001Q25.364861853027342,10.4568,25.292561853027344,10.47118Q25.22036185302734,10.48555,25.146961853027342,10.49278Q25.073661853027346,10.5,24.999961853027344,10.5ZM26.499961853027344,9Q26.499961853027344,9.0736903,26.492761853027346,9.147026Q26.485561853027342,9.220361,26.471161853027343,9.292635Q26.456761853027345,9.36491,26.435361853027345,9.435427Q26.413961853027345,9.505944,26.385761853027343,9.574025Q26.35756185302734,9.642106,26.322861853027344,9.707095Q26.288061853027344,9.772084,26.247161853027343,9.833355Q26.206261853027343,9.894627,26.159461853027345,9.95159Q26.112761853027344,10.00855,26.060661853027344,10.06066Q26.008561853027345,10.11277,25.951561853027343,10.15952Q25.894561853027344,10.20626,25.83336185302734,10.2472Q25.772061853027346,10.28814,25.707061853027344,10.32288Q25.642061853027343,10.35762,25.573961853027342,10.38582Q25.505861853027344,10.41402,25.435361853027345,10.435410000000001Q25.364861853027342,10.4568,25.292561853027344,10.47118Q25.22036185302734,10.48555,25.146961853027342,10.49278Q25.073661853027346,10.5,24.999961853027344,10.5Q24.92626185302734,10.5,24.852961853027345,10.49278Q24.779561853027346,10.48555,24.707361853027344,10.47118Q24.635061853027345,10.4568,24.564561853027342,10.435410000000001Q24.494061853027343,10.41402,24.425961853027346,10.38582Q24.357861853027345,10.35762,24.292861853027343,10.32288Q24.227861853027342,10.28814,24.166561853027346,10.2472Q24.105361853027343,10.20626,24.048361853027345,10.15952Q23.991361853027342,10.11277,23.939261853027343,10.06066Q23.887161853027344,10.00855,23.840461853027342,9.95159Q23.793661853027345,9.894627,23.752761853027344,9.833355Q23.711861853027344,9.772084,23.677061853027343,9.707095Q23.642361853027346,9.642106,23.614161853027344,9.574025Q23.585961853027342,9.505944,23.564561853027342,9.435427Q23.543161853027343,9.36491,23.528761853027344,9.292635Q23.514361853027346,9.220361,23.50716185302734,9.147026Q23.499961853027344,9.0736903,23.499961853027344,9Q23.499961853027344,8.9263097,23.50716185302734,8.852974Q23.514361853027346,8.779639,23.528761853027344,8.707365Q23.543161853027343,8.63509,23.564561853027342,8.564573Q23.585961853027342,8.494056,23.614161853027344,8.425975Q23.642361853027346,8.357894,23.677061853027343,8.292905Q23.711861853027344,8.227916,23.752761853027344,8.166645Q23.793661853027345,8.105373,23.840461853027342,8.04841Q23.887161853027344,7.99145,23.939261853027343,7.93934Q23.991361853027342,7.88723,24.048361853027345,7.8404799999999994Q24.105361853027343,7.79374,24.166561853027346,7.7528Q24.227861853027342,7.71186,24.292861853027343,7.67712Q24.357861853027345,7.64238,24.425961853027346,7.61418Q24.494061853027343,7.58598,24.564561853027342,7.56459Q24.635061853027345,7.5432,24.707361853027344,7.52882Q24.779561853027346,7.51445,24.852961853027345,7.50722Q24.92626185302734,7.5,24.999961853027344,7.5Q25.073661853027346,7.5,25.146961853027342,7.50722Q25.22036185302734,7.51445,25.292561853027344,7.52882Q25.364861853027342,7.5432,25.435361853027345,7.56459Q25.505861853027344,7.58598,25.573961853027342,7.61418Q25.642061853027343,7.64238,25.707061853027344,7.67712Q25.772061853027346,7.71186,25.83336185302734,7.7528Q25.894561853027344,7.79374,25.951561853027343,7.8404799999999994Q26.008561853027345,7.88723,26.060661853027344,7.93934Q26.112761853027344,7.99145,26.159461853027345,8.04841Q26.206261853027343,8.105373,26.247161853027343,8.166645Q26.288061853027344,8.227916,26.322861853027344,8.292905Q26.35756185302734,8.357894,26.385761853027343,8.425975Q26.413961853027345,8.494056,26.435361853027345,8.564573Q26.456761853027345,8.63509,26.471161853027343,8.707365Q26.485561853027342,8.779639,26.492761853027346,8.852974Q26.499961853027344,8.9263097,26.499961853027344,9ZM13.499961853027344,9Q13.499961853027344,9.0736903,13.492741853027344,9.147026Q13.485511853027344,9.220361,13.471141853027344,9.292635Q13.456761853027343,9.36491,13.435371853027345,9.435427Q13.413981853027344,9.505944,13.385781853027344,9.574025Q13.357581853027344,9.642106,13.322841853027343,9.707095Q13.288101853027344,9.772084,13.247161853027343,9.833355Q13.206221853027344,9.894627,13.159481853027344,9.95159Q13.112731853027343,10.00855,13.060621853027344,10.06066Q13.008511853027343,10.11277,12.951551853027343,10.15952Q12.894588853027344,10.20626,12.833316853027343,10.2472Q12.772045853027343,10.28814,12.707056853027344,10.32288Q12.642067853027344,10.35762,12.573986853027344,10.38582Q12.505905853027343,10.41402,12.435388853027344,10.435410000000001Q12.364871853027344,10.4568,12.292596853027344,10.47118Q12.220322853027344,10.48555,12.146987853027344,10.49278Q12.073652153027345,10.5,11.999961853027344,10.5Q11.926271553027343,10.5,11.852935853027343,10.49278Q11.779600853027343,10.48555,11.707326853027343,10.47118Q11.635051853027344,10.4568,11.564534853027343,10.435410000000001Q11.494017853027344,10.41402,11.425936853027343,10.38582Q11.357855853027344,10.35762,11.292866853027343,10.32288Q11.227877853027344,10.28814,11.166606853027345,10.2472Q11.105334853027344,10.20626,11.048371853027344,10.15952Q10.991411853027344,10.11277,10.939301853027343,10.06066Q10.887191853027344,10.00855,10.840441853027343,9.95159Q10.793701853027343,9.894627,10.752761853027344,9.833355Q10.711821853027343,9.772084,10.677081853027344,9.707095Q10.642341853027343,9.642106,10.614141853027343,9.574025Q10.585941853027343,9.505944,10.564551853027343,9.435427Q10.543161853027344,9.36491,10.528781853027343,9.292635Q10.514411853027344,9.220361,10.507181853027344,9.147026Q10.499961853027344,9.0736903,10.499961853027344,9Q10.499961853027344,8.9263097,10.507181853027344,8.852974Q10.514411853027344,8.779639,10.528781853027343,8.707365Q10.543161853027344,8.63509,10.564551853027343,8.564573Q10.585941853027343,8.494056,10.614141853027343,8.425975Q10.642341853027343,8.357894,10.677081853027344,8.292905Q10.711821853027343,8.227916,10.752761853027344,8.166645Q10.793701853027343,8.105373,10.840441853027343,8.04841Q10.887191853027344,7.99145,10.939301853027343,7.93934Q10.991411853027344,7.88723,11.048371853027344,7.8404799999999994Q11.105334853027344,7.79374,11.166606853027345,7.7528Q11.227877853027344,7.71186,11.292866853027343,7.67712Q11.357855853027344,7.64238,11.425936853027343,7.61418Q11.494017853027344,7.58598,11.564534853027343,7.56459Q11.635051853027344,7.5432,11.707326853027343,7.52882Q11.779600853027343,7.51445,11.852935853027343,7.50722Q11.926271553027343,7.5,11.999961853027344,7.5Q12.073652153027345,7.5,12.146987853027344,7.50722Q12.220322853027344,7.51445,12.292596853027344,7.52882Q12.364871853027344,7.5432,12.435388853027344,7.56459Q12.505905853027343,7.58598,12.573986853027344,7.61418Q12.642067853027344,7.64238,12.707056853027344,7.67712Q12.772045853027343,7.71186,12.833316853027343,7.7528Q12.894588853027344,7.79374,12.951551853027343,7.8404799999999994Q13.008511853027343,7.88723,13.060621853027344,7.93934Q13.112731853027343,7.99145,13.159481853027344,8.04841Q13.206221853027344,8.105373,13.247161853027343,8.166645Q13.288101853027344,8.227916,13.322841853027343,8.292905Q13.357581853027344,8.357894,13.385781853027344,8.425975Q13.413981853027344,8.494056,13.435371853027345,8.564573Q13.456761853027343,8.63509,13.471141853027344,8.707365Q13.485511853027344,8.779639,13.492741853027344,8.852974Q13.499961853027344,8.9263097,13.499961853027344,9Z" fill="#2E2E2E" fill-opacity="1"/></g><g><path d="M17.999961853027344,15.5L11.999961853027344,15.5Q11.926271553027343,15.5,11.852935853027343,15.49278Q11.779600853027343,15.48555,11.707326853027343,15.47118Q11.635051853027344,15.4568,11.564534853027343,15.435410000000001Q11.494017853027344,15.41402,11.425936853027343,15.38582Q11.357855853027344,15.35762,11.292866853027343,15.32288Q11.227877853027344,15.28814,11.166606853027345,15.2472Q11.105334853027344,15.20626,11.048371853027344,15.15952Q10.991411853027344,15.11277,10.939301853027343,15.06066Q10.887191853027344,15.00855,10.840441853027343,14.95159Q10.793701853027343,14.894627,10.752761853027344,14.833355Q10.711821853027343,14.772084,10.677081853027344,14.707095Q10.642341853027343,14.642106,10.614141853027343,14.574025Q10.585941853027343,14.505944,10.564551853027343,14.435427Q10.543161853027344,14.36491,10.528781853027343,14.292635Q10.514411853027344,14.220361,10.507181853027344,14.147026Q10.499961853027344,14.0736903,10.499961853027344,14Q10.499961853027344,13.9263097,10.507181853027344,13.852974Q10.514411853027344,13.779639,10.528781853027343,13.707365Q10.543161853027344,13.63509,10.564551853027343,13.564573Q10.585941853027343,13.494056,10.614141853027343,13.425975Q10.642341853027343,13.357894,10.677081853027344,13.292905Q10.711821853027343,13.227916,10.752761853027344,13.166645Q10.793701853027343,13.105373,10.840441853027343,13.04841Q10.887191853027344,12.99145,10.939301853027343,12.93934Q10.991411853027344,12.88723,11.048371853027344,12.84048Q11.105334853027344,12.79374,11.166606853027345,12.7528Q11.227877853027344,12.71186,11.292866853027343,12.67712Q11.357855853027344,12.64238,11.425936853027343,12.61418Q11.494017853027344,12.58598,11.564534853027343,12.564589999999999Q11.635051853027344,12.5432,11.707326853027343,12.52882Q11.779600853027343,12.51445,11.852935853027343,12.50722Q11.926271553027343,12.5,11.999961853027344,12.5L17.999961853027344,12.5Q18.073651853027343,12.5,18.146991853027345,12.50722Q18.220321853027343,12.51445,18.292591853027343,12.52882Q18.364871853027346,12.5432,18.435391853027344,12.564589999999999Q18.505901853027343,12.58598,18.573981853027345,12.61418Q18.642071853027343,12.64238,18.707051853027345,12.67712Q18.772041853027343,12.71186,18.833311853027343,12.7528Q18.894591853027343,12.79374,18.951551853027343,12.84048Q19.008511853027343,12.88723,19.060621853027342,12.93934Q19.112731853027345,12.99145,19.159481853027344,13.04841Q19.206221853027344,13.105373,19.247161853027343,13.166645Q19.288101853027342,13.227916,19.32284185302734,13.292905Q19.357581853027344,13.357894,19.385781853027343,13.425975Q19.413981853027344,13.494056,19.435371853027345,13.564573Q19.456761853027345,13.63509,19.471141853027344,13.707365Q19.485511853027344,13.779639,19.492741853027344,13.852974Q19.499961853027344,13.9263097,19.499961853027344,14Q19.499961853027344,14.0736903,19.492741853027344,14.147026Q19.485511853027344,14.220361,19.471141853027344,14.292635Q19.456761853027345,14.36491,19.435371853027345,14.435427Q19.413981853027344,14.505944,19.385781853027343,14.574025Q19.357581853027344,14.642106,19.32284185302734,14.707095Q19.288101853027342,14.772084,19.247161853027343,14.833355Q19.206221853027344,14.894627,19.159481853027344,14.95159Q19.112731853027345,15.00855,19.060621853027342,15.06066Q19.008511853027343,15.11277,18.951551853027343,15.15952Q18.894591853027343,15.20626,18.833311853027343,15.2472Q18.772041853027343,15.28814,18.707051853027345,15.32288Q18.642071853027343,15.35762,18.573981853027345,15.38582Q18.505901853027343,15.41402,18.435391853027344,15.435410000000001Q18.364871853027346,15.4568,18.292591853027343,15.47118Q18.220321853027343,15.48555,18.146991853027345,15.49278Q18.073651853027343,15.5,17.999961853027344,15.5ZM19.499961853027344,14Q19.499961853027344,14.0736903,19.492741853027344,14.147026Q19.485511853027344,14.220361,19.471141853027344,14.292635Q19.456761853027345,14.36491,19.435371853027345,14.435427Q19.413981853027344,14.505944,19.385781853027343,14.574025Q19.357581853027344,14.642106,19.32284185302734,14.707095Q19.288101853027342,14.772084,19.247161853027343,14.833355Q19.206221853027344,14.894627,19.159481853027344,14.95159Q19.112731853027345,15.00855,19.060621853027342,15.06066Q19.008511853027343,15.11277,18.951551853027343,15.15952Q18.894591853027343,15.20626,18.833311853027343,15.2472Q18.772041853027343,15.28814,18.707051853027345,15.32288Q18.642071853027343,15.35762,18.573981853027345,15.38582Q18.505901853027343,15.41402,18.435391853027344,15.435410000000001Q18.364871853027346,15.4568,18.292591853027343,15.47118Q18.220321853027343,15.48555,18.146991853027345,15.49278Q18.073651853027343,15.5,17.999961853027344,15.5Q17.926271853027345,15.5,17.852931853027343,15.49278Q17.779601853027344,15.48555,17.707321853027345,15.47118Q17.635051853027342,15.4568,17.564531853027344,15.435410000000001Q17.494021853027345,15.41402,17.425931853027343,15.38582Q17.357851853027345,15.35762,17.292861853027343,15.32288Q17.227881853027345,15.28814,17.166601853027345,15.2472Q17.105331853027344,15.20626,17.048371853027344,15.15952Q16.991411853027344,15.11277,16.939301853027345,15.06066Q16.887191853027343,15.00855,16.840441853027343,14.95159Q16.793701853027343,14.894627,16.752751853027345,14.833355Q16.711811853027342,14.772084,16.677081853027346,14.707095Q16.642341853027343,14.642106,16.614141853027345,14.574025Q16.585941853027343,14.505944,16.564551853027343,14.435427Q16.543161853027343,14.36491,16.528781853027343,14.292635Q16.514411853027344,14.220361,16.507181853027344,14.147026Q16.499961853027344,14.0736903,16.499961853027344,14Q16.499961853027344,13.9263097,16.507181853027344,13.852974Q16.514411853027344,13.779639,16.528781853027343,13.707365Q16.543161853027343,13.63509,16.564551853027343,13.564573Q16.585941853027343,13.494056,16.614141853027345,13.425975Q16.642341853027343,13.357894,16.677081853027346,13.292905Q16.711811853027342,13.227916,16.752751853027345,13.166645Q16.793701853027343,13.105373,16.840441853027343,13.04841Q16.887191853027343,12.99145,16.939301853027345,12.93934Q16.991411853027344,12.88723,17.048371853027344,12.84048Q17.105331853027344,12.79374,17.166601853027345,12.7528Q17.227881853027345,12.71186,17.292861853027343,12.67712Q17.357851853027345,12.64238,17.425931853027343,12.61418Q17.494021853027345,12.58598,17.564531853027344,12.564589999999999Q17.635051853027342,12.5432,17.707321853027345,12.52882Q17.779601853027344,12.51445,17.852931853027343,12.50722Q17.926271853027345,12.5,17.999961853027344,12.5Q18.073651853027343,12.5,18.146991853027345,12.50722Q18.220321853027343,12.51445,18.292591853027343,12.52882Q18.364871853027346,12.5432,18.435391853027344,12.564589999999999Q18.505901853027343,12.58598,18.573981853027345,12.61418Q18.642071853027343,12.64238,18.707051853027345,12.67712Q18.772041853027343,12.71186,18.833311853027343,12.7528Q18.894591853027343,12.79374,18.951551853027343,12.84048Q19.008511853027343,12.88723,19.060621853027342,12.93934Q19.112731853027345,12.99145,19.159481853027344,13.04841Q19.206221853027344,13.105373,19.247161853027343,13.166645Q19.288101853027342,13.227916,19.32284185302734,13.292905Q19.357581853027344,13.357894,19.385781853027343,13.425975Q19.413981853027344,13.494056,19.435371853027345,13.564573Q19.456761853027345,13.63509,19.471141853027344,13.707365Q19.485511853027344,13.779639,19.492741853027344,13.852974Q19.499961853027344,13.9263097,19.499961853027344,14ZM13.499961853027344,14Q13.499961853027344,14.0736903,13.492741853027344,14.147026Q13.485511853027344,14.220361,13.471141853027344,14.292635Q13.456761853027343,14.36491,13.435371853027345,14.435427Q13.413981853027344,14.505944,13.385781853027344,14.574025Q13.357581853027344,14.642106,13.322841853027343,14.707095Q13.288101853027344,14.772084,13.247161853027343,14.833355Q13.206221853027344,14.894627,13.159481853027344,14.95159Q13.112731853027343,15.00855,13.060621853027344,15.06066Q13.008511853027343,15.11277,12.951551853027343,15.15952Q12.894588853027344,15.20626,12.833316853027343,15.2472Q12.772045853027343,15.28814,12.707056853027344,15.32288Q12.642067853027344,15.35762,12.573986853027344,15.38582Q12.505905853027343,15.41402,12.435388853027344,15.435410000000001Q12.364871853027344,15.4568,12.292596853027344,15.47118Q12.220322853027344,15.48555,12.146987853027344,15.49278Q12.073652153027345,15.5,11.999961853027344,15.5Q11.926271553027343,15.5,11.852935853027343,15.49278Q11.779600853027343,15.48555,11.707326853027343,15.47118Q11.635051853027344,15.4568,11.564534853027343,15.435410000000001Q11.494017853027344,15.41402,11.425936853027343,15.38582Q11.357855853027344,15.35762,11.292866853027343,15.32288Q11.227877853027344,15.28814,11.166606853027345,15.2472Q11.105334853027344,15.20626,11.048371853027344,15.15952Q10.991411853027344,15.11277,10.939301853027343,15.06066Q10.887191853027344,15.00855,10.840441853027343,14.95159Q10.793701853027343,14.894627,10.752761853027344,14.833355Q10.711821853027343,14.772084,10.677081853027344,14.707095Q10.642341853027343,14.642106,10.614141853027343,14.574025Q10.585941853027343,14.505944,10.564551853027343,14.435427Q10.543161853027344,14.36491,10.528781853027343,14.292635Q10.514411853027344,14.220361,10.507181853027344,14.147026Q10.499961853027344,14.0736903,10.499961853027344,14Q10.499961853027344,13.9263097,10.507181853027344,13.852974Q10.514411853027344,13.779639,10.528781853027343,13.707365Q10.543161853027344,13.63509,10.564551853027343,13.564573Q10.585941853027343,13.494056,10.614141853027343,13.425975Q10.642341853027343,13.357894,10.677081853027344,13.292905Q10.711821853027343,13.227916,10.752761853027344,13.166645Q10.793701853027343,13.105373,10.840441853027343,13.04841Q10.887191853027344,12.99145,10.939301853027343,12.93934Q10.991411853027344,12.88723,11.048371853027344,12.84048Q11.105334853027344,12.79374,11.166606853027345,12.7528Q11.227877853027344,12.71186,11.292866853027343,12.67712Q11.357855853027344,12.64238,11.425936853027343,12.61418Q11.494017853027344,12.58598,11.564534853027343,12.564589999999999Q11.635051853027344,12.5432,11.707326853027343,12.52882Q11.779600853027343,12.51445,11.852935853027343,12.50722Q11.926271553027343,12.5,11.999961853027344,12.5Q12.073652153027345,12.5,12.146987853027344,12.50722Q12.220322853027344,12.51445,12.292596853027344,12.52882Q12.364871853027344,12.5432,12.435388853027344,12.564589999999999Q12.505905853027343,12.58598,12.573986853027344,12.61418Q12.642067853027344,12.64238,12.707056853027344,12.67712Q12.772045853027343,12.71186,12.833316853027343,12.7528Q12.894588853027344,12.79374,12.951551853027343,12.84048Q13.008511853027343,12.88723,13.060621853027344,12.93934Q13.112731853027343,12.99145,13.159481853027344,13.04841Q13.206221853027344,13.105373,13.247161853027343,13.166645Q13.288101853027344,13.227916,13.322841853027343,13.292905Q13.357581853027344,13.357894,13.385781853027344,13.425975Q13.413981853027344,13.494056,13.435371853027345,13.564573Q13.456761853027343,13.63509,13.471141853027344,13.707365Q13.485511853027344,13.779639,13.492741853027344,13.852974Q13.499961853027344,13.9263097,13.499961853027344,14Z" fill="#2E2E2E" fill-opacity="1"/></g><g><path d="M24.999961853027344,20.5L11.999961853027344,20.5Q11.926271553027343,20.5,11.852935853027343,20.49278Q11.779600853027343,20.48555,11.707326853027343,20.47118Q11.635051853027344,20.4568,11.564534853027343,20.43541Q11.494017853027344,20.41402,11.425936853027343,20.38582Q11.357855853027344,20.35762,11.292866853027343,20.32288Q11.227877853027344,20.28814,11.166606853027345,20.2472Q11.105334853027344,20.20626,11.048371853027344,20.15952Q10.991411853027344,20.11277,10.939301853027343,20.06066Q10.887191853027344,20.00855,10.840441853027343,19.95159Q10.793701853027343,19.894627,10.752761853027344,19.833355Q10.711821853027343,19.772084,10.677081853027344,19.707095Q10.642341853027343,19.642106,10.614141853027343,19.574025Q10.585941853027343,19.505944,10.564551853027343,19.435427Q10.543161853027344,19.36491,10.528781853027343,19.292635Q10.514411853027344,19.220361,10.507181853027344,19.147026Q10.499961853027344,19.0736903,10.499961853027344,19Q10.499961853027344,18.9263097,10.507181853027344,18.852974Q10.514411853027344,18.779639,10.528781853027343,18.707365Q10.543161853027344,18.63509,10.564551853027343,18.564573Q10.585941853027343,18.494056,10.614141853027343,18.425975Q10.642341853027343,18.357894,10.677081853027344,18.292905Q10.711821853027343,18.227916,10.752761853027344,18.166645Q10.793701853027343,18.105373,10.840441853027343,18.04841Q10.887191853027344,17.99145,10.939301853027343,17.93934Q10.991411853027344,17.88723,11.048371853027344,17.84048Q11.105334853027344,17.79374,11.166606853027345,17.7528Q11.227877853027344,17.71186,11.292866853027343,17.67712Q11.357855853027344,17.64238,11.425936853027343,17.61418Q11.494017853027344,17.58598,11.564534853027343,17.56459Q11.635051853027344,17.5432,11.707326853027343,17.52882Q11.779600853027343,17.51445,11.852935853027343,17.50722Q11.926271553027343,17.5,11.999961853027344,17.5L24.999961853027344,17.5Q25.073661853027346,17.5,25.146961853027342,17.50722Q25.22036185302734,17.51445,25.292561853027344,17.52882Q25.364861853027342,17.5432,25.435361853027345,17.56459Q25.505861853027344,17.58598,25.573961853027342,17.61418Q25.642061853027343,17.64238,25.707061853027344,17.67712Q25.772061853027346,17.71186,25.83336185302734,17.7528Q25.894561853027344,17.79374,25.951561853027343,17.84048Q26.008561853027345,17.88723,26.060661853027344,17.93934Q26.112761853027344,17.99145,26.159461853027345,18.04841Q26.206261853027343,18.105373,26.247161853027343,18.166645Q26.288061853027344,18.227916,26.322861853027344,18.292905Q26.35756185302734,18.357894,26.385761853027343,18.425975Q26.413961853027345,18.494056,26.435361853027345,18.564573Q26.456761853027345,18.63509,26.471161853027343,18.707365Q26.485561853027342,18.779639,26.492761853027346,18.852974Q26.499961853027344,18.9263097,26.499961853027344,19Q26.499961853027344,19.0736903,26.492761853027346,19.147026Q26.485561853027342,19.220361,26.471161853027343,19.292635Q26.456761853027345,19.36491,26.435361853027345,19.435427Q26.413961853027345,19.505944,26.385761853027343,19.574025Q26.35756185302734,19.642106,26.322861853027344,19.707095Q26.288061853027344,19.772084,26.247161853027343,19.833355Q26.206261853027343,19.894627,26.159461853027345,19.95159Q26.112761853027344,20.00855,26.060661853027344,20.06066Q26.008561853027345,20.11277,25.951561853027343,20.15952Q25.894561853027344,20.20626,25.83336185302734,20.2472Q25.772061853027346,20.28814,25.707061853027344,20.32288Q25.642061853027343,20.35762,25.573961853027342,20.38582Q25.505861853027344,20.41402,25.435361853027345,20.43541Q25.364861853027342,20.4568,25.292561853027344,20.47118Q25.22036185302734,20.48555,25.146961853027342,20.49278Q25.073661853027346,20.5,24.999961853027344,20.5ZM26.499961853027344,19Q26.499961853027344,19.0736903,26.492761853027346,19.147026Q26.485561853027342,19.220361,26.471161853027343,19.292635Q26.456761853027345,19.36491,26.435361853027345,19.435427Q26.413961853027345,19.505944,26.385761853027343,19.574025Q26.35756185302734,19.642106,26.322861853027344,19.707095Q26.288061853027344,19.772084,26.247161853027343,19.833355Q26.206261853027343,19.894627,26.159461853027345,19.95159Q26.112761853027344,20.00855,26.060661853027344,20.06066Q26.008561853027345,20.11277,25.951561853027343,20.15952Q25.894561853027344,20.20626,25.83336185302734,20.2472Q25.772061853027346,20.28814,25.707061853027344,20.32288Q25.642061853027343,20.35762,25.573961853027342,20.38582Q25.505861853027344,20.41402,25.435361853027345,20.43541Q25.364861853027342,20.4568,25.292561853027344,20.47118Q25.22036185302734,20.48555,25.146961853027342,20.49278Q25.073661853027346,20.5,24.999961853027344,20.5Q24.92626185302734,20.5,24.852961853027345,20.49278Q24.779561853027346,20.48555,24.707361853027344,20.47118Q24.635061853027345,20.4568,24.564561853027342,20.43541Q24.494061853027343,20.41402,24.425961853027346,20.38582Q24.357861853027345,20.35762,24.292861853027343,20.32288Q24.227861853027342,20.28814,24.166561853027346,20.2472Q24.105361853027343,20.20626,24.048361853027345,20.15952Q23.991361853027342,20.11277,23.939261853027343,20.06066Q23.887161853027344,20.00855,23.840461853027342,19.95159Q23.793661853027345,19.894627,23.752761853027344,19.833355Q23.711861853027344,19.772084,23.677061853027343,19.707095Q23.642361853027346,19.642106,23.614161853027344,19.574025Q23.585961853027342,19.505944,23.564561853027342,19.435427Q23.543161853027343,19.36491,23.528761853027344,19.292635Q23.514361853027346,19.220361,23.50716185302734,19.147026Q23.499961853027344,19.0736903,23.499961853027344,19Q23.499961853027344,18.9263097,23.50716185302734,18.852974Q23.514361853027346,18.779639,23.528761853027344,18.707365Q23.543161853027343,18.63509,23.564561853027342,18.564573Q23.585961853027342,18.494056,23.614161853027344,18.425975Q23.642361853027346,18.357894,23.677061853027343,18.292905Q23.711861853027344,18.227916,23.752761853027344,18.166645Q23.793661853027345,18.105373,23.840461853027342,18.04841Q23.887161853027344,17.99145,23.939261853027343,17.93934Q23.991361853027342,17.88723,24.048361853027345,17.84048Q24.105361853027343,17.79374,24.166561853027346,17.7528Q24.227861853027342,17.71186,24.292861853027343,17.67712Q24.357861853027345,17.64238,24.425961853027346,17.61418Q24.494061853027343,17.58598,24.564561853027342,17.56459Q24.635061853027345,17.5432,24.707361853027344,17.52882Q24.779561853027346,17.51445,24.852961853027345,17.50722Q24.92626185302734,17.5,24.999961853027344,17.5Q25.073661853027346,17.5,25.146961853027342,17.50722Q25.22036185302734,17.51445,25.292561853027344,17.52882Q25.364861853027342,17.5432,25.435361853027345,17.56459Q25.505861853027344,17.58598,25.573961853027342,17.61418Q25.642061853027343,17.64238,25.707061853027344,17.67712Q25.772061853027346,17.71186,25.83336185302734,17.7528Q25.894561853027344,17.79374,25.951561853027343,17.84048Q26.008561853027345,17.88723,26.060661853027344,17.93934Q26.112761853027344,17.99145,26.159461853027345,18.04841Q26.206261853027343,18.105373,26.247161853027343,18.166645Q26.288061853027344,18.227916,26.322861853027344,18.292905Q26.35756185302734,18.357894,26.385761853027343,18.425975Q26.413961853027345,18.494056,26.435361853027345,18.564573Q26.456761853027345,18.63509,26.471161853027343,18.707365Q26.485561853027342,18.779639,26.492761853027346,18.852974Q26.499961853027344,18.9263097,26.499961853027344,19ZM13.499961853027344,19Q13.499961853027344,19.0736903,13.492741853027344,19.147026Q13.485511853027344,19.220361,13.471141853027344,19.292635Q13.456761853027343,19.36491,13.435371853027345,19.435427Q13.413981853027344,19.505944,13.385781853027344,19.574025Q13.357581853027344,19.642106,13.322841853027343,19.707095Q13.288101853027344,19.772084,13.247161853027343,19.833355Q13.206221853027344,19.894627,13.159481853027344,19.95159Q13.112731853027343,20.00855,13.060621853027344,20.06066Q13.008511853027343,20.11277,12.951551853027343,20.15952Q12.894588853027344,20.20626,12.833316853027343,20.2472Q12.772045853027343,20.28814,12.707056853027344,20.32288Q12.642067853027344,20.35762,12.573986853027344,20.38582Q12.505905853027343,20.41402,12.435388853027344,20.43541Q12.364871853027344,20.4568,12.292596853027344,20.47118Q12.220322853027344,20.48555,12.146987853027344,20.49278Q12.073652153027345,20.5,11.999961853027344,20.5Q11.926271553027343,20.5,11.852935853027343,20.49278Q11.779600853027343,20.48555,11.707326853027343,20.47118Q11.635051853027344,20.4568,11.564534853027343,20.43541Q11.494017853027344,20.41402,11.425936853027343,20.38582Q11.357855853027344,20.35762,11.292866853027343,20.32288Q11.227877853027344,20.28814,11.166606853027345,20.2472Q11.105334853027344,20.20626,11.048371853027344,20.15952Q10.991411853027344,20.11277,10.939301853027343,20.06066Q10.887191853027344,20.00855,10.840441853027343,19.95159Q10.793701853027343,19.894627,10.752761853027344,19.833355Q10.711821853027343,19.772084,10.677081853027344,19.707095Q10.642341853027343,19.642106,10.614141853027343,19.574025Q10.585941853027343,19.505944,10.564551853027343,19.435427Q10.543161853027344,19.36491,10.528781853027343,19.292635Q10.514411853027344,19.220361,10.507181853027344,19.147026Q10.499961853027344,19.0736903,10.499961853027344,19Q10.499961853027344,18.9263097,10.507181853027344,18.852974Q10.514411853027344,18.779639,10.528781853027343,18.707365Q10.543161853027344,18.63509,10.564551853027343,18.564573Q10.585941853027343,18.494056,10.614141853027343,18.425975Q10.642341853027343,18.357894,10.677081853027344,18.292905Q10.711821853027343,18.227916,10.752761853027344,18.166645Q10.793701853027343,18.105373,10.840441853027343,18.04841Q10.887191853027344,17.99145,10.939301853027343,17.93934Q10.991411853027344,17.88723,11.048371853027344,17.84048Q11.105334853027344,17.79374,11.166606853027345,17.7528Q11.227877853027344,17.71186,11.292866853027343,17.67712Q11.357855853027344,17.64238,11.425936853027343,17.61418Q11.494017853027344,17.58598,11.564534853027343,17.56459Q11.635051853027344,17.5432,11.707326853027343,17.52882Q11.779600853027343,17.51445,11.852935853027343,17.50722Q11.926271553027343,17.5,11.999961853027344,17.5Q12.073652153027345,17.5,12.146987853027344,17.50722Q12.220322853027344,17.51445,12.292596853027344,17.52882Q12.364871853027344,17.5432,12.435388853027344,17.56459Q12.505905853027343,17.58598,12.573986853027344,17.61418Q12.642067853027344,17.64238,12.707056853027344,17.67712Q12.772045853027343,17.71186,12.833316853027343,17.7528Q12.894588853027344,17.79374,12.951551853027343,17.84048Q13.008511853027343,17.88723,13.060621853027344,17.93934Q13.112731853027343,17.99145,13.159481853027344,18.04841Q13.206221853027344,18.105373,13.247161853027343,18.166645Q13.288101853027344,18.227916,13.322841853027343,18.292905Q13.357581853027344,18.357894,13.385781853027344,18.425975Q13.413981853027344,18.494056,13.435371853027345,18.564573Q13.456761853027343,18.63509,13.471141853027344,18.707365Q13.485511853027344,18.779639,13.492741853027344,18.852974Q13.499961853027344,18.9263097,13.499961853027344,19Z" fill="#2E2E2E" fill-opacity="1"/></g></g></svg>