<svg xmlns="http://www.w3.org/2000/svg" fill="none" viewBox="0 0 34 34" class="design-iconfont">
  <path d="M27.7129 21.9575H26.6824C26.6354 21.9583 26.589 21.9708 26.5481 21.9932L26.0838 20.6105C25.9355 19.8243 25.375 19.4443 24.6869 19.4443H20.3227C19.5323 19.4443 19.0527 19.9536 18.9256 20.6097L18.4599 21.9969C18.4167 21.9715 18.3675 21.9577 18.3173 21.957H17.2871C17.2494 21.9569 17.2121 21.9642 17.1773 21.9784C17.1425 21.9926 17.1109 22.0135 17.0842 22.0398C17.0575 22.0662 17.0364 22.0974 17.0219 22.1319C17.0075 22.1663 17 22.2032 17 22.2405V22.4864C17 22.6427 17.1284 22.7701 17.2871 22.7701L17.6769 22.8363C17.546 23.0925 17.4798 23.3763 17.4839 23.6634L17.3394 25.295C17.3394 25.342 17.3429 25.3902 17.3487 25.4388C17.343 25.4694 17.3398 25.5003 17.3394 25.5314V27.4943C17.3394 27.7738 17.5685 27.9999 17.8513 27.9999H18.6324C18.6996 28 18.7661 27.9871 18.8282 27.9617C18.8903 27.9364 18.9467 27.8992 18.9943 27.8522C19.0419 27.8053 19.0796 27.7495 19.1054 27.6881C19.1312 27.6266 19.1445 27.5608 19.1446 27.4943V26.8639H25.8648V27.4943C25.8648 27.7738 26.0939 27.9999 26.3767 27.9999H27.1583C27.2254 28 27.2919 27.987 27.354 27.9616C27.4161 27.9363 27.4725 27.8991 27.52 27.8521C27.5676 27.8052 27.6053 27.7494 27.6311 27.688C27.6568 27.6266 27.6701 27.5608 27.6702 27.4943V25.5311C27.6702 25.5002 27.6667 25.4692 27.6606 25.4388C27.6665 25.3902 27.6702 25.342 27.6702 25.2947L27.5255 23.6631C27.5255 23.3456 27.455 23.0735 27.3316 22.8349L27.7127 22.7709C27.7504 22.771 27.7877 22.7638 27.8226 22.7496C27.8574 22.7354 27.8891 22.7145 27.9158 22.6881C27.9425 22.6618 27.9637 22.6304 27.9781 22.596C27.9926 22.5615 28 22.5245 28 22.4872V22.2413C27.9996 22.166 27.9692 22.0939 27.9154 22.0407C27.8616 21.9876 27.7887 21.9577 27.7127 21.9575H27.7129ZM19.2695 21.6674L19.6105 20.7705L19.6148 20.7493C19.6487 20.5685 19.7243 20.5357 19.8365 20.396H25.1766C25.2899 20.5399 25.3604 20.5764 25.3911 20.748L25.7379 21.6682L25.865 22.168C25.8362 22.5337 25.3911 22.8225 25.0218 22.8225H19.9857C19.6156 22.8225 19.1705 22.5337 19.1419 22.1678L19.2695 21.6674ZM19.5083 25.9333C19.4047 25.9318 19.3024 25.9098 19.2076 25.8685C19.1128 25.8272 19.0273 25.7674 18.9562 25.6928C18.8851 25.6182 18.8298 25.5302 18.7937 25.4341C18.7575 25.3379 18.7413 25.2356 18.7458 25.1331C18.7503 25.0306 18.7755 24.93 18.82 24.8374C18.8645 24.7447 18.9273 24.6618 19.0047 24.5936C19.0821 24.5254 19.1725 24.4733 19.2706 24.4403C19.3687 24.4074 19.4725 24.3942 19.5758 24.4017C19.7768 24.4162 19.9641 24.5077 20.098 24.6568C20.2319 24.8058 20.3019 25.0007 20.2931 25.2C20.2843 25.3993 20.1974 25.5874 20.0509 25.7243C19.9044 25.8612 19.7097 25.9362 19.5083 25.9333ZM23.8399 25.3682C23.8396 25.4287 23.8152 25.4866 23.772 25.5293C23.7287 25.5719 23.6702 25.5959 23.6091 25.5959H21.4336C21.3726 25.5959 21.3141 25.572 21.2708 25.5294C21.2276 25.4867 21.2032 25.4289 21.2029 25.3685V24.7283C21.2029 24.6024 21.3065 24.5006 21.4336 24.5006H23.6091C23.7362 24.5006 23.8399 24.6024 23.8399 24.728V25.3682ZM25.4992 25.9333C25.3975 25.9335 25.2967 25.9138 25.2027 25.8754C25.1087 25.837 25.0232 25.7807 24.9511 25.7096C24.8791 25.6384 24.8219 25.554 24.7829 25.461C24.7438 25.368 24.7236 25.2683 24.7235 25.1675C24.7236 25.0668 24.7438 24.9671 24.7829 24.8741C24.8219 24.7811 24.8791 24.6966 24.9511 24.6255C25.0232 24.5544 25.1087 24.498 25.2027 24.4596C25.2967 24.4212 25.3975 24.4015 25.4992 24.4017C25.6009 24.4016 25.7016 24.4213 25.7956 24.4597C25.8897 24.4981 25.9751 24.5545 26.0471 24.6256C26.1191 24.6967 26.1763 24.7811 26.2153 24.8741C26.2544 24.9671 26.2745 25.0668 26.2747 25.1675C26.2743 25.3709 26.1924 25.5657 26.047 25.7093C25.9016 25.8529 25.7046 25.9335 25.4992 25.9333Z" fill="#7CA9FF"/>
  <path fill-rule="evenodd" clip-rule="evenodd" d="M23.9426 18.3775C23.9426 18.4376 23.9415 18.4975 23.9392 18.5574H19.637C19.2485 18.5574 18.316 18.6003 17.6944 19.63C17.4081 20.1044 17.3361 20.4816 17.2847 20.7506C17.2246 21.0655 17.1929 21.2319 16.8785 21.2319C16.4165 21.2319 16.0307 21.5843 15.9891 22.0445L15.9665 22.2933C15.9297 22.6998 16.108 23.096 16.4367 23.338L16.49 23.3772L16.323 27.2509C16.0706 27.3964 15.8444 27.522 15.652 27.626C15.2149 27.8628 14.7044 27.8577 14.2708 27.6144C12.174 26.4341 6 22.6021 6 18.3775V10.0172C6 9.21268 6.50818 8.51759 7.22034 8.34897C8.98733 7.92935 12.2859 7.08237 14.4561 6.1247C14.8326 5.95865 15.2522 5.95736 15.6264 6.12727C18.4703 7.41575 21.1639 8.08896 22.678 8.39917C23.4111 8.54977 23.9426 9.25387 23.9426 10.0764V18.3775ZM13.9022 19.9323C14.0518 20.0162 14.2163 20.0556 14.3784 20.0556C14.5368 20.0559 14.6926 20.0184 14.8307 19.9467C14.9687 19.875 15.0844 19.7715 15.1664 19.6463L17.4785 16.1248C17.5632 15.9959 17.6093 15.8485 17.6119 15.6978C17.6145 15.547 17.5736 15.3983 17.4934 15.267C17.4134 15.1355 17.297 15.026 17.1561 14.9498C17.0152 14.8736 16.8549 14.8334 16.6917 14.8333H15.0537L16.0728 12.6925C16.2776 12.2631 16.0659 11.7614 15.6012 11.5722C15.1365 11.383 14.5936 11.5786 14.3888 12.008L12.8014 15.3414C12.7396 15.4707 12.7137 15.6123 12.7262 15.7532C12.7386 15.8941 12.789 16.0298 12.8727 16.1482C13.043 16.3884 13.3328 16.534 13.6434 16.534H15.0571L13.5928 18.7641C13.3294 19.1659 13.4674 19.6888 13.9022 19.9323Z" fill="#2560D2"/>
</svg>
