<svg xmlns="http://www.w3.org/2000/svg" fill="none" viewBox="0 0 34 34" class="design-iconfont">
  <path d="M24.3893 21.5068C24.3893 20.9546 24.837 20.5068 25.3893 20.5068H27.3549C28.1048 20.5068 28.5879 21.3015 28.2427 21.9672L25.8138 26.6515C25.684 26.9017 25.4257 27.0588 25.1439 27.0588V27.0588C24.7271 27.0588 24.3893 26.7209 24.3893 26.3042V21.5068Z" fill="#767D8A"/>
  <path d="M23.6839 10.3032V10.3032C24.622 10.3032 25.3825 11.0637 25.3825 12.0019V25.3484L23.6839 23.4071V10.3032Z" fill="#BCC0CB"/>
  <path fill-rule="evenodd" clip-rule="evenodd" d="M12.0225 7.59473C10.9214 7.59273 10.0258 8.48107 10.0189 9.58212L9.94656 21.0516H14.6615L21.6065 21.224L23.4071 23.4735V9.61178C23.4071 8.50862 22.5139 7.61378 21.4107 7.61178L12.0225 7.59473ZM17.2604 12.1196H15.5784V14.138H13.56V15.82H15.5784V17.8384H17.2604V15.82H19.2788V14.138H17.2604V12.1196Z" fill="#BCC0CB"/>
  <path d="M14.22 7.58594H13.7541C13.7541 7.42513 13.7009 7.27091 13.6062 7.1572C13.5116 7.04349 13.3832 6.97961 13.2493 6.97961C13.1155 6.97961 12.9871 7.04349 12.8924 7.1572C12.7978 7.27091 12.7446 7.42513 12.7446 7.58594H12.2787C12.2787 7.27669 12.381 6.98011 12.563 6.76144C12.745 6.54277 12.9919 6.41992 13.2493 6.41992C13.5068 6.41992 13.7537 6.54277 13.9357 6.76144C14.1177 6.98011 14.22 7.27669 14.22 7.58594ZM13.4388 9.81722C13.3397 9.81722 13.2415 9.79377 13.15 9.7482C13.0584 9.70264 12.9752 9.63585 12.9051 9.55166C12.835 9.46746 12.7794 9.36751 12.7415 9.2575C12.7036 9.1475 12.684 9.0296 12.684 8.91053H13.1499C13.1499 9.00256 13.1804 9.09082 13.2346 9.1559C13.2887 9.22097 13.3622 9.25753 13.4388 9.25753C13.5154 9.25753 13.5889 9.22097 13.6431 9.1559C13.6972 9.09082 13.7277 9.00256 13.7277 8.91053V7.88444H14.1936V8.91053C14.1932 9.15085 14.1135 9.38118 13.9721 9.55111C13.8306 9.72104 13.6389 9.81673 13.4388 9.81722Z" fill="#767D8A"/>
  <path d="M6.18174 22.6235C5.69288 21.9636 6.16399 21.0283 6.9853 21.0283H21.4829C21.7997 21.0283 22.0978 21.1785 22.2864 21.4331L25.6582 25.985C26.1471 26.645 25.676 27.5802 24.8547 27.5802H10.3571C10.0402 27.5802 9.74215 27.4301 9.55355 27.1755L6.18174 22.6235Z" fill="#767D8A"/>
</svg>
