<svg xmlns="http://www.w3.org/2000/svg" fill="none" viewBox="0 0 34 34" class="design-iconfont">
  <path d="M10.4806 9.05615C10.8738 9.05615 11.2114 9.19379 11.4932 9.46908C11.7751 9.74436 11.916 10.0786 11.916 10.4719V23.6069C11.916 24.0002 11.7751 24.3344 11.4932 24.6097C11.2114 24.885 10.8738 25.0226 10.4806 25.0226H8.43559C8.04233 25.0226 7.70478 24.885 7.42294 24.6097C7.1411 24.3344 7.00018 24.0002 7.00018 23.6069V10.4719C7.00018 10.0786 7.1411 9.74436 7.42294 9.46908C7.70478 9.19379 8.04233 9.05615 8.43559 9.05615H10.4806ZM8.51425 13.9719C8.37005 13.9719 8.25207 14.0309 8.16031 14.1489C8.06855 14.2669 8.02267 14.4176 8.02267 14.6012C8.02267 14.7716 8.06855 14.9191 8.16031 15.0436C8.25207 15.1681 8.37005 15.2304 8.51425 15.2304H10.4019C10.5461 15.2304 10.6608 15.1681 10.746 15.0436C10.8312 14.9191 10.8738 14.7716 10.8738 14.6012C10.8738 14.4176 10.8312 14.2669 10.746 14.1489C10.6608 14.0309 10.5461 13.9719 10.4019 13.9719H8.51425ZM10.4806 20.1462C10.6248 20.1462 10.7395 20.0872 10.8247 19.9692C10.9099 19.8512 10.9525 19.707 10.9525 19.5366C10.9525 19.3531 10.9099 19.2056 10.8247 19.0942C10.7395 18.9828 10.6248 18.9271 10.4806 18.9271H8.51425C8.37005 18.9271 8.25207 18.9828 8.16031 19.0942C8.06855 19.2056 8.02267 19.3531 8.02267 19.5366C8.02267 19.707 8.06855 19.8512 8.16031 19.9692C8.25207 20.0872 8.37005 20.1462 8.51425 20.1462H10.4806ZM10.4806 17.7276C10.6248 17.7276 10.7395 17.6686 10.8247 17.5506C10.9099 17.4327 10.9525 17.2819 10.9525 17.0984C10.9525 16.9149 10.9099 16.7641 10.8247 16.6461C10.7395 16.5282 10.6248 16.4692 10.4806 16.4692H8.51425C8.37005 16.4692 8.25207 16.5282 8.16031 16.6461C8.06855 16.7641 8.02267 16.9149 8.02267 17.0984C8.02267 17.2819 8.06855 17.4327 8.16031 17.5506C8.25207 17.6686 8.37005 17.7276 8.51425 17.7276H10.4806Z" fill="#BCC0CB"/>
  <path d="M16.2939 8.97705C16.6872 8.97705 17.0214 9.11469 17.2967 9.38998C17.572 9.66526 17.7097 9.99954 17.7097 10.3928V23.5278C17.7097 23.9211 17.572 24.2553 17.2967 24.5306C17.0214 24.8059 16.6872 24.9435 16.2939 24.9435H14.2489C13.8557 24.9435 13.5214 24.8059 13.2461 24.5306C12.9708 24.2553 12.8332 23.9211 12.8332 23.5278V10.3928C12.8332 9.99954 12.9381 9.66526 13.1478 9.38998C13.3575 9.11469 13.6656 8.97705 14.072 8.97705H16.2939ZM16.2939 18.8873C16.425 18.8873 16.5364 18.825 16.6282 18.7005C16.7199 18.5759 16.7658 18.4285 16.7658 18.2581C16.7658 18.0745 16.7199 17.9238 16.6282 17.8058C16.5364 17.6878 16.425 17.6288 16.2939 17.6288H14.2489C14.1179 17.6288 14.0064 17.6878 13.9147 17.8058C13.8229 17.9238 13.777 18.0745 13.777 18.2581C13.777 18.4285 13.8229 18.5759 13.9147 18.7005C14.0064 18.825 14.1179 18.8873 14.2489 18.8873H16.2939ZM16.2939 16.3901C16.425 16.3901 16.5364 16.3278 16.6282 16.2033C16.7199 16.0787 16.7658 15.9247 16.7658 15.7412C16.7658 15.5577 16.7199 15.4069 16.6282 15.2889C16.5364 15.1709 16.425 15.112 16.2939 15.112H14.2489C14.1179 15.112 14.0064 15.1709 13.9147 15.2889C13.8229 15.4069 13.777 15.5577 13.777 15.7412C13.777 15.9247 13.8229 16.0787 13.9147 16.2033C14.0064 16.3278 14.1179 16.3901 14.2489 16.3901H16.2939Z" fill="#BCC0CB"/>
  <path d="M26.9779 22.8806C27.0435 23.2739 26.9616 23.6278 26.7322 23.9424C26.5028 24.257 26.1914 24.4471 25.7982 24.5127L23.4386 24.8863C23.0584 24.9518 22.7078 24.8699 22.3866 24.6405C22.0654 24.4111 21.8721 24.0997 21.8065 23.7065L19.8009 11.0041C19.7747 10.8074 19.7845 10.6206 19.8304 10.4437C19.8763 10.2667 19.9516 10.1028 20.0565 9.95209C20.1614 9.80134 20.2957 9.6768 20.4596 9.57849C20.6235 9.48017 20.8037 9.41135 21.0003 9.37202L23.3403 8.99842C23.7335 8.93288 24.0875 9.01809 24.4021 9.25404C24.7167 9.49 24.9068 9.80461 24.9723 10.1979L26.9779 22.8806Z" fill="#767D8A"/>
</svg>
