<svg xmlns="http://www.w3.org/2000/svg" fill="none" viewBox="0 0 34 34" class="design-iconfont">
  <path d="M21.2151 28.3067H7.01725C7.01725 27.7745 6.97202 27.2761 7.02856 26.7792C7.1077 26.079 7.6179 25.6146 8.3316 25.5129C8.41075 25.5016 8.47859 25.479 8.56904 25.4677L8.60296 25.287C8.64818 24.5628 9.03259 24.1788 9.75761 24.1788C11.308 24.1676 12.8598 24.1788 14.4116 24.1788H18.4649C19.2676 24.1788 19.5856 24.4725 19.7213 25.2757C19.7326 25.3774 19.8683 25.5016 19.97 25.5242C20.7855 25.7162 21.2264 26.2484 21.2264 27.0743C21.2151 27.4695 21.2151 27.8761 21.2151 28.3067Z" fill="#767D8A"/>
  <path d="M26.8105 23.9514C27.4677 25.0159 26.289 26.2808 25.1923 25.6822C24.8847 25.5118 24.6089 25.2898 24.3769 25.0258C22.2711 22.6287 20.0748 20.3107 17.9125 17.9588C17.8319 17.8684 17.7429 17.7781 17.6298 17.6651C17.3458 17.9136 17.0744 18.162 16.7903 18.4105C16.4398 18.0265 16.1007 17.6524 15.7261 17.2459C15.5226 17.4153 15.3191 17.5847 15.1043 17.7668C13.5864 16.1828 12.0799 14.5876 10.5295 12.9712C12.07 11.568 13.5864 10.1774 15.1368 8.76433C16.6773 10.3694 18.2065 11.9534 19.7455 13.5698L19.0898 14.181C19.4403 14.565 19.7794 14.9504 20.1427 15.3457C19.9165 15.5603 19.6904 15.7636 19.4516 15.9908L19.7681 16.3409C21.9658 18.6928 24.1168 21.08 26.3682 23.3755C26.5392 23.5562 26.6975 23.7482 26.8105 23.9514ZM14.946 19.0105C14.946 19.0895 14.946 19.1573 14.9347 19.2364C14.8216 19.9041 13.5412 20.9106 12.8854 20.809C12.6028 20.7624 12.2848 20.6269 12.0926 20.4236C10.586 18.8848 9.11479 17.3136 7.63084 15.7523C7.07683 15.165 7.09944 14.4973 7.70009 13.9665C8.07319 13.6277 8.38977 13.1971 8.94519 13.0841C9.37483 13.0051 9.74935 13.0841 10.0546 13.4004C11.581 14.997 13.1003 16.5922 14.6054 18.1959C14.7976 18.3992 14.8768 18.7154 15.0138 18.9766C14.9912 18.9766 14.9686 18.9992 14.946 19.0105ZM15.3191 7.49662V7.46274C15.4322 6.60301 16.1346 6.21903 16.7564 5.83505C17.244 5.52871 17.8206 5.7447 18.3082 6.25291C19.7003 7.71261 21.0924 9.1709 22.4859 10.6419C23.2335 11.4212 23.2109 12.0098 22.4067 12.734C22.2258 12.8922 22.0562 13.0616 21.8626 13.2084C21.3312 13.6389 20.6288 13.6037 20.1526 13.1067C18.67 11.5567 17.1875 10.008 15.7261 8.43541C15.5 8.19824 15.3869 7.84814 15.2174 7.55309C15.2526 7.5367 15.2866 7.51783 15.3191 7.49662Z" fill="#BCC0CB"/>
</svg>
