<svg xmlns="http://www.w3.org/2000/svg" fill="none" viewBox="0 0 34 34" class="design-iconfont">
  <path d="M26.1877 10.812H22.9418C22.6429 10.812 22.3562 10.9375 22.1449 11.1608C21.9335 11.3842 21.8148 11.6871 21.8148 12.0029V23.3711C21.8148 23.6869 21.9335 23.9898 22.1449 24.2132C22.3562 24.4365 22.6429 24.562 22.9418 24.562H26.1877C26.4866 24.562 26.7733 24.4365 26.9846 24.2132C27.196 23.9898 27.3148 23.6869 27.3148 23.3711V12.0029C27.3148 11.8465 27.2856 11.6917 27.229 11.5472C27.1723 11.4027 27.0893 11.2714 26.9846 11.1608C26.88 11.0502 26.7557 10.9625 26.619 10.9027C26.4822 10.8428 26.3357 10.812 26.1877 10.812Z" fill="#767D8A"/>
  <path fill-rule="evenodd" clip-rule="evenodd" d="M27.4257 25.4871H22.2076C21.6902 25.4871 21.194 25.2825 20.8281 24.9182C20.4622 24.5538 20.2567 24.0597 20.2567 23.5445V7.61546C20.2567 7.40316 20.2147 7.19294 20.133 6.99681C20.0514 6.80069 19.9317 6.62252 19.7808 6.47249C19.63 6.32246 19.4509 6.2035 19.2539 6.12243C19.0568 6.04135 18.8456 5.99975 18.6324 6H8.99962C8.78657 6 8.57561 6.04179 8.37877 6.12297C8.18194 6.20416 8.0031 6.32315 7.85245 6.47316C7.7018 6.62317 7.5823 6.80126 7.50077 6.99725C7.41924 7.19325 7.37727 7.40332 7.37727 7.61546V24.8047C7.37727 24.9857 7.30507 25.1593 7.17654 25.2873C7.04802 25.4152 6.8737 25.4871 6.69193 25.4871H6.57428C6.23964 25.4871 5.9187 25.6195 5.68207 25.8551C5.44544 26.0908 5.3125 26.4103 5.3125 26.7436C5.3125 27.0768 5.44544 27.3964 5.68207 27.632C5.9187 27.8676 6.23964 28 6.57428 28H27.4257C27.7603 28 28.0813 27.8676 28.3179 27.632C28.5545 27.3964 28.6875 27.0768 28.6875 26.7436C28.6875 26.4103 28.5545 26.0908 28.3179 25.8551C28.0813 25.6195 27.7603 25.4871 27.4257 25.4871ZM17.6898 18.5288C17.6898 18.3057 17.6082 18.0917 17.4631 17.9339C17.3179 17.7761 17.121 17.6875 16.9158 17.6875H10.9013C10.7996 17.6875 10.699 17.7093 10.6051 17.7515C10.5112 17.7938 10.4258 17.8558 10.354 17.9339C10.2821 18.012 10.2251 18.1048 10.1862 18.2069C10.1473 18.3089 10.1273 18.4184 10.1273 18.5288C10.1273 18.752 10.2088 18.966 10.354 19.1238C10.4991 19.2815 10.696 19.3702 10.9013 19.3702H16.9158C17.121 19.3702 17.3179 19.2815 17.4631 19.1238C17.6082 18.966 17.6898 18.752 17.6898 18.5288ZM17.6898 21.1252C17.6894 20.9023 17.6077 20.6887 17.4625 20.5313C17.3174 20.3739 17.1208 20.2854 16.9158 20.2854H10.9013C10.7996 20.2854 10.699 20.3072 10.6051 20.3495C10.5112 20.3918 10.4258 20.4537 10.354 20.5319C10.2821 20.61 10.2251 20.7027 10.1862 20.8048C10.1473 20.9069 10.1273 21.0163 10.1273 21.1268C10.1273 21.2372 10.1473 21.3466 10.1862 21.4487C10.2251 21.5507 10.2821 21.6435 10.354 21.7216C10.4259 21.7996 10.5112 21.8616 10.6051 21.9038C10.699 21.9461 10.7996 21.9678 10.9013 21.9677H16.9158C17.0175 21.9678 17.1183 21.946 17.2123 21.9037C17.3063 21.8613 17.3917 21.7993 17.4636 21.721C17.5355 21.6427 17.5924 21.5498 17.6313 21.4476C17.6701 21.3454 17.69 21.2358 17.6898 21.1252ZM17.6898 23.7212C17.6898 23.6107 17.6697 23.5013 17.6308 23.3993C17.5919 23.2972 17.5349 23.2045 17.463 23.1264C17.3912 23.0483 17.3058 22.9864 17.2119 22.9441C17.118 22.9019 17.0174 22.8802 16.9158 22.8802H10.9013C10.7996 22.8802 10.699 22.9019 10.6051 22.9441C10.5112 22.9864 10.4259 23.0483 10.354 23.1264C10.2821 23.2045 10.2251 23.2972 10.1862 23.3993C10.1473 23.5013 10.1273 23.6107 10.1273 23.7212C10.1273 23.9443 10.2088 24.1583 10.354 24.3161C10.4991 24.4739 10.696 24.5625 10.9013 24.5625H16.9158C17.121 24.5625 17.3179 24.4739 17.4631 24.3161C17.6082 24.1583 17.6898 23.9443 17.6898 23.7212ZM15.18 10.8132H16.7597C16.7914 10.8131 16.8228 10.8194 16.8521 10.8315C16.8814 10.8436 16.9081 10.8614 16.9305 10.8838C16.9529 10.9062 16.9707 10.9329 16.9828 10.9622C16.995 10.9915 17.0012 11.0229 17.0011 11.0546V12.6143C17.0012 12.646 16.995 12.6775 16.9828 12.7068C16.9707 12.7361 16.9529 12.7627 16.9305 12.7852C16.9081 12.8076 16.8814 12.8254 16.8521 12.8375C16.8228 12.8496 16.7914 12.8558 16.7597 12.8558H15.18C15.116 12.8559 15.0546 12.8813 15.0093 12.9266C14.9641 12.9719 14.9386 13.0332 14.9385 13.0972V14.6966C14.9386 14.7283 14.9323 14.7597 14.9202 14.7891C14.9081 14.8184 14.8903 14.845 14.8679 14.8674C14.8455 14.8899 14.8188 14.9077 14.7895 14.9198C14.7602 14.9319 14.7288 14.9381 14.697 14.9381H13.1374C13.1056 14.9381 13.0742 14.9319 13.0449 14.9198C13.0155 14.9077 12.9889 14.8899 12.9664 14.8675C12.9439 14.845 12.9261 14.8184 12.914 14.7891C12.9018 14.7598 12.8955 14.7283 12.8955 14.6966V13.0972C12.8955 13.0332 12.8701 12.9718 12.8248 12.9265C12.7795 12.8812 12.7181 12.8558 12.6541 12.8558H11.0551C11.0234 12.8558 10.992 12.8496 10.9626 12.8375C10.9333 12.8254 10.9067 12.8076 10.8842 12.7852C10.8618 12.7627 10.844 12.7361 10.8319 12.7068C10.8198 12.6775 10.8136 12.646 10.8136 12.6143V11.0546C10.8136 11.0229 10.8198 10.9915 10.8319 10.9622C10.844 10.9329 10.8618 10.9062 10.8842 10.8838C10.9067 10.8614 10.9333 10.8436 10.9626 10.8315C10.992 10.8194 11.0234 10.8131 11.0551 10.8132H12.6541C12.7181 10.8132 12.7795 10.7877 12.8248 10.7425C12.8701 10.6972 12.8955 10.6358 12.8955 10.5717V8.99203C12.8955 8.96029 12.9018 8.92886 12.914 8.89954C12.9261 8.87022 12.9439 8.84358 12.9664 8.82116C12.9889 8.79873 13.0155 8.78095 13.0449 8.76884C13.0742 8.75673 13.1056 8.75052 13.1374 8.75057H14.697C14.7288 8.75052 14.7602 8.75673 14.7895 8.76885C14.8188 8.78096 14.8455 8.79875 14.8679 8.82118C14.8903 8.84361 14.9081 8.87025 14.9202 8.89957C14.9323 8.92888 14.9386 8.96031 14.9385 8.99203V10.5717C14.9386 10.6357 14.9641 10.6971 15.0093 10.7424C15.0546 10.7876 15.116 10.8131 15.18 10.8132Z" fill="#BCC0CB"/>
</svg>
