<svg xmlns="http://www.w3.org/2000/svg" fill="none" viewBox="0 0 34 34" class="design-iconfont">
  <path d="M21.1988 21.2261L12.7724 12.7993L7.74521 17.8289C6.62784 18.9464 6.00012 20.462 6.00012 22.0423C6.00012 23.6226 6.62784 25.1382 7.74521 26.2557C8.86271 27.3731 10.3783 28.0008 11.9586 28.0008C13.5389 28.0008 15.0545 27.3731 16.172 26.2557L21.1988 21.2261Z" fill="#2560D2"/>
  <path d="M12.7993 12.7735L21.226 21.2003L26.2549 16.1714C27.3723 15.0539 28 13.5383 28 11.958C28 10.3777 27.3723 8.86211 26.2549 7.7446C25.1374 6.62723 23.6219 5.99951 22.0416 5.99951C20.4613 5.99951 18.9457 6.62723 17.8282 7.7446L12.7993 12.7735Z" fill="#7CA9FF"/>
  <path d="M16.9986 11.7598C17.1575 11.9186 17.3729 12.0077 17.5975 12.0077C17.8221 12.0077 18.0375 11.9186 18.1963 11.7598L19.3251 10.631C19.4038 10.5524 19.4662 10.459 19.5088 10.3562C19.5514 10.2534 19.5733 10.1433 19.5733 10.032C19.5733 9.92077 19.5514 9.8106 19.5088 9.70782C19.4662 9.60504 19.4038 9.51165 19.3251 9.43301C19.1662 9.27424 18.9507 9.18506 18.7261 9.18506C18.5014 9.18506 18.286 9.27424 18.1271 9.43301L16.9986 10.5618C16.9199 10.6404 16.8575 10.7338 16.8149 10.8366C16.7723 10.9394 16.7504 11.0495 16.7504 11.1608C16.7504 11.2721 16.7723 11.3822 16.8149 11.485C16.8575 11.5878 16.9199 11.6812 16.9986 11.7598ZM15.3158 13.4423C15.3945 13.521 15.4878 13.5834 15.5906 13.626C15.6934 13.6686 15.8036 13.6905 15.9148 13.6905C16.0261 13.6905 16.1362 13.6686 16.239 13.626C16.3418 13.5834 16.4352 13.521 16.5138 13.4423L16.5282 13.428C16.6069 13.3493 16.6693 13.2559 16.7119 13.1531C16.7545 13.0504 16.7764 12.9402 16.7764 12.8289C16.7764 12.7177 16.7545 12.6075 16.7119 12.5047C16.6693 12.402 16.6069 12.3086 16.5282 12.2299C16.4496 12.1512 16.3562 12.0888 16.2535 12.0462C16.1507 12.0036 16.0406 11.9817 15.9293 11.9817C15.8181 11.9817 15.708 12.0036 15.6052 12.0462C15.5025 12.0888 15.4091 12.1512 15.3305 12.2299L15.3158 12.2446C15.2371 12.3232 15.1747 12.4166 15.1321 12.5193C15.0895 12.6221 15.0676 12.7322 15.0676 12.8435C15.0676 12.9547 15.0895 13.0648 15.1321 13.1676C15.1747 13.2703 15.2371 13.3637 15.3158 13.4423Z" fill="#fff"/>
</svg>
