<svg xmlns="http://www.w3.org/2000/svg" fill="none" viewBox="0 0 34 34" class="design-iconfont">
  <path d="M27.8532 12.4223C28.049 12.6182 28.049 12.9358 27.8532 13.1317C27.6573 13.3276 27.3397 13.3276 27.1438 13.1317L26.4521 12.44L22.4087 16.4835C22.3901 16.5021 22.3679 16.5169 22.3436 16.527C22.3193 16.5371 22.2932 16.5422 22.2668 16.5422C22.2405 16.5422 22.2144 16.5371 22.19 16.527C22.1657 16.5169 22.1436 16.5021 22.1249 16.4835L17.9751 12.3337C17.9565 12.315 17.9417 12.2929 17.9316 12.2686C17.9215 12.2442 17.9163 12.2181 17.9163 12.1918C17.9163 12.1654 17.9215 12.1393 17.9316 12.115C17.9417 12.0907 17.9565 12.0685 17.9751 12.0499L22.0185 8.00645L21.3269 7.3148C21.131 7.11893 21.131 6.80131 21.3269 6.6054C21.5228 6.40953 21.8404 6.40953 22.0363 6.6054L27.8531 12.4223L27.8532 12.4223Z" fill="#7CA9FF"/>
  <path d="M25.9967 18.2897C26.2243 18.507 26.2243 18.8593 25.9967 19.0766C25.7691 19.2939 25.4 19.2939 25.1723 19.0766L23.4205 17.4045L15.3064 25.1498C15.2792 25.1758 15.2458 25.1949 15.209 25.2055C15.1723 25.2161 15.1334 25.2179 15.0957 25.2107L10.2375 24.2833L6.99505 27.3784C6.76739 27.5956 6.39829 27.5956 6.17066 27.3784C5.94303 27.1611 5.94303 26.8088 6.17066 26.5915L9.41316 23.4963L8.44153 18.859C8.434 18.823 8.43588 18.7859 8.447 18.7508C8.45813 18.7158 8.47815 18.6838 8.5053 18.6579L16.6195 10.9126L14.8677 9.2404C14.6401 9.02312 14.6401 8.6708 14.8677 8.45349C15.0954 8.23621 15.4645 8.23621 15.6921 8.45349L25.9967 18.2897ZM13.8373 18.5652L11.2405 16.0864L10.4162 16.8733L13.0129 19.352C13.2405 19.5693 13.6096 19.5693 13.8373 19.352C14.0649 19.1347 14.0649 18.7824 13.8373 18.5651V18.5652ZM15.8982 16.5979L13.3014 14.1192L12.4771 14.9061L15.0738 17.3848C15.3015 17.6021 15.6706 17.6021 15.8982 17.3848C16.1258 17.1675 16.1258 16.8152 15.8982 16.5979ZM17.9591 14.6307L15.3623 12.1519L14.538 12.9388L17.1348 15.4175C17.3624 15.6348 17.7315 15.6348 17.9591 15.4175C18.1867 15.2003 18.1867 14.8479 17.9591 14.6307Z" fill="#2560D2"/>
</svg>
