<svg xmlns="http://www.w3.org/2000/svg" fill="none" viewBox="0 0 34 34" class="design-iconfont">
  <rect x="9.58984" y="26.1768" width="1.41172" height="2.82343" rx=".705858" fill="#7CA9FF"/>
  <rect x="22.9995" y="26.1768" width="1.41172" height="2.82343" rx=".705858" fill="#7CA9FF"/>
  <path fill-rule="evenodd" clip-rule="evenodd" d="M8.35324 5C6.69639 5 5.35324 6.34315 5.35324 8V23.8816C5.35324 25.5385 6.69638 26.8816 8.35324 26.8816H25.6466C27.3034 26.8816 28.6466 25.5385 28.6466 23.8816V8C28.6466 6.34315 27.3034 5 25.6466 5H8.35324ZM9.47009 7.11719C8.36552 7.11719 7.47009 8.01262 7.47009 9.11719V17.8226C7.47009 18.9272 8.36552 19.8226 9.47009 19.8226H24.5282C25.6328 19.8226 26.5282 18.9272 26.5282 17.8226V9.11719C26.5282 8.01262 25.6328 7.11719 24.5282 7.11719H9.47009ZM10.2935 23.3618C10.2935 24.1414 9.66148 24.7735 8.88181 24.7735C8.10214 24.7735 7.47009 24.1414 7.47009 23.3618C7.47009 22.5821 8.10214 21.9501 8.88181 21.9501C9.66148 21.9501 10.2935 22.5821 10.2935 23.3618ZM25.1084 24.7824C25.888 24.7824 26.5201 24.1504 26.5201 23.3707C26.5201 22.591 25.888 21.959 25.1084 21.959C24.3287 21.959 23.6967 22.591 23.6967 23.3707C23.6967 24.1504 24.3287 24.7824 25.1084 24.7824ZM13.1163 23.361C13.1163 22.9712 13.4323 22.6551 13.8222 22.6551H15.2339C15.6237 22.6551 15.9397 22.9712 15.9397 23.361C15.9397 23.7508 15.6237 24.0669 15.2339 24.0669H13.8222C13.4323 24.0669 13.1163 23.7508 13.1163 23.361ZM18.7641 22.6551C18.3743 22.6551 18.0583 22.9712 18.0583 23.361C18.0583 23.7508 18.3743 24.0669 18.7641 24.0669H20.1758C20.5657 24.0669 20.8817 23.7508 20.8817 23.361C20.8817 22.9712 20.5657 22.6551 20.1758 22.6551H18.7641Z" fill="#2560D2"/>
  <path d="M10.2952 13.8241H12.7657L14.8833 9.94189L17.0008 17.7063L19.4713 11.3536L20.8831 13.4712H23.7065" stroke="#7CA9FF" stroke-linecap="round" stroke-linejoin="round"/>
</svg>
