<svg xmlns="http://www.w3.org/2000/svg" fill="none" viewBox="0 0 34 34" class="design-iconfont">
  <path fill-rule="evenodd" clip-rule="evenodd" d="M24.1715 18.5673C24.2541 18.205 24.2984 17.8368 24.2984 17.4638V9.10481C24.2984 8.27655 23.7632 7.56755 23.025 7.4159C21.5004 7.10352 18.788 6.42562 15.9242 5.12816C15.5474 4.95706 15.1249 4.95836 14.7458 5.12557C12.5604 6.08992 9.23887 6.9428 7.45956 7.36535C6.74244 7.53515 6.23071 8.23508 6.23071 9.04518V17.4638C6.23071 21.7178 12.4477 25.5765 14.5592 26.7651C14.8829 26.9467 15.2491 26.9965 15.5962 26.913C15.5085 26.5976 15.4617 26.2651 15.4617 25.9218C15.4617 24.3951 16.3882 23.0849 17.7096 22.5227C17.4533 22.0736 17.3068 21.5538 17.3068 20.9997C17.3068 19.3004 18.6844 17.9229 20.3837 17.9229C21.2303 17.9229 21.997 18.2648 22.5533 18.818C22.92 18.6387 23.3322 18.5381 23.768 18.5381C23.905 18.5381 24.0398 18.5481 24.1715 18.5673ZM14.188 19.0292C14.3386 19.1138 14.5042 19.1534 14.6675 19.1534C14.827 19.1537 14.9839 19.116 15.1229 19.0438C15.2619 18.9716 15.3784 18.8674 15.461 18.7413L17.7892 15.1952C17.8745 15.0655 17.9209 14.917 17.9236 14.7652C17.9262 14.6134 17.885 14.4637 17.8043 14.3314C17.7237 14.199 17.6065 14.0888 17.4646 14.012C17.3227 13.9353 17.1613 13.8948 16.9969 13.8947H15.3475L16.3737 11.739C16.5799 11.3066 16.3668 10.8014 15.8988 10.6109C15.4309 10.4204 14.8842 10.6173 14.678 11.0497L13.0795 14.4064C13.0173 14.5366 12.9912 14.6791 13.0038 14.821C13.0163 14.9629 13.067 15.0996 13.1513 15.2188C13.3227 15.4607 13.6146 15.6073 13.9274 15.6073H15.351L13.8764 17.8529C13.6112 18.2575 13.7502 18.7841 14.188 19.0292Z" fill="#BCC0CB"/>
  <path d="M18.2263 20.6645C18.2263 20.9433 18.2812 21.2193 18.3878 21.4768C18.4945 21.7343 18.6508 21.9683 18.8479 22.1654C19.045 22.3625 19.279 22.5189 19.5365 22.6255C19.7941 22.7322 20.0701 22.7871 20.3488 22.7871C20.6275 22.7871 20.9036 22.7322 21.1611 22.6255C21.4186 22.5189 21.6526 22.3625 21.8497 22.1654C22.0468 21.9683 22.2031 21.7343 22.3098 21.4768C22.4165 21.2193 22.4714 20.9433 22.4714 20.6645C22.4714 20.1016 22.2477 19.5617 21.8497 19.1637C21.4516 18.7656 20.9117 18.542 20.3488 18.542C19.7859 18.542 19.246 18.7656 18.8479 19.1637C18.4499 19.5617 18.2263 20.1016 18.2263 20.6645Z" fill="#767D8A"/>
  <path d="M21.3656 22.9073H19.6974C17.7659 22.9073 16.201 24.4722 16.201 26.4036C16.201 26.9866 16.6746 27.4601 17.2575 27.4601H23.6059C24.0639 27.4601 24.4353 27.0887 24.4353 26.6308V25.977C24.4353 24.2823 23.0603 22.9073 21.3656 22.9073ZM22.743 20.6477C22.743 21.209 22.5387 21.7222 22.1997 22.1177C22.1601 22.1633 22.1625 22.2318 22.2045 22.2763C22.4978 22.5804 22.91 22.7691 23.3656 22.7691C24.2622 22.7691 24.9881 22.0395 24.9821 21.1417C24.9761 20.2643 24.2622 19.5468 23.3848 19.5372C23.1372 19.5348 22.9028 19.5865 22.6925 19.6838C22.618 19.7187 22.5807 19.804 22.6084 19.8809C22.6961 20.1189 22.743 20.3773 22.743 20.6477Z" fill="#767D8A"/>
  <path d="M23.6564 23.0322H23.1901C23.0952 23.0322 23.0603 23.1572 23.142 23.2065C24.0711 23.7582 24.6937 24.7714 24.6937 25.9312V26.6055C24.6937 26.787 24.6372 26.9552 24.5398 27.0946C24.4966 27.1559 24.5398 27.2413 24.6156 27.2413H25.7261C26.1492 27.2413 26.4929 26.8975 26.4929 26.4745V25.8711C26.4929 24.3026 25.2225 23.0322 23.6564 23.0322Z" fill="#767D8A"/>
</svg>
