<svg xmlns="http://www.w3.org/2000/svg" fill="none" viewBox="0 0 34 34" class="design-iconfont">
  <path fill-rule="evenodd" clip-rule="evenodd" d="M7.84661 8.11133H25.624C26.6057 8.11133 27.406 8.90096 27.4167 9.88266V17.4852C26.6208 17.0086 25.6897 16.7347 24.6945 16.7347C23.7134 16.7347 22.7945 17.001 22.0061 17.4652L20.6621 15.3567C20.31 14.8125 19.5204 14.8125 19.1682 15.3461L16.1698 19.8811C15.9884 20.1692 15.5829 20.2012 15.3481 19.9665L13.4701 18.0884C13.1073 17.7256 12.5097 17.747 12.1682 18.1311L8.0707 22.8369C7.77192 23.189 8.01734 23.7226 8.47618 23.7226H19.6604C19.9403 24.5609 20.4237 25.306 21.052 25.8994H7.84661C6.86491 25.8994 6.06461 25.0991 6.06461 24.1174V9.89333C6.06461 8.91163 6.86491 8.11133 7.84661 8.11133ZM10.9625 12.561C10.9625 11.718 10.2795 11.0458 9.44722 11.0458C8.6149 11.0458 7.93198 11.718 7.93198 12.561C7.93198 13.404 8.6149 14.0762 9.44722 14.0762C10.2902 14.0762 10.9625 13.3933 10.9625 12.561Z" fill="#BCC0CB"/>
  <g filter="url(#7qmdx8k8w__filter0_b_310_247)">
    <path d="M29.7495 26.4396L28.0331 24.6356C28.5451 23.9264 28.8475 23.0562 28.8475 22.1175C28.8475 19.7341 26.9043 17.7954 24.5155 17.7954C22.1266 17.7954 20.1835 19.7341 20.1835 22.1175C20.1835 24.5009 22.1266 26.4396 24.5155 26.4396C25.3539 26.4396 26.1382 26.1993 26.8019 25.7858L28.5653 27.6344C28.7228 27.7904 28.936 27.8777 29.158 27.8771C29.3748 27.8771 29.5929 27.7942 29.7579 27.6271C30.0832 27.299 30.0808 26.7654 29.7495 26.4396ZM24.5143 24.7582C23.0554 24.7582 21.8688 23.5743 21.8688 22.1187C21.8688 20.6632 23.0554 19.4793 24.5143 19.4793C25.9731 19.4793 27.1597 20.6632 27.1597 22.1187C27.1597 23.5731 25.9731 24.7582 24.5143 24.7582Z" fill="#767D8A"/>
  </g>
  <defs>
    <filter id="7qmdx8k8w__filter0_b_310_247" x="6.1835" y="3.79541" width="37.8164" height="38.0815" filterUnits="userSpaceOnUse" color-interpolation-filters="sRGB">
      <feFlood flood-opacity="0" result="BackgroundImageFix"/>
      <feGaussianBlur in="BackgroundImageFix" stdDeviation="7"/>
      <feComposite in2="SourceAlpha" operator="in" result="effect1_backgroundBlur_310_247"/>
      <feBlend in="SourceGraphic" in2="effect1_backgroundBlur_310_247" result="shape"/>
    </filter>
  </defs>
</svg>
