<svg xmlns="http://www.w3.org/2000/svg" fill="none" viewBox="0 0 34 34" class="design-iconfont">
  <path d="M17.9737 20.1665C18.8941 20.1665 19.6401 20.7326 19.6401 21.4311C19.6401 22.0968 18.9626 22.6419 18.1038 22.6925L17.9737 22.6964H17.1094C16.7909 22.6964 16.5449 22.9144 16.5963 23.1418L16.6157 23.1994L16.6196 23.2072C16.6975 23.3333 16.8376 23.4073 16.9848 23.3987L17.2153 23.3995L17.7059 23.4003C19.2165 23.398 22.1738 23.359 22.7866 23.1005C23.8301 22.6606 25.3126 21.8819 26.0781 22.3436C26.3613 22.5169 26.5945 22.7609 26.7547 23.0518C26.9149 23.3426 26.9965 23.6702 26.9914 24.0022L26.9836 24.1463L27 24.1354C27 24.2148 26.9875 24.2459 26.965 24.242C26.9439 24.3101 26.9058 24.3718 26.8544 24.4211C26.2844 24.9716 21.6794 28.2327 15.0008 26.7314C13.241 26.4355 11.4088 26.0478 10.6231 25.8764C10.5332 25.8662 10.4485 25.829 10.38 25.7698C10.3115 25.7107 10.2625 25.6322 10.2392 25.5447L10.226 25.477V20.5823C10.226 20.3736 10.4285 20.2008 10.6932 20.1712L10.7742 20.1665H17.9737ZM9.0767 20.3308C9.37337 20.3308 9.61553 20.5138 9.61553 20.7396V26.0407C9.61553 26.2666 9.37415 26.4495 9.0767 26.4495H7.53806C7.24061 26.4495 7 26.2666 7 26.0407V20.7396C7 20.5138 7.24139 20.3308 7.53806 20.3308H9.07592H9.0767Z" fill="#7CA9FF"/>
  <path d="M24.4444 6.87695H12.3596C12.0528 6.87695 11.8036 7.14481 11.8036 7.47575V9.09459C11.8036 9.42474 12.0528 9.6926 12.3603 9.6926H24.4444C24.752 9.6926 25.0012 9.42474 25.0012 9.09459V7.47497C25.0012 7.14481 24.752 6.87695 24.4444 6.87695Z" fill="#2560D2"/>
  <path fill-rule="evenodd" clip-rule="evenodd" d="M26.3858 12.333C26.3858 11.2284 25.4903 10.333 24.3858 10.333H12.3219C11.2174 10.333 10.3219 11.2284 10.3219 12.333V18.3373C10.3219 18.8491 11.0054 19.1975 11.5172 19.1997H18.0346C19.5966 19.1997 20.8191 20.2672 20.8191 21.6306C20.8191 21.8573 20.9917 22.0643 21.2175 22.0453C21.4232 22.0279 21.6283 22.0028 21.8321 21.9698C21.8958 21.9596 21.958 21.9412 22.0172 21.9155C22.0636 21.8953 22.1109 21.8745 22.1588 21.8535C22.1987 21.8359 22.2391 21.8181 22.2799 21.8004C23.0741 21.4484 23.9735 21.0505 24.8417 21.0505C25.2591 21.0429 25.6704 21.1513 26.0299 21.3636C26.1781 21.4543 26.3858 21.3546 26.3858 21.1809V12.333ZM19.3872 13.9637H21.3237V15.9376H19.3872V17.8741H17.4133V15.9376H15.4767V13.9637H17.4133V12.0092H19.3872V13.9637Z" fill="#2560D2"/>
</svg>
