<svg xmlns="http://www.w3.org/2000/svg" fill="none" viewBox="0 0 34 34" class="design-iconfont">
  <path d="M24.9254 14.3263C25.2804 14.5296 25.896 14.8026 26.9073 15.0487C27.0489 15.0831 27.2135 15.0235 27.2136 14.8778V14.8778V14.2119C27.2136 14.1075 27.1721 14.0073 27.0982 13.9335C27.0244 13.8596 26.9242 13.8181 26.8198 13.8181H24.8062C24.7213 13.8182 24.6387 13.8457 24.5707 13.8967V13.8967C24.4575 13.9816 24.5347 14.1362 24.664 14.1939C24.7531 14.2338 24.8404 14.2779 24.9254 14.3263ZM18.4155 21.08C17.8541 19.3155 17.8504 17.6968 17.8559 17.3795C17.819 16.5218 18.1374 15.9969 18.4116 15.7046C18.7437 15.3541 19.1045 15.2397 19.2445 15.2067L19.2643 15.202L19.2843 15.1983V15.1983C19.364 15.1828 19.3523 15.0741 19.2711 15.0741H10.6834C10.6068 15.0742 10.5311 15.0573 10.4619 15.0245C10.3927 14.9917 10.3316 14.944 10.2831 14.8847C10.2346 14.8254 10.2 14.756 10.1816 14.6816C10.1633 14.6073 10.1617 14.5297 10.177 14.4547L10.6415 12.181C10.8001 11.4724 11.4377 10.9138 12.1762 10.7789C12.2183 10.7712 12.2611 10.7684 12.3039 10.7684V10.7684C15.1227 10.4342 17.9711 10.4342 20.7899 10.7684H20.7256C21.5678 10.882 22.2378 11.3913 22.3878 12.0202L22.7278 13.4614C22.7975 13.757 23.0904 13.9382 23.394 13.9336V13.9336C23.8384 13.927 24.2644 13.5277 24.1595 13.0958L23.7047 11.2236C23.5247 10.4676 22.7194 9.50159 21.707 9.36505C18.2937 8.9636 14.8452 8.9636 11.432 9.36505C10.5126 9.50159 9.6301 10.5088 9.43452 11.3847L8.809 13.8569C8.7913 13.9269 8.66448 13.9429 8.60575 13.9009V13.9009C8.53908 13.8533 8.4592 13.8277 8.37726 13.8276H6.36186C6.31016 13.8276 6.25896 13.8378 6.2112 13.8576C6.16344 13.8774 6.12004 13.9064 6.08349 13.943C6.04695 13.9795 6.01797 14.023 5.9982 14.0707C5.97844 14.1185 5.96829 14.1697 5.96832 14.2214V14.8875C5.96822 14.9834 6.00315 15.076 6.06654 15.148C6.12994 15.2199 6.21743 15.2662 6.31257 15.2781L6.93967 15.358C7.31339 15.4056 7.49935 16.009 7.47104 16.3847V16.3847L6.97945 19.418C6.97914 19.4199 6.97754 19.4212 6.97565 19.4212V19.4212C6.97353 19.4212 6.97181 19.423 6.97181 19.4251V21.9069C6.97177 21.9824 6.98662 22.0572 7.0155 22.1269C7.04437 22.1967 7.08672 22.2601 7.14011 22.3135C7.1935 22.3669 7.25689 22.4092 7.32665 22.4381C7.39642 22.467 7.47119 22.4818 7.54669 22.4818V22.4818C7.7933 22.4818 7.99321 22.6817 7.99321 22.9283V23.9869C7.99321 24.1624 8.06295 24.3308 8.18707 24.4549C8.3112 24.579 8.47955 24.6487 8.65508 24.6487H10.8429C11.0184 24.6487 11.1866 24.5789 11.3107 24.4548C11.4348 24.3307 11.5045 24.1624 11.5045 23.9869V23.9869C11.5045 23.1556 12.1783 22.4818 13.0096 22.4818H17.4704C18.1652 22.4818 18.6244 21.7427 18.4155 21.08V21.08ZM9.74845 20.7481C9.49916 20.7481 9.25549 20.6741 9.04824 20.5356C8.84099 20.397 8.67947 20.2002 8.58411 19.9698C8.48874 19.7395 8.46382 19.4861 8.51249 19.2416C8.56115 18.9971 8.68122 18.7725 8.85751 18.5963C9.0338 18.42 9.2584 18.3 9.5029 18.2514C9.74741 18.2028 10.0008 18.2277 10.2311 18.3232C10.4614 18.4186 10.6583 18.5801 10.7968 18.7874C10.9353 18.9947 11.0092 19.2384 11.0092 19.4877C11.0092 19.6532 10.9766 19.8171 10.9132 19.9701C10.8499 20.123 10.757 20.262 10.6399 20.379C10.5228 20.4961 10.3839 20.5889 10.2309 20.6523C10.0779 20.7156 9.914 20.7482 9.74845 20.7481Z" fill="#2560D2"/>
  <path d="M27.4522 16.2417C25.9822 15.9554 25.0509 15.5853 24.4647 15.2511C24.1708 15.0834 23.8382 14.9951 23.4998 14.9951C23.1614 14.9951 22.8289 15.0834 22.535 15.2511C21.9487 15.5853 21.0175 15.9554 19.5475 16.2417C19.5475 16.2417 18.9185 16.3898 18.972 17.3693V17.3775C18.9673 17.553 18.8358 23.7273 23.471 24.9325C23.4897 24.9372 23.5094 24.9372 23.5282 24.9325C28.1639 23.7276 28.0321 17.5541 28.0284 17.3785C28.0282 17.3758 28.0282 17.3731 28.0284 17.3704C28.0819 16.3909 27.4522 16.2417 27.4522 16.2417ZM24.9724 19.6633C25.3465 19.6633 25.5335 19.7853 25.5333 20.0292C25.5333 20.2785 25.3463 20.4032 24.9724 20.4032H24.1856C24.1559 20.4032 24.1274 20.415 24.1064 20.436C24.0853 20.457 24.0735 20.4855 24.0735 20.5152V20.8637C24.0735 20.8784 24.0764 20.893 24.082 20.9067C24.0876 20.9203 24.0959 20.9327 24.1063 20.9431C24.1167 20.9535 24.129 20.9618 24.1426 20.9674C24.1562 20.9731 24.1708 20.976 24.1856 20.976H24.9724C25.3465 20.976 25.5335 21.1006 25.5333 21.3498C25.5333 21.5938 25.3463 21.7159 24.9724 21.7159H24.1856C24.1559 21.7159 24.1274 21.7277 24.1064 21.7487C24.0853 21.7697 24.0735 21.7982 24.0735 21.8279V22.034C24.0735 22.5723 23.8945 22.8414 23.5363 22.8414C23.1731 22.8414 22.9915 22.5723 22.9915 22.034V21.8279C22.9915 21.8132 22.9886 21.7986 22.983 21.785C22.9773 21.7714 22.969 21.759 22.9586 21.7486C22.9482 21.7382 22.9358 21.73 22.9222 21.7243C22.9085 21.7187 22.894 21.7159 22.8792 21.7159H22.0964C21.72 21.7159 21.5317 21.5938 21.5315 21.3498C21.5315 21.1008 21.7198 20.9762 22.0964 20.976H22.8792C22.909 20.976 22.9376 20.9642 22.9586 20.9431C22.9797 20.9221 22.9915 20.8935 22.9915 20.8637V20.5152C22.9915 20.5005 22.9886 20.4859 22.983 20.4723C22.9773 20.4587 22.969 20.4463 22.9586 20.4359C22.9482 20.4255 22.9358 20.4173 22.9222 20.4117C22.9085 20.4061 22.894 20.4032 22.8792 20.4032H22.0964C21.72 20.4032 21.5317 20.2785 21.5315 20.0292C21.5315 19.7851 21.7198 19.6631 22.0964 19.6633H22.4074C22.4271 19.6634 22.4465 19.6582 22.4636 19.6484C22.4806 19.6386 22.4948 19.6244 22.5047 19.6074C22.5146 19.5903 22.5197 19.571 22.5197 19.5513C22.5197 19.5316 22.5145 19.5122 22.5047 19.4952L21.6796 18.0654C21.611 17.9631 21.5486 17.8568 21.4927 17.747C21.463 17.6808 21.448 17.6088 21.449 17.5362C21.449 17.3982 21.4907 17.2875 21.5742 17.204C21.6168 17.1622 21.6676 17.1295 21.7234 17.108C21.7791 17.0864 21.8387 17.0765 21.8984 17.0788C22.0337 17.0788 22.1431 17.12 22.2266 17.2022C22.31 17.2844 22.4076 17.417 22.5192 17.6L23.4357 19.1725C23.4457 19.1897 23.4601 19.2039 23.4775 19.2136C23.4948 19.2234 23.5145 19.2284 23.5344 19.2281C23.5543 19.2277 23.5737 19.2221 23.5907 19.2118C23.6078 19.2015 23.6217 19.1869 23.6312 19.1694L24.418 17.7154C24.4606 17.6411 24.5056 17.5635 24.5533 17.4827C24.5949 17.4106 24.6414 17.3415 24.6924 17.2757C24.7388 17.2177 24.7963 17.1697 24.8617 17.1345C24.9358 17.0957 25.0187 17.0766 25.1023 17.0788C25.2348 17.0788 25.3429 17.1193 25.4265 17.2001C25.4669 17.238 25.4989 17.284 25.5204 17.335C25.542 17.386 25.5527 17.441 25.5517 17.4964C25.5529 17.5838 25.5359 17.6705 25.5019 17.751C25.4559 17.8511 25.4031 17.948 25.3438 18.0409L24.5556 19.4973C24.5464 19.5143 24.5417 19.5335 24.5421 19.553C24.5424 19.5724 24.5479 19.5914 24.5578 19.6081C24.5678 19.6248 24.5819 19.6386 24.5988 19.6482C24.6157 19.6578 24.6348 19.6628 24.6542 19.6628L24.9724 19.6633Z" fill="#7CA9FF"/>
</svg>
